<?xml version="1.0" encoding="utf-8"?>
<!-- Generator: Adobe Illustrator 16.0.0, SVG Export Plug-In . SVG Version: 6.00 Build 0)  -->
<!DOCTYPE svg PUBLIC "-//W3C//DTD SVG 1.1//EN" "http://www.w3.org/Graphics/SVG/1.1/DTD/svg11.dtd">
<svg version="1.1" xmlns="http://www.w3.org/2000/svg" xmlns:xlink="http://www.w3.org/1999/xlink" x="0px" y="0px" width="45.25px"
	 height="161.89px" viewBox="0 0 45.25 161.89" enable-background="new 0 0 45.25 161.89" xml:space="preserve">
<g id="圖層_2" display="none">
	<rect x="-1958.896" y="-1822.318" display="inline" fill="#0071BC" width="3593" height="2405"/>
</g>
<g id="圖層_1">
	<g>
		<rect x="3.49" y="152.804" fill="#270F04" width="15.334" height="9.094"/>
		<rect x="26.754" y="152.792" fill="#270F04" width="15.332" height="9.093"/>
		<polygon fill="#EDCDAA" points="6.184,90.821 0.032,90.823 0,33.379 2.536,31.02 6.15,31.018 		"/>
		<polygon fill="#EDCDAA" points="39.127,90.802 45.277,90.798 45.25,33.353 42.709,30.999 39.095,31 		"/>
		<polygon fill="#EDCDAA" points="28.309,27.308 22.662,29.78 16.934,27.313 12.418,20.656 12.414,7.196 16.918,0.534 28.295,0.529 
			32.812,7.187 32.816,20.646 		"/>
		<rect x="8.531" y="86.705" fill="#EDCDAA" width="10.078" height="66.1"/>
		<rect x="26.677" y="86.692" fill="#EDCDAA" width="10.133" height="66.101"/>
		<polygon fill="#EDCDAA" points="28.324,27.308 16.945,27.313 8.482,30.979 8.482,30.979 8.516,86.708 18.619,95.025 26.695,95.02 
			36.79,86.69 36.76,30.965 		"/>
		<polygon fill="#0D1F3B" points="27.887,86.695 17.42,86.7 8.516,86.708 8.523,101.981 8.547,152.808 18.85,152.801 18.84,95.023 
			26.623,95.02 26.676,152.797 36.826,152.789 36.799,101.965 36.79,86.69 		"/>
		<polygon fill="#1B1B1B" points="38.607,27.302 28.313,27.308 22.637,32.83 16.939,27.313 6.638,27.319 8.494,47.521 8.494,47.521 
			8.516,86.717 36.782,86.701 36.762,47.507 		"/>
		<polygon fill="#040000" points="32.812,9.104 32.812,7.187 31.373,2.948 28.264,0 25.477,0.53 17.021,0 13.654,2.626 
			15.047,2.464 12.844,4.276 14.043,4.244 12.065,6.578 13.23,6.027 12.414,7.196 12.414,9.104 17.64,8.566 20.551,6.867 
			19.679,8.36 23.242,5.961 21.947,8.034 25.252,4.987 28.814,7.774 27.945,6.057 31.016,8.36 30.025,6.564 32.313,9.104 		"/>
		<polygon fill="#7E191E" points="6.638,27.319 8.494,47.521 6.184,83.284 0.028,83.29 0,33.379 		"/>
		<polygon fill="#7E191E" points="38.686,27.319 36.826,47.521 39.121,83.284 45.293,83.29 45.318,33.379 		"/>
		<path fill="#FFFFFF" stroke="#040000" stroke-miterlimit="10" d="M21.461,13.25c0,1.02-0.828,1.847-1.849,1.847h-4.47
			c-1.02,0-1.846-0.827-1.846-1.847l0,0c0-1.02,0.826-1.848,1.846-1.848h4.47C20.633,11.402,21.461,12.23,21.461,13.25L21.461,13.25
			z"/>
		<path fill="#FFFFFF" stroke="#040000" stroke-miterlimit="10" d="M32.027,13.25c0,1.02-0.826,1.847-1.846,1.847h-4.473
			c-1.018,0-1.845-0.827-1.845-1.847l0,0c0-1.02,0.827-1.848,1.845-1.848h4.473C31.201,11.402,32.027,12.23,32.027,13.25
			L32.027,13.25z"/>
		<line fill="none" stroke="#040000" stroke-miterlimit="10" x1="21.461" y1="13.25" x2="23.864" y2="13.25"/>
		<polygon fill="#7E191E" points="15.143,27.319 16.934,27.313 15.521,25.236 13.248,25.236 13.248,27.319 6.638,27.319 
			8.516,86.708 22.918,86.69 22.918,39.975 15.145,27.319 		"/>
		<polygon fill="#7E191E" points="32.197,27.319 32.197,25.236 29.711,25.236 28.309,27.308 30.305,27.319 22.529,39.975 
			22.529,86.69 36.79,86.69 38.676,27.319 		"/>
	</g>
	<g>
	</g>
	<g>
	</g>
	<g>
	</g>
	<g>
	</g>
	<g>
	</g>
	<g>
	</g>
	<g>
	</g>
	<g>
	</g>
	<g>
	</g>
	<g>
	</g>
	<g>
	</g>
	<g>
	</g>
	<g>
	</g>
	<g>
	</g>
	<g>
	</g>
</g>
</svg>
