<?xml version="1.0" encoding="utf-8"?>
<!-- Generator: Adobe Illustrator 16.0.0, SVG Export Plug-In . SVG Version: 6.00 Build 0)  -->
<!DOCTYPE svg PUBLIC "-//W3C//DTD SVG 1.1//EN" "http://www.w3.org/Graphics/SVG/1.1/DTD/svg11.dtd">
<svg version="1.1" xmlns="http://www.w3.org/2000/svg" xmlns:xlink="http://www.w3.org/1999/xlink" x="0px" y="0px"
	 width="36.401px" height="132.517px" viewBox="0 0 36.401 132.517" enable-background="new 0 0 36.401 132.517"
	 xml:space="preserve">
<g id="圖層_2" display="none">
	<rect x="-1997.702" y="-1869.62" display="inline" fill="#0071BC" width="3593" height="2405"/>
</g>
<g id="圖層_1">
	<g>
		<rect x="2.79" y="125.208" fill="#3E210D" width="12.334" height="7.315"/>
		<rect x="21.501" y="125.2" fill="#3E210D" width="12.334" height="7.313"/>
		<polygon fill="#7C4E22" points="4.956,75.35 0.007,75.352 -0.019,29.146 2.024,27.248 4.931,27.247 		"/>
		<polygon fill="#7C4E22" points="31.454,75.335 36.401,75.333 36.376,29.125 34.335,27.232 31.429,27.234 		"/>
		<polygon fill="#7C4E22" points="22.753,24.262 13.603,24.267 9.97,18.91 9.968,8.085 13.591,2.727 22.743,2.723 26.374,8.077 
			26.378,18.901 		"/>
		<rect x="6.843" y="72.038" fill="#EDCDAA" width="8.105" height="53.171"/>
		<rect x="21.44" y="72.027" fill="#EDCDAA" width="8.15" height="53.173"/>
		<g>
			<polygon fill="#030000" stroke="#030000" stroke-miterlimit="10" points="16.858,13.555 10.729,14.809 9.476,10.953 
				16.858,12.822 			"/>
			<polygon fill="#030000" stroke="#030000" stroke-miterlimit="10" points="25.614,14.803 19.485,13.553 19.481,12.821 
				26.864,10.943 			"/>
			<line fill="none" stroke="#030000" stroke-miterlimit="10" x1="16.858" y1="12.865" x2="19.481" y2="12.862"/>
		</g>
		<polygon fill="#B34240" points="27.95,5.755 25.45,6.72 27.714,8.715 21.372,7.209 22.591,10.112 17.312,8.128 18.962,10.112 
			14.351,7.761 15.485,10.112 9.968,8.085 10.628,1.294 11.526,2.984 15.433,0.185 14.933,2.033 21.349,0.105 18.632,1.847 
			25.899,0 22.062,2.723 26.974,1.348 25.761,4.331 		"/>
		<polygon fill="#7C4E22" points="22.767,24.262 13.612,24.267 6.808,27.215 6.808,27.216 6.829,72.04 14.96,78.732 21.456,78.729 
			29.573,72.026 29.55,27.202 		"/>
		<polygon fill="#EB7695" points="22.413,73.907 13.993,73.912 6.829,62.661 6.839,84.327 6.856,125.211 15.144,125.206 
			15.136,78.731 21.396,78.729 21.442,125.203 29.604,125.197 29.583,84.314 29.573,62.649 		"/>
		<polygon fill="#9E519A" points="36.376,29.125 31.21,24.259 5.165,24.259 -0.019,29.146 -0.003,54.539 6.231,59.286 6.815,40.522 
			6.829,62.67 13.993,73.912 22.413,73.907 29.571,62.657 29.55,40.512 30.142,59.893 36.376,54.381 		"/>
		<polygon fill="#C995C1" points="9.278,40.742 23.698,28.488 26.72,46.45 21.819,42.008 15.245,61.91 10.046,60.207 16.659,40.318 
					"/>
	</g>
	<g>
	</g>
	<g>
	</g>
	<g>
	</g>
	<g>
	</g>
	<g>
	</g>
	<g>
	</g>
	<g>
	</g>
	<g>
	</g>
	<g>
	</g>
	<g>
	</g>
	<g>
	</g>
	<g>
	</g>
	<g>
	</g>
	<g>
	</g>
	<g>
	</g>
</g>
</svg>
