<?xml version="1.0" encoding="utf-8"?>
<!-- Generator: Adobe Illustrator 16.0.0, SVG Export Plug-In . SVG Version: 6.00 Build 0)  -->
<!DOCTYPE svg PUBLIC "-//W3C//DTD SVG 1.1//EN" "http://www.w3.org/Graphics/SVG/1.1/DTD/svg11.dtd">
<svg version="1.1" xmlns="http://www.w3.org/2000/svg" xmlns:xlink="http://www.w3.org/1999/xlink" x="0px" y="0px"
	 width="45.316px" height="161.373px" viewBox="0 0 45.316 161.373" enable-background="new 0 0 45.316 161.373"
	 xml:space="preserve">
<g id="圖層_2" display="none">
	<rect x="-1950.934" y="-1808.185" display="inline" fill="#0071BC" width="3593" height="2405"/>
</g>
<g id="圖層_1">
	<g>
		<rect x="3.487" y="152.272" fill="#00202A" width="15.336" height="9.097"/>
		<rect x="26.722" y="152.26" fill="#00202A" width="15.33" height="9.098"/>
		<polygon fill="#EDCDAA" points="6.182,90.291 0.029,90.294 0,32.85 2.531,30.489 6.15,30.488 		"/>
		<polygon fill="#EDCDAA" points="39.125,90.273 45.275,90.27 45.246,32.824 42.707,30.47 39.09,30.471 		"/>
		<polygon fill="#EDCDAA" points="28.309,26.777 16.93,26.785 12.418,20.124 12.408,6.667 16.918,0.005 28.295,0 32.809,6.656 
			32.814,20.115 		"/>
		<polygon fill="#EDCDAA" points="18.623,152.271 10.104,152.274 8.514,86.177 18.588,86.17 		"/>
		<polygon fill="#EDCDAA" points="35.27,152.259 26.693,152.264 26.656,86.165 36.787,86.16 		"/>
		<polygon fill="#EDCDAA" points="28.322,26.777 22.609,22.94 16.943,26.785 8.482,30.448 8.479,30.449 8.514,86.177 18.617,94.495 
			26.693,94.491 36.787,86.16 36.756,30.435 		"/>
		<polygon fill="#595757" points="27.883,86.164 17.416,86.17 8.514,86.177 8.52,101.45 8.547,144.502 18.848,144.496 18.84,94.494 
			26.619,94.491 26.678,144.492 36.824,144.484 36.797,101.435 36.787,86.16 		"/>
		<polygon fill="#005372" points="38.609,26.772 28.313,26.777 22.637,35.53 16.938,26.785 6.635,26.79 0,32.85 0.023,82.757 
			6.182,82.757 8.496,51.439 8.514,86.188 36.777,86.172 36.762,52.864 39.121,82.754 45.289,82.757 45.316,32.85 		"/>
		<polygon fill="#161613" points="38.609,26.772 28.309,26.777 32.037,20.115 32.037,16.656 27.078,6.635 22.662,3.525 
			18.676,6.635 13.193,17.114 13.195,20.124 16.93,26.785 6.635,26.79 8.09,24.809 8.027,21.937 9.494,19.607 9.549,16.771 
			10.615,14.652 12.408,6.667 16.918,0.005 28.295,0 32.809,6.656 34.178,13.925 35.576,16.266 35.881,19.997 37.215,21.947 
			37.141,24.712 		"/>
		<g>
			<ellipse fill="#FFFFFF" stroke="#3F220F" stroke-miterlimit="10" cx="17.462" cy="13.665" rx="3.935" ry="2.104"/>
			<ellipse fill="#FFFFFF" stroke="#3F220F" stroke-miterlimit="10" cx="27.591" cy="13.665" rx="3.937" ry="2.104"/>
			<line fill="none" stroke="#3F220F" stroke-miterlimit="10" x1="21.396" y1="13.665" x2="23.877" y2="13.665"/>
		</g>
	</g>
	<g>
	</g>
	<g>
	</g>
	<g>
	</g>
	<g>
	</g>
	<g>
	</g>
	<g>
	</g>
	<g>
	</g>
	<g>
	</g>
	<g>
	</g>
	<g>
	</g>
	<g>
	</g>
	<g>
	</g>
	<g>
	</g>
	<g>
	</g>
	<g>
	</g>
</g>
</svg>
