<?xml version="1.0" encoding="utf-8"?>
<!-- Generator: Adobe Illustrator 16.0.0, SVG Export Plug-In . SVG Version: 6.00 Build 0)  -->
<!DOCTYPE svg PUBLIC "-//W3C//DTD SVG 1.1//EN" "http://www.w3.org/Graphics/SVG/1.1/DTD/svg11.dtd">
<svg version="1.1" xmlns="http://www.w3.org/2000/svg" xmlns:xlink="http://www.w3.org/1999/xlink" x="0px" y="0px"
	 width="30.581px" height="127.006px" viewBox="0 0 30.581 127.006" enable-background="new 0 0 30.581 127.006"
	 xml:space="preserve">
<g id="圖層_2" display="none">
	<rect x="-1952.485" y="-1843.598" display="inline" fill="#0071BC" width="3593" height="2405"/>
</g>
<g id="圖層_1">
	<g>
		<polygon fill="#59391B" points="27.907,24.426 3.05,24.229 4.686,19.296 6.927,5.36 23.333,5.353 25.404,19.296 		"/>
		<polygon fill="#EDCDAA" points="12.364,120.801 12.349,93.771 12.334,66.479 6.394,66.481 6.407,93.775 6.442,127.006 
			8.825,127.006 8.825,125.851 11.21,125.851 11.21,127.003 18.165,127 18.165,125.595 		"/>
		<polygon fill="#EDCDAA" points="30.362,126.991 30.36,125.588 24.575,120.795 24.571,120.795 24.556,94.596 24.543,66.493 
			18.601,66.496 18.617,94.599 18.636,126.998 21.021,126.997 21.019,125.844 23.405,125.842 23.405,126.996 		"/>
		<rect x="0.011" y="25.783" fill="#EDCDAA" width="3.634" height="43.977"/>
		<rect x="26.667" y="25.771" fill="#EDCDAA" width="3.634" height="43.975"/>
		<polygon fill="#EDCDAA" points="26.657,25.943 19.726,21.538 19.716,21.538 23.339,16.179 23.333,5.353 19.704,0 10.554,0.005 
			6.927,5.36 6.933,16.187 10.563,21.543 10.575,21.543 3.627,25.956 3.659,34.33 6.909,51.404 6.29,63.062 11.915,69.753 
			18.411,69.75 24.03,63.052 23.403,51.396 26.659,34.143 		"/>
		<rect x="13.343" y="16.951" fill="#CE5225" width="3.594" height="1.721"/>
		<polygon fill="#59391B" points="19.704,0 10.554,0.005 6.927,5.36 6.439,11.912 6.927,12.741 13.343,7.066 11.544,10.118 
			16.08,5.564 14.386,9.438 18.032,4.253 20.925,9.49 23.337,11.705 23.727,11.721 23.333,5.353 		"/>
		<path fill="none" stroke="#51180F" stroke-linecap="round" stroke-miterlimit="10" d="M26.657,25.771"/>
		<path fill="none" stroke="#51180F" stroke-linecap="round" stroke-miterlimit="10" d="M3.5,62.184"/>
		<polygon fill="#232C52" points="3.925,62.122 3.921,69.596 3.917,74.209 3.921,74.208 6.416,120.804 12.364,120.801 
			13.497,69.659 16.915,69.662 18.63,120.797 24.575,120.795 26.493,69.666 26.497,62.196 26.497,62.196 26.497,62.136 		"/>
		<polygon fill="#EAEAEA" points="23.403,51.396 26.497,62.196 3.925,62.122 6.909,51.404 3.659,34.33 3.633,25.782 6.594,30.14 
			24.038,30.205 26.657,25.771 26.659,34.143 		"/>
		<rect y="25.786" fill="#725F5F" width="3.921" height="38.891"/>
		<rect x="26.659" y="25.786" fill="#725F5F" width="3.922" height="38.891"/>
		<polygon fill="#725F5F" points="5.915,73.22 3.921,73.22 3.299,51.389 2.644,28.446 0,25.786 7.563,23.453 9.199,51.777 		"/>
		<polygon fill="#725F5F" points="26.659,73.22 24.667,73.22 21.548,52.014 22.741,23.453 30.581,25.786 28.323,27.663 
			27.45,51.551 		"/>
		<polygon fill="#ABDBE8" points="12.356,120.801 6.416,120.804 6.421,127.006 8.803,127.006 11.188,127.003 18.145,127 
			18.145,125.595 		"/>
		<polygon fill="#ABDBE8" points="24.571,120.795 18.63,120.797 18.636,126.998 21.019,126.997 23.405,126.996 30.362,126.991 
			30.36,125.588 		"/>
		<polygon fill="#4B342C" points="21.742,47.378 8.944,47.378 8.382,38.904 22.095,38.904 		"/>
		<polygon fill="#4B342C" points="23.677,66.482 6.94,66.531 8.485,56.443 22.203,56.443 		"/>
	</g>
	<g>
	</g>
	<g>
	</g>
	<g>
	</g>
	<g>
	</g>
	<g>
	</g>
	<g>
	</g>
	<g>
	</g>
	<g>
	</g>
	<g>
	</g>
	<g>
	</g>
	<g>
	</g>
	<g>
	</g>
	<g>
	</g>
	<g>
	</g>
	<g>
	</g>
</g>
</svg>
