<?xml version="1.0" encoding="utf-8"?>
<!-- Generator: Adobe Illustrator 16.0.0, SVG Export Plug-In . SVG Version: 6.00 Build 0)  -->
<!DOCTYPE svg PUBLIC "-//W3C//DTD SVG 1.1//EN" "http://www.w3.org/Graphics/SVG/1.1/DTD/svg11.dtd">
<svg version="1.1" xmlns="http://www.w3.org/2000/svg" xmlns:xlink="http://www.w3.org/1999/xlink" x="0px" y="0px"
	 width="30.291px" height="127.006px" viewBox="0 0 30.291 127.006" enable-background="new 0 0 30.291 127.006"
	 xml:space="preserve">
<g id="圖層_2" display="none">
	<rect x="-1957.465" y="-1846.973" display="inline" fill="#0071BC" width="3593" height="2405"/>
</g>
<g id="圖層_1">
	<g>
		<polygon fill="#411C0B" points="26.658,25.943 3.637,25.782 6.932,5.36 23.336,5.353 		"/>
		<polygon fill="#EDCDAA" points="6.412,66.504 6.428,93.639 6.441,120.771 12.379,120.769 12.365,93.635 12.352,66.5 		"/>
		<polygon fill="#EDCDAA" points="18.605,66.497 18.619,93.633 18.635,120.765 24.578,120.762 24.561,93.63 24.543,66.495 		"/>
		<polygon fill="#0D0C0C" points="12.381,120.801 6.441,120.804 6.445,127.006 8.828,127.006 8.828,125.851 11.213,125.851 
			11.213,127.003 18.168,127 18.168,125.595 		"/>
		<polygon fill="#0D0C0C" points="24.578,120.795 18.635,120.797 18.639,126.998 21.021,126.997 21.021,125.844 23.406,125.843 
			23.406,126.996 30.365,126.991 30.365,125.588 		"/>
		<rect x="0.016" y="25.783" fill="#EDCDAA" width="3.633" height="43.977"/>
		<rect x="26.671" y="25.771" fill="#EDCDAA" width="3.633" height="43.975"/>
		<polygon fill="#EDCDAA" points="26.658,25.943 19.727,21.538 19.719,21.538 23.338,16.179 23.336,5.353 19.707,0 10.555,0.005 
			6.932,5.36 6.938,16.187 10.566,21.543 10.578,21.543 3.633,25.956 3.662,34.33 6.914,51.404 6.293,63.062 11.918,69.753 
			18.416,69.75 24.035,63.052 23.402,51.396 26.664,34.143 		"/>
		<rect x="13.341" y="16.951" fill="#D31619" width="3.6" height="1.721"/>
		<polygon fill="#411C0B" points="19.719,0 10.566,0.005 6.941,5.36 3.891,24.227 6.941,12.741 10.533,7.355 15.146,4.102 
			19.797,6.915 23.354,12.741 26.248,24.151 23.348,5.353 		"/>
		<g>
			<polygon fill="none" points="26.658,36.174 26.422,36.174 26.322,37.042 26.658,37.042 			"/>
			<polygon fill="none" points="19.711,24.918 10.611,24.918 10.621,25.786 19.709,25.786 			"/>
			<polygon fill="none" points="12.027,28.668 12.986,29.538 17.379,29.538 18.369,28.668 			"/>
			<polygon fill="none" points="3.66,36.174 3.66,37.042 3.984,37.042 3.881,36.174 			"/>
			<polygon fill="#EAEAEA" points="25.988,39.924 4.32,39.924 4.422,40.797 25.887,40.797 			"/>
			<polygon fill="#EAEAEA" points="25.348,54.936 4.977,54.936 4.809,55.799 25.516,55.799 			"/>
			<rect y="36.174" fill="#EAEAEA" width="3.66" height="0.868"/>
			<polygon fill="#EAEAEA" points="26.086,58.687 4.248,58.687 4.08,59.554 26.256,59.554 			"/>
			<polygon fill="#EAEAEA" points="25.117,47.431 5.199,47.431 5.297,48.297 25.014,48.297 			"/>
			<polygon fill="#EAEAEA" points="24.656,51.396 24.682,51.182 5.637,51.182 5.664,51.404 5.537,52.05 24.781,52.05 			"/>
			<polygon fill="#EAEAEA" points="25.551,43.677 4.76,43.677 4.863,44.547 25.449,44.547 			"/>
			<polygon fill="#EAEAEA" points="12.027,28.668 0,28.668 0,29.538 12.986,29.538 			"/>
			<polygon fill="#EAEAEA" points="10.611,24.918 2.162,24.918 0,25.786 10.621,25.786 			"/>
			<rect x="26.658" y="36.174" fill="#EAEAEA" width="3.633" height="0.868"/>
			<polygon fill="#EAEAEA" points="19.709,25.786 30.291,25.786 30.291,25.771 30.291,25.77 28.164,24.918 19.711,24.918 			"/>
			<polygon fill="#EAEAEA" points="3.881,36.174 3.984,37.042 26.322,37.042 26.422,36.174 			"/>
			<rect y="32.421" fill="#EAEAEA" width="30.291" height="0.869"/>
			<polygon fill="#EAEAEA" points="17.379,29.538 30.291,29.538 30.291,28.668 18.369,28.668 			"/>
			<polygon fill="#EAEAEA" points="29.029,73.696 1.332,73.696 1.16,74.563 29.199,74.563 			"/>
			<polygon fill="#EAEAEA" points="10.566,21.543 9.342,22.034 10.572,22.034 			"/>
			<polygon fill="#EAEAEA" points="28.295,69.941 2.061,69.941 1.891,70.811 28.465,70.811 			"/>
			<polygon fill="#EAEAEA" points="19.719,21.538 19.717,22.034 20.957,22.034 			"/>
			<polygon fill="#EAEAEA" points="27.557,66.188 2.789,66.188 2.623,67.059 27.73,67.059 			"/>
			<polygon fill="#EAEAEA" points="29.768,77.444 0.602,77.444 0.434,78.313 29.938,78.313 			"/>
			<polygon fill="#EAEAEA" points="30.328,80.313 30.291,80.123 30.291,80.313 			"/>
			<polygon fill="#EAEAEA" points="26.82,62.437 3.518,62.437 3.352,63.308 26.992,63.308 			"/>
			<polygon fill="#0D0C0C" points="19.707,27.495 18.369,28.668 30.291,28.668 30.291,25.786 19.709,25.786 			"/>
			<polygon fill="#0D0C0C" points="10.643,27.419 10.621,25.786 0,25.786 0,28.668 12.027,28.668 			"/>
			<polygon fill="#0D0C0C" points="28.164,24.918 20.957,22.034 19.717,22.034 19.711,24.918 			"/>
			<polygon fill="#0D0C0C" points="10.572,22.034 9.342,22.034 2.162,24.918 10.611,24.918 			"/>
			<polygon fill="#0D0C0C" points="30.291,29.538 17.379,29.538 15.148,31.489 12.986,29.538 0,29.538 0,32.421 30.291,32.421 			
				"/>
			<polygon fill="#0D0C0C" points="3.66,34.282 3.881,36.174 26.422,36.174 26.658,34.164 26.658,36.174 30.291,36.174 
				30.291,33.29 0,33.29 0,36.174 3.66,36.174 			"/>
			<polygon fill="#0D0C0C" points="26.322,37.042 3.984,37.042 4.32,39.924 25.988,39.924 			"/>
			<rect x="26.658" y="37.042" fill="#0D0C0C" width="3.633" height="1.086"/>
			<rect y="37.042" fill="#0D0C0C" width="3.66" height="1.086"/>
			<polygon fill="#0D0C0C" points="25.887,40.797 4.422,40.797 4.76,43.677 25.551,43.677 			"/>
			<polygon fill="#0D0C0C" points="25.449,44.547 4.863,44.547 5.199,47.431 25.117,47.431 			"/>
			<polygon fill="#0D0C0C" points="25.014,48.297 5.297,48.297 5.637,51.182 24.682,51.182 			"/>
			<polygon fill="#0D0C0C" points="24.781,52.05 5.537,52.05 4.977,54.936 25.348,54.936 			"/>
			<polygon fill="#0D0C0C" points="25.516,55.799 4.809,55.799 4.248,58.687 26.086,58.687 			"/>
			<polygon fill="#0D0C0C" points="26.256,59.554 4.08,59.554 3.518,62.437 26.82,62.437 			"/>
			<polygon fill="#0D0C0C" points="26.992,63.308 3.352,63.308 2.789,66.188 27.557,66.188 			"/>
			<polygon fill="#0D0C0C" points="27.73,67.059 2.623,67.059 2.061,69.941 28.295,69.941 			"/>
			<polygon fill="#0D0C0C" points="28.465,70.811 1.891,70.811 1.332,73.696 29.029,73.696 			"/>
			<polyline fill="#0D0C0C" points="29.199,74.563 1.16,74.563 0.602,77.444 29.768,77.444 			"/>
			<polygon fill="#0D0C0C" points="30.291,80.313 30.291,80.123 29.938,78.313 0.434,78.313 0.043,80.328 			"/>
		</g>
	</g>
	<g>
	</g>
	<g>
	</g>
	<g>
	</g>
	<g>
	</g>
	<g>
	</g>
	<g>
	</g>
	<g>
	</g>
	<g>
	</g>
	<g>
	</g>
	<g>
	</g>
	<g>
	</g>
	<g>
	</g>
	<g>
	</g>
	<g>
	</g>
	<g>
	</g>
</g>
</svg>
