<?xml version="1.0" encoding="utf-8"?>
<!-- Generator: Adobe Illustrator 16.0.0, SVG Export Plug-In . SVG Version: 6.00 Build 0)  -->
<!DOCTYPE svg PUBLIC "-//W3C//DTD SVG 1.1//EN" "http://www.w3.org/Graphics/SVG/1.1/DTD/svg11.dtd">
<svg version="1.1" xmlns="http://www.w3.org/2000/svg" xmlns:xlink="http://www.w3.org/1999/xlink" x="0px" y="0px"
	 width="49.797px" height="162.362px" viewBox="0 0 49.797 162.362" enable-background="new 0 0 49.797 162.362"
	 xml:space="preserve">
<g id="圖層_2" display="none">
	<rect x="-1965.203" y="-1845.417" display="inline" fill="#0071BC" width="3593" height="2405"/>
</g>
<g id="圖層_1">
	<g>
		<polygon fill="#00A29A" points="18.426,162.359 3.088,162.357 3.088,158.781 13.02,153.263 18.426,153.265 		"/>
		<polygon fill="#00A29A" points="46.52,162.362 31.186,162.36 31.186,153.268 36.635,153.268 46.521,158.781 		"/>
		<polygon fill="#00A29A" points="7.574,91.278 4.539,91.277 4.545,33.833 7.078,31.476 12.459,32.008 10.693,43.033 		"/>
		<polygon fill="#00A29A" points="42.088,91.283 45.129,91.283 45.139,33.838 42.604,31.48 37.969,30.921 38.984,43.037 		"/>
		<path fill="#00A29A" d="M30.531,27.778l-5.553,5.022l-5.826-5.023c0,0-3.916-4.739-4.506-6.66c-0.988-3.218-0.988-10.243,0-13.461
			c0.59-1.921,2.732-5.716,4.512-6.655c2.512-1.335,8.865-1.334,11.379,0.002c1.773,0.938,3.92,4.736,4.508,6.656
			c0.988,3.219,0.986,10.243-0.002,13.459C34.457,23.039,30.531,27.778,30.531,27.778z"/>
		<polygon fill="#00A29A" points="18.432,153.265 13.02,153.266 10.695,87.164 21.135,87.168 		"/>
		<polygon fill="#00A29A" points="36.633,153.269 31.162,153.268 28.469,87.168 38.975,87.169 		"/>
		<polygon fill="#00A29A" points="30.547,27.778 19.168,27.777 7.078,31.476 10.701,33.77 10.695,87.164 20.795,95.49 28.871,95.49 
			38.975,87.169 38.98,31.44 42.604,31.48 		"/>
		<path fill="#00A29A" d="M4.389,99.444c-0.045,0.318-0.344,0.542-0.662,0.498l0,0c-0.314-0.047-0.543-0.341-0.496-0.662l1.457-10.3
			c0.045-0.319,0.344-0.544,0.662-0.497l0,0c0.318,0.044,0.543,0.339,0.494,0.659L4.389,99.444z"/>
		<path fill="#00A29A" d="M7.797,99.444c0.045,0.318,0.342,0.542,0.658,0.498l0,0c0.32-0.047,0.543-0.341,0.5-0.662l-1.457-10.3
			c-0.049-0.319-0.342-0.544-0.664-0.497l0,0c-0.316,0.044-0.541,0.339-0.494,0.659L7.797,99.444z"/>
		<path fill="#00A29A" d="M6.264,100.217c-0.016,0.321-0.289,0.569-0.611,0.555l0,0c-0.324-0.017-0.572-0.292-0.555-0.615
			l0.533-10.389c0.016-0.325,0.291-0.572,0.611-0.558l0,0c0.324,0.019,0.568,0.294,0.557,0.616L6.264,100.217z"/>
		<path fill="#00A29A" d="M45.262,99.444c0.041,0.318,0.338,0.542,0.658,0.498l0,0c0.318-0.047,0.539-0.341,0.496-0.662l-1.457-10.3
			c-0.047-0.319-0.34-0.544-0.662-0.497l0,0c-0.318,0.044-0.537,0.339-0.494,0.659L45.262,99.444z"/>
		<path fill="#00A29A" d="M41.85,99.444c-0.045,0.318-0.34,0.542-0.658,0.498l0,0c-0.32-0.047-0.545-0.341-0.496-0.662l1.453-10.3
			c0.049-0.319,0.344-0.544,0.662-0.497l0,0c0.318,0.044,0.541,0.339,0.494,0.659L41.85,99.444z"/>
		<path fill="#00A29A" d="M43.383,100.217c0.016,0.321,0.289,0.569,0.613,0.555l0,0c0.32-0.017,0.572-0.292,0.553-0.615
			l-0.533-10.389c-0.016-0.325-0.291-0.572-0.611-0.558l0,0c-0.322,0.019-0.57,0.294-0.553,0.616L43.383,100.217z"/>
		<path fill="#00A29A" d="M10.838,161.807c0,0.303-0.246,0.553-0.549,0.553H0.553c-0.303,0-0.553-0.25-0.553-0.553l0,0
			c0-0.304,0.25-0.55,0.553-0.55h9.736C10.592,161.257,10.838,161.503,10.838,161.807L10.838,161.807z"/>
		<path fill="#00A29A" d="M10.838,160.56c0,0.304-0.246,0.553-0.549,0.553H0.553C0.25,161.112,0,160.863,0,160.56l0,0
			c0-0.303,0.25-0.55,0.553-0.55h9.736C10.592,160.01,10.838,160.257,10.838,160.56L10.838,160.56z"/>
		<path fill="#00A29A" d="M10.838,159.333c0,0.304-0.246,0.551-0.549,0.551H0.553c-0.303,0-0.553-0.247-0.553-0.551l0,0
			c0-0.305,0.25-0.552,0.553-0.552h9.736C10.592,158.781,10.838,159.028,10.838,159.333L10.838,159.333z"/>
		<path fill="#00A29A" d="M49.711,161.807c0,0.303-0.248,0.553-0.551,0.553h-9.736c-0.307,0-0.553-0.25-0.553-0.553l0,0
			c0-0.304,0.246-0.55,0.553-0.55h9.736C49.463,161.257,49.711,161.503,49.711,161.807L49.711,161.807z"/>
		<path fill="#00A29A" d="M49.711,160.56c0,0.304-0.248,0.553-0.551,0.553h-9.736c-0.307,0-0.555-0.249-0.555-0.553l0,0
			c0-0.303,0.248-0.55,0.555-0.55h9.736C49.463,160.01,49.711,160.257,49.711,160.56L49.711,160.56z"/>
		<path fill="#00A29A" d="M49.711,159.333c0,0.304-0.248,0.551-0.551,0.551h-9.736c-0.307,0-0.553-0.247-0.553-0.551l0,0
			c0-0.305,0.246-0.552,0.553-0.552h9.736C49.463,158.781,49.711,159.028,49.711,159.333L49.711,159.333z"/>
		<path d="M22.057,17.286c0,0-3.176,0.81-4.855-0.693c-1.682-1.506-1.229-4.749-1.229-4.749s3.178-0.812,4.857,0.694
			C22.508,14.04,22.057,17.286,22.057,17.286z"/>
		<path fill="#FFFFFF" d="M19.285,13.48c0,0-0.807,0.205-1.236-0.178c-0.422-0.382-0.309-1.209-0.309-1.209s0.807-0.204,1.236,0.178
			C19.404,12.652,19.285,13.48,19.285,13.48z"/>
		<path d="M27.633,17.286c0,0,3.18,0.81,4.857-0.693c1.682-1.506,1.227-4.749,1.227-4.749s-3.174-0.812-4.854,0.694
			C27.182,14.04,27.633,17.286,27.633,17.286z"/>
		<path fill="#FFFFFF" d="M30.406,13.48c0,0,0.805,0.205,1.234-0.178c0.426-0.382,0.313-1.209,0.313-1.209s-0.811-0.204-1.236,0.178
			C30.291,12.652,30.406,13.48,30.406,13.48z"/>
	</g>
	<g>
	</g>
	<g>
	</g>
	<g>
	</g>
	<g>
	</g>
	<g>
	</g>
	<g>
	</g>
	<g>
	</g>
	<g>
	</g>
	<g>
	</g>
	<g>
	</g>
	<g>
	</g>
	<g>
	</g>
	<g>
	</g>
	<g>
	</g>
	<g>
	</g>
</g>
</svg>
