<?xml version="1.0" encoding="utf-8"?>
<!-- Generator: Adobe Illustrator 16.0.0, SVG Export Plug-In . SVG Version: 6.00 Build 0)  -->
<!DOCTYPE svg PUBLIC "-//W3C//DTD SVG 1.1//EN" "http://www.w3.org/Graphics/SVG/1.1/DTD/svg11.dtd">
<svg version="1.1" xmlns="http://www.w3.org/2000/svg" xmlns:xlink="http://www.w3.org/1999/xlink" x="0px" y="0px" width="36.43px"
	 height="129.783px" viewBox="0 0 36.43 129.783" enable-background="new 0 0 36.43 129.783" xml:space="preserve">
<g id="圖層_2" display="none">
	<rect x="-1958.92" y="-1842.596" display="inline" fill="#0071BC" width="3593" height="2405"/>
</g>
<g id="圖層_1">
	<g>
		<polygon fill="#1D0C05" points="15.119,129.775 2.787,129.783 2.782,126.22 6.854,122.466 15.115,122.461 		"/>
		<polygon fill="#1D0C05" points="33.831,129.765 21.498,129.772 21.494,122.458 29.6,122.453 33.828,126.204 		"/>
		<polygon fill="#E3772E" points="4.951,72.606 0,72.607 -0.023,26.401 2.016,24.503 4.926,24.502 		"/>
		<polygon fill="#E3772E" points="31.447,72.59 36.396,72.588 36.373,26.38 34.33,24.488 31.424,24.49 		"/>
		<rect x="6.839" y="69.293" fill="#EDCDAA" width="8.105" height="53.171"/>
		<rect x="21.434" y="69.283" fill="#EDCDAA" width="8.151" height="53.173"/>
		<polygon fill="#E3772E" points="29.545,24.458 22.76,21.517 22.75,21.514 26.373,16.157 26.367,5.333 22.734,-0.022 
			13.584,-0.018 9.963,5.34 9.965,16.166 13.598,21.522 13.608,21.522 13.608,21.522 6.801,24.47 6.801,24.471 6.825,69.295 
			14.955,75.988 21.449,75.984 29.57,69.282 		"/>
		<polygon fill="#DAAF77" points="22.408,64.283 13.986,64.289 6.801,65.383 6.832,81.583 6.854,122.466 15.138,122.461 
			16.381,75.987 20.141,75.984 21.434,122.458 29.6,122.453 29.576,81.57 29.572,65.383 		"/>
		<polygon fill="#DBDCDC" points="31.031,21.514 22.75,21.517 18.212,39.103 13.602,21.523 5.314,21.527 6.81,37.778 6.81,37.778 
			6.825,64.927 29.563,64.915 29.547,37.767 		"/>
		<polygon fill="#FFFFFF" points="13.598,21.522 12.824,33.009 16.426,32.284 		"/>
		<polygon fill="#FFFFFF" points="22.771,21.522 23.533,33.009 19.969,32.299 		"/>
		<polygon fill="#0F1936" points="5.314,21.527 6.81,37.778 6.81,66.542 0,66.549 -0.023,26.401 		"/>
		<polygon fill="#0F1936" points="31.031,21.514 29.6,37.778 29.6,66.542 36.408,66.549 36.43,26.401 		"/>
		<path fill="none" stroke="#E7A897" stroke-miterlimit="10" d="M14.014,19.191"/>
		<path fill="none" stroke="#E7A897" stroke-miterlimit="10" d="M15.744,16.613"/>
		<rect y="66.55" fill="#EAEAEA" width="5.314" height="1.633"/>
		<rect x="31.031" y="66.55" fill="#EAEAEA" width="5.365" height="1.633"/>
		<polygon fill="#271106" points="29.324,19.85 25.912,21.535 22.76,21.517 23.557,20.323 23.068,15.545 23.686,12.631 
			23.688,6.536 21.602,4.609 18.003,6.535 14.461,4.92 12.532,6.535 12.531,12.526 13.023,15.238 12.643,20.114 13.598,21.522 
			10.068,21.535 6.656,20.159 8.637,19.666 9.057,18.26 8.766,17.086 8.974,15.238 7.861,12.839 10.658,2.105 13.571,0 22.725,0 
			25.666,2.004 28.465,12.759 26.923,15.339 27.396,17.476 27.115,18.675 27.864,19.692 		"/>
		<path fill="#40210F" stroke="#040000" stroke-miterlimit="10" d="M17.232,41.548c-0.293,0-0.533-0.279-0.533-0.622v-4.252
			c0-0.343,0.24-0.62,0.533-0.62h1.516c0.295,0,0.531,0.277,0.531,0.62v4.252c0,0.343-0.236,0.622-0.531,0.622H17.232z"/>
		<path fill="#40210F" stroke="#040000" stroke-miterlimit="10" d="M17.232,49.515c-0.293,0-0.533-0.284-0.533-0.63v-4.321
			c0-0.348,0.24-0.633,0.533-0.633h1.516c0.295,0,0.531,0.285,0.531,0.633v4.321c0,0.346-0.236,0.63-0.531,0.63H17.232z"/>
		<line fill="#40210F" stroke="#040000" stroke-miterlimit="10" x1="17.989" y1="41.754" x2="17.989" y2="43.931"/>
		<rect x="6.844" y="64.927" fill="#6A3906" width="7.825" height="1.996"/>
		<rect x="15.449" y="64.923" fill="#6A3906" width="4.652" height="2"/>
		<rect x="20.647" y="64.927" fill="#6A3906" width="8.911" height="1.996"/>
		<polygon fill="#0F1936" points="11.904,65.383 6.801,65.383 7.732,51.51 6.625,37.786 -0.023,26.401 5.314,21.526 13.598,21.522 
			11.93,46.244 		"/>
		<polygon fill="#0F1936" points="24.412,65.383 29.572,65.383 28.531,51.51 29.898,35.133 36.373,26.38 31.031,21.514 
			22.748,21.517 24.438,46.244 		"/>
		<polygon fill="#0D0C0C" points="13.598,21.522 8.047,27.411 11.092,28.961 7.861,31.028 11.93,46.244 		"/>
		<polygon fill="#0D0C0C" points="22.748,21.517 24.438,46.244 27.762,30.459 24.517,28.695 27.557,27.404 		"/>
	</g>
	<g>
	</g>
	<g>
	</g>
	<g>
	</g>
	<g>
	</g>
	<g>
	</g>
	<g>
	</g>
	<g>
	</g>
	<g>
	</g>
	<g>
	</g>
	<g>
	</g>
	<g>
	</g>
	<g>
	</g>
	<g>
	</g>
	<g>
	</g>
	<g>
	</g>
</g>
</svg>
