<?xml version="1.0" encoding="utf-8"?>
<!-- Generator: Adobe Illustrator 16.0.0, SVG Export Plug-In . SVG Version: 6.00 Build 0)  -->
<!DOCTYPE svg PUBLIC "-//W3C//DTD SVG 1.1//EN" "http://www.w3.org/Graphics/SVG/1.1/DTD/svg11.dtd">
<svg version="1.1" xmlns="http://www.w3.org/2000/svg" xmlns:xlink="http://www.w3.org/1999/xlink" x="0px" y="0px"
	 width="38.021px" height="157.89px" viewBox="0 0 38.021 157.89" enable-background="new 0 0 38.021 157.89" xml:space="preserve">
<g id="圖層_2" display="none">
	<rect x="-1872.218" y="-1763.601" display="inline" fill="#0071BC" width="3593" height="2405"/>
</g>
<g id="圖層_1">
	<g>
		<polygon fill="#604639" points="30.728,30.723 6.915,30.746 4.526,24.568 8.612,6.671 29.01,6.658 33.757,24.795 		"/>
		<polygon fill="#EDCDAA" points="15.372,150.187 15.355,116.582 15.336,82.653 7.95,82.655 7.968,116.586 8.011,157.896 
			10.974,157.896 10.974,156.463 13.938,156.463 13.939,157.894 22.586,157.89 22.586,156.14 		"/>
		<polygon fill="#EDCDAA" points="37.746,157.881 37.746,156.131 30.552,150.18 30.55,150.18 30.529,117.605 30.51,82.668 
			23.13,82.673 23.146,117.608 23.169,157.889 26.135,157.888 26.133,156.454 29.098,156.453 29.098,157.886 		"/>
		<rect x="0.016" y="32.06" fill="#EDCDAA" width="4.518" height="54.67"/>
		<rect x="33.154" y="32.04" fill="#EDCDAA" width="4.519" height="54.671"/>
		<polygon fill="#EDCDAA" points="33.141,32.258 24.524,26.781 24.513,26.781 29.019,20.115 29.01,6.658 24.499,0 13.122,0.008 
			8.612,6.671 8.622,20.124 13.135,26.786 13.148,26.785 4.511,32.273 4.551,42.686 8.593,63.909 7.821,78.399 14.817,85.722 
			22.892,85.718 29.878,78.389 29.096,63.898 33.146,42.446 		"/>
		<rect x="16.587" y="21.075" fill="#E97AAB" width="4.473" height="2.139"/>
		<polygon fill="#604639" points="24.499,0 13.122,0.008 8.612,6.671 4.526,24.568 8.612,15.841 8.618,12.835 22.45,11.153 
			22.708,6.941 23.793,11.314 29.014,11.735 29.017,15.841 33.757,24.795 29.01,6.658 		"/>
		<path fill="none" stroke="#51180F" stroke-linecap="round" stroke-miterlimit="10" d="M33.141,32.041"/>
		<path fill="none" stroke="#51180F" stroke-linecap="round" stroke-miterlimit="10" d="M4.353,77.308"/>
		<polygon fill="#0D2745" points="4.88,77.234 4.876,86.528 4.872,92.259 4.876,92.256 8,147.947 15.372,147.947 16.782,86.604 
			21.032,86.608 23.13,147.947 30.548,147.947 32.938,86.615 32.943,77.326 32.943,77.326 32.943,77.252 		"/>
		<polygon fill="#EAEAEA" points="32.943,77.326 4.88,77.234 4.551,42.686 4.519,32.059 6.915,30.746 30.718,30.746 33.141,32.041 
			33.146,42.446 		"/>
		<polygon fill="#393573" points="29.01,6.658 14.804,9.916 11.501,9.916 3.172,6.658 3.172,5.388 13.122,0.008 24.499,0 		"/>
		<rect y="32.06" fill="#7B6A80" width="4.877" height="52.624"/>
		<rect x="33.146" y="32.06" fill="#7B6A80" width="4.875" height="52.624"/>
		<polygon fill="#7B6A80" points="7.355,91.03 4.878,91.03 3.288,35.367 0,32.06 7.355,30.466 		"/>
		<polygon fill="#7B6A80" points="33.146,91.03 30.668,91.03 30.668,30.686 38.021,32.06 35.213,34.396 		"/>
		<polygon fill="#ABDBE8" points="15.366,150.187 7.979,150.189 7.982,157.896 10.946,157.896 10.946,156.463 13.91,156.463 
			13.911,157.894 22.56,157.89 22.56,156.14 		"/>
		<polygon fill="#ABDBE8" points="30.55,150.18 23.165,150.182 23.169,157.889 26.132,157.888 26.131,156.454 29.098,156.454 
			29.098,157.886 37.746,157.881 37.746,156.131 		"/>
	</g>
	<g>
	</g>
	<g>
	</g>
	<g>
	</g>
	<g>
	</g>
	<g>
	</g>
	<g>
	</g>
	<g>
	</g>
	<g>
	</g>
	<g>
	</g>
	<g>
	</g>
	<g>
	</g>
	<g>
	</g>
	<g>
	</g>
	<g>
	</g>
	<g>
	</g>
</g>
</svg>
