<?xml version="1.0" encoding="utf-8"?>
<!-- Generator: Adobe Illustrator 16.0.0, SVG Export Plug-In . SVG Version: 6.00 Build 0)  -->
<!DOCTYPE svg PUBLIC "-//W3C//DTD SVG 1.1//EN" "http://www.w3.org/Graphics/SVG/1.1/DTD/svg11.dtd">
<svg version="1.1" xmlns="http://www.w3.org/2000/svg" xmlns:xlink="http://www.w3.org/1999/xlink" x="0px" y="0px"
	 width="36.451px" height="130.509px" viewBox="0 0 36.451 130.509" enable-background="new 0 0 36.451 130.509"
	 xml:space="preserve">
<g id="圖層_2" display="none">
	<rect x="-1997.678" y="-1870.461" display="inline" fill="#0071BC" width="3593" height="2405"/>
</g>
<g id="圖層_1">
	<g>
		<rect x="4.602" y="123.189" fill="#221714" width="12.338" height="7.315"/>
		<rect x="19.8" y="123.181" fill="#221714" width="12.332" height="7.313"/>
		<polygon fill="#EDCDAA" points="4.973,73.331 0.023,73.333 0,27.127 2.037,25.229 4.945,25.229 		"/>
		<polygon fill="#EDCDAA" points="31.471,73.316 36.42,73.314 36.396,27.106 34.352,25.214 31.443,25.216 		"/>
		<polygon fill="#EDCDAA" points="22.771,22.243 13.619,22.248 9.988,16.892 9.982,6.066 13.607,0.708 22.758,0.704 26.389,6.059 
			26.393,16.883 		"/>
		<rect x="6.863" y="70.019" fill="#EDCDAA" width="8.104" height="53.171"/>
		<rect x="21.454" y="70.009" fill="#EDCDAA" width="8.154" height="53.173"/>
		<polygon fill="#EDCDAA" points="22.781,22.243 18.188,20.14 13.627,22.248 6.824,25.196 6.824,25.197 6.852,70.021 14.977,76.714 
			21.473,76.71 29.594,70.008 29.566,25.184 		"/>
		<polygon fill="#333332" points="6.852,60.643 6.854,82.309 6.875,123.192 17.035,123.188 17.027,76.713 19.539,76.71 
			19.58,123.185 29.623,123.179 29.6,82.296 29.594,60.631 		"/>
		<polygon fill="#59391B" points="26.389,10.944 26.959,8.018 25.861,3.868 22.758,0.704 20.846,0 13.607,0.708 9.982,3.327 
			10.854,3.868 9.568,7.311 9.982,9.218 12.303,7.702 15.766,9.586 15.422,7.651 18.188,9.775 18.188,7.958 21.215,9.697 
			20.65,8.018 23.088,9.618 22.68,7.702 24.73,9.618 		"/>
		<polygon fill="#8CC9D7" points="36.451,27.127 31.117,22.253 31.111,22.29 31.055,22.24 22.771,22.243 18.207,29.284 
			13.621,22.249 5.336,22.253 0,27.127 0.023,57.268 5.344,57.265 5.896,44.757 6.83,57.264 6.852,60.651 29.586,60.639 
			29.586,57.264 30.207,44.758 30.828,57.265 36.432,57.268 		"/>
		<polygon fill="#7CB8CB" points="13.619,22.248 13.326,31.63 18.207,29.284 		"/>
		<polygon fill="#7CB8CB" points="22.797,22.248 23.088,31.63 18.207,29.284 		"/>
		<polygon fill="#005372" points="20,57.261 18.152,60.024 16.324,57.261 17.578,33.008 16.113,30.292 18.207,29.284 20.346,30.311 
			18.73,33.025 		"/>
		<rect x="23.088" y="36.196" fill="#7CB8CB" width="5.551" height="7.518"/>
		<rect x="6.852" y="60.643" fill="#221714" width="5.922" height="1.387"/>
		<rect x="14.844" y="60.651" fill="#221714" width="6.764" height="1.378"/>
		<rect x="23.283" y="60.651" fill="#221714" width="6.34" height="1.223"/>
	</g>
	<g>
	</g>
	<g>
	</g>
	<g>
	</g>
	<g>
	</g>
	<g>
	</g>
	<g>
	</g>
	<g>
	</g>
	<g>
	</g>
	<g>
	</g>
	<g>
	</g>
	<g>
	</g>
	<g>
	</g>
	<g>
	</g>
	<g>
	</g>
	<g>
	</g>
</g>
</svg>
