<?xml version="1.0" encoding="utf-8"?>
<!-- Generator: Adobe Illustrator 16.0.0, SVG Export Plug-In . SVG Version: 6.00 Build 0)  -->
<!DOCTYPE svg PUBLIC "-//W3C//DTD SVG 1.1//EN" "http://www.w3.org/Graphics/SVG/1.1/DTD/svg11.dtd">
<svg version="1.1" xmlns="http://www.w3.org/2000/svg" xmlns:xlink="http://www.w3.org/1999/xlink" x="0px" y="0px" width="45.27px"
	 height="161.356px" viewBox="0 0 45.27 161.356" enable-background="new 0 0 45.27 161.356" xml:space="preserve">
<g id="圖層_2" display="none">
	<rect x="-1950.03" y="-1826.801" display="inline" fill="#0071BC" width="3593" height="2405"/>
</g>
<g id="圖層_1">
	<g>
		<rect x="3.489" y="152.275" fill="#1B1B1B" width="15.336" height="9.094"/>
		<rect x="26.754" y="152.263" fill="#1B1B1B" width="15.332" height="9.093"/>
		<polygon fill="#EDCDAA" points="6.185,90.292 0.03,90.294 0,32.85 2.534,30.49 6.151,30.488 		"/>
		<polygon fill="#EDCDAA" points="39.128,90.272 45.278,90.269 45.249,32.823 42.708,30.47 39.095,30.471 		"/>
		<polygon fill="#EDCDAA" points="28.31,26.778 22.661,29.251 16.933,26.783 12.417,20.127 12.414,6.667 16.917,0.005 28.294,0 
			32.81,6.657 32.815,20.116 		"/>
		<rect x="8.532" y="86.175" fill="#EDCDAA" width="10.076" height="66.1"/>
		<rect x="26.677" y="86.163" fill="#EDCDAA" width="10.131" height="66.101"/>
		<polygon fill="#EDCDAA" points="28.323,26.778 16.944,26.783 8.481,30.45 8.481,30.45 8.517,86.179 18.618,94.496 26.696,94.49 
			36.788,86.161 36.759,30.436 		"/>
		<polygon fill="#003541" points="27.886,86.166 17.417,86.171 8.517,86.179 8.522,101.452 8.548,152.278 18.849,152.271 
			18.839,94.494 26.624,94.49 26.677,152.268 36.825,152.26 36.796,101.436 36.788,86.161 		"/>
		<polygon fill="#F6C6DB" points="38.608,26.772 28.313,26.778 22.638,35.531 16.938,26.783 6.638,26.79 8.493,46.991 8.493,46.991 
			8.517,86.188 36.78,86.172 36.761,46.978 		"/>
		<polygon fill="#040000" points="32.81,8.574 32.81,6.657 28.294,0 16.917,0.005 12.414,6.667 12.414,8.574 15.921,7.277 
			15.11,8.574 19.296,7.01 18.286,8.38 21.462,6.647 20.683,8.022 23.692,6.499 22.755,7.796 26.101,6.379 25.282,7.666 
			27.944,6.136 27.29,7.896 30.024,6.035 31.599,7.896 31.612,6.89 		"/>
		<polygon fill="#F3B3CE" points="16.933,26.783 16.567,38.446 22.638,35.531 		"/>
		<polygon fill="#F3B3CE" points="28.341,26.783 28.706,38.446 22.638,35.531 		"/>
		<polygon fill="#1B1B1B" points="6.638,26.79 8.493,46.991 8.493,82.754 0.028,82.761 0,32.85 		"/>
		<polygon fill="#1B1B1B" points="38.685,26.79 36.825,46.991 36.825,82.754 45.29,82.761 45.319,32.85 		"/>
		<path fill="#FFFFFF" stroke="#221714" stroke-miterlimit="10" d="M21.462,12.721c0,1.02-0.832,1.847-1.852,1.847h-4.468
			c-1.021,0-1.845-0.827-1.845-1.847l0,0c0-1.02,0.824-1.848,1.845-1.848h4.468C20.63,10.873,21.462,11.701,21.462,12.721
			L21.462,12.721z"/>
		<path fill="#FFFFFF" stroke="#221714" stroke-miterlimit="10" d="M32.026,12.721c0,1.02-0.826,1.847-1.846,1.847H25.71
			c-1.02,0-1.844-0.827-1.844-1.847l0,0c0-1.02,0.824-1.848,1.844-1.848h4.471C31.2,10.873,32.026,11.701,32.026,12.721
			L32.026,12.721z"/>
		<line fill="none" stroke="#221714" stroke-miterlimit="10" x1="21.462" y1="12.721" x2="23.866" y2="12.721"/>
		<polygon fill="#1B1B1B" points="15.143,26.79 16.933,26.783 15.521,24.707 13.247,24.707 13.247,26.79 6.638,26.79 6.638,85.183 
			15.145,85.183 15.145,26.79 		"/>
		<polygon fill="#1B1B1B" points="32.196,26.79 32.196,24.707 29.712,24.707 28.31,26.778 30.304,26.79 30.304,85.183 
			38.675,85.183 38.675,26.79 		"/>
	</g>
	<g>
	</g>
	<g>
	</g>
	<g>
	</g>
	<g>
	</g>
	<g>
	</g>
	<g>
	</g>
	<g>
	</g>
	<g>
	</g>
	<g>
	</g>
	<g>
	</g>
	<g>
	</g>
	<g>
	</g>
	<g>
	</g>
	<g>
	</g>
	<g>
	</g>
</g>
</svg>
