<?xml version="1.0" encoding="utf-8"?>
<!-- Generator: Adobe Illustrator 16.0.0, SVG Export Plug-In . SVG Version: 6.00 Build 0)  -->
<!DOCTYPE svg PUBLIC "-//W3C//DTD SVG 1.1//EN" "http://www.w3.org/Graphics/SVG/1.1/DTD/svg11.dtd">
<svg version="1.1" xmlns="http://www.w3.org/2000/svg" xmlns:xlink="http://www.w3.org/1999/xlink" x="0px" y="0px"
	 width="30.291px" height="133.755px" viewBox="0 0 30.291 133.755" enable-background="new 0 0 30.291 133.755"
	 xml:space="preserve">
<g id="圖層_2" display="none">
	<rect x="-1955.221" y="-1870.156" display="inline" fill="#0071BC" width="3593" height="2405"/>
</g>
<g id="圖層_1">
	<g>
		<polygon fill="#F3E727" points="23.357,12.235 7.002,12.231 3.641,32.53 26.662,32.533 		"/>
		<polygon fill="#D9AB8A" points="6.389,73.251 6.385,95.086 6.383,116.921 12.32,116.924 12.324,95.089 12.328,73.251 		"/>
		<polygon fill="#D9AB8A" points="18.582,73.253 18.576,95.09 18.574,116.925 24.516,116.926 24.52,95.091 24.521,73.254 		"/>
		<polygon fill="#AC1B43" points="12.32,116.924 12.328,104.416 6.383,104.413 6.375,125.705 11.146,125.721 11.146,133.754 
			18.102,133.755 18.102,122.968 		"/>
		<polygon fill="#AC1B43" points="24.516,116.925 24.518,104.416 18.574,104.416 18.574,125.64 23.338,125.725 23.338,133.756 
			30.295,133.759 30.299,122.972 		"/>
		<rect x="0.004" y="32.53" fill="#D9AB8A" width="3.633" height="43.974"/>
		<polygon fill="#D9AB8A" points="26.656,76.509 30.291,76.509 30.299,32.533 25.662,32.533 25.688,36.293 26.662,40.906 		"/>
		<polygon fill="#D9AB8A" points="26.664,32.707 19.738,28.296 19.727,28.296 23.354,22.939 23.357,12.111 19.729,6.757 
			10.58,6.755 6.951,12.108 6.949,22.936 10.576,28.293 10.586,28.293 3.637,32.704 3.66,41.078 6.9,58.152 3.77,69.809 
			11.891,76.505 18.391,76.508 26.516,69.812 23.389,58.154 26.662,40.906 26.662,35.552 		"/>
		<rect x="13.354" y="23.705" fill="#EC8180" width="3.596" height="1.721"/>
		<polygon fill="#E5C41A" points="23.357,15.62 6.951,15.62 6.951,12.108 10.58,6.755 19.729,6.757 23.357,12.111 		"/>
		<polygon fill="#060001" points="10.576,28.293 3.637,32.704 3.633,40.899 6.9,58.152 23.389,58.154 26.662,40.906 		"/>
		<polygon fill="#3D3A39" points="30.283,80.824 0,80.819 6.9,58.152 23.389,58.154 		"/>
		<circle fill="#040000" cx="11.225" cy="17.574" r="3.205"/>
		<path fill="#040000" d="M22.559,17.574c0,1.767-1.436,3.203-3.201,3.203c-1.775,0-3.207-1.437-3.207-3.203
			c0-1.771,1.432-3.206,3.207-3.206C21.123,14.368,22.559,15.803,22.559,17.574z"/>
		<line fill="none" stroke="#060001" stroke-miterlimit="10" x1="14.092" y1="17.574" x2="16.486" y2="17.574"/>
		<polygon fill="#F3E727" points="18.551,3.324 15.148,4.949 11.748,3.323 4.791,-0.001 4.791,6.644 4.791,13.287 11.748,9.964 
			15.146,8.34 18.551,9.965 25.506,13.289 25.506,6.644 25.506,0 		"/>
		<polygon fill="#060001" points="3.641,43.495 0.008,43.495 0.008,32.528 4.895,32.528 		"/>
		<path fill="#F2F3F3" d="M11.084,29.123c0,0.454-0.371,0.828-0.828,0.828l0,0c-0.457,0-0.826-0.374-0.826-0.828l0,0
			c0-0.459,0.369-0.83,0.826-0.83l0,0C10.713,28.293,11.084,28.664,11.084,29.123L11.084,29.123z"/>
		<path fill="#F2F3F3" d="M12.23,30.999c0,0.455-0.371,0.825-0.826,0.825l0,0c-0.459,0-0.828-0.37-0.828-0.825l0,0
			c0-0.458,0.369-0.829,0.828-0.829l0,0C11.859,30.17,12.23,30.541,12.23,30.999L12.23,30.999z"/>
		<path fill="#F2F3F3" d="M13.883,32.835c0,0.457-0.369,0.827-0.826,0.827l0,0c-0.455,0-0.826-0.37-0.826-0.827l0,0
			c0-0.457,0.371-0.828,0.826-0.828l0,0C13.514,32.007,13.883,32.378,13.883,32.835L13.883,32.835z"/>
		<path fill="#F2F3F3" d="M16.531,33.107c0,0.457-0.369,0.826-0.824,0.826l0,0c-0.457,0-0.828-0.369-0.828-0.826l0,0
			c0-0.456,0.371-0.826,0.828-0.826l0,0C16.162,32.281,16.531,32.651,16.531,33.107L16.531,33.107z"/>
		<path fill="#F2F3F3" d="M18.918,32.835c0,0.457-0.373,0.827-0.828,0.827l0,0c-0.455,0-0.826-0.37-0.826-0.827l0,0
			c0-0.457,0.371-0.828,0.826-0.828l0,0C18.545,32.007,18.918,32.378,18.918,32.835L18.918,32.835z"/>
		<path fill="#F2F3F3" d="M19.979,30.774c0,0.459-0.371,0.83-0.83,0.83l0,0c-0.455,0-0.824-0.371-0.824-0.83l0,0
			c0-0.456,0.369-0.823,0.824-0.823l0,0C19.607,29.951,19.979,30.318,19.979,30.774L19.979,30.774z"/>
		<path fill="#F2F3F3" d="M21.039,29.123c0,0.454-0.367,0.828-0.824,0.828l0,0c-0.459,0-0.828-0.374-0.828-0.828l0,0
			c0-0.459,0.369-0.83,0.828-0.83l0,0C20.672,28.293,21.039,28.664,21.039,29.123L21.039,29.123z"/>
	</g>
	<g>
	</g>
	<g>
	</g>
	<g>
	</g>
	<g>
	</g>
	<g>
	</g>
	<g>
	</g>
	<g>
	</g>
	<g>
	</g>
	<g>
	</g>
	<g>
	</g>
	<g>
	</g>
	<g>
	</g>
	<g>
	</g>
	<g>
	</g>
	<g>
	</g>
</g>
</svg>
