<?xml version="1.0" encoding="utf-8"?>
<!-- Generator: Adobe Illustrator 16.0.0, SVG Export Plug-In . SVG Version: 6.00 Build 0)  -->
<!DOCTYPE svg PUBLIC "-//W3C//DTD SVG 1.1//EN" "http://www.w3.org/Graphics/SVG/1.1/DTD/svg11.dtd">
<svg version="1.1" xmlns="http://www.w3.org/2000/svg" xmlns:xlink="http://www.w3.org/1999/xlink" x="0px" y="0px"
	 width="36.398px" height="135.903px" viewBox="0 0 36.398 135.903" enable-background="new 0 0 36.398 135.903"
	 xml:space="preserve">
<g id="圖層_2" display="none">
	<rect x="-1875.836" y="-1780.893" display="inline" fill="#0071BC" width="3593" height="2405"/>
</g>
<g id="圖層_1">
	<g>
		<polygon fill="#221714" points="18.186,1.062 20.26,0 21.945,1.602 24.235,1.166 25.403,3.18 27.721,3.406 28.273,5.667 
			30.436,6.539 30.328,8.865 32.155,10.307 31.396,12.507 32.744,14.409 31.396,16.307 32.155,18.51 30.328,19.954 30.436,22.279 
			28.273,23.151 27.721,25.411 25.403,25.638 24.235,27.649 21.945,27.216 20.26,28.818 18.186,27.757 16.115,28.818 14.427,27.216 
			12.141,27.649 10.971,25.638 8.655,25.411 8.1,23.151 5.941,22.279 6.045,19.954 4.219,18.51 4.975,16.307 3.63,14.409 
			4.975,12.507 4.219,10.307 6.045,8.865 5.941,6.539 8.1,5.667 8.655,3.406 10.971,3.18 12.141,1.166 14.427,1.602 16.115,0 		"/>
		<polygon fill="#003541" points="15.121,135.907 2.789,135.914 2.783,132.352 6.855,128.598 15.117,128.594 		"/>
		<polygon fill="#003541" points="33.832,135.896 21.5,135.903 21.496,128.59 29.6,128.586 33.83,132.335 		"/>
		<polygon fill="#E3772E" points="4.953,78.738 0.004,78.74 -0.02,32.532 2.018,30.639 4.926,30.636 		"/>
		<polygon fill="#E3772E" points="31.449,78.724 36.398,78.722 36.375,32.515 34.332,30.621 31.424,30.622 		"/>
		<rect x="6.84" y="75.429" fill="#EDCDAA" width="8.107" height="53.167"/>
		<rect x="21.436" y="75.42" fill="#EDCDAA" width="8.148" height="53.168"/>
		<polygon fill="#E3772E" points="29.547,30.592 22.762,27.648 22.752,27.646 26.376,22.292 26.368,11.464 22.74,12.99 
			13.587,12.995 9.965,11.473 9.969,22.299 13.599,27.653 13.61,27.653 13.61,27.653 6.803,30.604 6.803,30.604 7.732,57.643 
			6.827,75.431 14.957,82.122 21.451,82.118 29.573,75.416 28.532,57.643 		"/>
		<polygon fill="#B28146" points="22.408,70.415 13.989,70.421 6.803,71.514 6.832,87.716 6.855,128.598 15.141,128.594 
			16.383,82.122 20.142,82.118 21.438,128.59 29.6,128.586 29.579,87.701 29.574,71.514 		"/>
		<polygon fill="#B4B4B5" points="31.034,27.646 22.754,27.648 13.603,27.653 5.316,27.659 6.811,43.909 6.811,43.909 7.695,57.165 
			6.827,71.062 29.565,71.05 28.532,57.643 29.549,43.896 		"/>
		<polygon fill="#0F341A" points="5.316,27.659 6.811,43.909 6.811,72.674 0,72.68 -0.02,32.532 		"/>
		<polygon fill="#0F341A" points="31.034,27.646 29.6,43.909 29.6,72.674 36.41,72.68 36.432,32.532 		"/>
		<path fill="none" stroke="#E7A897" stroke-miterlimit="10" d="M14.017,25.323"/>
		<path fill="none" stroke="#E7A897" stroke-miterlimit="10" d="M15.748,22.745"/>
		<rect y="72.68" fill="#EAEAEA" width="5.316" height="1.635"/>
		<rect x="31.034" y="72.68" fill="#EAEAEA" width="5.364" height="1.635"/>
		<rect x="6.846" y="71.062" fill="#6A3906" width="7.824" height="1.996"/>
		<rect x="15.451" y="71.059" fill="#6A3906" width="4.65" height="1.999"/>
		<rect x="20.65" y="71.062" fill="#6A3906" width="8.912" height="1.996"/>
		<polygon fill="#0F341A" points="11.906,71.514 6.803,71.514 6.627,43.917 -0.02,32.532 5.316,27.659 13.599,27.653 11.934,52.379 
					"/>
		<polygon fill="#0F341A" points="24.414,71.514 29.574,71.514 29.898,41.265 36.375,32.515 31.034,27.646 22.75,27.648 
			24.441,52.379 		"/>
	</g>
	<g>
	</g>
	<g>
	</g>
	<g>
	</g>
	<g>
	</g>
	<g>
	</g>
	<g>
	</g>
	<g>
	</g>
	<g>
	</g>
	<g>
	</g>
	<g>
	</g>
	<g>
	</g>
	<g>
	</g>
	<g>
	</g>
	<g>
	</g>
	<g>
	</g>
</g>
</svg>
