<?xml version="1.0" encoding="utf-8"?>
<!-- Generator: Adobe Illustrator 16.0.0, SVG Export Plug-In . SVG Version: 6.00 Build 0)  -->
<!DOCTYPE svg PUBLIC "-//W3C//DTD SVG 1.1//EN" "http://www.w3.org/Graphics/SVG/1.1/DTD/svg11.dtd">
<svg version="1.1" xmlns="http://www.w3.org/2000/svg" xmlns:xlink="http://www.w3.org/1999/xlink" x="0px" y="0px"
	 width="30.363px" height="129.549px" viewBox="0 0 30.363 129.549" enable-background="new 0 0 30.363 129.549"
	 xml:space="preserve">
<g id="圖層_2" display="none">
	<rect x="-2042.283" y="-1882.704" display="inline" fill="#0071BC" width="3593" height="2405"/>
</g>
<g id="圖層_1">
	<g>
		<polygon fill="#F6BFB1" points="12.379,123.349 12.375,123.345 12.379,123.345 12.365,96.215 12.35,69.079 6.41,69.081 
			6.426,96.218 6.441,123.349 6.441,123.349 6.445,129.554 8.826,129.554 8.803,128.398 11.186,128.398 11.211,129.551 
			18.168,129.548 18.168,128.143 		"/>
		<polygon fill="#F6BFB1" points="30.363,128.141 24.572,123.349 24.561,123.341 24.572,123.341 24.557,96.21 24.543,69.074 
			18.605,69.077 18.619,96.212 18.633,123.342 18.635,123.342 18.637,129.554 20.938,129.551 20.982,128.398 23.363,128.398 
			23.406,129.55 30.363,129.546 		"/>
		<rect x="0.013" y="28.363" fill="#F6BFB1" width="3.635" height="43.978"/>
		<rect x="26.667" y="28.349" fill="#F6BFB1" width="3.635" height="43.976"/>
		<polygon fill="#F6BFB1" points="26.656,28.523 19.727,24.117 19.713,24.117 23.338,18.758 23.332,7.932 19.705,2.576 
			10.551,2.582 6.928,7.94 6.932,18.765 10.563,24.122 3.631,28.536 3.658,36.91 6.912,53.982 6.291,65.64 11.918,72.332 
			18.41,72.329 24.031,65.629 23.4,53.972 26.662,36.722 		"/>
		<rect x="13.34" y="19.53" fill="#DF4E4C" width="3.596" height="1.721"/>
		<polygon fill="#EAEAEA" points="30.289,28.348 19.727,24.117 16.295,35.323 14.055,35.33 10.563,24.122 0,28.122 3.631,37.476 
			6.912,53.982 23.4,53.972 26.66,37.489 		"/>
		<polygon fill="#EAEAEA" points="3.658,67.933 0.02,67.933 0,28.363 3.631,28.363 		"/>
		<rect x="26.658" y="28.348" fill="#EAEAEA" width="3.639" height="39.606"/>
		<polygon fill="#DF4E4C" points="23.811,51.905 6.514,51.905 6.912,53.982 23.4,53.972 		"/>
		<polygon fill="#FFFFFF" points="7.395,29.156 11.578,29.744 8.961,32.245 15.289,39.29 10.563,24.122 		"/>
		<polygon fill="#FFFFFF" points="23.037,28.949 18.857,29.536 21.473,32.037 15.145,39.083 19.727,24.117 		"/>
		<polygon fill="#3D3A39" points="23.4,53.972 6.912,53.982 3.859,65.296 6.41,79.896 24.572,79.896 26.432,65.309 		"/>
		<polygon fill="#221714" points="15.906,126.288 6.416,126.272 6.418,129.554 8.803,129.554 8.803,128.398 11.186,128.398 
			11.186,129.551 18.168,129.548 18.168,128.143 		"/>
		<polygon fill="#221714" points="28.086,126.288 18.596,126.272 18.598,129.554 20.982,129.554 20.982,128.398 23.363,128.398 
			23.365,129.551 30.322,129.548 30.322,128.143 		"/>
		<rect x="6.439" y="122.177" fill="#221714" width="5.939" height="1.172"/>
		<rect x="18.633" y="122.177" fill="#221714" width="5.928" height="1.164"/>
		<polygon fill="#221714" points="26.955,125.317 18.635,125.317 18.635,124.287 25.705,124.287 		"/>
		<polygon fill="#221714" points="14.76,125.317 6.441,125.317 6.441,124.287 13.512,124.287 		"/>
		<polygon fill="#DF4E4C" points="19.686,2.576 10.531,2.582 6.928,7.94 6.908,10.312 6.93,15.32 8.742,10.552 10.576,7.932 
			14.73,7.94 15.115,9.538 15.668,7.94 19.555,7.932 21.918,10.754 23.316,15.32 23.313,7.932 		"/>
		<polygon fill="#DF4E4C" points="6.928,7.94 9.83,1.199 10.529,2.693 12.18,0.263 11.975,2.693 14.521,0 14.348,2.576 
			16.244,0.469 15.563,2.348 18.848,0.574 17.391,2.576 20.568,1.146 19.686,2.576 21.348,2.139 20.477,3.742 22.908,3.389 
			21.609,4.691 23.316,4.691 22.172,6.245 23.799,6.306 21.975,7.505 		"/>
	</g>
	<g>
	</g>
	<g>
	</g>
	<g>
	</g>
	<g>
	</g>
	<g>
	</g>
	<g>
	</g>
	<g>
	</g>
	<g>
	</g>
	<g>
	</g>
	<g>
	</g>
	<g>
	</g>
	<g>
	</g>
	<g>
	</g>
	<g>
	</g>
	<g>
	</g>
</g>
</svg>
