<?xml version="1.0" encoding="utf-8"?>
<!-- Generator: Adobe Illustrator 16.0.0, SVG Export Plug-In . SVG Version: 6.00 Build 0)  -->
<!DOCTYPE svg PUBLIC "-//W3C//DTD SVG 1.1//EN" "http://www.w3.org/Graphics/SVG/1.1/DTD/svg11.dtd">
<svg version="1.1" xmlns="http://www.w3.org/2000/svg" xmlns:xlink="http://www.w3.org/1999/xlink" x="0px" y="0px"
	 width="37.746px" height="157.891px" viewBox="0 0 37.746 157.891" enable-background="new 0 0 37.746 157.891"
	 xml:space="preserve">
<g id="圖層_2" display="none">
	<rect x="-2035.789" y="-1868.403" display="inline" fill="#0071BC" width="3593" height="2405"/>
</g>
<g id="圖層_1">
	<g>
		<polygon fill="#161613" points="35.246,30.486 3.172,30.505 8.613,6.668 29.01,6.657 		"/>
		<polygon fill="#EDCDAA" points="15.371,150.186 15.354,116.583 15.336,82.653 7.949,82.655 7.967,116.588 8.01,157.897 
			10.973,157.897 10.973,156.465 13.936,156.464 13.939,157.896 22.586,157.892 22.586,156.144 		"/>
		<polygon fill="#EDCDAA" points="37.746,157.883 37.746,156.135 30.553,150.177 30.551,150.177 30.529,117.608 30.508,82.669 
			23.129,82.673 23.146,117.61 23.172,157.891 26.133,157.89 26.133,156.456 29.098,156.455 29.098,157.888 		"/>
		<rect x="0.018" y="32.061" fill="#EDCDAA" width="4.518" height="54.67"/>
		<rect x="33.151" y="32.041" fill="#EDCDAA" width="4.521" height="54.671"/>
		<polygon fill="#EDCDAA" points="33.139,32.259 24.525,26.781 24.512,26.781 29.016,20.115 29.01,6.657 24.498,0 13.123,0.007 
			8.613,6.668 8.621,20.126 13.137,26.787 13.148,26.787 4.514,32.273 4.553,42.688 8.592,63.909 7.822,78.4 14.814,86.723 
			22.891,86.72 29.877,78.39 29.096,63.899 33.145,42.45 		"/>
		<rect x="16.586" y="21.078" fill="#D63B2A" width="4.471" height="2.136"/>
		<polygon fill="#161613" points="24.498,0 13.123,0.007 8.613,6.668 7.337,15.097 8.613,15.842 13.08,9.151 18.814,5.104 
			24.6,8.602 29.014,15.842 30.337,15.842 29.01,6.657 		"/>
		<polygon fill="#221714" points="19.807,156.172 17.904,156.169 15.146,150.186 15.371,150.186 15.371,148.927 8.002,148.927 
			8.002,150.186 14.338,150.186 17.092,156.168 8.01,156.15 8.01,157.897 10.973,157.897 10.973,156.465 13.936,156.464 
			13.939,157.896 22.586,157.892 22.586,156.144 		"/>
		<polygon fill="#221714" points="34.949,156.172 33.049,156.169 30.287,150.186 30.514,150.186 30.514,148.927 23.145,148.927 
			23.145,150.186 29.479,150.186 32.238,156.168 23.152,156.15 23.156,157.897 26.117,157.897 26.117,156.465 29.082,156.464 
			29.082,157.896 37.729,157.892 37.729,156.144 		"/>
		<path fill="none" stroke="#51180F" stroke-linecap="round" stroke-miterlimit="10" d="M33.139,32.042"/>
		<path fill="none" stroke="#51180F" stroke-linecap="round" stroke-miterlimit="10" d="M4.354,77.308"/>
		<polygon fill="#005372" points="29.729,60.546 29.729,60.546 33.145,42.45 33.139,32.259 30.727,30.726 30.717,40.72 6.918,40.72 
			6.916,30.746 4.514,32.273 4.518,42.465 7.951,60.546 7.949,60.546 4.879,77.233 4.877,86.527 4.873,92.261 4.877,92.258 
			4.873,139.758 16.779,139.764 16.781,86.608 21.031,86.61 21.027,139.765 32.932,139.772 32.938,86.616 32.943,77.324 
			32.943,77.324 32.943,77.252 		"/>
		<polygon fill="#FFFFFF" points="30.717,41.496 6.916,41.496 6.916,30.746 8.805,39.298 28.531,39.298 30.717,30.746 		"/>
		<line fill="none" stroke="#9F1F26" stroke-miterlimit="10" x1="4.521" y1="32.06" x2="7.244" y2="64.4"/>
		<rect x="3.172" y="50.131" fill="#9F1F26" width="4.072" height="14.27"/>
		<polygon fill="#221714" points="17.482,151.929 8.002,151.929 8.002,151.08 16.455,151.08 		"/>
		<polygon fill="#221714" points="19.252,153.413 8.002,153.413 8.002,152.565 18.252,152.565 		"/>
		<polygon fill="#221714" points="21.25,155.041 8.002,155.041 8.002,154.194 20.227,154.194 		"/>
		<polygon fill="#221714" points="32.627,151.857 23.145,151.857 23.145,151.009 31.598,151.009 		"/>
		<polygon fill="#221714" points="34.395,153.343 23.145,153.343 23.145,152.491 33.395,152.491 		"/>
		<polygon fill="#221714" points="36.395,154.969 23.145,154.969 23.145,154.122 35.367,154.122 		"/>
	</g>
	<g>
	</g>
	<g>
	</g>
	<g>
	</g>
	<g>
	</g>
	<g>
	</g>
	<g>
	</g>
	<g>
	</g>
	<g>
	</g>
	<g>
	</g>
	<g>
	</g>
	<g>
	</g>
	<g>
	</g>
	<g>
	</g>
	<g>
	</g>
	<g>
	</g>
</g>
</svg>
