<?xml version="1.0" encoding="utf-8"?>
<!-- Generator: Adobe Illustrator 16.0.0, SVG Export Plug-In . SVG Version: 6.00 Build 0)  -->
<!DOCTYPE svg PUBLIC "-//W3C//DTD SVG 1.1//EN" "http://www.w3.org/Graphics/SVG/1.1/DTD/svg11.dtd">
<svg version="1.1" xmlns="http://www.w3.org/2000/svg" xmlns:xlink="http://www.w3.org/1999/xlink" x="0px" y="0px"
	 width="47.186px" height="163.557px" viewBox="0 0 47.186 163.557" enable-background="new 0 0 47.186 163.557"
	 xml:space="preserve">
<g id="圖層_2" display="none">
	<rect x="-2009.01" y="-1847.527" display="inline" fill="#0071BC" width="3593" height="2405"/>
</g>
<g id="圖層_1">
	<g>
		<polygon fill="#EDCDAA" points="7.131,92.486 0.98,92.49 0.951,35.046 3.484,32.687 7.1,32.686 		"/>
		<polygon fill="#EDCDAA" points="40.074,92.47 46.229,92.465 46.197,35.021 43.656,32.666 40.041,32.668 		"/>
		<polygon fill="#EDCDAA" points="29.26,28.975 17.881,28.981 13.367,22.324 13.361,8.865 17.865,2.203 29.242,2.198 33.76,8.853 
			33.766,22.313 		"/>
		<polygon fill="#EDCDAA" points="19.77,154.468 19.541,88.367 9.461,88.373 9.496,154.474 4.439,154.476 4.441,163.568 
			19.775,163.561 		"/>
		<polygon fill="#EDCDAA" points="43.037,163.548 43.033,154.455 37.775,154.457 37.736,88.356 27.607,88.364 27.705,163.557 		"/>
		<polygon fill="#EDCDAA" points="29.273,28.975 17.895,28.981 9.432,32.646 9.432,32.647 9.461,88.373 19.568,96.692 
			27.648,96.687 37.738,88.356 37.707,32.63 		"/>
		<rect x="4.441" y="160.756" fill="#3D3A39" width="15.336" height="2.805"/>
		<rect x="27.701" y="160.756" fill="#3D3A39" width="15.336" height="2.805"/>
		<polygon fill="#38B180" points="47.188,37.421 47.186,35.88 39.697,28.995 7.484,29.012 0,35.904 0,37.447 0,37.449 0.006,49.211 
			0.008,49.211 9.355,49.206 9.377,88.385 37.857,88.372 37.838,49.19 47.193,49.187 47.193,49.187 47.188,37.425 		"/>
		<polygon fill="#D7D9D9" points="25.727,88.368 21.447,88.368 9.447,88.367 9.447,97.472 9.443,122.018 21.441,122.021 
			21.445,97.476 25.725,97.478 25.721,122.021 37.721,122.021 37.725,97.479 37.727,88.369 		"/>
		<polygon fill="#D63B2A" points="17.496,58.677 22.355,49.352 20.863,49.352 22.355,46.304 29.545,45.202 27.34,47.668 
			29.09,47.534 		"/>
		<polyline fill="none" stroke="#00663D" stroke-linecap="round" stroke-linejoin="round" stroke-miterlimit="10" points="
			17.496,51.78 17.994,51.006 16.814,51.099 15.031,54.08 16.102,54.08 17.008,52.494 		"/>
		<polyline fill="none" stroke="#00663D" stroke-linecap="round" stroke-linejoin="round" stroke-miterlimit="10" points="
			18.301,51.938 18.789,51.164 19.729,51.164 18.531,53.627 17.438,53.627 18.076,52.397 18.982,52.397 		"/>
		<polyline fill="none" stroke="#00663D" stroke-linecap="round" stroke-linejoin="round" stroke-miterlimit="10" points="
			20.926,50.518 19.729,53.464 20.506,53.464 		"/>
		<polygon fill="none" stroke="#00663D" stroke-linecap="round" stroke-linejoin="round" stroke-miterlimit="10" points="
			22.285,50.906 21.154,52.915 21.994,52.915 23.098,50.906 		"/>
		
			<line fill="none" stroke="#00663D" stroke-linecap="round" stroke-linejoin="round" stroke-miterlimit="10" x1="24.277" y1="50.518" x2="22.936" y2="52.915"/>
		<polyline fill="none" stroke="#00663D" stroke-linecap="round" stroke-linejoin="round" stroke-miterlimit="10" points="
			26.104,50.418 26.352,50.063 27.227,50.063 25.883,52.494 24.977,52.397 25.703,51.164 26.537,51.164 		"/>
		<polyline fill="none" stroke="#00663D" stroke-linecap="round" stroke-linejoin="round" stroke-miterlimit="10" points="
			28.822,50.26 27.893,50.258 26.986,51.988 27.939,51.988 29.252,49.417 		"/>
		<polyline fill="none" stroke="#00663D" stroke-linecap="round" stroke-linejoin="round" stroke-miterlimit="10" points="
			29.854,50.518 30.646,50.518 31.164,49.576 30.318,49.576 29.09,51.714 30.064,51.714 30.369,51.164 		"/>
		
			<line fill="none" stroke="#00663D" stroke-linecap="round" stroke-linejoin="round" stroke-miterlimit="10" x1="20.232" y1="50.702" x2="21.414" y2="50.702"/>
		
			<line fill="none" stroke="#00663D" stroke-linecap="round" stroke-linejoin="round" stroke-miterlimit="10" x1="24.15" y1="50.906" x2="24.635" y2="50.906"/>
		<rect x="6.088" y="154.475" fill="#3D3A39" width="3.355" height="6.79"/>
		<rect x="37.775" y="154.457" fill="#3D3A39" width="3.301" height="6.808"/>
		<polygon fill="#040000" points="33.76,12.665 33.766,8.897 32.33,4.658 29.316,1.751 27.666,2.199 22.611,0 18.629,1.021 
			20.072,1.375 15.955,2.198 17.357,2.96 14.609,4.333 16.004,4.174 13.803,5.985 15,5.954 13.023,8.287 14.189,7.735 13.367,8.908 
			13.365,13.653 16.619,10.155 20.408,7.952 19.227,9.46 22.646,7.045 21.316,9.119 27.373,6.413 29.768,9.484 28.902,7.768 
			31.973,10.067 30.979,8.274 33.268,10.813 		"/>
	</g>
	<g>
	</g>
	<g>
	</g>
	<g>
	</g>
	<g>
	</g>
	<g>
	</g>
	<g>
	</g>
	<g>
	</g>
	<g>
	</g>
	<g>
	</g>
	<g>
	</g>
	<g>
	</g>
	<g>
	</g>
	<g>
	</g>
	<g>
	</g>
	<g>
	</g>
</g>
</svg>
