<?xml version="1.0" encoding="utf-8"?>
<!-- Generator: Adobe Illustrator 16.0.0, SVG Export Plug-In . SVG Version: 6.00 Build 0)  -->
<!DOCTYPE svg PUBLIC "-//W3C//DTD SVG 1.1//EN" "http://www.w3.org/Graphics/SVG/1.1/DTD/svg11.dtd">
<svg version="1.1" xmlns="http://www.w3.org/2000/svg" xmlns:xlink="http://www.w3.org/1999/xlink" x="0px" y="0px"
	 width="45.251px" height="165.363px" viewBox="0 0 45.251 165.363" enable-background="new 0 0 45.251 165.363"
	 xml:space="preserve">
<g id="圖層_2" display="none">
	<rect x="-1871.396" y="-1775.948" display="inline" fill="#0071BC" width="3593" height="2405"/>
</g>
<g id="圖層_1">
	<g>
		<rect x="3.487" y="156.279" fill="#040000" width="15.336" height="9.094"/>
		<rect x="26.752" y="156.268" fill="#040000" width="15.334" height="9.093"/>
		<polygon fill="#EDCDAA" points="6.184,94.294 0.029,94.298 0,36.854 2.535,34.493 6.15,34.492 		"/>
		<polygon fill="#EDCDAA" points="39.123,94.279 45.278,94.273 45.246,36.828 42.707,34.473 39.093,34.475 		"/>
		<polygon fill="#EDCDAA" points="28.309,30.78 29.635,34.473 15.805,34.473 16.932,30.79 12.418,24.131 12.412,10.672 
			16.917,4.012 28.295,4.005 32.807,10.659 32.814,24.12 		"/>
		<rect x="8.531" y="90.178" fill="#EDCDAA" width="10.076" height="66.101"/>
		<rect x="26.674" y="90.167" fill="#EDCDAA" width="10.133" height="66.101"/>
		<polygon fill="#040000" points="32.807,10.659 32.814,12.487 30.895,10.255 31.938,11.7 29.014,10.684 30.611,11.507 
			26.359,10.802 27.58,11.344 23.414,10.818 25.17,11.473 20.428,10.818 22.756,11.7 18.039,11.328 19.984,11.96 13.355,11.385 
			12.412,13.189 12.412,10.672 13.541,9.002 13.441,8.529 14.523,7.549 15.541,4.005 16.198,5.07 17.692,2.851 18.176,4.012 
			22.001,2.719 21.371,4.034 25.984,2.331 25.445,3.853 28.757,3.156 28.607,4.464 31.231,6.268 29.758,6.163 31.865,8.252 
			31.279,8.406 		"/>
		<polygon fill="#EDCDAA" points="28.322,30.78 16.945,30.79 8.482,34.453 8.481,34.454 8.513,90.18 18.617,98.5 26.696,98.494 
			36.789,90.164 36.758,34.438 		"/>
		<polygon fill="#031D33" points="27.885,90.17 17.416,90.175 8.513,90.18 8.522,105.454 8.549,156.28 18.82,156.276 18.84,98.5 
			26.621,98.494 26.677,156.271 36.824,156.265 36.797,105.439 36.789,90.164 		"/>
		<rect x="3.49" y="163.728" fill="#C4C5C4" width="15.338" height="1.641"/>
		<rect x="26.75" y="163.728" fill="#C4C5C4" width="15.336" height="1.641"/>
		
			<rect x="9.221" y="91.233" transform="matrix(0.9973 0.0736 -0.0736 0.9973 7.0103 -0.4429)" fill="#005372" width="0.584" height="7.266"/>
		
			<rect x="35.557" y="91.233" transform="matrix(-0.9973 0.0736 -0.0736 -0.9973 78.5845 186.8346)" fill="#005372" width="0.584" height="7.266"/>
		<g>
			<polygon fill="#040000" points="38.607,30.776 22.586,37.227 6.635,30.794 8.492,50.995 8.513,90.188 36.781,90.176 36.76,50.98 
							"/>
		</g>
		<path fill="#FFFFFF" stroke="#040000" stroke-miterlimit="10" d="M21.143,17.454c0,0.365-0.344,0.66-0.771,0.66h-5.287
			c-0.425,0-0.77-0.295-0.77-0.66V15.57c0-0.367,0.345-0.662,0.77-0.662h5.287c0.428,0,0.771,0.295,0.771,0.662V17.454z"/>
		<path fill="#FFFFFF" stroke="#040000" stroke-miterlimit="10" d="M31.049,17.454c0,0.365-0.35,0.66-0.783,0.66h-5.371
			c-0.434,0-0.785-0.295-0.785-0.66V15.57c0-0.367,0.352-0.662,0.785-0.662h5.371c0.434,0,0.783,0.295,0.783,0.662V17.454z"/>
		<line fill="none" stroke="#040000" stroke-miterlimit="10" x1="21.4" y1="16.511" x2="24.109" y2="16.511"/>
		<polygon fill="#3D3A39" points="35.438,10.6 9.733,10.6 9.733,10.137 12.414,9.359 32.814,9.358 35.438,10.137 		"/>
		<polygon fill="#3D3A39" points="29.703,0 22.27,0.526 15.521,0 12.412,9.358 32.814,9.358 		"/>
		<polygon fill="#1B1B1B" points="6.664,30.826 8.52,51.027 8.52,86.788 0.055,86.794 0.027,36.884 		"/>
		<polygon fill="#1B1B1B" points="38.643,30.826 36.787,51.027 36.787,86.788 45.25,86.794 45.278,36.884 		"/>
		<polygon fill="#1B1B1B" points="15.289,31.506 16.957,30.818 15.548,28.74 13.273,28.74 13.273,30.826 6.664,30.826 
			6.664,104.764 15.172,104.764 19.058,53.162 15.289,31.506 		"/>
		<polygon fill="#1B1B1B" points="32.162,30.826 32.162,28.74 29.678,28.74 28.277,30.813 30.141,31.57 26.383,53.162 
			30.27,104.764 38.639,104.764 38.639,30.826 		"/>
		<polygon fill="#0D0C0C" points="15.289,31.506 16.957,30.818 15.548,28.74 13.273,28.74 13.273,30.826 10.068,38.166 
			13.857,40.093 9.838,42.663 18.588,59.398 15.172,104.764 19.058,53.162 15.289,31.506 		"/>
		<polygon fill="#0D0C0C" points="32.162,30.826 32.162,28.74 29.678,28.74 28.277,30.813 30.141,31.57 26.383,53.162 
			30.27,104.764 26.808,58.81 34.428,42.021 30.395,39.829 34.174,38.227 		"/>
	</g>
	<g>
	</g>
	<g>
	</g>
	<g>
	</g>
	<g>
	</g>
	<g>
	</g>
	<g>
	</g>
	<g>
	</g>
	<g>
	</g>
	<g>
	</g>
	<g>
	</g>
	<g>
	</g>
	<g>
	</g>
	<g>
	</g>
	<g>
	</g>
	<g>
	</g>
</g>
</svg>
