<?xml version="1.0" encoding="utf-8"?>
<!-- Generator: Adobe Illustrator 16.0.0, SVG Export Plug-In . SVG Version: 6.00 Build 0)  -->
<!DOCTYPE svg PUBLIC "-//W3C//DTD SVG 1.1//EN" "http://www.w3.org/Graphics/SVG/1.1/DTD/svg11.dtd">
<svg version="1.1" xmlns="http://www.w3.org/2000/svg" xmlns:xlink="http://www.w3.org/1999/xlink" x="0px" y="0px"
	 width="30.431px" height="127.003px" viewBox="0 0 30.431 127.003" enable-background="new 0 0 30.431 127.003"
	 xml:space="preserve">
<g id="圖層_2" display="none">
	<rect x="-1878.613" y="-1810.676" display="inline" fill="#0071BC" width="3593" height="2405"/>
</g>
<g id="圖層_1">
	<g>
		<polygon fill="#040000" points="25.609,36.739 4.212,36.739 6.996,5.357 23.402,5.35 		"/>
		<polygon fill="#EDCDAA" points="12.432,120.798 12.418,93.768 12.404,66.476 6.464,66.479 6.478,93.772 6.512,127.003 
			8.893,127.003 8.893,125.848 11.279,125.848 11.279,127 18.234,126.997 18.234,125.592 		"/>
		<polygon fill="#EDCDAA" points="30.431,126.988 30.431,125.585 24.643,120.792 24.639,120.792 24.625,94.593 24.609,66.49 
			18.67,66.493 18.684,94.596 18.704,126.995 21.088,126.994 21.088,125.841 23.473,125.839 23.473,126.993 		"/>
		<rect x="0.081" y="25.78" fill="#EDCDAA" width="3.633" height="43.977"/>
		<rect x="26.735" y="25.768" fill="#EDCDAA" width="3.635" height="43.975"/>
		<polygon fill="#EDCDAA" points="30.356,25.767 19.796,21.535 19.784,21.535 23.408,16.176 23.402,5.35 19.772,-0.003 
			10.623,0.002 6.996,5.357 7.002,16.184 10.631,21.54 10.643,21.54 0.068,25.783 3.729,34.327 6.979,51.401 6.357,63.059 
			11.984,69.75 18.481,69.747 24.1,63.049 23.469,51.393 26.729,34.14 		"/>
		<polygon fill="#040000" points="19.772,-0.003 10.623,0.002 6.996,5.357 6.369,12.423 6.998,9.592 11.747,4.432 23.404,10.456 
			23.922,12.738 23.402,5.35 		"/>
		<polygon fill="#C1B575" points="15.996,123.737 14.469,123.735 12.25,120.798 12.432,120.798 12.432,119.788 6.503,119.788 
			6.503,120.798 11.6,120.798 13.815,123.733 6.511,123.722 6.512,127.003 8.893,127.003 8.893,125.848 11.279,125.848 11.279,127 
			18.234,126.997 18.234,125.592 		"/>
		<polygon fill="#C1B575" points="28.18,123.737 26.65,123.735 24.432,120.798 24.611,120.798 24.611,119.788 18.684,119.788 
			18.684,120.798 23.779,120.798 25.999,123.733 18.689,123.722 18.691,127.003 21.075,127.003 21.075,125.848 23.459,125.848 
			23.461,127 30.416,126.997 30.416,125.592 		"/>
		<path fill="#FFFFFF" stroke="#4A2A69" stroke-miterlimit="10" d="M13.975,11.641c0,0.294-0.277,0.53-0.621,0.53H9.102
			c-0.344,0-0.621-0.236-0.621-0.53v-1.517c0-0.295,0.277-0.532,0.621-0.532h4.252c0.344,0,0.621,0.237,0.621,0.532V11.641z"/>
		<path fill="#FFFFFF" stroke="#4A2A69" stroke-miterlimit="10" d="M21.943,11.641c0,0.294-0.281,0.53-0.631,0.53h-4.32
			c-0.348,0-0.63-0.236-0.63-0.53v-1.517c0-0.295,0.282-0.532,0.63-0.532h4.32c0.35,0,0.631,0.237,0.631,0.532V11.641z"/>
		<line fill="none" stroke="#4A2A69" stroke-miterlimit="10" x1="14.182" y1="10.883" x2="16.362" y2="10.883"/>
		<polygon fill="#221714" points="5.047,57.936 4.633,65.531 3.856,70.011 3.859,70.01 6.464,105.319 12.521,105.318 13.34,69.758 
			17.002,69.75 18.234,105.112 24.823,105.211 26.268,69.563 25.229,65.61 25.182,57.924 		"/>
		<polygon fill="#B6B0BC" points="30.356,25.767 25.482,23.815 15.064,31.433 4.973,23.815 0,25.668 3.63,35.021 5.637,52.275 
			3.397,73.742 26.724,73.742 24.631,52.285 26.657,35.034 		"/>
		<polygon fill="#B6B0BC" points="3.629,49.137 0,49.137 0,25.91 3.629,25.91 5.407,45.218 		"/>
		<polygon fill="#B6B0BC" points="30.383,49.011 26.742,49.011 24.916,44.729 26.742,25.767 30.383,25.767 		"/>
		<polygon fill="#005372" points="6.282,54.128 1.066,54.128 2.941,41.381 5.031,41.381 		"/>
		<polygon fill="#D8C028" points="4.287,41.381 3.397,41.381 3.397,40.44 3.397,23.992 4.287,23.992 		"/>
		<polygon fill="#221714" points="6.883,25.255 6.205,24.745 6.205,23.321 6.883,23.051 		"/>
		<polygon fill="#221714" points="24.41,24.602 23.73,25.095 23.73,23.111 24.41,23.385 		"/>
	</g>
	<g>
	</g>
	<g>
	</g>
	<g>
	</g>
	<g>
	</g>
	<g>
	</g>
	<g>
	</g>
	<g>
	</g>
	<g>
	</g>
	<g>
	</g>
	<g>
	</g>
	<g>
	</g>
	<g>
	</g>
	<g>
	</g>
	<g>
	</g>
	<g>
	</g>
</g>
</svg>
