<?xml version="1.0" encoding="utf-8"?>
<!-- Generator: Adobe Illustrator 16.0.0, SVG Export Plug-In . SVG Version: 6.00 Build 0)  -->
<!DOCTYPE svg PUBLIC "-//W3C//DTD SVG 1.1//EN" "http://www.w3.org/Graphics/SVG/1.1/DTD/svg11.dtd">
<svg version="1.1" xmlns="http://www.w3.org/2000/svg" xmlns:xlink="http://www.w3.org/1999/xlink" x="0px" y="0px"
	 width="42.867px" height="157.853px" viewBox="0 0 42.867 157.853" enable-background="new 0 0 42.867 157.853"
	 xml:space="preserve">
<g id="圖層_2" display="none">
	<rect x="-1909.189" y="-1797.441" display="inline" fill="#0071BC" width="3593" height="2405"/>
</g>
<g id="圖層_1">
	<g>
		<polygon fill="#3F220F" points="35.439,32.06 7.463,32.06 5.818,30.008 5.301,27.354 6.158,26.293 6.014,24.826 6.791,22.882 
			6.531,21.075 7.67,19.356 7.81,16.835 10.451,6.67 32.4,6.658 35.489,16.47 35.426,18.995 36.654,20.422 36.348,23.214 
			37.24,24.825 36.463,26.315 37.305,27.612 36.98,30.527 		"/>
		<polygon fill="#EDCDAA" points="10.582,82.68 10.599,116.414 10.618,150.146 18.002,150.141 17.986,116.41 17.967,82.677 		"/>
		<polygon fill="#EDCDAA" points="25.742,82.674 25.76,116.407 25.778,150.138 33.163,150.135 33.145,116.404 33.127,82.671 		"/>
		<polygon fill="#CE5225" points="18.004,150.146 10.618,150.152 10.624,157.857 13.586,157.857 16.552,157.856 25.199,157.853 
			25.199,156.104 		"/>
		<polygon fill="#CE5225" points="33.163,150.146 25.777,150.151 25.784,157.857 28.747,157.856 31.713,157.855 40.361,157.849 
			40.359,156.102 		"/>
		<rect x="2.629" y="32.06" fill="#EDCDAA" width="4.517" height="54.67"/>
		<rect x="35.767" y="32.041" fill="#EDCDAA" width="4.518" height="54.671"/>
		<polygon fill="#EDCDAA" points="35.752,32.258 27.137,26.779 27.125,26.779 31.629,20.115 31.623,6.658 27.111,0 15.732,0.007 
			11.227,6.67 11.232,20.126 15.748,26.785 15.762,26.785 7.127,32.272 7.166,42.687 11.207,63.909 10.434,78.401 17.428,86.721 
			25.505,86.718 32.49,78.39 31.705,63.897 35.758,42.448 		"/>
		<rect x="19.198" y="21.076" fill="#CE5225" width="4.471" height="2.138"/>
		<polygon fill="#3F220F" points="27.111,0 15.732,0.007 10.451,6.67 10.434,9.915 11.229,11.095 13.058,10.317 13.776,9.612 
			13.776,10.317 15.604,9.539 16.326,8.835 16.326,9.538 18.155,8.761 18.875,8.056 18.875,8.761 20.703,8.761 21.422,8.055 
			21.422,8.758 23.252,8.758 23.971,8.054 23.971,8.758 25.801,9.534 26.521,8.831 26.521,9.533 28.35,10.31 29.067,9.604 
			29.067,10.311 30.744,11.158 31.617,11.158 31.895,9.73 32.295,9.389 32.4,6.658 		"/>
		<path fill="none" stroke="#CE5225" stroke-linecap="round" stroke-miterlimit="10" d="M32.719,67.717"/>
		<path fill="none" stroke="#CE5225" stroke-linecap="round" stroke-miterlimit="10" d="M7.131,32.059"/>
		<polygon fill="#0D0C0C" points="9.895,77.361 7.564,86.653 7.559,92.385 7.564,92.382 10.618,150.146 18.002,150.141 
			20.246,86.73 22.941,86.733 25.778,150.138 33.163,150.135 35.624,86.741 33.417,77.376 33.417,77.376 9.895,77.361 		"/>
		<polygon fill="#1B9666" points="7.223,91.274 35.719,91.274 34.797,63.858 34.045,50.297 35.758,77.978 42.867,77.978 
			40.23,32.023 27.107,26.739 21.302,32.927 15.729,26.746 2.574,32.042 0,77.978 7.107,77.978 8.824,50.366 8.076,63.868 		"/>
		<polygon fill="#D7D9D9" points="7.16,86.729 35.781,86.713 34.797,63.858 34.045,50.297 30.062,27.929 28.462,27.281 
			21.302,34.803 14.119,27.393 12.361,28.102 8.824,50.366 8.076,63.868 		"/>
		<polygon fill="#EAAC33" points="17.423,52.603 21.302,41.962 25.18,52.603 		"/>
		<polygon fill="#3D2A5D" points="18.004,150.146 10.618,150.152 10.624,156.098 25.199,156.104 25.199,156.104 		"/>
		<polygon fill="#3D2A5D" points="33.163,150.146 25.777,150.151 25.742,156.104 40.359,156.102 40.359,156.102 		"/>
		<rect x="15.729" y="150.146" fill="#7CB8CB" width="2.273" height="2.979"/>
		<rect x="30.891" y="150.146" fill="#7CB8CB" width="2.272" height="2.979"/>
	</g>
	<g>
	</g>
	<g>
	</g>
	<g>
	</g>
	<g>
	</g>
	<g>
	</g>
	<g>
	</g>
	<g>
	</g>
	<g>
	</g>
	<g>
	</g>
	<g>
	</g>
	<g>
	</g>
	<g>
	</g>
	<g>
	</g>
	<g>
	</g>
	<g>
	</g>
</g>
</svg>
