<?xml version="1.0" encoding="utf-8"?>
<!-- Generator: Adobe Illustrator 16.0.0, SVG Export Plug-In . SVG Version: 6.00 Build 0)  -->
<!DOCTYPE svg PUBLIC "-//W3C//DTD SVG 1.1//EN" "http://www.w3.org/Graphics/SVG/1.1/DTD/svg11.dtd">
<svg version="1.1" xmlns="http://www.w3.org/2000/svg" xmlns:xlink="http://www.w3.org/1999/xlink" x="0px" y="0px"
	 width="36.392px" height="131.903px" viewBox="0 0 36.392 131.903" enable-background="new 0 0 36.392 131.903"
	 xml:space="preserve">
<g id="圖層_2" display="none">
	<rect x="-1907.051" y="-1817.269" display="inline" fill="#0071BC" width="3593" height="2405"/>
</g>
<g id="圖層_1">
	<g>
		<rect x="2.585" y="124.583" fill="#FFD400" width="12.338" height="7.314"/>
		<rect x="21.457" y="124.589" fill="#FFD400" width="12.332" height="7.313"/>
		<polygon fill="#BE7142" points="4.945,74.723 0,74.722 0.004,28.517 2.043,26.621 4.953,26.621 		"/>
		<polygon fill="#BE7142" points="31.443,74.727 36.392,74.728 36.397,28.52 34.359,26.626 31.447,26.623 		"/>
		<rect x="6.818" y="71.415" fill="#BE7142" width="8.106" height="53.17"/>
		<rect x="21.414" y="71.417" fill="#BE7142" width="8.15" height="53.171"/>
		<polygon fill="#BE7142" points="22.791,23.646 22.781,23.643 26.407,18.289 26.408,7.463 22.781,2.108 13.629,2.107 10,7.461 
			10,18.287 13.625,23.646 13.639,23.646 6.828,26.591 6.827,26.589 6.821,71.415 14.945,78.113 21.441,78.113 29.568,71.418 
			29.574,26.592 		"/>
		<polygon fill="#3B64A6" points="6.821,65.16 6.821,78.739 6.815,124.585 14.922,124.585 16.471,78.742 19.914,78.742 
			21.457,124.587 29.561,124.588 29.566,78.744 29.568,65.164 		"/>
		<polygon fill="#DBDCDC" points="31.025,23.732 22.744,23.74 18.205,41.324 13.594,23.743 5.308,23.747 6.803,39.999 6.803,39.999 
			6.819,67.149 29.557,67.138 29.539,39.985 		"/>
		<polygon fill="#7E191E" points="5.308,23.747 6.803,39.999 6.803,68.763 -0.008,68.77 -0.029,28.621 		"/>
		<polygon fill="#7E191E" points="31.025,23.732 29.594,39.999 29.594,68.763 36.4,68.77 36.422,28.621 		"/>
		<polygon fill="#7E191E" points="11.896,80.112 6.793,80.112 6.618,40.007 -0.029,28.621 5.308,23.746 13.59,23.743 11.926,48.466 
					"/>
		<polygon fill="#7E191E" points="24.406,80.112 29.564,80.112 29.891,37.354 36.365,28.601 31.025,23.734 22.742,23.739 
			24.432,48.466 		"/>
		<polygon fill="#470407" points="13.59,23.743 8.039,29.633 11.086,31.183 7.855,33.252 11.926,48.466 		"/>
		<polygon fill="#470407" points="22.742,23.739 24.432,48.466 27.754,32.681 24.51,30.913 27.551,29.625 		"/>
		<rect x="13.629" fill="#DE3B12" width="9.113" height="4.94"/>
	</g>
	<g>
	</g>
	<g>
	</g>
	<g>
	</g>
	<g>
	</g>
	<g>
	</g>
	<g>
	</g>
	<g>
	</g>
	<g>
	</g>
	<g>
	</g>
	<g>
	</g>
	<g>
	</g>
	<g>
	</g>
	<g>
	</g>
	<g>
	</g>
	<g>
	</g>
</g>
</svg>
