<?xml version="1.0" encoding="utf-8"?>
<!-- Generator: Adobe Illustrator 16.0.0, SVG Export Plug-In . SVG Version: 6.00 Build 0)  -->
<!DOCTYPE svg PUBLIC "-//W3C//DTD SVG 1.1//EN" "http://www.w3.org/Graphics/SVG/1.1/DTD/svg11.dtd">
<svg version="1.1" xmlns="http://www.w3.org/2000/svg" xmlns:xlink="http://www.w3.org/1999/xlink" x="0px" y="0px"
	 width="30.584px" height="127.003px" viewBox="0 0 30.584 127.003" enable-background="new 0 0 30.584 127.003"
	 xml:space="preserve">
<g id="圖層_2" display="none">
	<rect x="-1927.223" y="-1839.575" display="inline" fill="#0071BC" width="3593" height="2405"/>
</g>
<g id="圖層_1">
	<g>
		<polygon fill="#563618" points="24.716,21.578 5.562,21.599 3.641,17.882 6.927,5.357 23.334,5.35 27.151,18.063 		"/>
		<polygon fill="#EDCDAA" points="12.363,120.798 12.35,93.768 12.334,66.476 6.395,66.479 6.408,93.772 6.441,127.003 
			8.826,127.003 8.826,125.848 11.209,125.848 11.211,127 18.168,126.997 18.168,125.592 		"/>
		<polygon fill="#EDCDAA" points="30.361,126.988 30.359,125.585 24.574,120.792 24.572,120.792 24.557,94.593 24.541,66.49 
			18.602,66.493 18.615,94.596 18.637,126.995 21.021,126.994 21.021,125.841 23.404,125.839 23.404,126.993 		"/>
		<rect x="0.011" y="25.78" fill="#EDCDAA" width="3.635" height="43.977"/>
		<rect x="26.667" y="25.768" fill="#EDCDAA" width="3.634" height="43.975"/>
		<polygon fill="#EDCDAA" points="26.656,25.94 19.725,21.535 19.715,21.535 23.342,16.176 23.334,5.35 19.703,-0.003 10.553,0.002 
			6.927,5.357 6.934,16.184 10.566,21.54 10.574,21.54 3.627,25.953 3.66,34.327 6.91,51.401 6.289,63.059 11.918,69.75 
			18.41,69.747 24.03,63.049 23.402,51.393 26.66,34.14 		"/>
		<rect x="13.342" y="16.948" fill="#AC3423" width="3.595" height="1.721"/>
		<polygon fill="#563618" points="19.703,-0.003 10.553,0.002 6.927,5.357 3.641,17.882 6.927,12.738 6.93,10.322 7.965,5.931 
			13.047,9.526 13.067,8.346 16.524,10.165 16.096,8.914 19.105,10.4 18.285,9.034 21.256,10.477 20.906,9.371 22.426,10.83 
			23.338,11.844 23.34,12.738 27.151,18.063 23.334,5.35 		"/>
		<path fill="none" stroke="#51180F" stroke-linecap="round" stroke-miterlimit="10" d="M26.656,25.768"/>
		<path fill="none" stroke="#51180F" stroke-linecap="round" stroke-miterlimit="10" d="M3.5,62.181"/>
		<polygon fill="#0D2745" points="3.924,66.965 3.922,69.665 3.918,71.544 13.477,71.544 13.498,69.732 16.917,69.734 
			16.937,71.544 26.66,71.544 26.66,66.965 		"/>
		<polygon fill="#040000" points="23.402,51.393 26.438,62.193 4.201,62.119 6.91,51.401 3.66,34.327 3.633,25.779 5.562,24.725 
			24.707,24.725 26.656,25.768 26.66,34.14 		"/>
		<polygon fill="#221714" points="12.357,120.798 6.416,120.801 6.42,127.003 8.803,127.003 11.189,127 18.145,126.997 
			18.145,125.592 		"/>
		<polygon fill="#221714" points="24.572,120.792 18.631,120.794 18.637,126.995 21.02,126.994 23.404,126.993 30.361,126.988 
			30.359,125.585 		"/>
		<g>
			<polygon fill="none" points="3.972,44.271 3.924,44.271 3.924,45.299 4.059,45.299 			"/>
			<polygon fill="none" points="26.563,64.907 26.66,66.965 26.66,64.907 			"/>
			<polygon fill="none" points="19.227,37.393 10.914,37.393 11.313,38.423 18.787,38.423 			"/>
			<polygon fill="none" points="14.868,47.586 15.377,46.396 14.406,46.396 			"/>
			<polygon fill="none" points="26.199,57.063 26.66,57.063 26.66,53.272 26.023,53.272 			"/>
			<polygon fill="none" points="26.068,52.177 26.66,52.177 26.66,51.151 26.162,51.151 			"/>
			<polygon fill="none" points="4.711,53.272 3.924,53.272 3.924,57.063 4.492,57.063 			"/>
			<polygon fill="none" points="3.924,60.152 3.924,63.941 4.096,63.941 4.314,60.152 			"/>
			<polygon fill="none" points="21.264,32.639 9.07,32.639 10.539,36.429 19.639,36.429 			"/>
			<polygon fill="none" points="13.98,45.299 15.846,45.299 16.285,44.271 13.583,44.271 			"/>
			<polygon fill="none" points="4.547,51.151 3.924,51.151 3.924,52.177 4.633,52.177 			"/>
			<polygon fill="none" points="13.207,43.306 16.697,43.306 18.318,39.517 11.739,39.517 			"/>
			<polygon fill="none" points="4.148,46.396 3.924,46.396 3.924,50.187 4.467,50.187 			"/>
			<polygon fill="none" points="26.66,50.187 26.66,46.396 26.6,46.396 26.251,50.187 			"/>
			<polygon fill="none" points="26.52,63.941 26.66,63.941 26.66,60.152 26.344,60.152 			"/>
			<polygon fill="none" points="26.293,59.059 26.66,59.059 26.66,58.03 26.246,58.03 			"/>
			<polygon fill="none" points="4.438,58.03 3.924,58.03 3.924,59.059 4.377,59.059 			"/>
			<rect x="26.66" y="46.396" fill="#A76C23" width="3.924" height="3.791"/>
			<polygon fill="#A76C23" points="8.248,30.517 0,30.517 0,31.542 8.646,31.542 			"/>
			<polygon fill="#A76C23" points="4.492,57.063 26.199,57.063 26.023,53.272 4.711,53.272 			"/>
			<polygon fill="#A76C23" points="4.377,59.059 26.293,59.059 26.246,58.03 4.438,58.03 			"/>
			<polygon fill="#A76C23" points="9.07,32.639 0,32.639 0,36.429 10.539,36.429 			"/>
			<polygon fill="#A76C23" points="10.914,37.393 0,37.393 0,38.423 11.313,38.423 			"/>
			<polygon fill="#A76C23" points="4.314,60.152 4.096,63.941 26.52,63.941 26.344,60.152 			"/>
			<polygon fill="#A76C23" points="15.846,45.299 30.584,45.299 30.584,44.271 16.285,44.271 			"/>
			<polygon fill="#A76C23" points="18.787,38.423 30.584,38.423 30.584,37.393 19.227,37.393 			"/>
			<polygon fill="#A76C23" points="4.633,52.177 26.068,52.177 26.162,51.151 4.547,51.151 			"/>
			<rect y="64.907" fill="#A76C23" width="3.924" height="3.203"/>
			<rect x="26.66" y="60.152" fill="#A76C23" width="3.924" height="3.789"/>
			<polygon fill="#A76C23" points="30.498,30.517 22.17,30.517 21.729,31.542 30.584,31.542 30.584,25.783 24.668,24.676 
				22.584,29.552 30.498,29.552 			"/>
			<polygon fill="#A76C23" points="19.639,36.429 30.584,36.429 30.584,32.639 21.264,32.639 			"/>
			<polygon fill="#A76C23" points="18.318,39.517 16.697,43.306 30.584,43.306 30.584,39.517 			"/>
			<rect y="46.396" fill="#A76C23" width="3.924" height="3.791"/>
			<polygon fill="#A76C23" points="13.98,45.299 13.583,44.271 3.972,44.271 4.059,45.299 			"/>
			<polygon fill="#A76C23" points="11.739,39.517 0,39.517 0,43.306 13.207,43.306 			"/>
			<rect y="58.03" fill="#A76C23" width="3.924" height="1.028"/>
			<rect x="26.66" y="58.03" fill="#A76C23" width="3.924" height="1.028"/>
			<polygon fill="#A76C23" points="26.66,66.965 26.66,68.11 30.584,68.11 30.584,64.907 26.66,64.907 			"/>
			<polygon fill="#A76C23" points="14.406,46.396 4.148,46.396 4.467,50.187 26.251,50.187 26.6,46.396 15.377,46.396 
				14.868,47.586 			"/>
			<rect y="60.152" fill="#A76C23" width="3.924" height="3.789"/>
			<rect y="53.272" fill="#A76C23" width="3.924" height="3.791"/>
			<rect y="44.271" fill="#A76C23" width="3.924" height="1.027"/>
			<rect x="26.66" y="51.151" fill="#A76C23" width="3.924" height="1.025"/>
			<polygon fill="#A76C23" points="4.042,64.907 3.924,66.965 14.662,66.965 15.295,66.965 26.66,66.965 26.563,64.907 			"/>
			<polygon fill="#A76C23" points="5.914,24.5 0,25.783 0,29.552 7.871,29.552 			"/>
			<rect y="51.151" fill="#A76C23" width="3.924" height="1.025"/>
			<rect x="26.66" y="53.272" fill="#A76C23" width="3.924" height="3.791"/>
			<polygon fill="#040000" points="21.729,31.542 8.646,31.542 9.07,32.639 21.264,32.639 			"/>
			<rect x="-0.002" y="31.542" fill="#040000" width="0.002" height="1.097"/>
			<polygon fill="#040000" points="8.646,31.542 0,31.542 0,32.639 9.07,32.639 			"/>
			<polygon fill="#040000" points="21.264,32.639 30.584,32.639 30.584,31.542 21.729,31.542 			"/>
			<rect x="-0.002" y="38.423" fill="#040000" width="0.002" height="1.094"/>
			<polygon fill="#040000" points="18.318,39.517 30.584,39.517 30.584,38.423 18.787,38.423 			"/>
			<polygon fill="#040000" points="11.313,38.423 0,38.423 0,39.517 11.739,39.517 			"/>
			<rect x="-0.002" y="45.299" fill="#040000" width="0.002" height="1.097"/>
			<polyline fill="#040000" points="26.66,46.396 30.584,46.396 30.584,45.299 15.846,45.299 15.377,46.396 26.6,46.396 
				26.66,45.743 			"/>
			<rect y="45.299" fill="#040000" width="3.924" height="1.097"/>
			<polygon fill="#040000" points="4.148,46.396 14.406,46.396 13.98,45.299 4.059,45.299 			"/>
			<rect x="-0.002" y="52.177" fill="#040000" width="0.002" height="1.096"/>
			<polygon fill="#040000" points="4.717,53.165 4.711,53.272 26.023,53.272 26.006,52.855 26.068,52.177 4.633,52.177 			"/>
			<rect x="26.66" y="52.177" fill="#040000" width="3.924" height="1.096"/>
			<rect y="52.177" fill="#040000" width="3.924" height="1.096"/>
			<rect x="-0.002" y="59.059" fill="#040000" width="0.002" height="1.094"/>
			<polygon fill="#040000" points="4.314,60.152 26.344,60.152 26.293,59.059 4.377,59.059 			"/>
			<rect x="26.66" y="59.059" fill="#040000" width="3.924" height="1.094"/>
			<rect y="59.059" fill="#040000" width="3.924" height="1.094"/>
			<polygon fill="#EAEAEA" points="30.584,30.517 30.584,29.552 22.584,29.552 22.17,30.517 			"/>
			<polygon fill="#EAEAEA" points="7.871,29.552 0,29.552 0,30.517 8.248,30.517 			"/>
			<polygon fill="#EAEAEA" points="10.539,36.429 0,36.429 0,37.393 10.914,37.393 			"/>
			<polygon fill="#EAEAEA" points="19.227,37.393 30.584,37.393 30.584,36.429 19.639,36.429 			"/>
			<polygon fill="#EAEAEA" points="3.924,43.688 3.924,44.271 3.972,44.271 			"/>
			<polygon fill="#EAEAEA" points="3.924,43.688 3.972,44.271 13.583,44.271 13.207,43.306 0,43.306 0,44.271 3.924,44.271 			"/>
			<polygon fill="#EAEAEA" points="16.285,44.271 30.584,44.271 30.584,43.306 16.697,43.306 			"/>
			<rect x="26.66" y="50.187" fill="#EAEAEA" width="3.924" height="0.965"/>
			<rect y="50.187" fill="#EAEAEA" width="3.924" height="0.965"/>
			<polygon fill="#EAEAEA" points="26.162,51.151 26.251,50.187 4.467,50.187 4.547,51.151 			"/>
			<rect x="26.66" y="57.063" fill="#EAEAEA" width="3.924" height="0.967"/>
			<rect y="57.063" fill="#EAEAEA" width="3.924" height="0.967"/>
			<polygon fill="#EAEAEA" points="4.438,58.03 26.246,58.03 26.199,57.063 4.492,57.063 			"/>
			<polygon fill="#EAEAEA" points="26.52,63.941 4.096,63.941 4.042,64.907 26.563,64.907 			"/>
			<rect x="26.66" y="63.941" fill="#EAEAEA" width="3.924" height="0.966"/>
			<rect y="63.941" fill="#EAEAEA" width="3.924" height="0.966"/>
		</g>
		<rect y="64.841" fill="#005163" width="3.924" height="3.27"/>
		<rect x="26.66" y="64.841" fill="#005163" width="3.924" height="3.27"/>
		<polygon fill="#005163" points="15.295,66.965 13.281,66.965 13.342,49.313 3.924,24.932 5.914,24.5 15.295,48.688 		"/>
		<polygon fill="#005163" points="16.409,66.965 14.662,66.965 14.662,48.068 24.668,24.676 26.66,25.047 16.409,49.312 		"/>
		<rect x="6.396" y="71.546" opacity="0.2" fill="#040000" width="5.967" height="49.252"/>
		<rect x="18.602" y="71.544" opacity="0.2" fill="#040000" width="5.971" height="49.248"/>
		<rect x="6.418" y="115.299" fill="#AC3423" width="5.926" height="5.502"/>
		<rect x="18.623" y="115.299" fill="#AC3423" width="5.926" height="5.502"/>
	</g>
	<g>
	</g>
	<g>
	</g>
	<g>
	</g>
	<g>
	</g>
	<g>
	</g>
	<g>
	</g>
	<g>
	</g>
	<g>
	</g>
	<g>
	</g>
	<g>
	</g>
	<g>
	</g>
	<g>
	</g>
	<g>
	</g>
	<g>
	</g>
	<g>
	</g>
</g>
</svg>
