<?xml version="1.0" encoding="utf-8"?>
<!-- Generator: Adobe Illustrator 16.0.0, SVG Export Plug-In . SVG Version: 6.00 Build 0)  -->
<!DOCTYPE svg PUBLIC "-//W3C//DTD SVG 1.1//EN" "http://www.w3.org/Graphics/SVG/1.1/DTD/svg11.dtd">
<svg version="1.1" xmlns="http://www.w3.org/2000/svg" xmlns:xlink="http://www.w3.org/1999/xlink" x="0px" y="0px"
	 width="37.688px" height="157.896px" viewBox="0 0 37.688 157.896" enable-background="new 0 0 37.688 157.896"
	 xml:space="preserve">
<g id="圖層_2" display="none">
	<rect x="-1948.311" y="-1829.302" display="inline" fill="#0071BC" width="3593" height="2405"/>
</g>
<g id="圖層_1">
	<g>
		<polygon fill="#161613" points="35.246,32.043 8.615,32.061 8.615,6.668 29.012,6.656 		"/>
		<polygon fill="#EDCDAA" points="15.373,150.185 15.355,116.582 15.336,82.651 7.953,82.655 7.969,116.587 8.012,157.896 
			10.975,157.896 10.975,156.464 13.939,156.462 13.939,157.896 22.588,157.892 22.588,156.143 		"/>
		<polygon fill="#EDCDAA" points="37.748,157.882 37.748,156.133 30.552,150.177 30.549,150.177 30.532,117.607 30.513,82.669 
			23.129,82.673 23.146,117.609 23.171,157.888 26.135,157.887 26.135,156.455 29.1,156.454 29.1,157.886 		"/>
		<rect x="0.017" y="32.06" fill="#EDCDAA" width="4.518" height="54.67"/>
		<rect x="33.155" y="32.043" fill="#EDCDAA" width="4.518" height="54.67"/>
		<polygon fill="#EDCDAA" points="33.141,32.257 24.527,26.78 24.514,26.78 29.019,20.115 29.012,6.656 24.501,0 13.122,0.007 
			8.615,6.668 8.621,20.127 13.136,26.787 13.149,26.787 4.514,32.274 4.553,42.687 8.594,63.91 7.82,78.4 14.816,86.723 
			22.893,86.719 29.879,78.391 29.094,63.9 33.145,42.449 		"/>
		<rect x="16.589" y="21.076" fill="#E97AAB" width="4.47" height="2.138"/>
		<polygon fill="#161613" points="24.501,0 13.122,0.007 8.615,6.668 8.615,9.614 8.615,15.842 10.897,9.913 13.277,5.736 
			19.936,8.601 30.48,17.052 29.012,6.656 		"/>
		<polygon fill="#221714" points="19.806,153.838 17.904,153.836 15.146,150.185 15.373,150.185 15.373,148.926 8.002,148.926 
			8.002,150.185 14.338,150.185 17.092,153.833 8.01,153.818 8.012,157.896 10.975,157.896 10.975,156.464 13.939,156.462 
			13.939,157.896 22.588,157.892 22.588,156.143 		"/>
		<polygon fill="#221714" points="34.948,153.838 33.049,153.836 30.291,150.185 30.552,150.185 30.548,148.926 23.146,148.926 
			23.146,150.185 29.482,150.185 32.24,153.833 23.152,153.818 23.156,157.896 26.117,157.896 26.117,156.464 29.082,156.462 
			29.082,157.896 37.73,157.892 37.73,156.143 		"/>
		<polygon fill="#B2D2C8" points="33.141,32.257 30.729,30.724 30.719,38.386 6.919,38.386 6.917,30.743 4.514,32.274 4.52,42.462 
			8.594,63.91 29.094,63.9 33.145,42.449 		"/>
		<polygon fill="#E97AAB" points="29.729,60.545 7.953,60.545 4.881,77.233 4.877,86.525 4.873,92.26 32.934,92.277 32.938,86.544 
			32.942,77.252 		"/>
		<rect x="2.275" y="76.411" fill="#53190F" width="2.598" height="15.849"/>
		
			<line fill="none" stroke="#51180F" stroke-linecap="round" stroke-miterlimit="10" x1="4.354" y1="77.306" x2="33.141" y2="32.043"/>
	</g>
	<g>
	</g>
	<g>
	</g>
	<g>
	</g>
	<g>
	</g>
	<g>
	</g>
	<g>
	</g>
	<g>
	</g>
	<g>
	</g>
	<g>
	</g>
	<g>
	</g>
	<g>
	</g>
	<g>
	</g>
	<g>
	</g>
	<g>
	</g>
	<g>
	</g>
</g>
</svg>
