<?xml version="1.0" encoding="utf-8"?>
<!-- Generator: Adobe Illustrator 16.0.0, SVG Export Plug-In . SVG Version: 6.00 Build 0)  -->
<!DOCTYPE svg PUBLIC "-//W3C//DTD SVG 1.1//EN" "http://www.w3.org/Graphics/SVG/1.1/DTD/svg11.dtd">
<svg version="1.1" id="圖層_1" xmlns="http://www.w3.org/2000/svg" xmlns:xlink="http://www.w3.org/1999/xlink" x="0px" y="0px"
	 width="44.823px" height="23.03px" viewBox="0 0 44.823 23.03" enable-background="new 0 0 44.823 23.03" xml:space="preserve">
<g>
	<path fill="#313316" d="M44.323,10.577c0-5.554-9.813-10.059-21.912-10.059C10.309,0.518,0.5,5.023,0.5,10.577
		c0,0.405,0,1.99,0,2.395c0,5.555,9.809,10.059,21.911,10.059c12.1,0,21.912-4.504,21.912-10.059
		C44.323,12.567,44.323,10.982,44.323,10.577z"/>
	<ellipse fill="#6D6D33" cx="22.412" cy="10.577" rx="21.912" ry="10.059"/>
	<g>
		<g>
			<path fill="#B9D699" d="M31.752,14.898c-1.154,0.539-2.162,0.738-3.021,0.6c-0.885-0.142-0.738-0.487,0.44-1.034l15.774-7.323
				c-1.736,0.326-2.772,0.462-3.11,0.41c-0.312-0.048-0.395-0.168-0.245-0.361c0.146-0.206,0.492-0.436,1.039-0.688
				c0.611-0.282,1.311-0.498,2.098-0.647l5.459-1.043c0.798-0.148,1.47-0.18,2.019-0.097c0.697,0.105,0.273,0.519-1.273,1.24
				L31.752,14.898z"/>
		</g>
	</g>
</g>
<g>
</g>
<g>
</g>
<g>
</g>
<g>
</g>
<g>
</g>
<g>
</g>
<g>
</g>
<g>
</g>
<g>
</g>
<g>
</g>
<g>
</g>
<g>
</g>
<g>
</g>
<g>
</g>
<g>
</g>
</svg>
