<?xml version="1.0" encoding="utf-8"?>
<!-- Generator: Adobe Illustrator 16.0.0, SVG Export Plug-In . SVG Version: 6.00 Build 0)  -->
<!DOCTYPE svg PUBLIC "-//W3C//DTD SVG 1.1//EN" "http://www.w3.org/Graphics/SVG/1.1/DTD/svg11.dtd">
<svg version="1.1" id="圖層_1" xmlns="http://www.w3.org/2000/svg" xmlns:xlink="http://www.w3.org/1999/xlink" x="0px" y="0px"
	 width="43.822px" height="22.511px" viewBox="0 0 43.822 22.511" enable-background="new 0 0 43.822 22.511" xml:space="preserve">
<g>
	<path fill="#A06805" d="M43.822,10.057C43.822,4.503,34.013,0,21.912,0C9.809,0,0,4.503,0,10.057c0,0.404,0,1.989,0,2.395
		c0,5.555,9.809,10.06,21.912,10.06c12.101,0,21.91-4.505,21.91-10.06C43.822,12.046,43.822,10.461,43.822,10.057z"/>
	<ellipse fill="#DD9A2F" cx="21.911" cy="10.057" rx="21.911" ry="10.059"/>
	<g>
		<g>
			<path fill="#FFCE80" d="M19.89,16.907c0.431,0.457,0.245,0.929-0.557,1.417c-0.826,0.502-1.459,0.521-1.899,0.061l-5.905-6.178
				c-0.38,0.837-0.731,1.355-1.053,1.556c-0.298,0.187-0.608,0.271-0.931,0.253c-0.354-0.01-0.633-0.12-0.839-0.332
				c-0.229-0.236-0.259-0.545-0.088-0.924l1.173-2.642c0.185-0.39,0.54-0.75,1.067-1.083c0.671-0.422,1.295-0.327,1.873,0.284
				L19.89,16.907z"/>
			<path fill="#FFCE80" d="M27.53,5.933c1.241,1.396,1.983,2.581,2.226,3.552c0.366,1.432-0.234,2.624-1.803,3.577
				c-1.568,0.954-3.125,1.081-4.671,0.384c-1.036-0.46-2.188-1.373-3.456-2.743c-1.284-1.388-2.042-2.532-2.273-3.436
				c-0.361-1.417,0.268-2.636,1.886-3.654c1.618-1.02,3.195-1.183,4.73-0.488C25.136,3.563,26.257,4.5,27.53,5.933z M24.984,7.239
				c-1.783-1.981-3.17-2.661-4.162-2.04c-0.968,0.606-0.556,1.89,1.237,3.852c2.034,2.226,3.535,3.042,4.505,2.448
				C27.534,10.906,27.007,9.486,24.984,7.239z"/>
		</g>
	</g>
</g>
<g>
</g>
<g>
</g>
<g>
</g>
<g>
</g>
<g>
</g>
<g>
</g>
<g>
</g>
<g>
</g>
<g>
</g>
<g>
</g>
<g>
</g>
<g>
</g>
<g>
</g>
<g>
</g>
<g>
</g>
</svg>
