<?xml version="1.0" encoding="utf-8"?>
<!-- Generator: Adobe Illustrator 16.0.0, SVG Export Plug-In . SVG Version: 6.00 Build 0)  -->
<!DOCTYPE svg PUBLIC "-//W3C//DTD SVG 1.1//EN" "http://www.w3.org/Graphics/SVG/1.1/DTD/svg11.dtd">
<svg version="1.1" id="圖層_1" xmlns="http://www.w3.org/2000/svg" xmlns:xlink="http://www.w3.org/1999/xlink" x="0px" y="0px"
	 width="44.823px" height="23.03px" viewBox="0 0 44.823 23.03" enable-background="new 0 0 44.823 23.03" xml:space="preserve">
<g>
	<path fill="#C68400" d="M44.823,10.577c0-5.555-9.812-10.058-21.912-10.058C10.809,0.519,1,5.022,1,10.577c0,0.405,0,1.989,0,2.394
		c0,5.556,9.809,10.059,21.911,10.059c12.101,0,21.912-4.503,21.912-10.059C44.823,12.566,44.823,10.982,44.823,10.577z"/>
	<ellipse fill="#FFF100" cx="22.912" cy="10.577" rx="21.912" ry="10.058"/>
	<g>
		<g>
			<path fill="#C68400" d="M21.49,11.842c-0.843,1.246-1.884,2.084-3.126,2.512c-1.395,0.452-2.931,0.388-4.602-0.188
				c-1.462-0.505-2.375-1.214-2.734-2.126c-0.271-0.695-0.194-1.329,0.23-1.904c0.431-0.585,1.052-0.741,1.862-0.469
				c0.5,0.168,0.773,0.424,0.819,0.767c0.031,0.339,0.056,0.662,0.073,0.97c0.106,0.391,0.494,0.7,1.16,0.927
				c1.245,0.424,2.347-0.055,3.308-1.437c0.923-1.328,0.788-2.189-0.409-2.583c-0.569-0.188-1.171-0.177-1.808,0.031
				c-0.609,0.217-1.177,0.237-1.704,0.062c-0.352-0.117-0.625-0.266-0.82-0.448c-0.244-0.237-0.278-0.476-0.101-0.717
				c0.062-0.083,1.264-1.474,3.605-4.175c0.593-0.69,1.512-0.838,2.756-0.446l4.204,1.326c0.887,0.28,1.127,0.716,0.723,1.31
				c-0.471,0.691-1.146,0.896-2.024,0.614l-2.745-0.88c-0.648-0.208-1.149-0.115-1.502,0.279l-1.118,1.299
				c1.034-0.146,1.912-0.103,2.637,0.132c1.332,0.433,2.064,1.171,2.202,2.218C22.502,9.804,22.208,10.78,21.49,11.842z"/>
			<path fill="#C68400" d="M34.032,13.816c-1.07,1.765-2.135,3.02-3.195,3.764c-1.572,1.098-3.352,1.302-5.336,0.617
				s-2.911-1.812-2.774-3.375c0.09-1.041,0.707-2.416,1.845-4.129c1.152-1.735,2.235-2.943,3.246-3.626
				c1.575-1.076,3.324-1.313,5.252-0.706c1.928,0.606,2.83,1.689,2.712,3.254C35.713,10.605,35.13,12.006,34.032,13.816z
				 M31.234,12.629c1.558-2.495,1.738-3.934,0.544-4.315c-1.165-0.373-2.543,0.671-4.133,3.132
				c-1.804,2.792-2.099,4.395-0.884,4.808S29.467,15.459,31.234,12.629z"/>
		</g>
	</g>
</g>
<g>
</g>
<g>
</g>
<g>
</g>
<g>
</g>
<g>
</g>
<g>
</g>
<g>
</g>
<g>
</g>
<g>
</g>
<g>
</g>
<g>
</g>
<g>
</g>
<g>
</g>
<g>
</g>
<g>
</g>
</svg>
