<?xml version="1.0" encoding="utf-8"?>
<!-- Generator: Adobe Illustrator 16.0.0, SVG Export Plug-In . SVG Version: 6.00 Build 0)  -->
<!DOCTYPE svg PUBLIC "-//W3C//DTD SVG 1.1//EN" "http://www.w3.org/Graphics/SVG/1.1/DTD/svg11.dtd">
<svg version="1.1" id="圖層_1" xmlns="http://www.w3.org/2000/svg" xmlns:xlink="http://www.w3.org/1999/xlink" x="0px" y="0px"
	 width="208.675px" height="339.084px" viewBox="0 0 208.675 339.084" enable-background="new 0 0 208.675 339.084"
	 xml:space="preserve">
<g>
	<polygon fill="#9EA7E5" points="208.675,339.063 0,339.084 0,0.036 208.675,0 	"/>
	<polygon fill="#7C89CE" points="208.675,339.063 119.812,339.065 141.786,81.12 162.324,81.117 171.19,0.014 208.675,0 	"/>
	<rect x="17.714" y="16.373" fill="#CAD3FF" width="11.104" height="12.582"/>
	<rect x="17.714" y="62.999" fill="#CAD3FF" width="11.104" height="12.589"/>
	<polygon fill="#CAD3FF" points="28.818,122.216 17.719,122.217 17.711,109.638 28.813,109.639 	"/>
	<polygon fill="#CAD3FF" points="28.822,168.85 17.711,168.853 17.709,156.272 28.813,156.269 	"/>
	<rect x="17.711" y="202.904" fill="#CAD3FF" width="11.108" height="12.581"/>
	<polygon fill="#CAD3FF" points="28.82,262.115 17.715,262.118 17.711,249.537 28.81,249.54 	"/>
	<polygon fill="#CAD3FF" points="28.818,308.755 17.714,308.755 17.711,296.172 28.811,296.168 	"/>
	<rect x="83.153" y="16.373" fill="#CAD3FF" width="11.102" height="12.582"/>
	<rect x="83.153" y="62.999" fill="#CAD3FF" width="11.102" height="12.589"/>
	<polygon fill="#CAD3FF" points="94.258,122.216 83.157,122.217 83.151,109.638 94.253,109.639 	"/>
	<polygon fill="#CAD3FF" points="94.262,168.85 83.15,168.853 83.147,156.272 94.253,156.269 	"/>
	<polygon fill="#CAD3FF" points="94.26,215.485 83.15,215.485 83.149,202.904 94.254,202.904 	"/>
	<polygon fill="#CAD3FF" points="94.259,262.115 83.154,262.118 83.149,249.537 94.251,249.54 	"/>
	<polygon fill="#CAD3FF" points="94.258,308.755 83.151,308.755 83.15,296.172 94.251,296.168 	"/>
	<rect x="52.159" y="34.868" fill="#CAD3FF" width="11.102" height="12.582"/>
	<rect x="52.157" y="85.815" fill="#CAD3FF" width="11.104" height="12.583"/>
	<rect x="52.157" y="134.427" fill="#CAD3FF" width="11.107" height="12.584"/>
	<polygon fill="#CAD3FF" points="63.263,192.019 52.156,192.019 52.159,179.439 63.256,179.437 	"/>
	<polygon fill="#CAD3FF" points="63.262,237.197 52.165,237.2 52.157,224.618 63.257,224.618 	"/>
	<rect x="110.408" y="34.868" fill="#CAD3FF" width="11.1" height="12.582"/>
	<rect x="110.407" y="85.815" fill="#CAD3FF" width="11.103" height="12.583"/>
	<rect x="110.405" y="134.427" fill="#CAD3FF" width="11.104" height="12.584"/>
	<polygon fill="#CAD3FF" points="121.511,192.019 110.403,192.019 110.408,179.439 121.504,179.437 	"/>
	<rect x="110.409" y="224.616" fill="#CAD3FF" width="11.098" height="12.582"/>
	<polygon fill="#CAD3FF" points="61.73,284.208 50.634,284.219 50.626,271.632 61.727,271.63 	"/>
</g>
<g>
</g>
<g>
</g>
<g>
</g>
<g>
</g>
<g>
</g>
<g>
</g>
<g>
</g>
<g>
</g>
<g>
</g>
<g>
</g>
<g>
</g>
<g>
</g>
<g>
</g>
<g>
</g>
<g>
</g>
</svg>
