<?xml version="1.0" encoding="utf-8"?>
<!-- Generator: Adobe Illustrator 16.0.0, SVG Export Plug-In . SVG Version: 6.00 Build 0)  -->
<!DOCTYPE svg PUBLIC "-//W3C//DTD SVG 1.1//EN" "http://www.w3.org/Graphics/SVG/1.1/DTD/svg11.dtd">
<svg version="1.1" id="圖層_1" xmlns="http://www.w3.org/2000/svg" xmlns:xlink="http://www.w3.org/1999/xlink" x="0px" y="0px"
	 width="533.917px" height="256.656px" viewBox="0 0 533.917 256.656" enable-background="new 0 0 533.917 256.656"
	 xml:space="preserve">
<g>
	<polygon fill="#FFB6E5" points="267.16,0 182.812,110.399 209.166,149.826 325.143,149.826 351.5,110.399 	"/>
	<g>
		<g>
			<polygon fill="#D9E8FF" points="256.619,13.517 261.889,20.276 267.16,27.034 256.619,27.034 246.072,27.034 251.347,20.276 			
				"/>
			<polygon fill="#D9E8FF" points="267.16,0 272.43,6.759 277.706,13.517 267.16,13.517 256.619,13.517 261.889,6.759 			"/>
			<polygon fill="#D9E8FF" points="277.706,13.517 282.975,20.276 288.247,27.034 277.706,27.034 267.16,27.034 272.43,20.276 			
				"/>
			<g>
				<polygon fill="#C0DAFF" points="258.666,14.517 275.657,14.517 267.16,25.408 				"/>
				<path fill="#FFFFFF" d="M273.607,15.517l-2.755,3.53l-3.692,4.736l-3.695-4.735l-2.751-3.53h6.446H273.607 M277.706,13.517
					H267.16h-10.541l5.27,6.76l5.271,6.758l5.27-6.758L277.706,13.517L277.706,13.517z"/>
			</g>
		</g>
		<polygon fill="#D9E8FF" points="224.984,81.105 230.254,87.865 235.53,94.626 224.984,94.626 214.441,94.626 219.71,87.865 		"/>
		<polygon fill="#D9E8FF" points="246.069,81.105 251.341,87.865 256.611,94.626 246.069,94.626 235.53,94.626 240.799,87.865 		"/>
		<g>
			<polygon fill="#C0DAFF" points="227.031,82.105 244.022,82.105 235.529,93 			"/>
			<path fill="#FFFFFF" d="M241.974,83.105l-2.752,3.53l-3.693,4.738l-3.698-4.738l-2.752-3.53h6.451H241.974 M246.069,81.105
				h-10.54h-10.546l5.27,6.76l5.276,6.761l5.27-6.761L246.069,81.105L246.069,81.105z"/>
		</g>
		<polygon fill="#D9E8FF" points="319.874,67.587 325.146,74.348 330.417,81.106 319.874,81.106 309.33,81.106 314.603,74.348 		"/>
		<polygon fill="#D9E8FF" points="203.896,81.105 209.169,87.865 214.441,94.626 203.896,94.626 193.354,94.626 198.625,87.865 		
			"/>
		<g>
			<polygon fill="#C0DAFF" points="205.944,82.105 222.936,82.105 214.441,93 			"/>
			<path fill="#FFFFFF" d="M220.887,83.105l-2.754,3.53l-3.691,4.737l-3.695-4.738l-2.753-3.53h6.449H220.887 M224.984,81.105
				h-10.542h-10.545l5.273,6.76l5.272,6.761l5.269-6.761L224.984,81.105L224.984,81.105z"/>
		</g>
		<g>
			<polygon fill="#C0DAFF" points="290.292,82.105 307.284,82.105 298.787,93 			"/>
			<path fill="#FFFFFF" d="M305.236,83.105l-2.753,3.53l-3.696,4.739l-3.696-4.738l-2.752-3.53h6.448H305.236 M309.332,81.105
				h-10.545h-10.543l5.27,6.76l5.273,6.761l5.273-6.761L309.332,81.105L309.332,81.105z"/>
		</g>
		<g>
			<polygon fill="#C0DAFF" points="311.378,82.106 328.369,82.106 319.874,93 			"/>
			<path fill="#FFFFFF" d="M326.322,83.106l-2.753,3.531l-3.695,4.737l-3.694-4.737l-2.754-3.531h6.448H326.322 M330.417,81.106
				h-10.543H309.33l5.272,6.761l5.271,6.759l5.272-6.759L330.417,81.106L330.417,81.106z"/>
		</g>
		<polygon fill="#D9E8FF" points="330.417,81.106 335.689,87.867 340.965,94.626 330.417,94.626 319.874,94.626 325.146,87.867 		
			"/>
		<polygon fill="#D9E8FF" points="309.33,81.106 314.603,87.867 319.874,94.626 309.33,94.626 298.789,94.626 304.061,87.867 		"/>
		<polygon fill="#D9E8FF" points="288.244,81.105 293.514,87.865 298.787,94.626 288.244,94.626 277.699,94.626 282.972,87.865 		
			"/>
		<g>
			<polygon fill="#C0DAFF" points="300.836,68.587 317.824,68.587 309.332,79.479 			"/>
			<path fill="#FFFFFF" d="M315.775,69.587l-2.753,3.53l-3.691,4.735l-3.693-4.736l-2.754-3.53h6.448H315.775 M319.872,67.587
				h-10.54h-10.545l5.273,6.76l5.271,6.759l5.268-6.759L319.872,67.587L319.872,67.587z"/>
		</g>
		<polygon fill="#D9E8FF" points="298.787,67.587 304.061,74.347 309.332,81.105 298.787,81.105 288.244,81.105 293.514,74.347 		
			"/>
		<g>
			<polygon fill="#C0DAFF" points="269.203,82.105 286.196,82.105 277.699,93 			"/>
			<path fill="#FFFFFF" d="M284.147,83.105l-2.753,3.53l-3.695,4.738l-3.694-4.738l-2.754-3.53h6.448H284.147 M288.244,81.105
				h-10.545h-10.545l5.273,6.76l5.271,6.761l5.272-6.761L288.244,81.105L288.244,81.105z"/>
		</g>
		<g>
			<polygon fill="#C0DAFF" points="248.117,82.105 265.107,82.105 256.611,93 			"/>
			<path fill="#FFFFFF" d="M263.061,83.105l-2.75,3.529l-3.699,4.739l-3.692-4.739l-2.754-3.53h6.446H263.061 M267.154,81.105
				h-10.543h-10.542l5.271,6.76l5.271,6.761l5.275-6.761L267.154,81.105L267.154,81.105z"/>
		</g>
		<polygon fill="#D9E8FF" points="267.154,81.105 272.428,87.865 277.699,94.626 267.154,94.626 256.611,94.626 261.887,87.865 		
			"/>
		<polygon fill="#D9E8FF" points="214.441,67.587 219.71,74.347 224.984,81.105 214.441,81.105 203.896,81.105 209.169,74.347 		"/>
		<g>
			<polygon fill="#C0DAFF" points="227.032,80.105 235.529,69.213 244.021,80.105 			"/>
			<path fill="#FFFFFF" d="M235.529,70.839l3.693,4.738l2.751,3.529h-6.444h-6.45l2.751-3.528L235.529,70.839 M235.53,67.587
				l-5.276,6.76l-5.27,6.759h10.546h10.54l-5.27-6.759L235.53,67.587L235.53,67.587z"/>
		</g>
		<g>
			<polygon fill="#C0DAFF" points="216.489,68.587 233.481,68.587 224.983,79.479 			"/>
			<path fill="#FFFFFF" d="M231.432,69.587l-2.755,3.53l-3.693,4.737l-3.696-4.736l-2.751-3.53h6.448H231.432 M235.53,67.587
				h-10.546h-10.542l5.269,6.76l5.274,6.759l5.27-6.759L235.53,67.587L235.53,67.587z"/>
		</g>
		<g>
			<polygon fill="#C0DAFF" points="279.747,68.587 296.738,68.587 288.244,79.479 			"/>
			<path fill="#FFFFFF" d="M294.69,69.587l-2.754,3.53l-3.692,4.736l-3.695-4.737l-2.753-3.53h6.448H294.69 M298.787,67.587h-10.543
				h-10.545l5.272,6.76l5.272,6.759l5.27-6.759L298.787,67.587L298.787,67.587z"/>
		</g>
		<polygon fill="#D9E8FF" points="277.699,67.587 282.972,74.347 288.244,81.105 277.699,81.105 267.154,81.105 272.428,74.347 		
			"/>
		<g>
			<polygon fill="#C0DAFF" points="258.66,68.587 275.651,68.587 267.154,79.479 			"/>
			<path fill="#FFFFFF" d="M273.604,69.587l-2.753,3.529l-3.695,4.737l-3.691-4.737l-2.755-3.529h6.445H273.604 M277.699,67.587
				h-10.545h-10.543l5.275,6.76l5.268,6.759l5.273-6.759L277.699,67.587L277.699,67.587z"/>
		</g>
		<g>
			<polygon fill="#C0DAFF" points="237.577,68.587 254.563,68.587 246.069,79.479 			"/>
			<path fill="#FFFFFF" d="M252.516,69.587l-2.751,3.53l-3.695,4.737l-3.693-4.736l-2.751-3.53h6.444H252.516 M256.611,67.587
				h-10.542h-10.54l5.27,6.76l5.27,6.759l5.271-6.759L256.611,67.587L256.611,67.587z"/>
		</g>
		<polygon fill="#D9E8FF" points="256.611,67.587 261.887,74.347 267.154,81.105 256.611,81.105 246.069,81.105 251.341,74.347 		
			"/>
		<polygon fill="#D9E8FF" points="246.068,54.069 251.339,60.828 256.613,67.587 246.068,67.587 235.526,67.587 240.796,60.828 		
			"/>
		<polygon fill="#D9E8FF" points="267.154,54.069 272.426,60.828 277.695,67.587 267.154,67.587 256.613,67.587 261.883,60.828 		
			"/>
		<g>
			<polygon fill="#C0DAFF" points="248.116,55.069 265.105,55.069 256.613,65.961 			"/>
			<path fill="#FFFFFF" d="M263.058,56.069l-2.753,3.529l-3.691,4.736l-3.696-4.737l-2.752-3.529h6.448H263.058 M267.154,54.069
				h-10.541h-10.545l5.271,6.759l5.274,6.759l5.27-6.759L267.154,54.069L267.154,54.069z"/>
		</g>
		<polygon fill="#D9E8FF" points="224.981,54.069 230.255,60.828 235.526,67.587 224.981,67.587 214.438,67.587 219.709,60.828 		
			"/>
		<g>
			<polygon fill="#C0DAFF" points="227.03,55.069 244.02,55.069 235.526,65.961 			"/>
			<path fill="#FFFFFF" d="M241.972,56.069l-2.753,3.529l-3.693,4.736l-3.694-4.737l-2.753-3.528h6.447H241.972 M246.068,54.069
				h-10.542h-10.545l5.274,6.759l5.271,6.759l5.27-6.759L246.068,54.069L246.068,54.069z"/>
		</g>
		<polygon fill="#D9E8FF" points="309.328,54.069 314.598,60.828 319.871,67.587 309.328,67.587 298.786,67.587 304.057,60.828 		
			"/>
		<g>
			<polygon fill="#C0DAFF" points="290.288,55.069 307.28,55.069 298.786,65.961 			"/>
			<path fill="#FFFFFF" d="M305.231,56.069l-2.752,3.529l-3.694,4.737l-3.696-4.737l-2.752-3.529h6.449H305.231 M309.328,54.069
				h-10.542H288.24l5.271,6.759l5.274,6.759l5.271-6.759L309.328,54.069L309.328,54.069z"/>
		</g>
		<g>
			<polygon fill="#C0DAFF" points="269.202,55.069 286.192,55.069 277.696,65.961 			"/>
			<path fill="#FFFFFF" d="M284.146,56.069l-2.75,3.528l-3.699,4.738l-3.693-4.737l-2.752-3.529h6.444H284.146 M288.24,54.069
				h-10.545h-10.541l5.271,6.759l5.27,6.759l5.276-6.759L288.24,54.069L288.24,54.069z"/>
		</g>
		<polygon fill="#D9E8FF" points="288.24,54.069 293.512,60.828 298.786,67.587 288.24,67.587 277.695,67.587 282.972,60.828 		"/>
		<polygon fill="#D9E8FF" points="235.526,40.553 240.796,47.31 246.068,54.069 235.526,54.069 224.981,54.069 230.255,47.31 		"/>
		<polygon fill="#D9E8FF" points="256.613,40.553 261.883,47.31 267.154,54.069 256.613,54.069 246.068,54.069 251.339,47.31 		"/>
		<g>
			<polygon fill="#C0DAFF" points="237.574,41.553 254.564,41.553 246.068,52.443 			"/>
			<path fill="#FFFFFF" d="M252.515,42.553l-2.752,3.527l-3.694,4.738l-3.695-4.738l-2.751-3.527h6.446H252.515 M256.613,40.553
				h-10.545h-10.542l5.27,6.757l5.272,6.76l5.271-6.76L256.613,40.553L256.613,40.553z"/>
		</g>
		<polygon fill="#D9E8FF" points="298.786,40.553 304.057,47.31 309.328,54.069 298.786,54.069 288.24,54.069 293.512,47.31 		"/>
		<g>
			<polygon fill="#C0DAFF" points="283.761,46.695 279.745,41.553 296.737,41.553 288.24,52.443 			"/>
			<path fill="#FFFFFF" d="M294.688,42.553l-2.753,3.527l-3.694,4.737l-3.692-4.738l-2.753-3.526h6.445H294.688 M298.786,40.553
				H288.24h-10.545l5.276,6.757l5.269,6.76l5.271-6.76L298.786,40.553L298.786,40.553z"/>
		</g>
		<g>
			<polygon fill="#C0DAFF" points="258.662,41.553 275.647,41.553 267.154,52.443 			"/>
			<path fill="#FFFFFF" d="M273.6,42.553l-2.751,3.527l-3.694,4.738l-3.695-4.738l-2.75-3.527h6.445H273.6 M277.695,40.553h-10.541
				h-10.541l5.27,6.757l5.271,6.76l5.271-6.76L277.695,40.553L277.695,40.553z"/>
		</g>
		<polygon fill="#D9E8FF" points="277.695,40.553 282.972,47.31 288.24,54.069 277.695,54.069 267.154,54.069 272.426,47.31 		"/>
		<polygon fill="#D9E8FF" points="246.071,27.034 251.341,33.793 256.615,40.553 246.071,40.553 235.526,40.553 240.801,33.793 		
			"/>
		<polygon fill="#D9E8FF" points="267.158,27.034 272.428,33.793 277.699,40.553 267.158,40.553 256.615,40.553 261.885,33.793 		
			"/>
		<g>
			<polygon fill="#C0DAFF" points="248.119,28.034 265.109,28.034 256.615,38.927 			"/>
			<path fill="#FFFFFF" d="M263.061,29.034l-2.752,3.529l-3.694,4.738l-3.695-4.738l-2.752-3.529h6.448H263.061 M267.158,27.034
				h-10.543h-10.544l5.27,6.759l5.274,6.76l5.27-6.76L267.158,27.034L267.158,27.034z"/>
		</g>
		<g>
			<polygon fill="#C0DAFF" points="269.206,28.034 286.193,28.034 277.699,38.927 			"/>
			<path fill="#FFFFFF" d="M284.146,29.034l-2.751,3.529l-3.695,4.738l-3.694-4.737l-2.751-3.529h6.445H284.146 M288.241,27.034
				h-10.542h-10.541l5.27,6.759l5.271,6.76l5.272-6.76L288.241,27.034L288.241,27.034z"/>
		</g>
		<polygon fill="#D9E8FF" points="288.241,27.034 293.516,33.793 298.787,40.553 288.241,40.553 277.699,40.553 282.972,33.793 		
			"/>
	</g>
	<g>
		<rect y="86.692" fill="#E0B89D" width="29.312" height="8.921"/>
		<rect x="504.604" y="86.692" fill="#E0B89D" width="29.314" height="8.921"/>
		<rect x="12.495" y="83.22" fill="#D3A888" width="31.155" height="8.921"/>
		<rect x="490.266" y="83.22" fill="#D3A888" width="31.156" height="8.921"/>
		<rect x="434.248" y="80.36" fill="#E0B89D" width="68.818" height="8.921"/>
		<rect x="370.069" y="76.275" fill="#D3A888" width="78.238" height="8.921"/>
		<rect x="30.85" y="80.36" fill="#E0B89D" width="68.818" height="8.921"/>
		<rect x="85.81" y="76.275" fill="#D3A888" width="78.238" height="8.921"/>
		<rect x="155.217" y="72.123" fill="#E0B89D" width="223.632" height="8.917"/>
		<g>
			<polygon fill="#8C7567" points="463.318,109.515 70.747,109.515 0.148,95.613 533.918,95.613 			"/>
			<polygon fill="#8C7567" points="454.133,106.042 79.936,106.042 12.643,92.141 521.422,92.141 			"/>
			<polygon fill="#8C7567" points="440.631,103.185 93.438,103.185 31,89.281 503.066,89.281 			"/>
			<polygon fill="#8C7567" points="400.357,99.098 133.712,99.098 85.757,85.196 448.308,85.196 			"/>
			<polygon fill="#8C7567" points="349.271,94.946 184.794,94.946 155.217,81.04 378.85,81.04 			"/>
		</g>
	</g>
	<g>
		<polygon fill="#D9E8FF" points="267.152,110.399 272.422,118.284 277.697,126.167 267.152,126.167 256.611,126.167 
			261.881,118.284 		"/>
		<polygon fill="#D9E8FF" points="288.241,110.399 293.512,118.284 298.782,126.167 288.241,126.167 277.697,126.167 
			282.969,118.284 		"/>
		<g>
			<polygon fill="#C0DAFF" points="269.023,111.399 286.369,111.399 277.697,124.369 			"/>
			<path fill="#FFFFFF" d="M284.498,112.399l-3.191,4.773l-3.61,5.398l-3.611-5.397l-3.19-4.773h6.803H284.498 M288.241,110.399
				h-10.544h-10.545l5.27,7.885l5.275,7.883l5.271-7.883L288.241,110.399L288.241,110.399z"/>
		</g>
		<polygon fill="#D9E8FF" points="246.066,141.94 251.341,149.826 256.611,157.711 246.066,157.711 235.523,157.711 
			240.796,149.826 		"/>
		<polygon fill="#D9E8FF" points="256.611,126.167 261.881,134.051 267.152,141.94 256.611,141.94 246.066,141.94 251.341,134.051 
					"/>
		<polygon fill="#D9E8FF" points="267.152,141.94 272.422,149.826 277.697,157.711 267.152,157.711 256.611,157.711 
			261.881,149.826 		"/>
		<g>
			<polygon fill="#C0DAFF" points="247.938,142.94 265.281,142.94 256.611,155.911 			"/>
			<path fill="#FFFFFF" d="M263.41,143.94l-3.192,4.774l-3.606,5.396l-3.608-5.397l-3.193-4.773h6.802H263.41 M267.152,141.94
				h-10.541h-10.545l5.274,7.886l5.271,7.885l5.27-7.885L267.152,141.94L267.152,141.94z"/>
		</g>
		<polygon fill="#D9E8FF" points="288.241,141.94 293.512,149.826 298.782,157.711 288.241,157.711 277.697,157.711 
			282.969,149.826 		"/>
		<polygon fill="#D9E8FF" points="298.782,126.167 304.057,134.051 309.326,141.94 298.782,141.94 288.241,141.94 293.512,134.051 
					"/>
		<polygon fill="#D9E8FF" points="309.326,141.94 314.6,149.826 319.871,157.711 309.326,157.711 298.782,157.711 304.057,149.826 
					"/>
		<g>
			<polygon fill="#C0DAFF" points="290.112,142.94 307.455,142.94 298.782,155.912 			"/>
			<path fill="#FFFFFF" d="M305.584,143.94l-3.189,4.773l-3.611,5.399l-3.608-5.398l-3.191-4.774h6.799H305.584 M309.326,141.94
				h-10.544h-10.541l5.271,7.886l5.271,7.885l5.274-7.885L309.326,141.94L309.326,141.94z"/>
		</g>
		<g>
			<polygon fill="#C0DAFF" points="279.569,127.167 296.911,127.167 288.241,140.141 			"/>
			<path fill="#FFFFFF" d="M295.039,128.167l-3.19,4.772l-3.607,5.401l-3.61-5.401l-3.19-4.772h6.801H295.039 M298.782,126.167
				h-10.541h-10.544l5.271,7.884l5.272,7.89l5.271-7.89L298.782,126.167L298.782,126.167z"/>
		</g>
		<g>
			<polygon fill="#C0DAFF" points="269.023,142.94 286.37,142.94 277.697,155.912 			"/>
			<path fill="#FFFFFF" d="M284.498,143.94l-3.192,4.774l-3.609,5.398l-3.611-5.398l-3.19-4.774h6.803H284.498 M288.241,141.94
				h-10.544h-10.545l5.27,7.886l5.275,7.885l5.271-7.885L288.241,141.94L288.241,141.94z"/>
		</g>
		<polygon fill="#D9E8FF" points="224.984,141.94 230.253,149.826 235.523,157.711 224.984,157.711 214.439,157.711 
			219.709,149.826 		"/>
		<g>
			<polygon fill="#C0DAFF" points="205.768,142.94 223.112,142.94 214.439,155.912 			"/>
			<path fill="#FFFFFF" d="M221.24,143.94l-3.194,4.774l-3.607,5.397l-3.61-5.397l-3.19-4.774h6.801H221.24 M224.984,141.94h-10.544
				h-10.542l5.269,7.886l5.274,7.885l5.27-7.885L224.984,141.94L224.984,141.94z"/>
		</g>
		<g>
			<polygon fill="#C0DAFF" points="226.855,142.94 244.195,142.94 235.523,155.912 			"/>
			<path fill="#FFFFFF" d="M242.324,143.94l-3.191,4.774l-3.61,5.397l-3.607-5.397l-3.19-4.774h6.797H242.324 M246.066,141.94
				h-10.543h-10.539l5.269,7.886l5.27,7.885l5.273-7.885L246.066,141.94L246.066,141.94z"/>
		</g>
		<polygon fill="#D9E8FF" points="224.984,110.399 230.253,118.284 235.523,126.167 224.984,126.167 214.439,126.167 
			219.709,118.284 		"/>
		<polygon fill="#D9E8FF" points="246.066,110.399 251.341,118.284 256.611,126.167 246.066,126.167 235.523,126.167 
			240.796,118.284 		"/>
		<g>
			<polygon fill="#C0DAFF" points="226.855,111.399 244.195,111.399 235.523,124.368 			"/>
			<path fill="#FFFFFF" d="M242.324,112.399l-3.19,4.773l-3.61,5.397l-3.607-5.396l-3.19-4.773h6.797H242.324 M246.066,110.399
				h-10.543h-10.539l5.269,7.885l5.27,7.883l5.273-7.883L246.066,110.399L246.066,110.399z"/>
		</g>
		<g>
			<polygon fill="#C0DAFF" points="247.938,111.399 265.281,111.399 256.611,124.368 			"/>
			<path fill="#FFFFFF" d="M263.409,112.399l-3.191,4.773l-3.606,5.396l-3.608-5.396l-3.192-4.773h6.801H263.409 M267.152,110.399
				h-10.541h-10.545l5.274,7.885l5.271,7.883l5.27-7.883L267.152,110.399L267.152,110.399z"/>
		</g>
		<polygon fill="#D9E8FF" points="203.897,110.399 209.166,118.284 214.439,126.167 203.897,126.167 193.349,126.167 
			198.625,118.284 		"/>
		<g>
			<polygon fill="#C0DAFF" points="184.683,111.399 202.025,111.399 193.35,124.368 			"/>
			<path fill="#FFFFFF" d="M200.154,112.399l-3.191,4.772l-3.612,5.397l-3.606-5.396l-3.19-4.773h6.795H200.154 M203.897,110.399
				h-10.548h-10.537l5.27,7.885l5.268,7.883l5.275-7.883L203.897,110.399L203.897,110.399z"/>
		</g>
		<g>
			<polygon fill="#C0DAFF" points="332.285,111.399 349.631,111.399 340.957,124.369 			"/>
			<path fill="#FFFFFF" d="M347.759,112.399l-3.19,4.772l-3.611,5.398l-3.61-5.397l-3.19-4.773h6.801H347.759 M351.502,110.399
				h-10.545h-10.543l5.27,7.885l5.273,7.883l5.273-7.883L351.502,110.399L351.502,110.399z"/>
		</g>
		<g>
			<polygon fill="#C0DAFF" points="205.768,111.399 223.112,111.399 214.439,124.368 			"/>
			<path fill="#FFFFFF" d="M221.24,112.399l-3.193,4.773l-3.607,5.396l-3.61-5.396l-3.19-4.773h6.801H221.24 M224.984,110.399
				h-10.544h-10.542l5.269,7.885l5.274,7.883l5.27-7.883L224.984,110.399L224.984,110.399z"/>
		</g>
		<polygon fill="#D9E8FF" points="235.523,126.167 240.796,134.051 246.066,141.94 235.523,141.94 224.984,141.94 230.253,134.051 
					"/>
		<g>
			<polygon fill="#C0DAFF" points="237.395,127.167 254.739,127.167 246.067,140.141 			"/>
			<path fill="#FFFFFF" d="M252.868,128.167l-3.19,4.772l-3.61,5.401l-3.609-5.402l-3.192-4.771h6.8H252.868 M256.611,126.167
				h-10.545h-10.543l5.273,7.884l5.271,7.89l5.274-7.89L256.611,126.167L256.611,126.167z"/>
		</g>
		<polygon fill="#D9E8FF" points="214.439,126.167 219.709,134.051 224.984,141.94 214.439,141.94 203.897,141.94 209.166,134.051 
					"/>
		<g>
			<polygon fill="#C0DAFF" points="195.222,127.167 212.567,127.167 203.896,140.141 			"/>
			<path fill="#FFFFFF" d="M210.695,128.167l-3.193,4.773l-3.606,5.399l-3.61-5.401l-3.193-4.771h6.803H210.695 M214.439,126.167
				h-10.542h-10.548l5.275,7.884l5.272,7.89l5.269-7.89L214.439,126.167L214.439,126.167z"/>
		</g>
		<g>
			<polygon fill="#C0DAFF" points="216.311,127.167 233.652,127.167 224.983,140.141 			"/>
			<path fill="#FFFFFF" d="M231.78,128.167l-3.19,4.773l-3.607,5.4l-3.611-5.401l-3.19-4.772h6.802H231.78 M235.523,126.167h-10.539
				h-10.544l5.27,7.884l5.275,7.89l5.269-7.89L235.523,126.167L235.523,126.167z"/>
		</g>
		<g>
			<polygon fill="#C0DAFF" points="258.482,127.167 275.825,127.167 271.591,133.495 267.152,140.141 			"/>
			<path fill="#FFFFFF" d="M273.952,128.167l-3.193,4.773l-3.606,5.399l-3.609-5.4l-3.189-4.772h6.799H273.952 M277.697,126.167
				h-10.545h-10.541l5.27,7.884l5.271,7.89l5.27-7.89L277.697,126.167L277.697,126.167z"/>
		</g>
		<polygon fill="#D9E8FF" points="277.697,126.167 282.969,134.051 288.241,141.94 277.697,141.94 267.152,141.94 272.422,134.051 
					"/>
		<polygon fill="#D9E8FF" points="319.871,126.167 325.143,134.051 330.414,141.94 319.871,141.94 309.326,141.94 314.6,134.051 		
			"/>
		<polygon fill="#D9E8FF" points="330.414,110.399 335.684,118.284 340.957,126.167 330.414,126.167 319.871,126.167 
			325.143,118.284 		"/>
		<g>
			<polygon fill="#C0DAFF" points="321.743,127.167 339.085,127.167 330.414,140.141 			"/>
			<path fill="#FFFFFF" d="M337.213,128.167l-3.192,4.773l-3.606,5.399l-3.609-5.4l-3.19-4.772h6.8H337.213 M340.957,126.167
				h-10.543h-10.543l5.271,7.884l5.271,7.89l5.27-7.89L340.957,126.167L340.957,126.167z"/>
		</g>
		<g>
			<polygon fill="#C0DAFF" points="311.198,142.94 328.543,142.94 319.871,155.912 			"/>
			<path fill="#FFFFFF" d="M326.672,143.94l-3.192,4.774l-3.608,5.397l-3.609-5.397l-3.192-4.774h6.802H326.672 M330.414,141.94
				h-10.543h-10.545l5.273,7.886l5.271,7.885l5.271-7.885L330.414,141.94L330.414,141.94z"/>
		</g>
		<g>
			<polygon fill="#C0DAFF" points="311.198,111.399 328.543,111.399 319.871,124.368 			"/>
			<path fill="#FFFFFF" d="M326.671,112.399l-3.19,4.773l-3.609,5.397l-3.609-5.397l-3.191-4.773h6.801H326.671 M330.414,110.399
				h-10.543h-10.545l5.273,7.885l5.271,7.883l5.271-7.883L330.414,110.399L330.414,110.399z"/>
		</g>
		<g>
			<polygon fill="#C0DAFF" points="304.889,133.495 300.654,127.167 317.999,127.167 309.326,140.141 			"/>
			<path fill="#FFFFFF" d="M316.128,128.167l-3.191,4.772l-3.609,5.401l-3.608-5.402l-3.192-4.771h6.8H316.128 M319.871,126.167
				h-10.545h-10.544l5.274,7.884l5.27,7.89l5.273-7.89L319.871,126.167L319.871,126.167z"/>
		</g>
		<g>
			<polygon fill="#C0DAFF" points="290.112,111.399 307.455,111.399 298.782,124.368 			"/>
			<path fill="#FFFFFF" d="M305.584,112.399l-3.189,4.772l-3.611,5.398l-3.608-5.397l-3.191-4.773h6.799H305.584 M309.326,110.399
				h-10.544h-10.541l5.271,7.885l5.271,7.883l5.274-7.883L309.326,110.399L309.326,110.399z"/>
		</g>
		<polygon fill="#D9E8FF" points="309.326,110.399 314.6,118.284 319.871,126.167 309.326,126.167 298.782,126.167 304.057,118.284 
					"/>
		<polygon fill="#D9E8FF" points="214.441,94.626 219.71,102.51 224.984,110.399 214.441,110.399 203.896,110.399 209.169,102.51 		
			"/>
		<polygon fill="#D9E8FF" points="256.611,94.626 261.887,102.51 267.154,110.399 256.611,110.399 246.069,110.399 251.341,102.51 
					"/>
		<g>
			<polygon fill="#C0DAFF" points="237.401,95.626 254.74,95.626 246.069,108.599 			"/>
			<path fill="#FFFFFF" d="M252.868,96.626l-3.189,4.772l-3.609,5.401l-3.607-5.401l-3.189-4.772h6.797H252.868 M256.611,94.626
				h-10.542h-10.54l5.27,7.884l5.27,7.89l5.271-7.89L256.611,94.626L256.611,94.626z"/>
		</g>
		<g>
			<polygon fill="#C0DAFF" points="300.66,95.626 318.003,95.626 309.33,108.6 			"/>
			<path fill="#FFFFFF" d="M316.131,96.626l-3.191,4.773l-3.609,5.4l-3.606-5.4l-3.191-4.773h6.798H316.131 M319.874,94.626H309.33
				h-10.541l5.271,7.885l5.27,7.889l5.272-7.889L319.874,94.626L319.874,94.626z"/>
		</g>
		<polygon fill="#D9E8FF" points="298.789,94.626 304.061,102.511 309.33,110.399 298.789,110.399 288.247,110.399 293.518,102.511 
					"/>
		<g>
			<polygon fill="#C0DAFF" points="321.746,95.626 339.093,95.626 330.417,108.6 			"/>
			<path fill="#FFFFFF" d="M337.221,96.626l-3.194,4.773l-3.609,5.4l-3.608-5.401l-3.191-4.773h6.8H337.221 M340.965,94.626h-10.548
				h-10.543l5.272,7.885l5.271,7.889l5.272-7.889L340.965,94.626L340.965,94.626z"/>
		</g>
		<polygon fill="#D9E8FF" points="340.965,94.626 346.231,102.511 351.5,110.399 340.965,110.399 330.417,110.399 335.689,102.511 
					"/>
		<polygon fill="#D9E8FF" points="319.874,94.626 325.146,102.511 330.417,110.399 319.874,110.399 309.33,110.399 314.603,102.511 
					"/>
		<polygon fill="#D9E8FF" points="193.354,94.626 198.625,102.51 203.896,110.399 193.354,110.399 182.812,110.399 188.083,102.51 
					"/>
		<g>
			<polygon fill="#C0DAFF" points="195.226,95.626 212.57,95.626 203.896,108.6 			"/>
			<path fill="#FFFFFF" d="M210.698,96.626l-3.191,4.772l-3.61,5.401l-3.609-5.401l-3.19-4.772h6.799H210.698 M214.441,94.626
				h-10.545h-10.542l5.271,7.884l5.271,7.89l5.273-7.89L214.441,94.626L214.441,94.626z"/>
		</g>
		<g>
			<polygon fill="#C0DAFF" points="216.313,95.626 233.657,95.626 229.423,101.954 224.983,108.6 			"/>
			<path fill="#FFFFFF" d="M231.785,96.626l-3.194,4.773l-3.607,5.401l-3.61-5.401l-3.189-4.772h6.8H231.785 M235.53,94.626h-10.546
				h-10.542l5.269,7.884l5.274,7.89l5.27-7.89L235.53,94.626L235.53,94.626z"/>
		</g>
		<polygon fill="#D9E8FF" points="235.53,94.626 240.799,102.51 246.069,110.399 235.53,110.399 224.984,110.399 230.254,102.51 		
			"/>
		<polygon fill="#D9E8FF" points="277.699,94.626 282.972,102.51 288.244,110.399 277.699,110.399 267.154,110.399 272.428,102.51 
					"/>
		<g>
			<polygon fill="#C0DAFF" points="279.571,95.626 296.915,95.626 288.244,108.599 			"/>
			<path fill="#FFFFFF" d="M295.043,96.626l-3.192,4.773l-3.606,5.4l-3.61-5.401l-3.191-4.772h6.802H295.043 M298.787,94.626
				h-10.543h-10.545l5.272,7.884l5.272,7.89l5.27-7.89L298.787,94.626L298.787,94.626z"/>
		</g>
		<g>
			<polygon fill="#C0DAFF" points="262.719,101.955 258.483,95.626 275.827,95.626 267.155,108.599 			"/>
			<path fill="#FFFFFF" d="M273.956,96.626l-3.191,4.772l-3.609,5.4l-3.606-5.401l-3.193-4.771h6.799H273.956 M277.699,94.626
				h-10.545h-10.543l5.275,7.884l5.268,7.89l5.273-7.89L277.699,94.626L277.699,94.626z"/>
		</g>
	</g>
	<g>
		<rect x="89.681" y="157.711" fill="#7F7F7F" width="354.952" height="30.809"/>
		<path fill="#AAAAAA" d="M495.623,249.893c0,0-37.967,6.104-233.189,6.104c-186.498,0-229.742-6.104-229.742-6.104v-34.83h462.932
			V249.893z"/>
		<path fill="#D3D3D3" d="M364.262,179.553l-195.667-0.232L32.691,215.063c0,0,72.556,6.107,230.655,6.107
			c186.863,0,232.276-6.107,232.276-6.107L364.262,179.553z"/>
		<path fill="#C9CACA" d="M86.681,206.352c0,0-5.648,1.883-7.53,1.883c-1.765,0-7.06-1.883-7.06-1.883v-72.007
			c0,0,5.589-1.887,7.295-1.887c1.943,0,7.294,1.887,7.294,1.887V206.352z"/>
		<path fill="#C9CACA" d="M456.224,206.352c0,0-5.649,1.883-7.53,1.883c-1.768,0-7.061-1.883-7.061-1.883v-72.007
			c0,0,5.59-1.887,7.294-1.887c1.942,0,7.297,1.887,7.297,1.887V206.352z"/>
		<rect x="166.323" y="154.438" fill="#7F7F7F" width="195.667" height="34.083"/>
		<rect x="86.681" y="157.711" fill="#AAAAAA" width="26.547" height="43.684"/>
		<rect x="113.228" y="154.438" fill="#9B9B9B" width="26.548" height="43.688"/>
		<rect x="139.776" y="150.114" fill="#8C8C8C" width="26.547" height="43.683"/>
		<rect x="415.087" y="157.711" fill="#AAAAAA" width="26.546" height="43.684"/>
		<rect x="388.537" y="154.438" fill="#9B9B9B" width="26.55" height="43.688"/>
		<rect x="361.99" y="150.114" fill="#8C8C8C" width="26.547" height="43.683"/>
	</g>
	<g>
		<path fill="none" stroke="#FF45B4" stroke-width="2" stroke-linecap="round" stroke-linejoin="round" stroke-miterlimit="10" d="
			M224.984,110.399"/>
		<path fill="none" stroke="#FF45B4" stroke-width="2" stroke-linecap="round" stroke-linejoin="round" stroke-miterlimit="10" d="
			M203.897,110.399"/>
		
			<polyline fill="none" stroke="#FFFFFF" stroke-width="2" stroke-linecap="round" stroke-linejoin="round" stroke-miterlimit="10" points="
			53.464,89.049 68.602,111.839 83.431,89.659 		"/>
		
			<line fill="none" stroke="#FFFFFF" stroke-width="2" stroke-linecap="round" stroke-linejoin="round" stroke-miterlimit="10" x1="53.464" y1="89.049" x2="475.82" y2="89.049"/>
		
			<line fill="none" stroke="#FFFFFF" stroke-width="2" stroke-linecap="round" stroke-linejoin="round" stroke-miterlimit="10" x1="68.602" y1="111.839" x2="460.656" y2="111.839"/>
		
			<polyline fill="none" stroke="#FFFFFF" stroke-width="2" stroke-linecap="round" stroke-linejoin="round" stroke-miterlimit="10" points="
			91.288,123.236 68.605,89.66 61.279,100.619 		"/>
		
			<polyline fill="none" stroke="#FFFFFF" stroke-width="2" stroke-linecap="round" stroke-linejoin="round" stroke-miterlimit="10" points="
			84.005,89.659 98.831,111.839 113.66,89.659 		"/>
		
			<polyline fill="none" stroke="#FFFFFF" stroke-width="2" stroke-linecap="round" stroke-linejoin="round" stroke-miterlimit="10" points="
			113.66,111.839 98.833,89.66 76.376,123.545 		"/>
		
			<polyline fill="none" stroke="#FFFFFF" stroke-width="2" stroke-linecap="round" stroke-linejoin="round" stroke-miterlimit="10" points="
			113.318,89.659 128.144,111.839 142.972,89.659 		"/>
		
			<polyline fill="none" stroke="#FFFFFF" stroke-width="2" stroke-linecap="round" stroke-linejoin="round" stroke-miterlimit="10" points="
			142.972,111.839 128.146,89.66 113.319,111.839 		"/>
		
			<polyline fill="none" stroke="#FFFFFF" stroke-width="2" stroke-linecap="round" stroke-linejoin="round" stroke-miterlimit="10" points="
			143.546,89.659 158.372,111.839 173.201,89.659 		"/>
		
			<polyline fill="none" stroke="#FFFFFF" stroke-width="2" stroke-linecap="round" stroke-linejoin="round" stroke-miterlimit="10" points="
			173.201,111.839 158.375,89.66 143.546,111.839 		"/>
		
			<polyline fill="none" stroke="#FFFFFF" stroke-width="2" stroke-linecap="round" stroke-linejoin="round" stroke-miterlimit="10" points="
			173.775,89.659 188.601,111.839 203.428,89.659 		"/>
		
			<polyline fill="none" stroke="#FFFFFF" stroke-width="2" stroke-linecap="round" stroke-linejoin="round" stroke-miterlimit="10" points="
			203.428,111.839 188.603,89.66 173.776,111.839 		"/>
		
			<polyline fill="none" stroke="#FFFFFF" stroke-width="2" stroke-linecap="round" stroke-linejoin="round" stroke-miterlimit="10" points="
			204.002,89.659 218.83,111.839 233.658,89.659 		"/>
		
			<polyline fill="none" stroke="#FFFFFF" stroke-width="2" stroke-linecap="round" stroke-linejoin="round" stroke-miterlimit="10" points="
			233.658,111.839 218.832,89.66 204.002,111.839 		"/>
		
			<polyline fill="none" stroke="#FFFFFF" stroke-width="2" stroke-linecap="round" stroke-linejoin="round" stroke-miterlimit="10" points="
			234.232,89.659 249.058,111.839 263.885,89.659 		"/>
		
			<polyline fill="none" stroke="#FFFFFF" stroke-width="2" stroke-linecap="round" stroke-linejoin="round" stroke-miterlimit="10" points="
			263.886,111.839 249.06,89.66 234.232,111.839 		"/>
		
			<polyline fill="none" stroke="#FFFFFF" stroke-width="2" stroke-linecap="round" stroke-linejoin="round" stroke-miterlimit="10" points="
			264.461,89.659 279.285,111.839 294.113,89.659 		"/>
		
			<polyline fill="none" stroke="#FFFFFF" stroke-width="2" stroke-linecap="round" stroke-linejoin="round" stroke-miterlimit="10" points="
			294.113,111.839 279.289,89.66 264.461,111.839 		"/>
		
			<polyline fill="none" stroke="#FFFFFF" stroke-width="2" stroke-linecap="round" stroke-linejoin="round" stroke-miterlimit="10" points="
			294.689,89.659 309.514,111.839 324.342,89.659 		"/>
		
			<polyline fill="none" stroke="#FFFFFF" stroke-width="2" stroke-linecap="round" stroke-linejoin="round" stroke-miterlimit="10" points="
			324.342,111.839 309.518,89.66 294.689,111.839 		"/>
		
			<polyline fill="none" stroke="#FFFFFF" stroke-width="2" stroke-linecap="round" stroke-linejoin="round" stroke-miterlimit="10" points="
			324.918,89.659 339.744,111.839 354.57,89.659 		"/>
		
			<polyline fill="none" stroke="#FFFFFF" stroke-width="2" stroke-linecap="round" stroke-linejoin="round" stroke-miterlimit="10" points="
			354.57,111.839 339.745,89.66 324.918,111.839 		"/>
		
			<polyline fill="none" stroke="#FFFFFF" stroke-width="2" stroke-linecap="round" stroke-linejoin="round" stroke-miterlimit="10" points="
			355.146,89.659 369.969,111.839 384.801,89.659 		"/>
		
			<polyline fill="none" stroke="#FFFFFF" stroke-width="2" stroke-linecap="round" stroke-linejoin="round" stroke-miterlimit="10" points="
			384.801,111.839 369.975,89.66 355.146,111.839 		"/>
		
			<polyline fill="none" stroke="#FFFFFF" stroke-width="2" stroke-linecap="round" stroke-linejoin="round" stroke-miterlimit="10" points="
			385.375,89.659 400.199,111.839 415.027,89.659 		"/>
		
			<polyline fill="none" stroke="#FFFFFF" stroke-width="2" stroke-linecap="round" stroke-linejoin="round" stroke-miterlimit="10" points="
			415.027,111.839 400.201,89.66 385.375,111.839 		"/>
		
			<polyline fill="none" stroke="#FFFFFF" stroke-width="2" stroke-linecap="round" stroke-linejoin="round" stroke-miterlimit="10" points="
			415.602,89.659 430.428,111.839 445.256,89.659 		"/>
		
			<polyline fill="none" stroke="#FFFFFF" stroke-width="2" stroke-linecap="round" stroke-linejoin="round" stroke-miterlimit="10" points="
			453.035,123.268 430.432,89.66 415.602,111.839 		"/>
		
			<polyline fill="none" stroke="#FFFFFF" stroke-width="2" stroke-linecap="round" stroke-linejoin="round" stroke-miterlimit="10" points="
			445.83,89.659 460.656,111.839 475.82,89.049 		"/>
		
			<polyline fill="none" stroke="#FFFFFF" stroke-width="2" stroke-linecap="round" stroke-linejoin="round" stroke-miterlimit="10" points="
			468.07,100.75 460.658,89.66 438.354,123.268 		"/>
		
			<polyline fill="none" stroke="#FFFFFF" stroke-width="2" stroke-linecap="round" stroke-linejoin="round" stroke-miterlimit="10" points="
			68.602,111.839 83.743,134.631 98.831,111.839 		"/>
		
			<polyline fill="none" stroke="#FFFFFF" stroke-width="2" stroke-linecap="round" stroke-linejoin="round" stroke-miterlimit="10" points="
			430.428,111.839 445.828,134.044 460.656,111.863 		"/>
	</g>
</g>
<g>
</g>
<g>
</g>
<g>
</g>
<g>
</g>
<g>
</g>
<g>
</g>
<g>
</g>
<g>
</g>
<g>
</g>
<g>
</g>
<g>
</g>
<g>
</g>
<g>
</g>
<g>
</g>
<g>
</g>
</svg>
