<?xml version="1.0" encoding="utf-8"?>
<!-- Generator: Adobe Illustrator 16.0.0, SVG Export Plug-In . SVG Version: 6.00 Build 0)  -->
<!DOCTYPE svg PUBLIC "-//W3C//DTD SVG 1.1//EN" "http://www.w3.org/Graphics/SVG/1.1/DTD/svg11.dtd">
<svg version="1.1" id="圖層_1" xmlns="http://www.w3.org/2000/svg" xmlns:xlink="http://www.w3.org/1999/xlink" x="0px" y="0px"
	 width="217.366px" height="399.977px" viewBox="0 0 217.366 399.977" enable-background="new 0 0 217.366 399.977"
	 xml:space="preserve">
<g>
	<polygon fill="#64BFAA" points="175.312,168.086 175.312,0 42.054,0 42.054,168.086 0,168.086 0,399.977 42.054,399.977 
		175.312,399.977 217.366,399.977 217.366,168.086 	"/>
	<polygon fill="#80CCE3" points="57.547,183.634 58.457,42.371 42.054,0 42.054,168.086 0,168.086 0,399.977 14.834,351.654 
		15.236,183.634 	"/>
	<polygon fill="#80CCE3" points="159.819,183.634 159.819,42.371 175.312,0 175.312,168.086 217.366,168.086 217.366,399.977 
		202.531,351.654 202.128,183.634 	"/>
	<rect x="72.883" y="31.615" opacity="0.5" fill="#005870" width="7.774" height="41.462"/>
	<rect x="89.209" y="31.615" opacity="0.2" fill="#005870" width="7.774" height="41.462"/>
	<rect x="105.533" y="31.615" fill="#005870" width="7.776" height="41.462"/>
	<rect x="121.862" y="31.615" opacity="0.2" fill="#005870" width="7.772" height="41.462"/>
	<rect x="138.186" y="31.615" opacity="0.5" fill="#005870" width="7.774" height="41.462"/>
	<rect x="72.883" y="86.813" opacity="0.2" fill="#005870" width="7.774" height="41.463"/>
	<rect x="89.209" y="86.813" fill="#005870" width="7.774" height="41.463"/>
	<rect x="105.533" y="86.813" opacity="0.5" fill="#005870" width="7.776" height="41.463"/>
	<rect x="121.862" y="86.813" fill="#005870" width="7.772" height="41.463"/>
	<rect x="138.186" y="86.813" fill="#005870" width="7.774" height="41.463"/>
	<rect x="72.883" y="142.009" fill="#005870" width="7.774" height="41.462"/>
	<rect x="89.209" y="142.009" opacity="0.5" fill="#005870" width="7.774" height="41.462"/>
	<rect x="105.533" y="142.009" opacity="0.5" fill="#005870" width="7.776" height="41.462"/>
	<rect x="121.862" y="142.009" opacity="0.2" fill="#005870" width="7.772" height="41.462"/>
	<rect x="138.186" y="142.009" opacity="0.5" fill="#005870" width="7.774" height="41.462"/>
	<rect x="23.646" y="195.651" opacity="0.5" fill="#005870" width="7.774" height="41.462"/>
	<rect x="39.973" y="195.651" fill="#005870" width="7.774" height="41.462"/>
	<rect x="56.298" y="195.651" opacity="0.2" fill="#005870" width="7.774" height="41.462"/>
	<rect x="72.625" y="195.651" fill="#005870" width="7.773" height="41.462"/>
	<rect x="88.951" y="195.651" opacity="0.5" fill="#005870" width="7.773" height="41.462"/>
	<rect x="23.646" y="250.847" fill="#005870" width="7.774" height="41.463"/>
	<rect x="39.973" y="250.847" opacity="0.2" fill="#005870" width="7.774" height="41.463"/>
	<rect x="56.298" y="250.847" opacity="0.5" fill="#005870" width="7.774" height="41.463"/>
	<rect x="72.625" y="250.847" fill="#005870" width="7.773" height="41.463"/>
	<rect x="88.951" y="250.847" opacity="0.5" fill="#005870" width="7.773" height="41.463"/>
	<rect x="23.646" y="306.045" opacity="0.5" fill="#005870" width="7.774" height="41.462"/>
	<rect x="39.973" y="306.045" opacity="0.5" fill="#005870" width="7.774" height="41.462"/>
	<rect x="56.298" y="306.045" fill="#005870" width="7.774" height="41.462"/>
	<rect x="72.625" y="306.045" opacity="0.5" fill="#005870" width="7.773" height="41.462"/>
	<rect x="88.951" y="306.045" fill="#005870" width="7.773" height="41.462"/>
	<rect x="104.499" y="195.651" opacity="0.2" fill="#005870" width="7.772" height="41.462"/>
	<rect x="120.824" y="195.651" fill="#005870" width="7.775" height="41.462"/>
	<rect x="137.148" y="195.651" opacity="0.5" fill="#005870" width="7.776" height="41.462"/>
	<rect x="153.476" y="195.651" fill="#005870" width="7.773" height="41.462"/>
	<rect x="169.8" y="195.651" opacity="0.5" fill="#005870" width="7.775" height="41.462"/>
	<rect x="104.499" y="250.847" fill="#005870" width="7.772" height="41.463"/>
	<rect x="120.824" y="250.847" opacity="0.5" fill="#005870" width="7.775" height="41.463"/>
	<rect x="137.148" y="250.847" fill="#005870" width="7.776" height="41.463"/>
	<rect x="153.476" y="250.847" opacity="0.2" fill="#005870" width="7.773" height="41.463"/>
	<rect x="169.8" y="250.847" fill="#005870" width="7.775" height="41.463"/>
	<rect x="104.499" y="306.045" opacity="0.5" fill="#005870" width="7.772" height="41.462"/>
	<rect x="120.824" y="306.045" opacity="0.2" fill="#005870" width="7.775" height="41.462"/>
	<rect x="137.148" y="306.045" opacity="0.5" fill="#005870" width="7.776" height="41.462"/>
	<rect x="153.476" y="306.045" fill="#005870" width="7.773" height="41.462"/>
	<rect x="169.8" y="306.045" opacity="0.5" fill="#005870" width="7.775" height="41.462"/>
	<rect x="186.128" y="195.651" fill="#005870" width="7.773" height="41.462"/>
	<rect x="186.128" y="250.847" opacity="0.5" fill="#005870" width="7.773" height="41.463"/>
	<rect x="186.128" y="306.045" fill="#005870" width="7.773" height="41.462"/>
	<rect x="88.951" y="359.947" opacity="0.5" fill="#005870" width="21.767" height="40.03"/>
	<rect x="108.684" y="359.947" opacity="0.5" fill="#005870" width="21.858" height="40.03"/>
</g>
<g>
</g>
<g>
</g>
<g>
</g>
<g>
</g>
<g>
</g>
<g>
</g>
<g>
</g>
<g>
</g>
<g>
</g>
<g>
</g>
<g>
</g>
<g>
</g>
<g>
</g>
<g>
</g>
<g>
</g>
</svg>
