<?xml version="1.0" encoding="utf-8"?>
<!-- Generator: Adobe Illustrator 16.0.0, SVG Export Plug-In . SVG Version: 6.00 Build 0)  -->
<!DOCTYPE svg PUBLIC "-//W3C//DTD SVG 1.1//EN" "http://www.w3.org/Graphics/SVG/1.1/DTD/svg11.dtd">
<svg version="1.1" id="圖層_1" xmlns="http://www.w3.org/2000/svg" xmlns:xlink="http://www.w3.org/1999/xlink" x="0px" y="0px"
	 width="305.959px" height="183.807px" viewBox="0 0 305.959 183.807" enable-background="new 0 0 305.959 183.807"
	 xml:space="preserve">
<g>
	<polygon fill="#DB4624" points="302.959,183.807 2.959,183.807 2.959,51.878 29.258,27.807 277.201,27.807 302.959,51.878 	"/>
	<polygon fill="#7E7C7D" points="305.959,67.075 235.959,72.007 235.959,2.96 305.959,44.719 	"/>
	<polygon fill="#DB4624" points="302.959,183.807 235.959,183.807 235.959,27.784 302.959,62.271 	"/>
	<polygon fill="#7E7C7D" points="-0.063,67.075 70.956,72.007 70.956,2.96 -0.063,44.719 	"/>
	<polygon fill="#DB4624" points="2.959,183.807 70.959,183.807 70.959,27.618 2.959,62.142 	"/>
	<rect x="116.959" y="47.807" fill="none" width="67" height="12"/>
	<rect x="116.959" y="66.807" fill="none" width="67" height="11"/>
	<rect x="116.959" y="29.807" fill="none" width="67" height="13"/>
	<rect x="116.959" y="95.807" fill="none" width="67" height="12"/>
	<rect x="116.959" y="81.807" fill="none" width="67" height="10"/>
	<rect x="111.959" y="7.807" fill="#D53B1E" width="12" height="105"/>
	<rect x="183.959" y="7.807" fill="#D53B1E" width="11" height="105"/>
	<polygon fill="#A4A4A4" points="123.959,2.96 123.959,27.807 183.959,27.807 183.959,21.348 183.959,19.361 183.959,15.882 
		183.959,13.892 183.959,10.414 183.959,8.426 183.959,2.96 	"/>
	<polygon fill="#A4A4A4" points="194.959,2.96 194.959,8.426 194.959,10.414 194.959,13.892 194.959,15.882 194.959,19.361 
		194.959,21.348 194.959,27.807 235.959,27.807 235.959,21.348 235.959,19.361 235.959,15.882 235.959,13.892 235.959,10.414 
		235.959,8.426 235.959,2.96 	"/>
	<rect x="70.884" y="2.96" fill="#A4A4A4" width="41.075" height="24.847"/>
	<polygon fill="#BBBBBB" points="111.959,0 111.959,5.426 111.959,7.4 111.959,10.851 111.959,12.824 111.959,16.276 111.959,18.25 
		111.959,24.661 123.978,24.661 123.978,18.25 123.978,16.276 123.978,12.824 123.978,10.851 123.978,7.4 123.978,5.426 123.978,0 	
		"/>
	<polygon fill="#BBBBBB" points="183.959,0 183.959,5.032 183.959,5.538 183.959,7.048 183.959,10.568 183.959,12.582 
		183.959,16.104 183.959,18.119 183.959,24.661 194.959,24.661 194.959,18.119 194.959,16.104 194.959,12.582 194.959,10.568 
		194.959,7.048 194.959,5.538 194.959,5.032 194.959,0 	"/>
	<rect x="70.959" y="42.807" fill="#FFFFFF" width="41" height="5"/>
	<rect x="123.959" y="42.807" fill="#FFFFFF" width="60" height="5"/>
	<rect x="194.959" y="42.807" fill="#FFFFFF" width="41" height="5"/>
	<rect x="111.959" y="38.807" fill="#FFFFFF" width="12" height="4"/>
	<rect x="183.959" y="38.807" fill="#FFFFFF" width="11" height="4"/>
	<rect x="194.959" y="59.807" fill="#FFFFFF" width="41" height="5"/>
	<rect x="123.959" y="59.807" fill="#FFFFFF" width="60" height="5"/>
	<rect x="70.959" y="59.807" fill="#FFFFFF" width="41" height="5"/>
	<rect x="111.959" y="53.807" fill="#FFFFFF" width="12" height="6"/>
	<rect x="183.959" y="53.807" fill="#FFFFFF" width="11" height="6"/>
	<polygon fill="#FFFFFF" points="235.959,80.807 235.959,75.783 194.959,75.823 194.959,80.807 	"/>
	<rect x="123.959" y="75.807" fill="#FFFFFF" width="60" height="5"/>
	<rect x="70.959" y="75.807" fill="#FFFFFF" width="41" height="5"/>
	<rect x="111.959" y="70.807" fill="#FFFFFF" width="12" height="5"/>
	<rect x="183.959" y="70.807" fill="#FFFFFF" width="11" height="5"/>
	<rect x="70.959" y="91.807" fill="#FFFFFF" width="41" height="4"/>
	<rect x="123.959" y="91.807" fill="#FFFFFF" width="60" height="4"/>
	<rect x="194.959" y="91.807" fill="#FFFFFF" width="41" height="4"/>
	<rect x="111.959" y="85.807" fill="#FFFFFF" width="12" height="6"/>
	<rect x="183.959" y="85.807" fill="#FFFFFF" width="11" height="6"/>
	<rect x="123.959" y="107.807" fill="#FFFFFF" width="60" height="5"/>
	<rect x="70.959" y="107.807" fill="#FFFFFF" width="41" height="5"/>
	<rect x="194.959" y="107.807" fill="#FFFFFF" width="41" height="5"/>
	<rect x="111.959" y="102.807" fill="#FFFFFF" width="12" height="5"/>
	<rect x="183.959" y="102.807" fill="#FFFFFF" width="11" height="5"/>
	<polygon fill="none" points="22.959,105.371 39.959,100.967 39.959,90.939 22.959,95.97 	"/>
	<polygon fill="none" points="22.959,109.141 22.959,118.801 39.959,115.317 39.959,105.112 	"/>
	<polygon fill="none" points="22.959,78.678 39.959,72.384 39.959,62.219 22.959,69.077 	"/>
	<polygon fill="none" points="22.959,92.257 39.959,86.831 39.959,76.61 22.959,82.565 	"/>
	<polygon fill="none" points="22.959,45.459 39.959,36.99 39.959,33.536 22.959,42.004 	"/>
	<polygon fill="none" points="39.959,31.745 39.959,28.529 22.959,37.196 22.959,40.3 	"/>
	<polygon fill="none" points="22.959,65.073 39.959,57.915 39.959,38.683 22.959,47.017 	"/>
	<polygon fill="#D53B1E" points="47.959,13.119 47.959,117.831 47.959,183.807 51.959,183.807 51.959,116.84 51.959,14.146 	"/>
	<polygon fill="#C32E1E" points="39.959,19.561 39.959,119.514 39.959,183.807 47.959,183.807 47.959,117.831 47.959,13.119 	"/>
	<polygon fill="#D53B1E" points="16.959,30.485 16.959,123.723 16.959,183.807 22.959,183.807 22.959,122.736 22.959,31.407 	"/>
	<polygon fill="#C32E1E" points="11.959,36.273 11.959,125.4 11.959,183.807 16.959,183.807 16.959,123.723 16.959,30.485 	"/>
	<polygon fill="#DCDCDD" points="22.959,69.077 39.959,62.219 39.959,57.915 22.959,65.073 	"/>
	<polygon fill="#DCDCDD" points="2.959,74.309 2.959,77.926 11.959,75.051 11.959,71.307 	"/>
	<polygon fill="#DCDCDD" points="70.959,47.807 70.959,42.807 51.959,51.682 51.959,56.247 	"/>
	<polygon fill="#DCDCDD" points="47.959,53.034 51.959,56.247 51.959,51.682 47.959,48.566 	"/>
	<polygon fill="#DCDCDD" points="39.959,56.796 47.959,53.034 47.959,48.566 39.959,52.491 	"/>
	<polygon fill="#DCDCDD" points="22.959,65.073 16.959,61.958 16.959,65.863 22.959,69.077 	"/>
	<polygon fill="#DCDCDD" points="16.959,61.958 11.959,65.882 11.959,69.624 16.959,65.863 	"/>
	<polygon fill="#DCDCDD" points="2.959,86.802 2.959,90.254 11.959,87.756 11.959,84.161 	"/>
	<polygon fill="#DCDCDD" points="70.959,64.807 70.959,59.807 51.959,66.9 51.959,71.419 	"/>
	<polygon fill="#DCDCDD" points="22.959,82.565 39.959,76.61 39.959,72.384 22.959,78.678 	"/>
	<polygon fill="#DCDCDD" points="47.959,67.915 51.959,71.419 51.959,66.9 47.959,63.505 	"/>
	<polygon fill="#DCDCDD" points="39.959,71.183 47.959,67.915 47.959,63.505 39.959,66.96 	"/>
	<polygon fill="#DCDCDD" points="22.959,78.678 16.959,75.285 16.959,79.063 22.959,82.565 	"/>
	<polygon fill="#DCDCDD" points="16.959,75.285 11.959,78.736 11.959,82.331 16.959,79.063 	"/>
	<polygon fill="#DCDCDD" points="22.959,95.97 39.959,90.939 39.959,86.831 22.959,92.257 	"/>
	<polygon fill="#DCDCDD" points="70.959,80.929 70.959,75.807 51.959,82.109 51.959,86.559 	"/>
	<polygon fill="#DCDCDD" points="2.959,99.256 2.959,102.462 11.959,100.352 11.959,96.981 	"/>
	<polygon fill="#DCDCDD" points="47.959,82.756 51.959,86.559 51.959,82.109 47.959,78.433 	"/>
	<polygon fill="#DCDCDD" points="39.959,85.516 47.959,82.756 47.959,78.433 39.959,81.409 	"/>
	<polygon fill="#DCDCDD" points="22.959,92.257 16.959,88.583 16.959,92.168 22.959,95.97 	"/>
	<polygon fill="#DCDCDD" points="16.959,88.583 11.959,91.556 11.959,94.926 16.959,92.168 	"/>
	<polygon fill="#DCDCDD" points="70.959,95.807 70.959,91.807 51.959,97.132 51.959,100.604 	"/>
	<polygon fill="#DCDCDD" points="2.959,111.051 2.959,114.339 11.959,112.649 11.959,109.205 	"/>
	<polygon fill="#DCDCDD" points="22.959,109.141 39.959,105.112 39.959,100.967 22.959,105.371 	"/>
	<polygon fill="#DCDCDD" points="47.959,97.479 51.959,100.604 51.959,97.132 47.959,93.127 	"/>
	<polygon fill="#DCDCDD" points="39.959,99.687 47.959,97.479 47.959,93.127 39.959,95.543 	"/>
	<polygon fill="#DCDCDD" points="22.959,105.371 16.959,101.366 16.959,105.015 22.959,109.141 	"/>
	<polygon fill="#DCDCDD" points="16.959,101.366 11.959,103.78 11.959,107.226 16.959,105.015 	"/>
	<polygon fill="#DCDCDD" points="22.959,118.801 22.959,122.458 39.959,119.385 39.959,115.317 	"/>
	<polygon fill="#DCDCDD" points="70.959,112.689 70.959,107.807 51.959,112.283 51.959,116.707 	"/>
	<polygon fill="#DCDCDD" points="2.959,123.299 2.959,126.422 11.959,125.134 11.959,121.839 	"/>
	<polygon fill="#DCDCDD" points="47.959,112.274 51.959,116.707 51.959,112.283 47.959,107.981 	"/>
	<polygon fill="#DCDCDD" points="47.959,107.981 39.959,109.893 39.959,113.958 47.959,112.274 	"/>
	<polygon fill="#DCDCDD" points="16.959,114.5 16.959,118.022 22.959,122.458 22.959,118.801 	"/>
	<polygon fill="#DCDCDD" points="16.959,114.5 11.959,116.412 11.959,119.708 16.959,118.022 	"/>
	<polygon fill="none" points="279.959,105.371 268.959,100.967 268.959,90.939 279.959,95.97 	"/>
	<polygon fill="none" points="279.959,109.141 279.959,118.801 268.959,115.317 268.959,105.112 	"/>
	<polygon fill="none" points="279.959,78.678 268.959,72.384 268.959,62.219 279.959,69.077 	"/>
	<polygon fill="none" points="279.959,92.257 268.959,86.831 268.959,76.61 279.959,82.565 	"/>
	<polygon fill="none" points="279.959,45.459 268.959,36.99 268.959,33.536 279.959,42.004 	"/>
	<polygon fill="none" points="268.959,31.745 268.959,28.529 279.959,37.196 279.959,40.3 	"/>
	<polygon fill="none" points="279.959,65.073 268.959,57.915 268.959,38.683 279.959,47.017 	"/>
	<polygon fill="#D53B1E" points="259.959,13.449 259.959,117.957 259.959,183.807 254.959,183.807 254.959,116.969 254.959,14.472 	
		"/>
	<polygon fill="#C32E1E" points="268.959,19.84 268.959,119.622 268.959,183.807 259.959,183.807 259.959,117.941 259.959,13.407 	
		"/>
	<polygon fill="#D53B1E" points="286.959,29.207 286.959,123.221 286.959,183.807 279.959,183.807 279.959,122.227 279.959,30.137 	
		"/>
	<polygon fill="#C32E1E" points="296.959,35.043 296.959,124.912 296.959,183.807 286.959,183.807 286.959,123.221 286.959,29.207 	
		"/>
	<polygon fill="#DCDCDD" points="279.959,68.077 268.959,62.219 268.959,57.915 279.959,64.073 	"/>
	<polygon fill="#DCDCDD" points="302.959,74.309 302.959,77.926 296.959,75.051 296.959,71.307 	"/>
	<polygon fill="#DCDCDD" points="235.959,47.807 235.959,42.807 254.959,51.682 254.959,56.247 	"/>
	<polygon fill="#DCDCDD" points="259.959,53.034 254.959,56.247 254.959,51.682 259.959,48.566 	"/>
	<polygon fill="#DCDCDD" points="268.959,56.796 259.959,53.034 259.959,48.566 268.959,52.491 	"/>
	<polygon fill="#DCDCDD" points="279.959,64.073 286.959,61.958 286.959,65.863 279.959,68.077 	"/>
	<polygon fill="#DCDCDD" points="286.959,61.958 296.959,65.882 296.959,69.624 286.959,65.863 	"/>
	<polygon fill="#DCDCDD" points="302.959,86.802 302.959,90.254 296.959,87.756 296.959,84.161 	"/>
	<polygon fill="#DCDCDD" points="235.959,64.807 235.959,59.807 254.959,66.9 254.959,71.419 	"/>
	<polygon fill="#DCDCDD" points="279.959,81.565 268.959,76.61 268.959,72.384 279.959,77.678 	"/>
	<polygon fill="#DCDCDD" points="259.959,67.915 254.959,71.419 254.959,66.9 259.959,63.505 	"/>
	<polygon fill="#DCDCDD" points="268.959,71.183 259.959,67.915 259.959,63.505 268.959,66.96 	"/>
	<polygon fill="#DCDCDD" points="279.959,77.678 286.959,75.285 286.959,79.063 279.959,81.565 	"/>
	<polygon fill="#DCDCDD" points="286.959,75.285 296.959,78.736 296.959,82.331 286.959,79.063 	"/>
	<polygon fill="#DCDCDD" points="279.959,94.97 268.959,90.939 268.959,86.831 279.959,91.257 	"/>
	<polygon fill="#DCDCDD" points="235.959,80.807 235.959,75.783 254.959,82.109 254.959,86.559 	"/>
	<polygon fill="#DCDCDD" points="302.959,99.256 302.959,102.462 296.959,100.352 296.959,96.981 	"/>
	<polygon fill="#DCDCDD" points="259.959,82.756 254.959,86.559 254.959,82.109 259.959,78.433 	"/>
	<polygon fill="#DCDCDD" points="268.959,85.516 259.959,82.756 259.959,78.433 268.959,81.409 	"/>
	<polygon fill="#DCDCDD" points="279.959,91.257 286.959,88.583 286.959,92.168 279.959,94.97 	"/>
	<polygon fill="#DCDCDD" points="286.959,88.583 296.959,91.556 296.959,94.926 286.959,92.168 	"/>
	<polygon fill="#DCDCDD" points="235.959,95.807 235.959,91.807 254.959,97.132 254.959,100.604 	"/>
	<polygon fill="#DCDCDD" points="302.959,111.051 302.959,114.339 296.959,112.649 296.959,109.205 	"/>
	<polygon fill="#DCDCDD" points="279.959,108.141 268.959,105.112 268.959,100.967 279.959,104.371 	"/>
	<polygon fill="#DCDCDD" points="259.959,97.479 254.959,100.604 254.959,97.132 259.959,93.127 	"/>
	<polygon fill="#DCDCDD" points="268.959,99.687 259.959,97.479 259.959,93.127 268.959,95.543 	"/>
	<polygon fill="#DCDCDD" points="279.959,104.371 286.959,101.366 286.959,105.015 279.959,108.141 	"/>
	<polygon fill="#DCDCDD" points="286.959,101.366 296.959,103.78 296.959,107.226 286.959,105.015 	"/>
	<polygon fill="#DCDCDD" points="279.959,117.801 279.959,121.458 268.959,119.385 268.959,115.317 	"/>
	<polygon fill="#DCDCDD" points="235.959,112.807 235.959,107.807 254.959,112.283 254.959,116.707 	"/>
	<polygon fill="#DCDCDD" points="302.959,123.299 302.959,126.422 296.959,125.134 296.959,121.839 	"/>
	<polygon fill="#DCDCDD" points="259.959,112.274 254.959,116.707 254.959,112.283 259.959,107.981 	"/>
	<polygon fill="#DCDCDD" points="259.959,107.981 268.959,109.893 268.959,113.958 259.959,112.274 	"/>
	<polygon fill="#DCDCDD" points="286.959,114.5 286.959,118.022 279.959,121.458 279.959,117.801 	"/>
	<polygon fill="#DCDCDD" points="286.959,114.5 296.959,116.412 296.959,119.708 286.959,118.022 	"/>
	<polygon fill="#D53B1E" points="255.411,131.807 51.229,131.807 70.956,120.807 235.683,120.807 	"/>
	<rect x="112.632" y="131.895" fill="#00566D" width="81.623" height="51.785"/>
	<g>
		<rect x="77.959" y="131.807" fill="#00566D" width="19" height="21"/>
		<rect x="79.959" y="133.807" fill="#7FC3D8" width="6" height="7"/>
		<rect x="88.959" y="133.807" fill="#7FC3D8" width="6" height="7"/>
		<rect x="79.959" y="143.807" fill="#7FC3D8" width="6" height="7"/>
		<rect x="88.959" y="143.807" fill="#7FC3D8" width="6" height="7"/>
	</g>
	<g>
		<rect x="209.959" y="131.807" fill="#00566D" width="20" height="21"/>
		<rect x="211.959" y="133.807" fill="#7FC3D8" width="7" height="7"/>
		<rect x="221.959" y="133.807" fill="#7FC3D8" width="6" height="7"/>
		<rect x="211.959" y="143.807" fill="#7FC3D8" width="7" height="7"/>
		<rect x="221.959" y="143.807" fill="#7FC3D8" width="6" height="7"/>
	</g>
	<g>
		<path fill="#A4A4A4" d="M172.223,103.086h-36.409c0,0,0-54.52,18.204-54.52C172.223,48.566,172.223,103.086,172.223,103.086z"/>
		<path fill="#7FC3D8" d="M140.291,99.155c0.168-4.972,0.669-13.95,2.155-22.818c2.945-17.577,7.908-23.838,11.573-23.838
			c3.671,0,8.643,6.282,11.585,23.908c1.479,8.858,1.976,17.795,2.143,22.748H140.291z"/>
		<rect x="140.847" y="63.826" fill="#A4A4A4" width="25.76" height="5.454"/>
		<rect x="137.687" y="78.392" fill="#A4A4A4" width="32.405" height="5.79"/>
		<rect x="151.667" y="51.042" fill="#A4A4A4" width="4.703" height="50.146"/>
	</g>
</g>
<g>
</g>
<g>
</g>
<g>
</g>
<g>
</g>
<g>
</g>
<g>
</g>
<g>
</g>
<g>
</g>
<g>
</g>
<g>
</g>
<g>
</g>
<g>
</g>
<g>
</g>
<g>
</g>
<g>
</g>
</svg>
