<?xml version="1.0" encoding="utf-8"?>
<!-- Generator: Adobe Illustrator 16.0.0, SVG Export Plug-In . SVG Version: 6.00 Build 0)  -->
<!DOCTYPE svg PUBLIC "-//W3C//DTD SVG 1.1//EN" "http://www.w3.org/Graphics/SVG/1.1/DTD/svg11.dtd">
<svg version="1.1" id="圖層_1" xmlns="http://www.w3.org/2000/svg" xmlns:xlink="http://www.w3.org/1999/xlink" x="0px" y="0px"
	 width="200.924px" height="218.138px" viewBox="0 0 200.924 218.138" enable-background="new 0 0 200.924 218.138"
	 xml:space="preserve">
<g>
	<line fill="none" stroke="#727171" stroke-miterlimit="10" x1="176.233" y1="36.598" x2="178.643" y2="48.995"/>
	<line fill="none" stroke="#727171" stroke-miterlimit="10" x1="181.852" y1="36.965" x2="186.702" y2="48.627"/>
	
		<ellipse transform="matrix(0.9246 0.3809 -0.3809 0.9246 21.1646 -65.9165)" fill="#C5C6C6" cx="177.095" cy="20.506" rx="24.489" ry="19.436"/>
	<path fill="#9FA0A0" d="M170.728,36.909c-12.504-5.152-19.328-17.375-15.239-27.3c0.271-0.655,0.584-1.281,0.932-1.885
		c-0.789,1.054-1.453,2.206-1.968,3.454c-4.088,9.925,2.733,22.147,15.239,27.299c11.681,4.813,24.182,1.754,29.114-6.756
		C193.313,39.022,181.659,41.413,170.728,36.909z"/>
	<g>
		<path fill="none" stroke="#B5B5B6" stroke-width="0.75" stroke-linecap="round" stroke-miterlimit="10" d="M176.02,24.513
			c0,0,4.188,12.48,7.686,14.618"/>
		<path fill="none" stroke="#B5B5B6" stroke-width="0.75" stroke-linecap="round" stroke-miterlimit="10" d="M177.159,23.932
			c0,0,12.958,6.973,22.416,5.872"/>
		<path fill="none" stroke="#B5B5B6" stroke-width="0.75" stroke-linecap="round" stroke-miterlimit="10" d="M177.223,22.655
			c0,0,11.637-5.451,18.958-11.477"/>
		<path fill="none" stroke="#B5B5B6" stroke-width="0.75" stroke-linecap="round" stroke-miterlimit="10" d="M176.15,21.96
			c0,0-1.814-12.365-0.13-21.565"/>
		<path fill="none" stroke="#B5B5B6" stroke-width="0.75" stroke-linecap="round" stroke-miterlimit="10" d="M175.012,22.542
			c0,0-12.033-6.818-17.474-16.146"/>
		<path fill="none" stroke="#B5B5B6" stroke-width="0.75" stroke-linecap="round" stroke-miterlimit="10" d="M174.947,23.818
			c0,0-8.905,4.499-17.809,1.662"/>
	</g>
	<polygon fill="#B5B5B6" points="177.159,23.932 176.02,24.513 174.947,23.818 175.012,22.542 176.15,21.96 177.223,22.655 	"/>
	<path fill="none" stroke="#9FA0A0" stroke-width="0.75" stroke-linecap="round" stroke-miterlimit="10" d="M171.895,0.396
		c0,0,20.068,15.252,27.843,29.439"/>
	<path fill="none" stroke="#9FA0A0" stroke-width="0.75" stroke-linecap="round" stroke-miterlimit="10" d="M184.5,2.536
		c0,0,2.798-2.887,1.827,0.708c-0.97,3.596-21.804,21.361-29.189,22.235"/>
	<path fill="#727171" d="M183.004,8.464c-0.442,0.527-1.089,0.713-1.446,0.415l0,0c-0.356-0.299-0.288-0.969,0.154-1.497
		l3.317-3.959c0.44-0.527,1.088-0.714,1.445-0.415l0,0c0.356,0.299,0.287,0.969-0.154,1.497L183.004,8.464z"/>
</g>
<g>
	<polygon fill="#FAD7B5" points="79.243,218.104 7.221,218.117 0,116.764 86.429,116.75 	"/>
	<polygon fill="#FAD7B5" points="184.103,218.091 74.607,218.109 63.63,64.014 195.031,63.993 	"/>
	<polygon fill="#E95520" points="195.031,63.993 63.63,64.014 63.627,47.092 195.023,47.075 	"/>
	<rect x="26.741" y="163.273" fill="#F0D300" width="36.889" height="54.865"/>
	<rect x="78.049" y="72.814" fill="#F0D300" width="24.488" height="5.831"/>
	<rect x="117.698" y="72.814" fill="#F0D300" width="24.489" height="5.831"/>
	<rect x="157.346" y="72.814" fill="#F0D300" width="24.489" height="5.831"/>
	<rect x="78.049" y="89.141" fill="#F0D300" width="24.488" height="5.832"/>
	<rect x="117.698" y="89.141" fill="#F0D300" width="24.489" height="5.832"/>
	<rect x="157.346" y="89.141" fill="#F0D300" width="24.489" height="5.832"/>
	<rect x="78.049" y="105.468" fill="#F0D300" width="24.488" height="5.83"/>
	<rect x="117.698" y="105.468" fill="#F0D300" width="24.489" height="5.83"/>
	<rect x="157.346" y="105.468" fill="#F0D300" width="24.489" height="5.83"/>
	<rect x="78.049" y="121.794" fill="#F0D300" width="24.488" height="5.829"/>
	<rect x="117.698" y="121.794" fill="#F0D300" width="24.489" height="5.829"/>
	<rect x="157.346" y="121.794" fill="#F0D300" width="24.489" height="5.829"/>
	<rect x="78.049" y="138.119" fill="#F0D300" width="24.488" height="5.831"/>
	<rect x="117.698" y="138.119" fill="#F0D300" width="24.489" height="5.831"/>
	<rect x="157.346" y="138.119" fill="#F0D300" width="24.489" height="5.831"/>
</g>
<g>
</g>
<g>
</g>
<g>
</g>
<g>
</g>
<g>
</g>
<g>
</g>
<g>
</g>
<g>
</g>
<g>
</g>
<g>
</g>
<g>
</g>
<g>
</g>
<g>
</g>
<g>
</g>
<g>
</g>
</svg>
