<?xml version="1.0" encoding="utf-8"?>
<!-- Generator: Adobe Illustrator 16.0.0, SVG Export Plug-In . SVG Version: 6.00 Build 0)  -->
<!DOCTYPE svg PUBLIC "-//W3C//DTD SVG 1.1//EN" "http://www.w3.org/Graphics/SVG/1.1/DTD/svg11.dtd">
<svg version="1.1" id="圖層_1" xmlns="http://www.w3.org/2000/svg" xmlns:xlink="http://www.w3.org/1999/xlink" x="0px" y="0px"
	 width="386.528px" height="173.382px" viewBox="0 0 386.528 173.382" enable-background="new 0 0 386.528 173.382"
	 xml:space="preserve">
<g>
	<rect y="95.911" fill="#E84720" width="230.064" height="77.471"/>
	<rect y="151.918" fill="#DBDBDB" width="230.064" height="21.464"/>
	<rect y="164.669" fill="#BABABB" width="230.064" height="4.725"/>
	<polygon fill="#532D15" points="230.064,49.146 28.404,49.146 0,58.298 0,95.911 230.064,95.911 	"/>
	<g>
		<rect x="14.415" y="104.214" fill="#030000" width="16.148" height="47.704"/>
		<rect x="14.415" y="104.214" fill="#C7A184" width="16.148" height="29.728"/>
		<rect x="16.078" y="106.126" fill="#552E15" width="12.819" height="7.007"/>
		<rect x="16.078" y="115.457" fill="#552E15" width="12.819" height="7.004"/>
		<rect x="16.078" y="124.785" fill="#552E15" width="12.819" height="7.007"/>
	</g>
	<g>
		<rect x="86.949" y="104.214" fill="#030000" width="16.145" height="47.704"/>
		<rect x="86.949" y="104.214" fill="#C7A184" width="16.145" height="29.728"/>
		<rect x="88.612" y="106.127" fill="#552E15" width="12.816" height="7.006"/>
		<rect x="88.612" y="115.457" fill="#552E15" width="12.816" height="7.005"/>
		<rect x="88.612" y="124.785" fill="#552E15" width="12.816" height="7.008"/>
	</g>
	<g>
		<rect x="110.397" y="104.214" fill="#030000" width="16.146" height="47.704"/>
		<rect x="110.397" y="104.214" fill="#C7A184" width="16.146" height="29.728"/>
		<rect x="112.063" y="106.127" fill="#552E15" width="12.818" height="7.006"/>
		<rect x="112.063" y="115.457" fill="#552E15" width="12.818" height="7.005"/>
		<rect x="112.063" y="124.785" fill="#552E15" width="12.818" height="7.008"/>
	</g>
	<g>
		<rect x="174.975" y="104.214" fill="#030000" width="16.146" height="47.704"/>
		<rect x="174.975" y="104.214" fill="#C7A184" width="16.146" height="29.728"/>
		<rect x="176.639" y="106.127" fill="#552E15" width="12.816" height="7.006"/>
		<rect x="176.639" y="115.457" fill="#552E15" width="12.816" height="7.005"/>
		<rect x="176.639" y="124.785" fill="#552E15" width="12.816" height="7.008"/>
	</g>
	<g>
		<rect x="198.426" y="104.214" fill="#030000" width="16.145" height="47.704"/>
		<rect x="198.426" y="104.214" fill="#C7A184" width="16.145" height="29.728"/>
		<rect x="200.091" y="106.127" fill="#552E15" width="12.815" height="7.006"/>
		<rect x="200.091" y="115.457" fill="#552E15" width="12.815" height="7.005"/>
		<rect x="200.091" y="124.785" fill="#552E15" width="12.815" height="7.008"/>
	</g>
	<polygon fill="#DBDBDB" points="230.064,35.271 158.789,7.123 87.838,29.991 87.838,49.146 230.064,49.146 	"/>
	<polygon fill="#FFFFFF" points="190.406,84.056 127.49,84.056 127.49,16.994 158.789,7.123 190.406,16.994 	"/>
	<rect x="153.209" y="28.291" fill="#C7A184" width="11.438" height="11.436"/>
	<rect x="155.275" y="30.357" fill="#532D15" width="7.35" height="7.347"/>
	<g>
		<rect x="144.396" y="49.146" fill="#C7A184" width="29.729" height="26.021"/>
		<rect x="147.12" y="63.406" fill="#552E15" width="11.065" height="9.991"/>
		<rect x="147.12" y="50.92" fill="#552E15" width="11.065" height="9.959"/>
		<rect x="160.337" y="63.406" fill="#552E15" width="11.063" height="9.991"/>
		<rect x="160.337" y="50.92" fill="#552E15" width="11.063" height="9.959"/>
	</g>
	<g>
		<rect x="14.415" y="65.618" fill="#C7A184" width="16.148" height="20.518"/>
		<rect x="16.516" y="67.446" fill="#552E15" width="11.895" height="7.528"/>
		<rect x="16.516" y="76.775" fill="#552E15" width="11.895" height="7.528"/>
	</g>
	<polygon fill="#D84526" points="230.064,35.271 158.789,7.123 0,58.298 0,51.17 158.789,0 230.064,28.145 	"/>
	<polygon fill="#C8C9CA" points="28.404,49.146 87.838,29.991 87.838,49.146 	"/>
	<rect x="230.064" y="80.802" fill="#E84720" width="153.51" height="52.005"/>
	<rect x="230.064" y="132.807" fill="#DBDBDB" width="153.51" height="19.111"/>
	<rect x="230.064" y="143.944" fill="#BABABB" width="153.51" height="4.723"/>
	<polygon fill="#1F2020" points="383.574,80.802 230.064,80.802 230.064,52.024 357.987,52.024 	"/>
	<polygon fill="#121313" points="386.528,80.802 307.973,80.802 347.37,57.776 	"/>
	<rect x="230.064" y="90.747" fill="#F7F7F7" width="153.51" height="13.467"/>
	<path fill="#B93521" d="M253.932,132.807h-14.2c0,0,0-18.754,7.102-18.754C253.932,114.053,253.932,132.807,253.932,132.807z"/>
	<path fill="#B93521" d="M272.57,132.807h-14.2c0,0,0-18.754,7.104-18.754C272.57,114.053,272.57,132.807,272.57,132.807z"/>
	<path fill="#B93521" d="M291.215,132.807h-14.199c0,0,0-18.754,7.099-18.754C291.215,114.053,291.215,132.807,291.215,132.807z"/>
	<g>
		<rect x="316.586" y="110.274" fill="#030000" width="8.904" height="22.532"/>
		<rect x="316.586" y="110.274" fill="#C7A184" width="8.904" height="16.396"/>
		<rect x="318.089" y="111.378" fill="#552E15" width="5.896" height="3.306"/>
		<rect x="318.089" y="116.823" fill="#552E15" width="5.896" height="3.302"/>
		<rect x="318.089" y="122.264" fill="#552E15" width="5.896" height="3.303"/>
	</g>
	<g>
		<rect x="331.643" y="110.274" fill="#030000" width="8.9" height="22.532"/>
		<rect x="331.643" y="110.274" fill="#C7A184" width="8.9" height="16.396"/>
		<rect x="333.144" y="111.378" fill="#552E15" width="5.896" height="3.306"/>
		<rect x="333.144" y="116.823" fill="#552E15" width="5.896" height="3.302"/>
		<rect x="333.144" y="122.264" fill="#552E15" width="5.896" height="3.303"/>
	</g>
	<g>
		<rect x="364.812" y="110.274" fill="#030000" width="8.903" height="22.532"/>
		<rect x="364.812" y="110.274" fill="#C7A184" width="8.903" height="16.396"/>
		<rect x="366.314" y="111.378" fill="#552E15" width="5.895" height="3.306"/>
		<rect x="366.314" y="116.823" fill="#552E15" width="5.895" height="3.302"/>
		<rect x="366.314" y="122.264" fill="#552E15" width="5.895" height="3.303"/>
	</g>
	<g>
		<rect x="87.004" y="54.652" fill="#C7A184" width="16.145" height="20.516"/>
		<rect x="89.106" y="56.479" fill="#552E15" width="11.893" height="7.53"/>
		<rect x="89.106" y="65.81" fill="#552E15" width="11.893" height="7.529"/>
	</g>
	<g>
		<rect x="198.48" y="54.652" fill="#C7A184" width="16.148" height="20.516"/>
		<rect x="200.583" y="56.479" fill="#552E15" width="11.895" height="7.53"/>
		<rect x="200.583" y="65.81" fill="#552E15" width="11.895" height="7.529"/>
	</g>
</g>
<g>
</g>
<g>
</g>
<g>
</g>
<g>
</g>
<g>
</g>
<g>
</g>
<g>
</g>
<g>
</g>
<g>
</g>
<g>
</g>
<g>
</g>
<g>
</g>
<g>
</g>
<g>
</g>
<g>
</g>
</svg>
