<?xml version="1.0" encoding="utf-8"?>
<!-- Generator: Adobe Illustrator 16.0.0, SVG Export Plug-In . SVG Version: 6.00 Build 0)  -->
<!DOCTYPE svg PUBLIC "-//W3C//DTD SVG 1.1//EN" "http://www.w3.org/Graphics/SVG/1.1/DTD/svg11.dtd">
<svg version="1.1" id="圖層_1" xmlns="http://www.w3.org/2000/svg" xmlns:xlink="http://www.w3.org/1999/xlink" x="0px" y="0px"
	 width="332.374px" height="197.52px" viewBox="0 0 332.374 197.52" enable-background="new 0 0 332.374 197.52"
	 xml:space="preserve">
<g>
	<g>
		<g>
			<path fill="#94EBFF" d="M166.426,7c1.801,0,3.932,0.715,7.113,2.389L323.59,94.213c0.727,0.464,1.774,2.227,1.784,4.641
				c0.004,0.916-0.166,3.14-1.804,4.179L173.496,187.87c-3.447,1.882-5.465,2.649-6.959,2.649c-1.519,0-3.6-0.774-7.17-2.67
				L9.304,103.02c-1.801-1.11-2.365-3.361-2.299-4.964c0.055-1.33,0.568-2.974,1.843-3.597l0.187-0.092l0.182-0.103l150.149-84.88
				C162.517,7.714,164.631,7,166.426,7 M166.426,0c-3.184,0-6.359,1.081-10.423,3.245L5.772,88.171
				c-7.65,3.742-7.742,16.277,0,20.893l150.231,84.926c4.423,2.354,7.493,3.53,10.534,3.53s6.053-1.177,10.358-3.53l150.23-84.926
				c7.648-4.615,6.314-17.15,0-20.893L176.896,3.245C172.801,1.081,169.609,0,166.426,0L166.426,0z"/>
		</g>
	</g>
	<g>
		<g>
			<path fill="#94EBFF" d="M171.454,94.907l-1.125,0.588c-1.994,1.079-3.862,1.151-5.605,0.218l-13.382-7.169
				c-1.265-0.678-1.57-1.35-0.913-2.018c0.222-0.26,1.048-0.763,2.479-1.508c-2.359-1.263-3.628-2.1-3.803-2.514
				c-0.197-0.512,0.601-1.233,2.39-2.164l10.652-5.543c0.744-0.387,1.872-0.975,3.386-1.762c1.486-0.773,2.602-1.354,3.346-1.741
				c1.018-0.529,2.256-0.538,3.717-0.024c0.559,0.182,1.721,0.74,3.485,1.676l1.116-0.581c1.975-1.065,3.838-1.136,5.585-0.21
				l13.417,7.104c1.268,0.672,1.59,1.351,0.97,2.036c-0.256,0.242-1.101,0.737-2.532,1.486c2.397,1.271,3.685,2.114,3.861,2.527
				c0.162,0.492-0.652,1.208-2.443,2.146l-13.063,6.841c-2.206,1.155-3.669,1.902-4.393,2.245c-1.475,0.7-3.394,0.402-5.76-0.893
				L171.454,94.907z M170.801,91.939l18.191-9.509l-12.278-6.518l-18.174,9.474L170.801,91.939z"/>
			<path fill="#94EBFF" d="M208.072,116.73c-0.581,0.308-1.328,0.429-2.243,0.366c-0.913-0.063-1.711-0.278-2.395-0.645
				l-3.128-1.676c-1.333-0.714-1.601-1.445-0.801-2.192c0.208-0.183,1.156-0.718,2.845-1.606l20.293-10.685l-12.331-6.545
				l-22.802,11.974c-0.582,0.305-1.326,0.426-2.236,0.363c-0.911-0.063-1.706-0.276-2.385-0.64l-3.108-1.665
				c-1.733-0.929-1.578-1.927,0.466-2.998l16.809-8.812c2.925-1.533,4.749-2.472,5.476-2.815c1.118-0.513,2.353-0.54,3.71-0.084
				c0.498,0.177,1.663,0.752,3.497,1.725l1.067-0.614c2.016-1.058,3.897-1.124,5.646-0.198l13.416,7.104
				c1.268,0.671,1.571,1.344,0.913,2.017c-0.224,0.262-1.053,0.771-2.492,1.53c2.261,1.198,3.508,1.99,3.739,2.376
				c0.324,0.554-0.329,1.26-1.961,2.121L208.072,116.73z"/>
			<path fill="#94EBFF" d="M101.395,107.445c-1.019,0.53-2.248,0.535-3.687,0.015c-0.553-0.185-1.715-0.759-3.485-1.724
				l-1.114,0.579c-1.976,1.063-3.829,1.12-5.565,0.173l-13.329-7.272c-1.26-0.688-1.581-1.373-0.961-2.056
				c0.253-0.239,1.093-0.729,2.518-1.467c-2.384-1.299-3.661-2.175-3.829-2.631c-0.168-0.455,0.638-1.144,2.418-2.064
				c1.944-1.006,3.769-1.046,5.473-0.12l3.118,1.695c1.26,0.685,1.564,1.359,0.912,2.022c-0.22,0.259-1.043,0.759-2.467,1.496
				l12.211,6.646c0.303-0.157,0.787-0.408,1.45-0.753c0.637-0.331,1.12-0.582,1.452-0.754c0.303-0.157,0.774-0.402,1.409-0.732
				c0.663-0.344,1.147-0.596,1.452-0.754l-12.78-6.941c-1.261-0.685-1.582-1.369-0.961-2.051c0.255-0.241,1.096-0.73,2.524-1.47
				c-2.387-1.295-3.658-2.172-3.812-2.635c-0.154-0.462,0.674-1.161,2.487-2.099l4.9-2.534c1.015-0.525,2.244-0.529,3.686-0.012
				c0.552,0.183,1.717,0.753,3.491,1.712l1.113-0.576c1.97-1.057,3.826-1.115,5.566-0.176l13.363,7.207
				c1.263,0.681,1.568,1.354,0.915,2.019c-0.222,0.26-1.045,0.76-2.471,1.502c2.354,1.271,3.618,2.115,3.795,2.53
				c0.194,0.514-0.6,1.235-2.384,2.164c-1.95,1.015-3.776,1.06-5.48,0.137l-3.121-1.69c-1.262-0.683-1.585-1.366-0.965-2.05
				c0.254-0.24,1.096-0.731,2.522-1.473l-12.229-6.612l-5.756,2.982l12.787,6.928c1.261,0.684,1.563,1.359,0.908,2.026
				c-0.221,0.259-1.047,0.762-2.477,1.505c2.318,1.258,3.577,2.087,3.78,2.489c0.229,0.533-0.524,1.252-2.258,2.154L101.395,107.445
				z"/>
			<path fill="#94EBFF" d="M130.263,127.583c-0.579,0.304-1.326,0.422-2.236,0.353c-0.911-0.069-1.708-0.289-2.388-0.66l-3.115-1.7
				c-1.362-0.743-1.627-1.479-0.796-2.204c0.208-0.183,1.155-0.714,2.838-1.595l7.826-4.095l-12.166-6.608l-10.341,5.397
				c-0.58,0.303-1.315,0.424-2.206,0.365c-0.89-0.06-1.69-0.283-2.4-0.67l-3.096-1.689c-1.726-0.942-1.571-1.942,0.468-3.005
				c1.074-0.56,2.698-1.405,4.874-2.539c2.174-1.133,3.813-1.987,4.914-2.561c1.019-0.53,2.254-0.534,3.707-0.01
				c0.558,0.186,1.733,0.765,3.523,1.735l1.612-0.84c-2.272-1.232-3.526-2.044-3.761-2.435c-0.304-0.573,0.367-1.289,2.015-2.147
				l5.274-2.748c1.016-0.529,2.251-0.532,3.704-0.01c0.558,0.185,1.733,0.761,3.525,1.729l1.124-0.587
				c1.992-1.075,3.858-1.143,5.599-0.204l13.261,7.152c1.262,0.681,1.565,1.357,0.906,2.028c-0.224,0.262-1.052,0.769-2.485,1.52
				c2.253,1.217,3.49,2.019,3.722,2.407c0.295,0.571-0.384,1.291-2.04,2.159l-5.3,2.778c-1.022,0.536-2.255,0.545-3.695,0.028
				c-0.554-0.183-1.718-0.755-3.489-1.716l-1.614,0.845c2.25,1.221,3.487,2.026,3.717,2.415c0.294,0.573-0.384,1.293-2.041,2.162
				L130.263,127.583z M144.813,111.182l-12.178-6.585l-5.689,2.97l12.173,6.596L144.813,111.182z"/>
			<path fill="#94EBFF" d="M156.943,144.355l-18.436-10.059c-1.26-0.688-1.577-1.378-0.95-2.071
				c0.256-0.245,1.103-0.744,2.539-1.498c-2.282-1.243-3.52-2.051-3.713-2.422c-0.295-0.574,0.387-1.295,2.043-2.164l21.867-11.47
				c0.578-0.304,1.315-0.429,2.207-0.373s1.694,0.275,2.406,0.659l3.104,1.675c1.322,0.713,1.583,1.442,0.783,2.188
				c-0.23,0.229-1.161,0.772-2.791,1.629l-20.278,10.656l17.877,9.73c1.741,0.947,1.591,1.961-0.452,3.039
				c-1.132,0.597-2.02,0.956-2.666,1.077C159.281,145.187,158.101,144.987,156.943,144.355z"/>
			<path fill="#94EBFF" d="M182.222,158.148l-13.328-7.272c-1.261-0.688-1.559-1.371-0.896-2.051
				c0.224-0.265,1.055-0.777,2.494-1.538c-2.078-1.132-3.269-1.854-3.572-2.17c-0.621-0.694-0.253-1.399,1.103-2.115
				c0.664-0.351,1.684-0.871,3.061-1.562c1.375-0.69,2.396-1.21,3.061-1.562c1.024-0.54,2.257-0.554,3.7-0.037
				c0.552,0.182,1.717,0.754,3.489,1.715l1.618-0.855c-2.079-1.128-3.271-1.848-3.575-2.162c-0.623-0.692-0.256-1.396,1.101-2.113
				c0.663-0.35,1.684-0.87,3.061-1.561c1.376-0.69,2.397-1.211,3.062-1.562c1.023-0.541,2.257-0.555,3.701-0.041
				c0.552,0.181,1.718,0.751,3.492,1.709l1.121-0.593c1.986-1.086,3.851-1.16,5.592-0.221l13.362,7.207
				c1.74,0.938,1.588,1.95-0.458,3.036c-1.799,0.955-3.267,1.332-4.403,1.131c-0.7-0.141-2.345-0.912-4.938-2.314l-9.671-5.229
				l-5.785,3.061c2.387,1.293,3.649,2.141,3.787,2.542c0.19,0.521-0.615,1.258-2.42,2.214c-1.472,0.779-2.816,1.016-4.036,0.71
				c-0.575-0.133-1.92-0.774-4.032-1.922l-5.785,3.06l9.656,5.256c2.454,1.336,3.814,2.15,4.086,2.447
				c0.648,0.681,0.17,1.446-1.434,2.298c-1.134,0.602-2.023,0.964-2.67,1.087C184.561,158.977,183.379,158.78,182.222,158.148z"/>
		</g>
	</g>
</g>
<g>
</g>
<g>
</g>
<g>
</g>
<g>
</g>
<g>
</g>
<g>
</g>
<g>
</g>
<g>
</g>
<g>
</g>
<g>
</g>
<g>
</g>
<g>
</g>
<g>
</g>
<g>
</g>
<g>
</g>
</svg>
