<?xml version="1.0" encoding="utf-8"?>
<!-- Generator: Adobe Illustrator 16.0.0, SVG Export Plug-In . SVG Version: 6.00 Build 0)  -->
<!DOCTYPE svg PUBLIC "-//W3C//DTD SVG 1.1//EN" "http://www.w3.org/Graphics/SVG/1.1/DTD/svg11.dtd">
<svg version="1.1" id="圖層_1" xmlns="http://www.w3.org/2000/svg" xmlns:xlink="http://www.w3.org/1999/xlink" x="0px" y="0px"
	 width="332.372px" height="202.439px" viewBox="0 0 332.372 202.439" enable-background="new 0 0 332.372 202.439"
	 xml:space="preserve">
<g>
	<g>
		<g>
			<polygon fill="#C9939E" points="1079.076,5009.795 1031.448,5029.172 1003.132,5016.873 1051.284,4998.624 			"/>
			<polygon fill="none" stroke="#7A1A28" stroke-width="4" stroke-miterlimit="10" points="1079.076,5009.795 1031.448,5029.172 
				1003.132,5016.873 1051.284,4998.624 			"/>
		</g>
		<g>
			<g>
				<polygon fill="#7A1A28" points="1083.941,5005.641 1020.836,5031.141 996.601,5020.488 1060.297,4996.262 				"/>
			</g>
			<path fill="#7A1A28" d="M1038.562,5016.27c1.683,0.71,2.735,1.365,3.156,1.965c0.441,0.666,0.108,1.221-1,1.664
				c-0.971,0.389-2.167,0.505-3.591,0.348c-1.092-0.121-2.041-0.354-2.848-0.697c-0.821-0.35-0.959-0.633-0.413-0.848
				c0.336-0.133,0.768-0.153,1.293-0.061c0.516,0.097,1.005,0.191,1.472,0.283c0.604,0.084,1.128,0.039,1.574-0.139
				c0.832-0.331,0.303-0.896-1.586-1.694c-1.816-0.769-3.132-0.992-3.946-0.673c-0.387,0.151-0.48,0.379-0.278,0.684
				c0.221,0.297,0.152,0.516-0.205,0.656c-0.237,0.093-0.512,0.146-0.822,0.161c-0.404,0.015-0.775-0.05-1.113-0.192
				c-0.117-0.051-2.034-0.947-5.753-2.691c-0.948-0.443-0.989-0.832-0.124-1.166l2.928-1.127c0.617-0.237,1.328-0.186,2.134,0.153
				c0.937,0.396,1.103,0.71,0.496,0.946l-1.895,0.734c-0.447,0.173-0.406,0.389,0.126,0.646l1.766,0.834
				c-0.025-0.432,0.209-0.744,0.706-0.938c0.914-0.355,2.166-0.393,3.756-0.109
				C1035.738,5015.246,1037.127,5015.666,1038.562,5016.27z"/>
			<path fill="#7A1A28" d="M1043.879,5012.234c2.277,0.948,3.838,1.734,4.684,2.361c1.257,0.927,1.227,1.654-0.089,2.182
				c-1.315,0.525-3.095,0.518-5.335-0.025c-1.497-0.363-3.394-1.027-5.691-1.993c-2.326-0.978-3.886-1.763-4.678-2.354
				c-1.244-0.923-1.193-1.644,0.15-2.16s3.13-0.507,5.354,0.028C1039.676,5010.609,1041.545,5011.264,1043.879,5012.234z
				 M1041.6,5012.898c-3.257-1.359-5.298-1.879-6.123-1.561c-0.806,0.313,0.421,1.152,3.681,2.519
				c3.699,1.551,5.954,2.165,6.767,1.841C1046.737,5015.375,1045.295,5014.441,1041.6,5012.898z"/>
			<path fill="#7A1A28" d="M1051.502,5009.244c2.271,0.933,3.826,1.708,4.667,2.326c1.252,0.916,1.22,1.639-0.097,2.165
				c-1.315,0.526-3.091,0.524-5.326-0.009c-1.494-0.354-3.385-1.008-5.676-1.959c-2.319-0.963-3.875-1.736-4.664-2.32
				c-1.237-0.912-1.185-1.627,0.159-2.144s3.127-0.513,5.346,0.011C1047.311,5007.645,1049.175,5008.287,1051.502,5009.244z
				 M1049.223,5009.91c-3.246-1.34-5.283-1.85-6.108-1.529c-0.806,0.312,0.417,1.141,3.667,2.486
				c3.688,1.526,5.937,2.129,6.75,1.806C1054.343,5012.35,1052.908,5011.429,1049.223,5009.91z"/>
		</g>
	</g>
</g>
<g>
	<g>
		<g>
			<polygon fill="#C9939E" points="1079.076,5009.795 1031.448,5029.172 1003.132,5016.873 1051.284,4998.624 			"/>
			<polygon fill="none" stroke="#7A1A28" stroke-width="4" stroke-miterlimit="10" points="1079.076,5009.795 1031.448,5029.172 
				1003.132,5016.873 1051.284,4998.624 			"/>
		</g>
		<g>
			<g>
				<polygon fill="#7A1A28" points="1083.941,5005.641 1020.836,5031.141 996.601,5020.488 1060.297,4996.262 				"/>
			</g>
			<path fill="#7A1A28" d="M1038.562,5016.27c1.683,0.71,2.735,1.365,3.156,1.965c0.441,0.666,0.108,1.221-1,1.664
				c-0.971,0.389-2.167,0.505-3.591,0.348c-1.092-0.121-2.041-0.354-2.848-0.697c-0.821-0.35-0.959-0.633-0.413-0.848
				c0.336-0.133,0.768-0.153,1.293-0.061c0.516,0.097,1.005,0.191,1.472,0.283c0.604,0.084,1.128,0.039,1.574-0.139
				c0.832-0.331,0.303-0.896-1.586-1.694c-1.816-0.769-3.132-0.992-3.946-0.673c-0.387,0.151-0.48,0.379-0.278,0.684
				c0.221,0.297,0.152,0.516-0.205,0.656c-0.237,0.093-0.512,0.146-0.822,0.161c-0.404,0.015-0.775-0.05-1.113-0.192
				c-0.117-0.051-2.034-0.947-5.753-2.691c-0.948-0.443-0.989-0.832-0.124-1.166l2.928-1.127c0.617-0.237,1.328-0.186,2.134,0.153
				c0.937,0.396,1.103,0.71,0.496,0.946l-1.895,0.734c-0.447,0.173-0.406,0.389,0.126,0.646l1.766,0.834
				c-0.025-0.432,0.209-0.744,0.706-0.938c0.914-0.355,2.166-0.393,3.756-0.109
				C1035.738,5015.246,1037.127,5015.666,1038.562,5016.27z"/>
			<path fill="#7A1A28" d="M1043.879,5012.234c2.277,0.948,3.838,1.734,4.684,2.361c1.257,0.927,1.227,1.654-0.089,2.182
				c-1.315,0.525-3.095,0.518-5.335-0.025c-1.497-0.363-3.394-1.027-5.691-1.993c-2.326-0.978-3.886-1.763-4.678-2.354
				c-1.244-0.923-1.193-1.644,0.15-2.16s3.13-0.507,5.354,0.028C1039.676,5010.609,1041.545,5011.264,1043.879,5012.234z
				 M1041.6,5012.898c-3.257-1.359-5.298-1.879-6.123-1.561c-0.806,0.313,0.421,1.152,3.681,2.519
				c3.699,1.551,5.954,2.165,6.767,1.841C1046.737,5015.375,1045.295,5014.441,1041.6,5012.898z"/>
			<path fill="#7A1A28" d="M1051.502,5009.244c2.271,0.933,3.826,1.708,4.667,2.326c1.252,0.916,1.22,1.639-0.097,2.165
				c-1.315,0.526-3.091,0.524-5.326-0.009c-1.494-0.354-3.385-1.008-5.676-1.959c-2.319-0.963-3.875-1.736-4.664-2.32
				c-1.237-0.912-1.185-1.627,0.159-2.144s3.127-0.513,5.346,0.011C1047.311,5007.645,1049.175,5008.287,1051.502,5009.244z
				 M1049.223,5009.91c-3.246-1.34-5.283-1.85-6.108-1.529c-0.806,0.312,0.417,1.141,3.667,2.486
				c3.688,1.526,5.937,2.129,6.75,1.806C1054.343,5012.35,1052.908,5011.429,1049.223,5009.91z"/>
		</g>
	</g>
</g>
<g>
	<g>
		<path fill="#BD8A66" d="M166.425,12.938c1.603,0,3.653,0.7,6.636,2.268l150.009,84.802c0.39,0.269,1.295,1.711,1.302,3.793
			c0.003,0.743-0.122,2.534-1.319,3.312l-150.041,84.82c-3.242,1.768-5.18,2.523-6.474,2.523c-1.323,0-3.327-0.763-6.691-2.546
			L9.814,107.095c-1.421-0.886-1.864-2.733-1.81-4.06c0.041-0.995,0.402-2.309,1.283-2.739l0.215-0.105l0.208-0.118l150.137-84.873
			C162.798,13.636,164.829,12.938,166.425,12.938 M166.425,4.938c-3.183,0-6.359,1.082-10.423,3.246L5.774,93.108
			c-7.652,3.741-7.744,16.278,0,20.892l150.228,84.926c4.425,2.353,7.495,3.529,10.536,3.529c3.041,0,6.052-1.177,10.359-3.529
			L327.124,114c7.649-4.613,6.314-17.15,0-20.892L176.896,8.184C172.8,6.02,169.608,4.938,166.425,4.938L166.425,4.938z"/>
	</g>
</g>
<g>
	<path fill="#FFFFFF" d="M85.266,114.484c0,6.001-4.865,8.151-10.868,8.151l0,0c-6.001,0-10.868-2.15-10.868-8.151v-0.223
		c0-6.002,4.867-10.869,10.868-10.869l0,0c6.003,0,10.868,4.867,10.868,10.869V114.484z"/>
	<path fill="#00AA45" d="M74.848,104.188c0,0-3.24-3.536-3.005-4.968c1.661-10.198-1.73-6.124-1.73-6.124
		c2.173-9.511-1.631-4.128-1.631-4.128c1.359-10.559-2.537-4.115-2.537-4.115c1.449-9.33-3.238-3.282-3.238-3.282
		c1.834-6.59-1.039-9.204-6.114-6.522c-5.954,3.149,0.824,7.994,0.824,7.994c-6.732,0.77,1.464,4.981,1.464,4.981
		c-4.981,0.905,4.347,3.985,4.347,3.985c-6.612,0.09,1.902,4.166,1.902,4.166c-2.541,1.017-1.519,2.408,4.279,4.154
		c1.462,0.438,3.168,5.232,3.168,5.232c0.249,0.412,0.687,0.641,1.137,0.641c0.234,0,0.471-0.062,0.687-0.191
		C75.026,105.632,75.228,104.815,74.848,104.188z"/>
	<path fill="#00933B" d="M75.563,104.752c0,0-1.373-4.594-0.542-5.781c5.943-8.453,1.115-6.266,1.115-6.266
		c6.101-7.611,0.332-4.427,0.332-4.427c5.825-8.911-0.489-4.808-0.489-4.808c5.371-7.764-1.483-4.366-1.483-4.366
		c4.522-5.131,3.075-8.737-2.66-8.534c-6.731,0.238-2.745,7.552-2.745,7.552c-6.394-2.239-0.851,5.122-0.851,5.122
		c-4.879-1.354,2.175,5.482,2.175,5.482c-5.991-2.801-0.105,4.578-0.105,4.578c-2.73-0.191-2.416,1.506,2.039,5.602
		c1.127,1.036,0.569,6.094,0.569,6.094c0.046,0.48,0.341,0.875,0.746,1.072c0.21,0.1,0.451,0.148,0.703,0.125
		C75.096,106.129,75.633,105.482,75.563,104.752z"/>
	<path fill="#00AA45" d="M76.189,105.47c0,0,1.262-4.626,2.599-5.19c9.514-4.035,4.257-4.732,4.257-4.732
		c9.203-3.233,2.622-3.58,2.622-3.58c9.658-4.484,2.127-4.34,2.127-4.34c8.666-3.75,1.05-4.49,1.05-4.49
		c6.552-1.964,7.23-5.789,2.255-8.648c-5.838-3.359-6.32,4.959-6.32,4.959c-4.244-5.285-3.435,3.895-3.435,3.895
		c-3.423-3.729-1.051,5.805-1.051,5.805c-3.604-5.545-2.51,3.828-2.51,3.828c-2.216-1.607-2.848,0-1.233,5.834
		c0.41,1.475-2.735,5.473-2.735,5.473c-0.218,0.431-0.178,0.924,0.063,1.305c0.125,0.197,0.303,0.364,0.528,0.477
		C75.063,106.391,75.861,106.125,76.189,105.47z"/>
</g>
<g>
	<path fill="#FFFFFF" d="M127.091,86.504c0,6.004-4.866,8.151-10.867,8.151l0,0c-6.003,0-10.868-2.147-10.868-8.151v-0.223
		c0-6.002,4.865-10.091,10.868-10.091l0,0c6.001,0,10.867,4.089,10.867,10.091V86.504z"/>
	<path fill="#00AA45" d="M116.673,76.984c0,0-3.241-3.533-3.005-4.964c1.662-10.2-1.732-6.126-1.732-6.126
		c2.174-9.51-1.631-4.13-1.631-4.13c1.36-10.558-2.535-4.112-2.535-4.112c1.448-9.33-3.238-3.283-3.238-3.283
		c1.834-6.59-1.039-9.205-6.113-6.521c-5.954,3.147,0.823,7.992,0.823,7.992c-6.732,0.771,1.465,4.982,1.465,4.982
		c-4.982,0.905,4.347,3.984,4.347,3.984c-6.611,0.092,1.901,4.166,1.901,4.166c-2.542,1.018-1.519,2.408,4.276,4.152
		c1.465,0.442,3.17,5.236,3.17,5.236c0.249,0.413,0.687,0.641,1.137,0.641c0.234,0,0.472-0.063,0.687-0.193
		C116.852,78.428,117.053,77.612,116.673,76.984z"/>
	<path fill="#00933B" d="M117.388,77.549c0,0-1.373-4.593-0.54-5.778c5.942-8.455,1.114-6.269,1.114-6.269
		c6.1-7.611,0.332-4.426,0.332-4.426c5.825-8.91-0.489-4.808-0.489-4.808c5.37-7.765-1.484-4.366-1.484-4.366
		c4.523-5.13,3.076-8.734-2.661-8.533c-6.731,0.236-2.743,7.551-2.743,7.551c-6.395-2.24-0.854,5.123-0.854,5.123
		c-4.877-1.355,2.177,5.48,2.177,5.48c-5.992-2.801-0.105,4.58-0.105,4.58c-2.731-0.193-2.416,1.504,2.04,5.601
		c1.126,1.036,0.57,6.091,0.57,6.091c0.044,0.481,0.339,0.878,0.744,1.074c0.211,0.103,0.451,0.15,0.704,0.126
		C116.92,78.928,117.458,78.279,117.388,77.549z"/>
	<path fill="#00AA45" d="M118.014,78.268c0,0,1.263-4.625,2.599-5.191c9.513-4.033,4.257-4.729,4.257-4.729
		c9.203-3.236,2.622-3.582,2.622-3.582c9.658-4.483,2.127-4.341,2.127-4.341c8.667-3.75,1.052-4.489,1.052-4.489
		c6.551-1.964,7.229-5.789,2.253-8.649c-5.837-3.358-6.32,4.959-6.32,4.959c-4.242-5.283-3.434,3.896-3.434,3.896
		c-3.422-3.729-1.053,5.802-1.053,5.802c-3.602-5.543-2.51,3.832-2.51,3.832c-2.215-1.605-2.847,0-1.232,5.833
		c0.41,1.476-2.734,5.472-2.734,5.472c-0.217,0.434-0.177,0.926,0.064,1.305c0.123,0.197,0.302,0.367,0.529,0.479
		C116.889,79.189,117.686,78.924,118.014,78.268z"/>
</g>
<g>
	<path fill="#FFFFFF" d="M167.313,67.678c0,6.004-4.866,8.15-10.867,8.15l0,0c-6.004,0-10.87-2.146-10.87-8.15v-0.223
		c0-6.002,4.866-10.868,10.87-10.868l0,0c6.001,0,10.867,4.866,10.867,10.868V67.678z"/>
	<path fill="#00AA45" d="M156.895,57.381c0,0-3.242-3.533-3.007-4.965c1.662-10.199-1.731-6.125-1.731-6.125
		c2.176-9.51-1.631-4.129-1.631-4.129c1.36-10.56-2.536-4.113-2.536-4.113c1.45-9.329-3.236-3.284-3.236-3.284
		c1.833-6.588-1.04-9.203-6.114-6.521c-5.954,3.148,0.825,7.992,0.825,7.992c-6.734,0.77,1.462,4.981,1.462,4.981
		c-4.98,0.905,4.348,3.983,4.348,3.983c-6.613,0.093,1.903,4.168,1.903,4.168c-2.544,1.017-1.52,2.409,4.277,4.153
		c1.464,0.44,3.168,5.233,3.168,5.233c0.249,0.414,0.688,0.642,1.137,0.642c0.235,0,0.472-0.062,0.688-0.192
		C157.072,58.826,157.273,58.009,156.895,57.381z"/>
	<path fill="#00933B" d="M157.61,57.945c0,0-1.376-4.593-0.542-5.779c5.943-8.455,1.114-6.267,1.114-6.267
		c6.102-7.612,0.333-4.427,0.333-4.427c5.825-8.91-0.491-4.807-0.491-4.807c5.372-7.765-1.482-4.367-1.482-4.367
		c4.523-5.13,3.077-8.735-2.659-8.533c-6.731,0.237-2.744,7.553-2.744,7.553c-6.396-2.242-0.854,5.121-0.854,5.121
		c-4.879-1.357,2.175,5.48,2.175,5.48c-5.99-2.799-0.103,4.578-0.103,4.578c-2.732-0.191-2.417,1.504,2.039,5.604
		c1.125,1.035,0.569,6.092,0.569,6.092c0.045,0.48,0.34,0.877,0.744,1.072c0.212,0.103,0.451,0.148,0.702,0.127
		C157.142,59.324,157.679,58.676,157.61,57.945z"/>
	<path fill="#00AA45" d="M158.236,58.663c0,0,1.262-4.625,2.598-5.19c9.513-4.034,4.257-4.731,4.257-4.731
		c9.204-3.233,2.623-3.581,2.623-3.581c9.657-4.482,2.127-4.34,2.127-4.34c8.664-3.75,1.051-4.49,1.051-4.49
		c6.551-1.963,7.229-5.787,2.255-8.648c-5.838-3.357-6.323,4.96-6.323,4.96c-4.242-5.284-3.432,3.896-3.432,3.896
		c-3.424-3.731-1.052,5.803-1.052,5.803c-3.604-5.545-2.51,3.831-2.51,3.831c-2.218-1.608-2.848-0.001-1.232,5.833
		c0.409,1.475-2.738,5.471-2.738,5.471c-0.216,0.433-0.175,0.924,0.065,1.305c0.125,0.198,0.303,0.364,0.53,0.479
		C157.109,59.586,157.908,59.32,158.236,58.663z"/>
</g>
<g>
	<path fill="#FFFFFF" d="M203.634,43.922c0,6.002-4.867,8.152-10.868,8.152l0,0c-6.002,0-10.868-2.15-10.868-8.152v-0.223
		c0-6.002,4.866-10.869,10.868-10.869l0,0c6.001,0,10.868,4.867,10.868,10.869V43.922z"/>
	<path fill="#00AA45" d="M193.214,33.627c0,0-3.239-3.537-3.006-4.968c1.662-10.2-1.73-6.126-1.73-6.126
		c2.174-9.51-1.631-4.128-1.631-4.128c1.359-10.56-2.536-4.114-2.536-4.114c1.45-9.329-3.237-3.283-3.237-3.283
		c1.833-6.59-1.039-9.203-6.114-6.521c-5.954,3.148,0.822,7.993,0.822,7.993c-6.731,0.771,1.464,4.98,1.464,4.98
		c-4.98,0.907,4.349,3.986,4.349,3.986c-6.613,0.09,1.901,4.167,1.901,4.167c-2.542,1.017-1.521,2.407,4.278,4.152
		c1.463,0.44,3.167,5.234,3.167,5.234c0.25,0.413,0.687,0.641,1.138,0.641c0.234,0,0.47-0.063,0.687-0.191
		C193.393,35.068,193.594,34.253,193.214,33.627z"/>
	<path fill="#00933B" d="M193.931,34.189c0,0-1.375-4.594-0.542-5.781c5.942-8.453,1.114-6.266,1.114-6.266
		c6.099-7.613,0.33-4.426,0.33-4.426c5.826-8.911-0.486-4.809-0.486-4.809c5.371-7.766-1.484-4.365-1.484-4.365
		c4.521-5.133,3.076-8.738-2.659-8.535c-6.732,0.238-2.744,7.553-2.744,7.553c-6.395-2.242-0.853,5.121-0.853,5.121
		c-4.879-1.355,2.176,5.48,2.176,5.48c-5.993-2.8-0.105,4.58-0.105,4.58c-2.733-0.193-2.417,1.506,2.039,5.602
		c1.125,1.036,0.57,6.092,0.57,6.092c0.044,0.482,0.34,0.877,0.744,1.074c0.212,0.1,0.452,0.149,0.703,0.125
		C193.463,35.566,193.999,34.92,193.931,34.189z"/>
	<path fill="#00AA45" d="M194.557,34.907c0,0,1.261-4.625,2.598-5.19c9.514-4.035,4.257-4.732,4.257-4.732
		c9.204-3.234,2.623-3.58,2.623-3.58c9.656-4.484,2.127-4.34,2.127-4.34c8.664-3.75,1.05-4.49,1.05-4.49
		c6.553-1.964,7.231-5.789,2.255-8.649c-5.836-3.358-6.322,4.96-6.322,4.96c-4.242-5.284-3.432,3.895-3.432,3.895
		c-3.426-3.729-1.052,5.805-1.052,5.805c-3.604-5.547-2.512,3.83-2.512,3.83c-2.217-1.609-2.847,0-1.232,5.832
		c0.41,1.475-2.737,5.473-2.737,5.473c-0.215,0.432-0.175,0.924,0.065,1.303c0.124,0.199,0.303,0.365,0.53,0.479
		C193.431,35.828,194.227,35.563,194.557,34.907z"/>
</g>
<g>
	<path fill="#FFFFFF" d="M156.95,156.758c0,6.003-4.865,8.152-10.867,8.152l0,0c-6.003,0-10.869-2.149-10.869-8.152v-0.222
		c0-6.003,4.866-10.868,10.869-10.868l0,0c6.002,0,10.867,4.865,10.867,10.868V156.758z"/>
	<path fill="#00AA45" d="M146.532,146.463c0,0-3.24-3.535-3.007-4.967c1.664-10.199-1.729-6.126-1.729-6.126
		c2.174-9.509-1.631-4.128-1.631-4.128c1.359-10.559-2.536-4.112-2.536-4.112c1.451-9.331-3.236-3.284-3.236-3.284
		c1.833-6.589-1.042-9.203-6.117-6.521c-5.952,3.146,0.826,7.991,0.826,7.991c-6.733,0.771,1.462,4.981,1.462,4.981
		c-4.982,0.906,4.348,3.986,4.348,3.986c-6.612,0.091,1.902,4.166,1.902,4.166c-2.544,1.017-1.52,2.407,4.277,4.153
		c1.465,0.439,3.167,5.233,3.167,5.233c0.25,0.413,0.688,0.641,1.138,0.641c0.235,0,0.472-0.062,0.687-0.192
		C146.709,147.904,146.91,147.089,146.532,146.463z"/>
	<path fill="#00933B" d="M147.248,147.027c0,0-1.376-4.594-0.542-5.781c5.94-8.453,1.114-6.267,1.114-6.267
		c6.1-7.611,0.333-4.426,0.333-4.426c5.822-8.911-0.492-4.808-0.492-4.808c5.372-7.766-1.483-4.367-1.483-4.367
		c4.524-5.131,3.078-8.736-2.658-8.534c-6.733,0.239-2.742,7.553-2.742,7.553c-6.396-2.242-0.855,5.12-0.855,5.12
		c-4.879-1.354,2.175,5.482,2.175,5.482c-5.989-2.799-0.104,4.58-0.104,4.58c-2.732-0.194-2.418,1.504,2.04,5.601
		c1.125,1.037,0.568,6.093,0.568,6.093c0.047,0.48,0.34,0.877,0.746,1.074c0.21,0.101,0.451,0.146,0.701,0.123
		C146.781,148.404,147.318,147.758,147.248,147.027z"/>
	<path fill="#00AA45" d="M147.875,147.744c0,0,1.261-4.626,2.596-5.19c9.515-4.034,4.259-4.731,4.259-4.731
		c9.205-3.234,2.622-3.582,2.622-3.582c9.656-4.481,2.128-4.338,2.128-4.338c8.664-3.752,1.05-4.491,1.05-4.491
		c6.552-1.964,7.232-5.788,2.255-8.649c-5.84-3.357-6.323,4.958-6.323,4.958c-4.241-5.281-3.431,3.896-3.431,3.896
		c-3.425-3.729-1.053,5.804-1.053,5.804c-3.603-5.545-2.511,3.83-2.511,3.83c-2.215-1.607-2.848,0-1.23,5.834
		c0.408,1.475-2.738,5.472-2.738,5.472c-0.217,0.431-0.174,0.924,0.065,1.304c0.126,0.199,0.302,0.366,0.529,0.477
		C146.749,148.664,147.545,148.4,147.875,147.744z"/>
</g>
<g>
	<path fill="#FFFFFF" d="M198.775,129.557c0,6.002-4.863,8.15-10.867,8.15l0,0c-6.004,0-10.87-2.148-10.87-8.15v-0.223
		c0-6.002,4.866-10.867,10.87-10.867l0,0c6.004,0,10.867,4.865,10.867,10.867V129.557z"/>
	<path fill="#00AA45" d="M188.357,119.261c0,0-3.241-3.534-3.007-4.966c1.665-10.202-1.728-6.127-1.728-6.127
		c2.173-9.51-1.632-4.129-1.632-4.129c1.359-10.558-2.534-4.114-2.534-4.114c1.448-9.329-3.241-3.28-3.241-3.28
		c1.833-6.592-1.04-9.206-6.113-6.523c-5.954,3.15,0.824,7.993,0.824,7.993c-6.733,0.77,1.462,4.982,1.462,4.982
		c-4.982,0.905,4.347,3.983,4.347,3.983c-6.61,0.093,1.903,4.167,1.903,4.167c-2.543,1.019-1.52,2.409,4.277,4.153
		c1.466,0.441,3.167,5.234,3.167,5.234c0.25,0.414,0.688,0.641,1.138,0.641c0.234,0,0.469-0.062,0.685-0.191
		C188.536,120.703,188.736,119.887,188.357,119.261z"/>
	<path fill="#00933B" d="M189.074,119.824c0,0-1.375-4.594-0.542-5.781c5.941-8.453,1.114-6.266,1.114-6.266
		c6.101-7.613,0.332-4.426,0.332-4.426c5.825-8.911-0.49-4.809-0.49-4.809c5.372-7.765-1.482-4.367-1.482-4.367
		c4.523-5.131,3.076-8.735-2.66-8.531c-6.732,0.236-2.741,7.551-2.741,7.551c-6.397-2.24-0.856,5.123-0.856,5.123
		c-4.878-1.358,2.175,5.48,2.175,5.48c-5.988-2.801-0.104,4.579-0.104,4.579c-2.731-0.193-2.417,1.505,2.039,5.602
		c1.126,1.036,0.57,6.092,0.57,6.092c0.045,0.479,0.34,0.875,0.744,1.073c0.21,0.102,0.451,0.148,0.701,0.125
		C188.605,121.2,189.142,120.555,189.074,119.824z"/>
	<path fill="#00AA45" d="M189.7,120.541c0,0,1.26-4.623,2.595-5.189c9.516-4.035,4.26-4.733,4.26-4.733
		c9.204-3.233,2.622-3.579,2.622-3.579c9.656-4.482,2.126-4.34,2.126-4.34c8.665-3.75,1.05-4.49,1.05-4.49
		c6.552-1.963,7.232-5.789,2.255-8.649c-5.839-3.358-6.322,4.959-6.322,4.959c-4.243-5.284-3.432,3.896-3.432,3.896
		c-3.422-3.73-1.052,5.803-1.052,5.803c-3.602-5.545-2.508,3.831-2.508,3.831c-2.216-1.606-2.849-0.001-1.233,5.833
		c0.408,1.476-2.736,5.472-2.736,5.472c-0.218,0.433-0.176,0.925,0.063,1.304c0.127,0.199,0.303,0.365,0.529,0.479
		C188.574,121.463,189.371,121.197,189.7,120.541z"/>
</g>
<g>
	<path fill="#FFFFFF" d="M238.997,109.951c0,6.004-4.867,8.153-10.869,8.153l0,0c-6.003,0-10.869-2.149-10.869-8.153v-0.221
		c0-6.002,4.866-10.869,10.869-10.869l0,0c6.002,0,10.869,4.867,10.869,10.869V109.951z"/>
	<path fill="#00AA45" d="M228.577,99.656c0,0-3.239-3.533-3.007-4.967c1.665-10.199-1.728-6.125-1.728-6.125
		c2.172-9.509-1.631-4.128-1.631-4.128c1.359-10.558-2.535-4.112-2.535-4.112c1.447-9.33-3.238-3.285-3.238-3.285
		c1.833-6.59-1.041-9.203-6.114-6.52c-5.954,3.146,0.822,7.991,0.822,7.991c-6.732,0.771,1.463,4.981,1.463,4.981
		c-4.981,0.906,4.348,3.983,4.348,3.983c-6.61,0.094,1.903,4.168,1.903,4.168c-2.543,1.017-1.52,2.409,4.276,4.152
		c1.467,0.442,3.169,5.236,3.169,5.236c0.251,0.412,0.688,0.64,1.137,0.64c0.234,0,0.473-0.062,0.687-0.192
		C228.757,101.102,228.958,100.283,228.577,99.656z"/>
	<path fill="#00933B" d="M229.294,100.221c0,0-1.375-4.594-0.541-5.78c5.941-8.454,1.113-6.267,1.113-6.267
		c6.101-7.611,0.331-4.426,0.331-4.426c5.825-8.912-0.488-4.809-0.488-4.809c5.37-7.764-1.485-4.366-1.485-4.366
		c4.523-5.131,3.078-8.736-2.66-8.532c-6.73,0.236-2.742,7.551-2.742,7.551c-6.395-2.24-0.854,5.122-0.854,5.122
		c-4.878-1.357,2.176,5.482,2.176,5.482c-5.99-2.802-0.105,4.577-0.105,4.577c-2.73-0.191-2.417,1.506,2.041,5.602
		c1.126,1.036,0.57,6.092,0.57,6.092c0.043,0.48,0.339,0.879,0.744,1.074c0.21,0.102,0.451,0.149,0.701,0.125
		C228.827,101.598,229.361,100.951,229.294,100.221z"/>
	<path fill="#00AA45" d="M229.919,100.937c0,0,1.262-4.624,2.598-5.19c9.514-4.032,4.257-4.73,4.257-4.73
		c9.204-3.234,2.624-3.58,2.624-3.58c9.655-4.484,2.126-4.34,2.126-4.34c8.663-3.752,1.05-4.491,1.05-4.491
		c6.553-1.962,7.233-5.788,2.254-8.649c-5.837-3.356-6.322,4.963-6.322,4.963c-4.24-5.287-3.431,3.892-3.431,3.892
		c-3.424-3.729-1.053,5.804-1.053,5.804c-3.603-5.544-2.51,3.831-2.51,3.831c-2.216-1.606-2.847,0-1.23,5.833
		c0.407,1.475-2.739,5.473-2.739,5.473c-0.215,0.432-0.174,0.924,0.064,1.303c0.126,0.199,0.305,0.367,0.528,0.479
		C228.794,101.861,229.591,101.595,229.919,100.937z"/>
</g>
<g>
	<path fill="#FFFFFF" d="M275.318,86.194c0,6.003-4.866,8.153-10.869,8.153l0,0c-6.001,0-10.869-2.15-10.869-8.153v-0.221
		c0-6.003,4.868-10.868,10.869-10.868l0,0c6.003,0,10.869,4.865,10.869,10.868V86.194z"/>
	<path fill="#00AA45" d="M264.899,75.9c0,0-3.24-3.535-3.007-4.967c1.664-10.199-1.729-6.126-1.729-6.126
		c2.172-9.511-1.631-4.129-1.631-4.129c1.358-10.558-2.536-4.114-2.536-4.114c1.449-9.328-3.239-3.282-3.239-3.282
		c1.834-6.589-1.04-9.204-6.111-6.522c-5.955,3.148,0.823,7.995,0.823,7.995c-6.733,0.769,1.461,4.979,1.461,4.979
		c-4.981,0.906,4.348,3.986,4.348,3.986c-6.612,0.09,1.902,4.168,1.902,4.168c-2.542,1.017-1.518,2.407,4.278,4.152
		c1.464,0.44,3.168,5.233,3.168,5.233c0.248,0.414,0.688,0.642,1.137,0.642c0.234,0,0.472-0.063,0.685-0.191
		C265.079,77.342,265.277,76.527,264.899,75.9z"/>
	<path fill="#00933B" d="M265.615,76.465c0,0-1.375-4.594-0.54-5.781c5.941-8.454,1.113-6.268,1.113-6.268
		c6.102-7.611,0.331-4.426,0.331-4.426c5.825-8.91-0.49-4.807-0.49-4.807c5.37-7.766-1.483-4.367-1.483-4.367
		c4.523-5.131,3.076-8.738-2.658-8.533c-6.734,0.237-2.742,7.551-2.742,7.551c-6.397-2.24-0.857,5.122-0.857,5.122
		c-4.877-1.354,2.176,5.482,2.176,5.482c-5.988-2.802-0.104,4.578-0.104,4.578c-2.73-0.193-2.417,1.506,2.04,5.602
		c1.127,1.036,0.572,6.093,0.572,6.093c0.043,0.48,0.338,0.875,0.743,1.072c0.21,0.102,0.451,0.148,0.701,0.127
		C265.147,77.84,265.684,77.195,265.615,76.465z"/>
	<path fill="#00AA45" d="M266.241,77.183c0,0,1.261-4.626,2.597-5.193c9.515-4.032,4.257-4.731,4.257-4.731
		c9.204-3.234,2.624-3.578,2.624-3.578c9.656-4.484,2.127-4.34,2.127-4.34c8.662-3.752,1.049-4.491,1.049-4.491
		c6.554-1.964,7.231-5.79,2.257-8.649c-5.84-3.359-6.323,4.959-6.323,4.959c-4.243-5.285-3.433,3.896-3.433,3.896
		c-3.422-3.729-1.051,5.803-1.051,5.803c-3.604-5.545-2.51,3.831-2.51,3.831c-2.216-1.607-2.85-0.001-1.23,5.834
		c0.408,1.475-2.738,5.473-2.738,5.473c-0.216,0.43-0.175,0.924,0.063,1.302c0.125,0.198,0.306,0.366,0.53,0.478
		C265.114,78.103,265.912,77.838,266.241,77.183z"/>
</g>
<g>
</g>
<g>
</g>
<g>
</g>
<g>
</g>
<g>
</g>
<g>
</g>
<g>
</g>
<g>
</g>
<g>
</g>
<g>
</g>
<g>
</g>
<g>
</g>
<g>
</g>
<g>
</g>
<g>
</g>
</svg>
