<?xml version="1.0" encoding="utf-8"?>
<!-- Generator: Adobe Illustrator 16.0.0, SVG Export Plug-In . SVG Version: 6.00 Build 0)  -->
<!DOCTYPE svg PUBLIC "-//W3C//DTD SVG 1.1//EN" "http://www.w3.org/Graphics/SVG/1.1/DTD/svg11.dtd">
<svg version="1.1" id="圖層_1" xmlns="http://www.w3.org/2000/svg" xmlns:xlink="http://www.w3.org/1999/xlink" x="0px" y="0px"
	 width="332.32px" height="199.096px" viewBox="0 0 332.32 199.096" enable-background="new 0 0 332.32 199.096"
	 xml:space="preserve">
<g>
	<g>
		<g>
			<polygon fill="#C9939E" points="1100.587,5037.717 1052.959,5057.094 1024.644,5044.795 1072.795,5026.546 			"/>
			<polygon fill="none" stroke="#7A1A28" stroke-width="4" stroke-miterlimit="10" points="1100.587,5037.717 1052.959,5057.094 
				1024.644,5044.795 1072.795,5026.546 			"/>
		</g>
		<g>
			<g>
				<polygon fill="#7A1A28" points="1105.453,5033.563 1042.348,5059.063 1018.113,5048.41 1081.809,5024.184 				"/>
			</g>
			<path fill="#7A1A28" d="M1060.074,5044.191c1.683,0.71,2.735,1.365,3.156,1.965c0.441,0.666,0.108,1.221-1,1.664
				c-0.971,0.389-2.167,0.505-3.591,0.348c-1.092-0.121-2.041-0.354-2.848-0.697c-0.821-0.35-0.959-0.633-0.413-0.848
				c0.336-0.133,0.768-0.153,1.293-0.061c0.516,0.097,1.005,0.191,1.472,0.283c0.604,0.084,1.128,0.039,1.574-0.139
				c0.832-0.331,0.303-0.896-1.586-1.694c-1.816-0.769-3.132-0.992-3.946-0.673c-0.387,0.151-0.48,0.379-0.278,0.684
				c0.221,0.297,0.152,0.516-0.205,0.656c-0.237,0.093-0.512,0.146-0.822,0.161c-0.404,0.015-0.775-0.05-1.113-0.192
				c-0.117-0.051-2.034-0.947-5.753-2.691c-0.948-0.443-0.989-0.832-0.124-1.166l2.928-1.127c0.617-0.237,1.328-0.186,2.134,0.153
				c0.937,0.396,1.103,0.71,0.496,0.946l-1.895,0.734c-0.447,0.173-0.406,0.389,0.126,0.646l1.766,0.834
				c-0.025-0.432,0.209-0.744,0.706-0.938c0.914-0.355,2.166-0.393,3.756-0.109
				C1057.25,5043.168,1058.639,5043.588,1060.074,5044.191z"/>
			<path fill="#7A1A28" d="M1065.391,5040.156c2.277,0.948,3.838,1.734,4.684,2.361c1.257,0.927,1.227,1.654-0.089,2.182
				c-1.315,0.525-3.095,0.518-5.335-0.025c-1.497-0.363-3.394-1.027-5.691-1.993c-2.326-0.978-3.886-1.763-4.678-2.354
				c-1.244-0.923-1.193-1.644,0.15-2.16s3.13-0.507,5.354,0.028C1061.188,5038.531,1063.057,5039.186,1065.391,5040.156z
				 M1063.112,5040.82c-3.257-1.359-5.298-1.879-6.123-1.561c-0.806,0.313,0.421,1.152,3.681,2.519
				c3.699,1.551,5.954,2.165,6.767,1.841C1068.249,5043.297,1066.807,5042.363,1063.112,5040.82z"/>
			<path fill="#7A1A28" d="M1073.014,5037.166c2.271,0.933,3.826,1.708,4.667,2.326c1.252,0.916,1.22,1.639-0.097,2.165
				c-1.315,0.526-3.091,0.524-5.326-0.009c-1.494-0.354-3.385-1.008-5.676-1.959c-2.319-0.963-3.875-1.736-4.664-2.32
				c-1.237-0.912-1.185-1.627,0.159-2.144s3.127-0.513,5.346,0.011C1068.823,5035.566,1070.687,5036.209,1073.014,5037.166z
				 M1070.735,5037.832c-3.246-1.34-5.283-1.85-6.108-1.529c-0.806,0.312,0.417,1.141,3.667,2.486
				c3.688,1.526,5.937,2.129,6.75,1.806C1075.855,5040.271,1074.419,5039.351,1070.735,5037.832z"/>
		</g>
	</g>
</g>
<g>
	<g>
		<g>
			<polygon fill="#C9939E" points="1100.587,5037.717 1052.959,5057.094 1024.644,5044.795 1072.795,5026.546 			"/>
			<polygon fill="none" stroke="#7A1A28" stroke-width="4" stroke-miterlimit="10" points="1100.587,5037.717 1052.959,5057.094 
				1024.644,5044.795 1072.795,5026.546 			"/>
		</g>
		<g>
			<g>
				<polygon fill="#7A1A28" points="1105.453,5033.563 1042.348,5059.063 1018.113,5048.41 1081.809,5024.184 				"/>
			</g>
			<path fill="#7A1A28" d="M1060.074,5044.191c1.683,0.71,2.735,1.365,3.156,1.965c0.441,0.666,0.108,1.221-1,1.664
				c-0.971,0.389-2.167,0.505-3.591,0.348c-1.092-0.121-2.041-0.354-2.848-0.697c-0.821-0.35-0.959-0.633-0.413-0.848
				c0.336-0.133,0.768-0.153,1.293-0.061c0.516,0.097,1.005,0.191,1.472,0.283c0.604,0.084,1.128,0.039,1.574-0.139
				c0.832-0.331,0.303-0.896-1.586-1.694c-1.816-0.769-3.132-0.992-3.946-0.673c-0.387,0.151-0.48,0.379-0.278,0.684
				c0.221,0.297,0.152,0.516-0.205,0.656c-0.237,0.093-0.512,0.146-0.822,0.161c-0.404,0.015-0.775-0.05-1.113-0.192
				c-0.117-0.051-2.034-0.947-5.753-2.691c-0.948-0.443-0.989-0.832-0.124-1.166l2.928-1.127c0.617-0.237,1.328-0.186,2.134,0.153
				c0.937,0.396,1.103,0.71,0.496,0.946l-1.895,0.734c-0.447,0.173-0.406,0.389,0.126,0.646l1.766,0.834
				c-0.025-0.432,0.209-0.744,0.706-0.938c0.914-0.355,2.166-0.393,3.756-0.109
				C1057.25,5043.168,1058.639,5043.588,1060.074,5044.191z"/>
			<path fill="#7A1A28" d="M1065.391,5040.156c2.277,0.948,3.838,1.734,4.684,2.361c1.257,0.927,1.227,1.654-0.089,2.182
				c-1.315,0.525-3.095,0.518-5.335-0.025c-1.497-0.363-3.394-1.027-5.691-1.993c-2.326-0.978-3.886-1.763-4.678-2.354
				c-1.244-0.923-1.193-1.644,0.15-2.16s3.13-0.507,5.354,0.028C1061.188,5038.531,1063.057,5039.186,1065.391,5040.156z
				 M1063.112,5040.82c-3.257-1.359-5.298-1.879-6.123-1.561c-0.806,0.313,0.421,1.152,3.681,2.519
				c3.699,1.551,5.954,2.165,6.767,1.841C1068.249,5043.297,1066.807,5042.363,1063.112,5040.82z"/>
			<path fill="#7A1A28" d="M1073.014,5037.166c2.271,0.933,3.826,1.708,4.667,2.326c1.252,0.916,1.22,1.639-0.097,2.165
				c-1.315,0.526-3.091,0.524-5.326-0.009c-1.494-0.354-3.385-1.008-5.676-1.959c-2.319-0.963-3.875-1.736-4.664-2.32
				c-1.237-0.912-1.185-1.627,0.159-2.144s3.127-0.513,5.346,0.011C1068.823,5035.566,1070.687,5036.209,1073.014,5037.166z
				 M1070.735,5037.832c-3.246-1.34-5.283-1.85-6.108-1.529c-0.806,0.312,0.417,1.141,3.667,2.486
				c3.688,1.526,5.937,2.129,6.75,1.806C1075.855,5040.271,1074.419,5039.351,1070.735,5037.832z"/>
		</g>
	</g>
</g>
<g>
	<g>
		<path fill="#80CCE3" d="M166.372,8.579c1.8,0,3.932,0.715,7.114,2.39l150.049,84.823c0.727,0.464,1.775,2.228,1.785,4.643
			c0.003,0.915-0.167,3.138-1.805,4.177l-150.073,84.838c-3.446,1.879-5.464,2.646-6.958,2.646c-1.52,0-3.601-0.773-7.172-2.667
			L9.252,104.598c-1.801-1.108-2.365-3.359-2.299-4.961c0.055-1.331,0.568-2.975,1.843-3.599l0.187-0.092l0.182-0.103
			l150.148-84.881C162.464,9.292,164.578,8.579,166.372,8.579 M166.372,1.579c-3.184,0-6.359,1.081-10.424,3.245L5.721,89.75
			c-7.649,3.742-7.744,16.277,0,20.893l150.228,84.926c4.424,2.352,7.495,3.527,10.536,3.527c3.042,0,6.053-1.176,10.358-3.527
			l150.229-84.926c7.65-4.615,6.314-17.15,0-20.893L176.842,4.824C172.747,2.66,169.555,1.579,166.372,1.579L166.372,1.579z"/>
	</g>
</g>
<g>
	<rect x="120.618" y="50.779" fill="#727171" width="81.128" height="72.466"/>
	<g>
		<path fill="#FB9861" d="M174.385,87.247c0,6.587-6.4,11.927-14.29,11.927c-7.893,0-14.29-5.34-14.29-11.927
			c0-6.588,6.397-14.507,14.29-14.507C167.984,72.74,174.385,80.659,174.385,87.247z"/>
		<path fill="#E57C48" d="M142.26,92.374c-0.622,2.114,0.595,4.33,2.707,4.948c2.115,0.617,4.33-0.594,4.95-2.71
			c0.617-2.113,2.945-16.448,0.833-17.068C148.633,76.926,142.877,90.26,142.26,92.374z"/>
		<circle fill="#604C3F" cx="153.648" cy="85.295" r="1.523"/>
		<path fill="#604C3F" d="M168.064,85.295c0,0.842-0.682,1.521-1.524,1.521c-0.838,0-1.521-0.68-1.521-1.521
			s0.683-1.521,1.521-1.521C167.383,83.773,168.064,84.453,168.064,85.295z"/>
		<g>
			<path fill="#E57C48" d="M158.326,119.977c0,1.57-1.276,2.843-2.845,2.843l0,0c-1.57,0-2.842-1.272-2.842-2.843v-12.892
				c0-1.572,1.271-2.844,2.842-2.844l0,0c1.568,0,2.845,1.271,2.845,2.844V119.977z"/>
			<path fill="#E57C48" d="M154.135,120.807c0.337,0.579,0.144,1.324-0.438,1.663l-0.919,0.536c-0.58,0.34-1.327,0.145-1.664-0.434
				l0,0c-0.341-0.582-0.143-1.326,0.436-1.666l0.919-0.537C153.05,120.031,153.795,120.227,154.135,120.807L154.135,120.807z"/>
			<path fill="#E57C48" d="M155.722,120.807c0.341,0.579,0.142,1.324-0.433,1.663l-0.923,0.536c-0.581,0.34-1.326,0.145-1.665-0.434
				l0,0c-0.34-0.582-0.141-1.326,0.437-1.666l0.921-0.537C154.639,120.031,155.382,120.227,155.722,120.807L155.722,120.807z"/>
			<path fill="#E57C48" d="M157.313,120.807c0.335,0.579,0.142,1.324-0.438,1.663l-0.924,0.536c-0.578,0.34-1.323,0.145-1.662-0.434
				l0,0c-0.342-0.582-0.142-1.326,0.438-1.666l0.919-0.537C156.229,120.031,156.973,120.227,157.313,120.807L157.313,120.807z"/>
		</g>
		<g>
			<path fill="#E57C48" d="M180.098,119.977c0,1.57-1.274,2.843-2.848,2.843l0,0c-1.569,0-2.841-1.272-2.841-2.843v-12.892
				c0-1.572,1.271-2.844,2.841-2.844l0,0c1.573,0,2.848,1.271,2.848,2.844V119.977z"/>
			<path fill="#E57C48" d="M175.903,120.807c0.34,0.579,0.146,1.324-0.434,1.663l-0.922,0.536c-0.58,0.34-1.325,0.145-1.664-0.434
				l0,0c-0.342-0.582-0.144-1.326,0.436-1.666l0.921-0.537C174.819,120.031,175.563,120.227,175.903,120.807L175.903,120.807z"/>
			<path fill="#E57C48" d="M177.493,120.807c0.34,0.579,0.142,1.324-0.432,1.663l-0.924,0.536c-0.581,0.34-1.329,0.145-1.665-0.434
				l0,0c-0.341-0.582-0.143-1.326,0.435-1.666l0.919-0.537C176.409,120.031,177.153,120.227,177.493,120.807L177.493,120.807z"/>
			<path fill="#E57C48" d="M179.08,120.807c0.339,0.579,0.144,1.324-0.434,1.663l-0.921,0.536c-0.58,0.34-1.325,0.145-1.665-0.434
				l0,0c-0.339-0.582-0.144-1.326,0.438-1.666l0.92-0.537C177.998,120.031,178.739,120.227,179.08,120.807L179.08,120.807z"/>
		</g>
		<path fill="#E57C48" d="M198.831,99.285c0,0.963-0.781,1.743-1.745,1.743h-7.639c-0.965,0-1.746-0.78-1.746-1.743l0,0
			c0-0.964,0.781-1.743,1.746-1.743h7.639C198.05,97.542,198.831,98.321,198.831,99.285L198.831,99.285z"/>
		<path fill="#FB9861" d="M192.91,105.79c0,5.84-4.733,10.573-10.574,10.573h-19.158c-5.837,0-10.572-4.733-10.572-10.573l0,0
			c0-10.573,0-10.573,10.572-10.573h19.158C188.177,95.217,192.91,99.95,192.91,105.79L192.91,105.79z"/>
		<g>
			<ellipse fill="#604C3F" cx="160.094" cy="90.219" rx="2.006" ry="1.505"/>
			<path fill="none" stroke="#604C3F" stroke-linecap="round" stroke-miterlimit="10" d="M160.095,90.219v3.206
				c0,0-1.397,4.028-3.815,0"/>
			<path fill="none" stroke="#604C3F" stroke-linecap="round" stroke-miterlimit="10" d="M160.095,90.219v3.206
				c0,0,1.398,4.028,3.813,0"/>
		</g>
		<path fill="#E57C48" d="M178.107,92.374c0.617,2.114-0.594,4.33-2.71,4.948c-2.114,0.617-4.332-0.594-4.948-2.71
			c-0.616-2.113-2.949-16.448-0.834-17.068C171.729,76.926,177.489,90.26,178.107,92.374z"/>
		<g>
			<path fill="#E57C48" d="M168.433,119.977c0,1.57-1.272,2.843-2.844,2.843l0,0c-1.568,0-2.845-1.272-2.845-2.843v-12.892
				c0-1.572,1.276-2.844,2.845-2.844l0,0c1.571,0,2.844,1.271,2.844,2.844V119.977z"/>
			<path fill="#E57C48" d="M164.24,120.807c0.34,0.579,0.143,1.324-0.436,1.663l-0.919,0.536c-0.581,0.34-1.326,0.145-1.666-0.434
				l0,0c-0.337-0.582-0.142-1.326,0.438-1.666l0.921-0.537C163.154,120.031,163.902,120.227,164.24,120.807L164.24,120.807z"/>
			<path fill="#E57C48" d="M165.829,120.807c0.342,0.579,0.144,1.324-0.437,1.663l-0.918,0.536c-0.584,0.34-1.328,0.145-1.667-0.434
				l0,0c-0.339-0.582-0.141-1.326,0.439-1.666l0.918-0.537C164.743,120.031,165.491,120.227,165.829,120.807L165.829,120.807z"/>
			<path fill="#E57C48" d="M167.419,120.807c0.337,0.579,0.144,1.324-0.435,1.663l-0.921,0.536c-0.582,0.34-1.328,0.145-1.667-0.434
				l0,0c-0.337-0.582-0.143-1.326,0.438-1.666l0.919-0.537C166.332,120.031,167.078,120.227,167.419,120.807L167.419,120.807z"/>
		</g>
		<g>
			<path fill="#E57C48" d="M190.202,119.977c0,1.57-1.273,2.843-2.843,2.843l0,0c-1.571,0-2.843-1.272-2.843-2.843v-12.892
				c0-1.572,1.271-2.844,2.843-2.844l0,0c1.569,0,2.843,1.271,2.843,2.844V119.977z"/>
			<path fill="#E57C48" d="M186.01,120.807c0.34,0.579,0.144,1.324-0.436,1.663l-0.918,0.536c-0.581,0.34-1.325,0.145-1.666-0.434
				l0,0c-0.339-0.582-0.144-1.326,0.437-1.666l0.922-0.537C184.926,120.031,185.67,120.227,186.01,120.807L186.01,120.807z"/>
			<path fill="#E57C48" d="M187.598,120.807c0.341,0.579,0.145,1.324-0.434,1.663l-0.92,0.536c-0.584,0.34-1.326,0.145-1.664-0.434
				l0,0c-0.34-0.582-0.141-1.326,0.435-1.666l0.92-0.537C186.514,120.031,187.258,120.227,187.598,120.807L187.598,120.807z"/>
			<path fill="#E57C48" d="M189.188,120.807c0.338,0.579,0.144,1.324-0.436,1.663l-0.918,0.536c-0.587,0.34-1.33,0.145-1.665-0.434
				l0,0c-0.341-0.582-0.146-1.326,0.434-1.666l0.921-0.537C188.101,120.031,188.847,120.227,189.188,120.807L189.188,120.807z"/>
		</g>
	</g>
	<polygon fill="#C6C6C6" points="225.896,94.556 201.746,123.245 201.746,50.779 225.896,36.434 	"/>
	<polygon fill="#1D50B7" points="113.512,51.087 161.185,13.986 208.872,51.087 201.746,56.301 120.618,56.301 	"/>
	<polygon fill="#5D8EC9" points="230.916,34.281 208.872,51.087 161.185,13.986 188.599,0 	"/>
	<g>
		<polygon fill="#1D50B7" points="216.092,29.205 204.896,37.74 180.674,18.896 194.597,11.79 		"/>
		<polygon fill="#CCFFF8" points="185.576,19.361 194.795,14.6 212.285,28.854 204.914,34.403 		"/>
		<polygon fill="#1D50B7" points="203.344,19.338 193.018,26.334 194.653,28.756 204.982,21.76 		"/>
	</g>
	<path fill="#DBDBDB" d="M161.185,19.567l-40.566,31.212v72.466h14.511c0.031-4.347,0.958-63.751,26.213-63.751
		c25.252,0,26.175,59.404,26.209,63.751h14.195V50.779L161.185,19.567z"/>
</g>
<g>
</g>
<g>
</g>
<g>
</g>
<g>
</g>
<g>
</g>
<g>
</g>
<g>
</g>
<g>
</g>
<g>
</g>
<g>
</g>
<g>
</g>
<g>
</g>
<g>
</g>
<g>
</g>
<g>
</g>
</svg>
