<?xml version="1.0" encoding="utf-8"?>
<!-- Generator: Adobe Illustrator 16.0.0, SVG Export Plug-In . SVG Version: 6.00 Build 0)  -->
<!DOCTYPE svg PUBLIC "-//W3C//DTD SVG 1.1//EN" "http://www.w3.org/Graphics/SVG/1.1/DTD/svg11.dtd">
<svg version="1.1" id="圖層_1" xmlns="http://www.w3.org/2000/svg" xmlns:xlink="http://www.w3.org/1999/xlink" x="0px" y="0px"
	 width="332.372px" height="197.519px" viewBox="0 0 332.372 197.519" enable-background="new 0 0 332.372 197.519"
	 xml:space="preserve">
<g>
	<g>
		<g>
			<polygon fill="#C9939E" points="1078.51,5005.973 1030.882,5025.35 1002.567,5013.051 1050.718,4994.802 			"/>
			<polygon fill="none" stroke="#7A1A28" stroke-width="4" stroke-miterlimit="10" points="1078.51,5005.973 1030.882,5025.35 
				1002.567,5013.051 1050.718,4994.802 			"/>
		</g>
		<g>
			<g>
				<polygon fill="#7A1A28" points="1083.375,5001.818 1020.271,5027.318 996.036,5016.666 1059.732,4992.439 				"/>
			</g>
			<path fill="#7A1A28" d="M1037.997,5012.447c1.683,0.71,2.735,1.365,3.156,1.965c0.441,0.666,0.108,1.221-1,1.664
				c-0.971,0.389-2.167,0.505-3.591,0.348c-1.092-0.121-2.041-0.354-2.848-0.697c-0.821-0.35-0.959-0.633-0.413-0.848
				c0.336-0.133,0.768-0.153,1.293-0.061c0.516,0.097,1.005,0.191,1.472,0.283c0.604,0.084,1.128,0.039,1.574-0.139
				c0.832-0.331,0.303-0.896-1.586-1.694c-1.816-0.769-3.132-0.992-3.946-0.673c-0.387,0.151-0.48,0.379-0.278,0.684
				c0.221,0.297,0.152,0.516-0.205,0.656c-0.237,0.093-0.512,0.146-0.822,0.161c-0.404,0.015-0.775-0.05-1.113-0.192
				c-0.117-0.051-2.034-0.947-5.753-2.691c-0.948-0.443-0.989-0.832-0.124-1.166l2.928-1.127c0.617-0.237,1.328-0.186,2.134,0.153
				c0.937,0.396,1.103,0.71,0.496,0.946l-1.895,0.734c-0.447,0.173-0.406,0.389,0.126,0.646l1.766,0.834
				c-0.025-0.432,0.209-0.744,0.706-0.938c0.914-0.355,2.166-0.393,3.756-0.109
				C1035.172,5011.424,1036.562,5011.844,1037.997,5012.447z"/>
			<path fill="#7A1A28" d="M1043.314,5008.412c2.277,0.948,3.838,1.734,4.684,2.361c1.257,0.927,1.227,1.654-0.089,2.182
				c-1.315,0.525-3.095,0.518-5.335-0.025c-1.497-0.363-3.394-1.027-5.691-1.993c-2.326-0.978-3.886-1.763-4.678-2.354
				c-1.244-0.923-1.193-1.644,0.15-2.16s3.13-0.507,5.354,0.028C1039.111,5006.787,1040.98,5007.441,1043.314,5008.412z
				 M1041.035,5009.076c-3.257-1.359-5.298-1.879-6.123-1.561c-0.806,0.313,0.421,1.152,3.681,2.519
				c3.699,1.551,5.954,2.165,6.767,1.841C1046.171,5011.553,1044.73,5010.619,1041.035,5009.076z"/>
			<path fill="#7A1A28" d="M1050.937,5005.422c2.271,0.933,3.826,1.708,4.667,2.326c1.252,0.916,1.22,1.639-0.097,2.165
				c-1.315,0.526-3.091,0.524-5.326-0.009c-1.494-0.354-3.385-1.008-5.676-1.959c-2.319-0.963-3.875-1.736-4.664-2.32
				c-1.237-0.912-1.185-1.627,0.159-2.144s3.127-0.513,5.346,0.011C1046.746,5003.822,1048.61,5004.465,1050.937,5005.422z
				 M1048.658,5006.088c-3.246-1.34-5.283-1.85-6.108-1.529c-0.806,0.312,0.417,1.141,3.667,2.486
				c3.688,1.526,5.937,2.129,6.75,1.806C1053.778,5008.527,1052.342,5007.606,1048.658,5006.088z"/>
		</g>
	</g>
</g>
<g>
	<g>
		<g>
			<polygon fill="#C9939E" points="1078.51,5005.973 1030.882,5025.35 1002.567,5013.051 1050.718,4994.802 			"/>
			<polygon fill="none" stroke="#7A1A28" stroke-width="4" stroke-miterlimit="10" points="1078.51,5005.973 1030.882,5025.35 
				1002.567,5013.051 1050.718,4994.802 			"/>
		</g>
		<g>
			<g>
				<polygon fill="#7A1A28" points="1083.375,5001.818 1020.271,5027.318 996.036,5016.666 1059.732,4992.439 				"/>
			</g>
			<path fill="#7A1A28" d="M1037.997,5012.447c1.683,0.71,2.735,1.365,3.156,1.965c0.441,0.666,0.108,1.221-1,1.664
				c-0.971,0.389-2.167,0.505-3.591,0.348c-1.092-0.121-2.041-0.354-2.848-0.697c-0.821-0.35-0.959-0.633-0.413-0.848
				c0.336-0.133,0.768-0.153,1.293-0.061c0.516,0.097,1.005,0.191,1.472,0.283c0.604,0.084,1.128,0.039,1.574-0.139
				c0.832-0.331,0.303-0.896-1.586-1.694c-1.816-0.769-3.132-0.992-3.946-0.673c-0.387,0.151-0.48,0.379-0.278,0.684
				c0.221,0.297,0.152,0.516-0.205,0.656c-0.237,0.093-0.512,0.146-0.822,0.161c-0.404,0.015-0.775-0.05-1.113-0.192
				c-0.117-0.051-2.034-0.947-5.753-2.691c-0.948-0.443-0.989-0.832-0.124-1.166l2.928-1.127c0.617-0.237,1.328-0.186,2.134,0.153
				c0.937,0.396,1.103,0.71,0.496,0.946l-1.895,0.734c-0.447,0.173-0.406,0.389,0.126,0.646l1.766,0.834
				c-0.025-0.432,0.209-0.744,0.706-0.938c0.914-0.355,2.166-0.393,3.756-0.109
				C1035.172,5011.424,1036.562,5011.844,1037.997,5012.447z"/>
			<path fill="#7A1A28" d="M1043.314,5008.412c2.277,0.948,3.838,1.734,4.684,2.361c1.257,0.927,1.227,1.654-0.089,2.182
				c-1.315,0.525-3.095,0.518-5.335-0.025c-1.497-0.363-3.394-1.027-5.691-1.993c-2.326-0.978-3.886-1.763-4.678-2.354
				c-1.244-0.923-1.193-1.644,0.15-2.16s3.13-0.507,5.354,0.028C1039.111,5006.787,1040.98,5007.441,1043.314,5008.412z
				 M1041.035,5009.076c-3.257-1.359-5.298-1.879-6.123-1.561c-0.806,0.313,0.421,1.152,3.681,2.519
				c3.699,1.551,5.954,2.165,6.767,1.841C1046.171,5011.553,1044.73,5010.619,1041.035,5009.076z"/>
			<path fill="#7A1A28" d="M1050.937,5005.422c2.271,0.933,3.826,1.708,4.667,2.326c1.252,0.916,1.22,1.639-0.097,2.165
				c-1.315,0.526-3.091,0.524-5.326-0.009c-1.494-0.354-3.385-1.008-5.676-1.959c-2.319-0.963-3.875-1.736-4.664-2.32
				c-1.237-0.912-1.185-1.627,0.159-2.144s3.127-0.513,5.346,0.011C1046.746,5003.822,1048.61,5004.465,1050.937,5005.422z
				 M1048.658,5006.088c-3.246-1.34-5.283-1.85-6.108-1.529c-0.806,0.312,0.417,1.141,3.667,2.486
				c3.688,1.526,5.937,2.129,6.75,1.806C1053.778,5008.527,1052.342,5007.606,1048.658,5006.088z"/>
		</g>
	</g>
</g>
<g>
	<path fill="#80CCE3" d="M166.537,193.519c-2.081,0-4.498-0.852-8.613-3.037L7.742,105.58c-2.893-1.725-3.839-5.088-3.733-7.646
		c0.117-2.841,1.434-5.147,3.522-6.168l0.107-0.053L157.925,6.752c3.632-1.929,6.176-2.752,8.5-2.752
		c2.328,0,4.888,0.824,8.551,2.755l150.179,84.899c1.853,1.098,3.204,4.071,3.216,7.189c0.006,1.432-0.303,4.946-3.271,6.768
		l-150.174,84.896C170.975,192.667,168.608,193.519,166.537,193.519z"/>
	<g>
		<path fill="#BD8A66" d="M166.426,8c1.604,0,3.654,0.7,6.636,2.267L323.071,95.07c0.39,0.269,1.295,1.713,1.301,3.796
			c0.002,0.742-0.123,2.531-1.318,3.309l-150.044,84.822c-3.24,1.768-5.177,2.521-6.472,2.521c-1.323,0-3.327-0.762-6.689-2.545
			L9.814,102.157c-1.421-0.886-1.864-2.732-1.809-4.059c0.041-0.994,0.401-2.31,1.282-2.739l0.215-0.105l0.208-0.118l150.135-84.875
			C162.797,8.698,164.829,8,166.426,8 M166.426,0c-3.184,0-6.36,1.082-10.424,3.244L5.773,88.172c-7.65,3.74-7.745,16.277,0,20.891
			l150.228,84.927c4.424,2.353,7.495,3.529,10.536,3.529c3.042,0,6.053-1.177,10.358-3.529l150.229-84.927
			c7.648-4.613,6.313-17.15,0-20.891L176.896,3.244C172.801,1.082,169.609,0,166.426,0L166.426,0z"/>
	</g>
</g>
<g>
	<path fill="#FF3C00" d="M143.184,39.883c9.34,7.096,9.34,7.096,9.34,7.096s0,0-9.34,7.096c-1.422,1.08,2.246-5.141,2.246-6.852
		C145.429,45.387,141.668,38.73,143.184,39.883z"/>
	<path fill="#FF754A" d="M173.934,46.979c0,2.879-5.319,5.211-11.882,5.211c-6.563,0-11.883-4.541-11.883-5.211
		c0-0.728,5.32-5.213,11.883-5.213C168.615,41.766,173.934,44.1,173.934,46.979z"/>
	<path fill="#FF3C00" d="M161.232,46.057c6.425,2.434,6.425,2.434,6.425,2.434s0,0-6.425,2.428c-0.979,0.372-0.137-1.76-0.137-2.346
		C161.095,47.945,160.189,45.666,161.232,46.057z"/>
	<path fill="#E95520" d="M173.934,46.979c0,2.086-2.796,3.889-6.838,4.721c-1.531,0.314-2.466-3.533-2.466-4.721
		c0-1.19,0.936-5.039,2.466-4.722C171.138,43.089,173.934,44.889,173.934,46.979z"/>
	<circle fill="#231815" cx="169.946" cy="46.311" r="0.665"/>
</g>
<g>
	<path fill="#FF3C00" d="M89.938,112.182c9.341,7.099,9.341,7.099,9.341,7.099s0,0-9.341,7.095c-1.422,1.08,2.247-5.139,2.247-6.854
		C92.184,117.686,88.422,111.031,89.938,112.182z"/>
	<path fill="#FF754A" d="M120.688,119.277c0,2.88-5.319,5.214-11.882,5.214c-6.562,0-11.882-4.544-11.882-5.214
		c0-0.727,5.32-5.211,11.882-5.211C115.369,114.066,120.688,116.398,120.688,119.277z"/>
	<path fill="#FF3C00" d="M107.986,118.359c6.425,2.43,6.425,2.43,6.425,2.43s0,0-6.425,2.432c-0.979,0.369-0.138-1.761-0.138-2.347
		C107.849,120.244,106.943,117.965,107.986,118.359z"/>
	<path fill="#E95520" d="M120.688,119.277c0,2.087-2.796,3.889-6.837,4.721c-1.532,0.316-2.466-3.532-2.466-4.721
		c0-1.188,0.935-5.038,2.466-4.723C117.893,115.389,120.688,117.19,120.688,119.277z"/>
	<circle fill="#231815" cx="116.7" cy="118.611" r="0.664"/>
</g>
<g>
	<path fill="#FF3C00" d="M228.219,127.966c-9.339,7.097-9.339,7.097-9.339,7.097s0,0,9.339,7.096
		c1.422,1.081-2.246-5.139-2.246-6.854C225.974,133.471,229.735,126.815,228.219,127.966z"/>
	<path fill="#FF754A" d="M197.47,135.063c0,2.877,5.318,5.211,11.882,5.211c6.562,0,11.883-4.539,11.883-5.211
		c0-0.729-5.321-5.213-11.883-5.213C202.788,129.85,197.47,132.182,197.47,135.063z"/>
	<path fill="#FF3C00" d="M210.172,134.143c-6.426,2.432-6.426,2.432-6.426,2.432s0,0,6.426,2.43c0.979,0.37,0.136-1.76,0.136-2.348
		C210.308,136.027,211.214,133.748,210.172,134.143z"/>
	<path fill="#E95520" d="M197.47,135.063c0,2.086,2.796,3.887,6.836,4.72c1.531,0.316,2.467-3.531,2.467-4.72
		c0-1.189-0.936-5.037-2.467-4.723C200.266,131.172,197.47,132.975,197.47,135.063z"/>
	<circle fill="#231815" cx="201.456" cy="134.395" r="0.664"/>
</g>
<g>
</g>
<g>
</g>
<g>
</g>
<g>
</g>
<g>
</g>
<g>
</g>
<g>
</g>
<g>
</g>
<g>
</g>
<g>
</g>
<g>
</g>
<g>
</g>
<g>
</g>
<g>
</g>
<g>
</g>
</svg>
