<?xml version="1.0" encoding="utf-8"?>
<!-- Generator: Adobe Illustrator 16.0.0, SVG Export Plug-In . SVG Version: 6.00 Build 0)  -->
<!DOCTYPE svg PUBLIC "-//W3C//DTD SVG 1.1//EN" "http://www.w3.org/Graphics/SVG/1.1/DTD/svg11.dtd">
<svg version="1.1" xmlns="http://www.w3.org/2000/svg" xmlns:xlink="http://www.w3.org/1999/xlink" x="0px" y="0px"
	 width="1363.551px" height="1076.752px" viewBox="0 0 1363.551 1076.752" enable-background="new 0 0 1363.551 1076.752"
	 xml:space="preserve">
<g id="圖層_2" display="none">
	<rect x="-1613.303" y="-1319.637" display="inline" fill="#0071BC" width="3593" height="2405"/>
</g>
<g id="圖層_1">
	<path fill="#BD8A66" d="M1363.551,616.974c0-79.831-31.398-229.445-241.701-334.568c-119.886-59.921-276.174-92.921-440.075-92.921
		c-163.899,0-320.188,33-440.077,92.921C31.4,387.528,0,537.143,0,616.974c0,5.104,0,27.183,0,32.291
		c0,79.828,31.4,229.445,241.697,334.56c119.89,59.924,276.178,92.928,440.077,92.928c163.901,0,320.189-33.004,440.075-92.928
		c210.303-105.114,241.701-254.731,241.701-334.56C1363.551,644.156,1363.551,622.077,1363.551,616.974z"/>
	<path fill="#8FC31F" d="M1121.85,282.405c-119.886-59.921-276.174-92.921-440.075-92.921c-163.899,0-320.188,33-440.077,92.921
		C31.4,387.528,0,537.143,0,616.974c0,79.824,31.4,229.441,241.697,334.557c119.89,59.925,276.178,92.93,440.077,92.93
		c163.901,0,320.189-33.005,440.075-92.93c210.303-105.115,241.701-254.732,241.701-334.557
		C1363.551,537.143,1332.152,387.528,1121.85,282.405z"/>
	<g>
		<path display="none" fill="#B28247" d="M461.912,265.686c0,0,0,2.558,8.686,2.558c8.227,0,8.227-2.558,8.227-2.558v-46.87h-16.912
			V265.686z"/>
		<path fill="#6FAA07" d="M432.014,231.933c0,24.455,24.105,21.206,39.609,21.206c15.505,0,39.607,3.249,39.607-21.206
			c0-24.452-24.103-90.426-39.607-90.426C456.119,141.507,432.014,207.48,432.014,231.933z"/>
		<circle fill="#6FAA07" cx="471.623" cy="144.928" r="6.402"/>
		<circle fill="#6FAA07" cx="478.826" cy="150.528" r="6.402"/>
		<circle fill="#6FAA07" cx="484.427" cy="159.174" r="6.401"/>
		<circle fill="#6FAA07" cx="488.908" cy="168.134" r="6.401"/>
		<circle fill="#6FAA07" cx="493.07" cy="176.776" r="6.402"/>
		<path fill="#6FAA07" d="M490.828,185.898c0,3.535,2.867,6.402,6.402,6.402c3.536,0,6.402-2.867,6.402-6.402
			c0-3.531-2.866-6.399-6.402-6.399C493.695,179.499,490.828,182.367,490.828,185.898z"/>
		<circle fill="#6FAA07" cx="499.471" cy="195.983" r="6.403"/>
		<circle fill="#6FAA07" cx="503.633" cy="206.227" r="6.402"/>
		<circle fill="#6FAA07" cx="505.875" cy="216.683" r="6.402"/>
		<circle fill="#6FAA07" cx="508.647" cy="226.926" r="6.402"/>
		<path fill="#6FAA07" d="M500.965,238.021c0,3.536,2.867,6.403,6.402,6.403s6.402-2.867,6.402-6.403
			c0-3.532-2.867-6.403-6.402-6.403S500.965,234.489,500.965,238.021z"/>
		<circle fill="#6FAA07" cx="502.246" cy="246.879" r="6.402"/>
		<path fill="#6FAA07" d="M486.668,249.655c0,3.537,2.865,6.399,6.4,6.399c3.537,0,6.404-2.862,6.404-6.399
			c0-3.538-2.867-6.403-6.404-6.403C489.533,243.252,486.668,246.117,486.668,249.655z"/>
		<path fill="#6FAA07" d="M477.064,249.655c0,3.537,2.866,6.399,6.402,6.399c3.535,0,6.402-2.862,6.402-6.399
			c0-3.538-2.867-6.403-6.402-6.403C479.931,243.252,477.064,246.117,477.064,249.655z"/>
		<circle fill="#6FAA07" cx="465.594" cy="150.528" r="6.401"/>
		<circle fill="#6FAA07" cx="459.993" cy="159.174" r="6.402"/>
		<circle fill="#6FAA07" cx="455.511" cy="168.134" r="6.401"/>
		<circle fill="#6FAA07" cx="451.35" cy="176.776" r="6.402"/>
		<path fill="#6FAA07" d="M453.591,185.898c0,3.535-2.867,6.402-6.401,6.402c-3.535,0-6.402-2.867-6.402-6.402
			c0-3.531,2.867-6.399,6.402-6.399C450.724,179.499,453.591,182.367,453.591,185.898z"/>
		<circle fill="#6FAA07" cx="444.948" cy="195.983" r="6.401"/>
		<circle fill="#6FAA07" cx="440.788" cy="206.227" r="6.401"/>
		<circle fill="#6FAA07" cx="438.546" cy="216.683" r="6.401"/>
		<circle fill="#6FAA07" cx="435.771" cy="226.926" r="6.402"/>
		<path fill="#6FAA07" d="M443.455,238.021c0,3.536-2.867,6.403-6.403,6.403s-6.401-2.867-6.401-6.403
			c0-3.532,2.865-6.403,6.401-6.403S443.455,234.489,443.455,238.021z"/>
		<circle fill="#6FAA07" cx="442.174" cy="246.879" r="6.402"/>
		<path fill="#6FAA07" d="M457.752,249.655c0,3.537-2.867,6.399-6.403,6.399c-3.534,0-6.401-2.862-6.401-6.399
			c0-3.538,2.867-6.403,6.401-6.403C454.885,243.252,457.752,246.117,457.752,249.655z"/>
		<path fill="#6FAA07" d="M467.354,249.655c0,3.537-2.864,6.399-6.4,6.399c-3.535,0-6.402-2.862-6.402-6.399
			c0-3.538,2.867-6.403,6.402-6.403C464.489,243.252,467.354,246.117,467.354,249.655z"/>
		<path fill="#6FAA07" d="M466.021,250.506c0,3.536,2.867,6.404,6.402,6.404s6.4-2.868,6.4-6.404c0-3.534-2.865-6.403-6.4-6.403
			S466.021,246.972,466.021,250.506z"/>
	</g>
	<g>
		<path display="none" fill="#B28247" d="M201.756,366.825c0,0,0,3.111,10.546,3.111c9.991,0,9.991-3.111,9.991-3.111v-56.911
			h-20.537V366.825z"/>
		<path fill="#6FAA07" d="M165.448,325.842c0,29.696,29.272,25.75,48.099,25.75c18.828,0,48.1,3.946,48.1-25.75
			s-29.271-109.808-48.1-109.808C194.721,216.034,165.448,296.146,165.448,325.842z"/>
		<circle fill="#6FAA07" cx="213.547" cy="220.186" r="7.773"/>
		<path fill="#6FAA07" d="M214.519,226.986c0,4.294,3.481,7.774,7.774,7.774c4.295,0,7.774-3.48,7.774-7.774
			c0-4.29-3.479-7.772-7.774-7.772C218,219.214,214.519,222.696,214.519,226.986z"/>
		<circle fill="#6FAA07" cx="229.096" cy="237.483" r="7.775"/>
		<circle fill="#6FAA07" cx="234.538" cy="248.366" r="7.772"/>
		<path fill="#6FAA07" d="M231.816,258.861c0,4.295,3.48,7.776,7.775,7.776c4.293,0,7.773-3.481,7.773-7.776
			c0-4.291-3.48-7.771-7.773-7.771C235.297,251.09,231.816,254.57,231.816,258.861z"/>
		<path fill="#6FAA07" d="M236.871,269.943c0,4.29,3.479,7.772,7.771,7.772c4.297,0,7.776-3.482,7.776-7.772
			c0-4.294-3.479-7.775-7.776-7.775C240.351,262.168,236.871,265.649,236.871,269.943z"/>
		<circle fill="#6FAA07" cx="247.365" cy="282.186" r="7.773"/>
		<path fill="#6FAA07" d="M244.643,294.622c0,4.297,3.483,7.776,7.776,7.776c4.294,0,7.773-3.479,7.773-7.776
			c0-4.291-3.479-7.771-7.773-7.771C248.126,286.851,244.643,290.331,244.643,294.622z"/>
		<path fill="#6FAA07" d="M247.365,307.32c0,4.295,3.48,7.776,7.773,7.776s7.775-3.481,7.775-7.776c0-4.292-3.482-7.771-7.775-7.771
			S247.365,303.028,247.365,307.32z"/>
		<circle fill="#6FAA07" cx="258.51" cy="319.76" r="7.773"/>
		<path fill="#6FAA07" d="M249.18,333.234c0,4.295,3.48,7.776,7.773,7.776s7.773-3.481,7.773-7.776c0-4.291-3.48-7.772-7.773-7.772
			S249.18,328.943,249.18,333.234z"/>
		<circle fill="#6FAA07" cx="250.734" cy="343.991" r="7.773"/>
		<circle fill="#6FAA07" cx="239.591" cy="347.359" r="7.774"/>
		<circle fill="#6FAA07" cx="227.93" cy="347.359" r="7.775"/>
		<path fill="#6FAA07" d="M214.001,226.986c0,4.294-3.48,7.774-7.774,7.774c-4.293,0-7.773-3.48-7.773-7.774
			c0-4.29,3.48-7.772,7.773-7.772C210.521,219.214,214.001,222.696,214.001,226.986z"/>
		<circle fill="#6FAA07" cx="199.425" cy="237.483" r="7.774"/>
		<circle fill="#6FAA07" cx="193.981" cy="248.366" r="7.774"/>
		<path fill="#6FAA07" d="M196.703,258.861c0,4.295-3.48,7.776-7.774,7.776s-7.774-3.481-7.774-7.776
			c0-4.291,3.48-7.771,7.774-7.771S196.703,254.57,196.703,258.861z"/>
		<circle fill="#6FAA07" cx="183.876" cy="269.943" r="7.774"/>
		<circle fill="#6FAA07" cx="181.155" cy="282.186" r="7.773"/>
		<path fill="#6FAA07" d="M183.877,294.622c0,4.297-3.482,7.776-7.775,7.776s-7.774-3.479-7.774-7.776
			c0-4.291,3.481-7.771,7.774-7.771S183.877,290.331,183.877,294.622z"/>
		<path fill="#6FAA07" d="M181.154,307.32c0,4.295-3.479,7.776-7.772,7.776s-7.774-3.481-7.774-7.776
			c0-4.292,3.48-7.771,7.774-7.771S181.154,303.028,181.154,307.32z"/>
		<circle fill="#6FAA07" cx="170.013" cy="319.76" r="7.774"/>
		<path fill="#6FAA07" d="M179.342,333.234c0,4.295-3.481,7.776-7.774,7.776c-4.294,0-7.775-3.481-7.775-7.776
			c0-4.291,3.481-7.772,7.775-7.772C175.86,325.462,179.342,328.943,179.342,333.234z"/>
		<circle fill="#6FAA07" cx="177.788" cy="343.991" r="7.774"/>
		<circle fill="#6FAA07" cx="188.929" cy="347.359" r="7.774"/>
		<circle fill="#6FAA07" cx="200.589" cy="347.359" r="7.774"/>
		<circle fill="#6FAA07" cx="214.52" cy="348.396" r="7.773"/>
	</g>
	<g>
		<path display="none" fill="#B28247" d="M905.245,265.686c0,0,0,2.558-8.686,2.558c-8.228,0-8.228-2.558-8.228-2.558v-46.87h16.913
			V265.686z"/>
		<path fill="#6FAA07" d="M935.143,231.933c0,24.455-24.105,21.206-39.609,21.206s-39.607,3.249-39.607-21.206
			c0-24.452,24.104-90.426,39.607-90.426S935.143,207.48,935.143,231.933z"/>
		<circle fill="#6FAA07" cx="895.535" cy="144.928" r="6.403"/>
		<circle fill="#6FAA07" cx="888.33" cy="150.528" r="6.402"/>
		<path fill="#6FAA07" d="M889.132,159.174c0,3.532-2.866,6.4-6.4,6.4c-3.538,0-6.401-2.868-6.401-6.4
			c0-3.537,2.863-6.405,6.401-6.405C886.266,152.769,889.132,155.637,889.132,159.174z"/>
		<circle fill="#6FAA07" cx="878.249" cy="168.134" r="6.401"/>
		<circle fill="#6FAA07" cx="874.088" cy="176.776" r="6.402"/>
		<path fill="#6FAA07" d="M876.33,185.898c0,3.535-2.867,6.402-6.404,6.402c-3.535,0-6.401-2.867-6.401-6.402
			c0-3.531,2.866-6.399,6.401-6.399C873.463,179.499,876.33,182.367,876.33,185.898z"/>
		<circle fill="#6FAA07" cx="867.686" cy="195.983" r="6.402"/>
		<circle fill="#6FAA07" cx="863.524" cy="206.227" r="6.402"/>
		<circle fill="#6FAA07" cx="861.283" cy="216.683" r="6.402"/>
		<circle fill="#6FAA07" cx="858.51" cy="226.926" r="6.402"/>
		<path fill="#6FAA07" d="M866.191,238.021c0,3.536-2.865,6.403-6.401,6.403c-3.534,0-6.402-2.867-6.402-6.403
			c0-3.532,2.868-6.403,6.402-6.403C863.326,231.618,866.191,234.489,866.191,238.021z"/>
		<circle fill="#6FAA07" cx="864.912" cy="246.879" r="6.402"/>
		<path fill="#6FAA07" d="M880.49,249.655c0,3.537-2.867,6.399-6.402,6.399c-3.537,0-6.402-2.862-6.402-6.399
			c0-3.538,2.865-6.403,6.402-6.403C877.623,243.252,880.49,246.117,880.49,249.655z"/>
		<path fill="#6FAA07" d="M890.092,249.655c0,3.537-2.865,6.399-6.4,6.399c-3.537,0-6.404-2.862-6.404-6.399
			c0-3.538,2.867-6.403,6.404-6.403C887.227,243.252,890.092,246.117,890.092,249.655z"/>
		<circle fill="#6FAA07" cx="901.563" cy="150.528" r="6.401"/>
		<circle fill="#6FAA07" cx="907.164" cy="159.174" r="6.402"/>
		<circle fill="#6FAA07" cx="911.647" cy="168.134" r="6.402"/>
		<circle fill="#6FAA07" cx="915.808" cy="176.776" r="6.401"/>
		<path fill="#6FAA07" d="M913.566,185.898c0,3.535,2.867,6.402,6.401,6.402c3.536,0,6.401-2.867,6.401-6.402
			c0-3.531-2.865-6.399-6.401-6.399C916.434,179.499,913.566,182.367,913.566,185.898z"/>
		<circle fill="#6FAA07" cx="922.21" cy="195.983" r="6.401"/>
		<circle fill="#6FAA07" cx="926.37" cy="206.227" r="6.402"/>
		<circle fill="#6FAA07" cx="928.61" cy="216.683" r="6.401"/>
		<circle fill="#6FAA07" cx="931.386" cy="226.926" r="6.401"/>
		<path fill="#6FAA07" d="M923.703,238.021c0,3.536,2.867,6.403,6.402,6.403s6.401-2.867,6.401-6.403
			c0-3.532-2.866-6.403-6.401-6.403S923.703,234.489,923.703,238.021z"/>
		<circle fill="#6FAA07" cx="924.984" cy="246.879" r="6.402"/>
		<path fill="#6FAA07" d="M909.406,249.655c0,3.537,2.865,6.399,6.402,6.399c3.535,0,6.4-2.862,6.4-6.399
			c0-3.538-2.865-6.403-6.4-6.403C912.271,243.252,909.406,246.117,909.406,249.655z"/>
		<path fill="#6FAA07" d="M899.803,249.655c0,3.537,2.865,6.399,6.401,6.399s6.403-2.862,6.403-6.399
			c0-3.538-2.867-6.403-6.403-6.403S899.803,246.117,899.803,249.655z"/>
		<path fill="#6FAA07" d="M901.136,250.506c0,3.536-2.866,6.404-6.403,6.404c-3.535,0-6.4-2.868-6.4-6.404
			c0-3.534,2.865-6.403,6.4-6.403C898.27,244.103,901.136,246.972,901.136,250.506z"/>
	</g>
	<path fill="#629E04" d="M1223.374,544.058c0-8.843-1.861-29.573-1.861-29.573l-5.666-0.743c0,0,3.29-14.399,2.742-17.104
		c-12.878-63.649-56.628-148.575-187.222-212.386c-95.24-46.534-219.396-72.157-349.601-72.157
		c-130.203,0-254.359,25.623-349.6,72.157C165.104,365.881,140.16,482.063,140.16,544.058c0,4.862,0,26.231,0,31.097
		c0,61.987,24.943,178.17,192.007,259.796c95.24,46.534,219.396,72.166,349.6,72.166c130.204,0,254.36-25.632,349.601-72.166
		c167.063-81.626,192.007-197.809,192.007-259.796C1223.374,570.289,1223.374,548.92,1223.374,544.058z M681.767,803.447
		c-252.929,0-459.591-115.946-473.368-262.001c13.777-146.051,220.439-261.994,473.368-261.994
		c233.502,0,427.569,98.816,466.845,228.909c0.539,1.787,1.53,5.374,1.53,5.374l5.286,0.008c0,0,3.898,10.627,4.286,12.694
		c0.938,4.997-3.396,9.972-4.579,15.009C1141.355,687.501,934.697,803.447,681.767,803.447z"/>
	<path fill="#629E04" d="M740.684,774.393c89.881-3.999,152.539-22.729,219.195-53.267
		c132.902-60.882,152.748-147.545,152.748-193.781c0-3.647,0-19.678,0-23.324c0-46.239-19.846-132.898-152.748-193.784
		c-75.763-34.71-174.532-53.824-278.112-53.824c-103.579,0-202.347,19.114-278.112,53.824
		c-132.902,60.886-152.745,147.545-152.745,193.784c0,3.646,0,19.677,0,23.324c0,46.236,19.843,132.899,152.745,193.781
		c71.158,32.597,143.186,51.095,239.852,53.267l13.734-39.348l0.676-37.952c-192.262-5.337-342.051-89.559-352.715-194.954
		c11.02-108.907,175.395-195.355,376.565-195.355s365.548,86.448,376.566,195.355c-10.358,102.404-151.161,184.668-335.786,194.166
		l-0.521,38.805L740.684,774.393z"/>
	<path fill="#8FB20F" d="M752.355,748.625c81.973-5.764,146.097-22.681,207.523-50.822
		c132.902-60.882,152.748-147.545,152.748-193.782c0-46.239-19.846-132.898-152.748-193.784
		c-75.763-34.71-174.532-53.824-278.112-53.824c-103.579,0-202.347,19.114-278.112,53.824
		c-132.902,60.886-152.745,147.545-152.745,193.784c0,46.237,19.843,132.9,152.745,193.782
		c64.604,29.598,142.787,47.121,229.563,51.859l24.699-52.569c-197.188-6.754-353.31-96.676-353.31-206.615
		c0-114.332,168.859-207.018,377.16-207.018c208.3,0,377.163,92.686,377.163,207.018c0,106.775-147.262,194.665-336.383,205.827
		L752.355,748.625z"/>
	<path fill="#629E04" d="M1005.342,470.592c0-4.573-0.281-9.694-1.023-15.242c-0.096-0.72-1.68,0.812-2.955,0.763
		c-1.9-0.067-3.711-1.457-3.711-1.457l2.871-17.104c0,0-37.486-74.766-109.895-106.592
		c-56.898-25.014-131.074-38.785-208.862-38.785s-151.962,13.771-208.864,38.785c-99.806,43.87-114.711,106.313-114.711,139.632
		c0,3.57,0,19.754,0,23.324c0,33.315,14.905,95.759,114.711,139.631c56.902,25.012,131.076,38.786,208.864,38.786
		s151.964-13.774,208.862-38.786c99.811-43.872,114.713-106.315,114.713-139.631
		C1005.342,490.346,1005.342,474.162,1005.342,470.592z M681.767,599.702c-141.649,0-257.835-56.504-269.267-128.406
		c11.432-71.9,127.617-128.402,269.267-128.402c127.765,0,234.813,45.968,262.961,107.741c0.61,1.333,1.712,4.021,1.712,4.021h5.357
		c0,0,1.971,3.499,1.707,7.19c-0.266,3.691-2.174,7.466-2.469,9.449C939.604,543.198,823.416,599.702,681.767,599.702z"/>
	<path fill="#8FB20F" d="M951.797,454.656c0.11,1.652,0.167,3.313,0.167,4.978c0,77.358-120.972,140.068-270.197,140.068
		S411.57,536.992,411.57,459.634c0-77.354,120.971-140.064,270.196-140.064c134.728,0,246.421,51.114,266.856,117.977l51.9,0.006
		c-9.765-33.164-37.486-74.766-109.895-106.592c-56.898-25.014-131.074-38.785-208.862-38.785s-151.962,13.771-208.864,38.785
		c-99.806,43.87-114.711,106.313-114.711,139.632c0,33.32,14.905,95.763,114.711,139.635
		c56.902,25.009,131.076,38.781,208.864,38.781s151.964-13.772,208.862-38.781c99.811-43.872,114.713-106.314,114.713-139.635
		c0-4.573-0.319-10.391-1.063-15.937L951.797,454.656z"/>
	<path fill="#629E04" d="M657.27,512.97c-74.676-4.255-131.184-30.159-142.616-63.355c12.513-36.329,82.565-64.145,167.113-64.145
		s154.602,27.815,167.115,64.145c-11.628,33.759-66.116,59.787-142.575,63.353l-0.607,31.091l13.217,34.935
		c39.88-2.715,70.512-10.148,100.456-22.63c65.757-27.399,75.577-66.397,75.577-87.208c0-3.437,0-19.889,0-23.323
		c0-20.809-9.82-59.81-75.577-87.21c-37.487-15.62-86.356-24.223-137.605-24.223c-51.248,0-100.117,8.603-137.604,24.223
		c-65.756,27.4-75.575,66.401-75.575,87.21c0,3.435,0,19.887,0,23.323c0,20.811,9.819,59.809,75.575,87.208
		c29.486,12.287,64.043,19.798,103.232,22.63l9.717-34.935L657.27,512.97z"/>
	<path fill="#8FB20F" d="M657.27,512.97c-81.785-5.321-144.607-36.879-144.607-75.017c0-41.867,75.711-75.805,169.104-75.805
		c93.395,0,169.106,33.938,169.106,75.805c0,38.132-62.801,69.687-144.566,75.014l16.605,42.419
		c35.869-3.325,69.18-10.977,96.46-22.345c65.757-27.4,75.577-66.4,75.577-87.21c0-20.809-9.82-59.81-75.577-87.21
		c-37.487-15.62-86.356-24.223-137.605-24.223c-51.248,0-100.117,8.603-137.604,24.223c-65.756,27.4-75.575,66.401-75.575,87.21
		c0,20.81,9.819,59.81,75.575,87.21c27.43,11.431,60.949,19.102,97.035,22.395L657.27,512.97z"/>
	<g>
		<path display="none" fill="#B28247" d="M1165.402,367.825c0,0,0,3.111-10.547,3.111c-9.992,0-9.992-3.111-9.992-3.111v-56.911
			h20.539V367.825z"/>
		<path fill="#6FAA07" d="M1201.709,326.842c0,29.696-29.271,25.75-48.1,25.75c-18.827,0-48.098,3.946-48.098-25.75
			s29.271-109.808,48.098-109.808C1172.438,217.034,1201.709,297.146,1201.709,326.842z"/>
		<circle fill="#6FAA07" cx="1153.61" cy="221.186" r="7.774"/>
		<path fill="#6FAA07" d="M1152.639,227.986c0,4.294-3.48,7.774-7.775,7.774c-4.294,0-7.773-3.48-7.773-7.774
			c0-4.29,3.479-7.772,7.773-7.772C1149.158,220.214,1152.639,223.696,1152.639,227.986z"/>
		<circle fill="#6FAA07" cx="1138.062" cy="238.483" r="7.774"/>
		<circle fill="#6FAA07" cx="1132.619" cy="249.366" r="7.773"/>
		<path fill="#6FAA07" d="M1135.341,259.861c0,4.295-3.479,7.776-7.774,7.776s-7.775-3.481-7.775-7.776
			c0-4.291,3.48-7.771,7.775-7.771S1135.341,255.57,1135.341,259.861z"/>
		<circle fill="#6FAA07" cx="1122.513" cy="270.943" r="7.774"/>
		<circle fill="#6FAA07" cx="1119.792" cy="283.186" r="7.774"/>
		<path fill="#6FAA07" d="M1122.514,295.622c0,4.297-3.482,7.776-7.775,7.776c-4.295,0-7.773-3.479-7.773-7.776
			c0-4.291,3.479-7.771,7.773-7.771C1119.031,287.851,1122.514,291.331,1122.514,295.622z"/>
		<path fill="#6FAA07" d="M1119.791,308.32c0,4.295-3.479,7.776-7.773,7.776c-4.293,0-7.773-3.481-7.773-7.776
			c0-4.292,3.48-7.771,7.773-7.771C1116.312,300.549,1119.791,304.028,1119.791,308.32z"/>
		<circle fill="#6FAA07" cx="1108.647" cy="320.76" r="7.774"/>
		<path fill="#6FAA07" d="M1117.977,334.234c0,4.295-3.479,7.776-7.773,7.776c-4.293,0-7.773-3.481-7.773-7.776
			c0-4.291,3.48-7.772,7.773-7.772C1114.498,326.462,1117.977,329.943,1117.977,334.234z"/>
		<circle fill="#6FAA07" cx="1116.423" cy="344.991" r="7.774"/>
		<circle fill="#6FAA07" cx="1127.566" cy="348.359" r="7.775"/>
		<circle fill="#6FAA07" cx="1139.227" cy="348.359" r="7.775"/>
		<path fill="#6FAA07" d="M1153.156,227.986c0,4.294,3.48,7.774,7.775,7.774c4.293,0,7.772-3.48,7.772-7.774
			c0-4.29-3.479-7.772-7.772-7.772C1156.637,220.214,1153.156,223.696,1153.156,227.986z"/>
		<circle fill="#6FAA07" cx="1167.732" cy="238.483" r="7.775"/>
		<circle fill="#6FAA07" cx="1173.176" cy="249.366" r="7.773"/>
		<path fill="#6FAA07" d="M1170.455,259.861c0,4.295,3.48,7.776,7.773,7.776c4.294,0,7.774-3.481,7.774-7.776
			c0-4.291-3.48-7.771-7.774-7.771C1173.936,252.09,1170.455,255.57,1170.455,259.861z"/>
		<circle fill="#6FAA07" cx="1183.281" cy="270.943" r="7.773"/>
		<circle fill="#6FAA07" cx="1186.002" cy="283.186" r="7.773"/>
		<path fill="#6FAA07" d="M1183.28,295.622c0,4.297,3.481,7.776,7.774,7.776c4.294,0,7.775-3.479,7.775-7.776
			c0-4.291-3.481-7.771-7.775-7.771C1186.762,287.851,1183.28,291.331,1183.28,295.622z"/>
		<path fill="#6FAA07" d="M1186.003,308.32c0,4.295,3.479,7.776,7.772,7.776c4.294,0,7.774-3.481,7.774-7.776
			c0-4.292-3.48-7.771-7.774-7.771C1189.482,300.549,1186.003,304.028,1186.003,308.32z"/>
		<circle fill="#6FAA07" cx="1197.145" cy="320.76" r="7.774"/>
		<path fill="#6FAA07" d="M1187.815,334.234c0,4.295,3.481,7.776,7.774,7.776c4.295,0,7.775-3.481,7.775-7.776
			c0-4.291-3.48-7.772-7.775-7.772C1191.297,326.462,1187.815,329.943,1187.815,334.234z"/>
		<circle fill="#6FAA07" cx="1189.37" cy="344.991" r="7.774"/>
		<circle fill="#6FAA07" cx="1178.229" cy="348.359" r="7.774"/>
		<circle fill="#6FAA07" cx="1166.567" cy="348.359" r="7.774"/>
		<circle fill="#6FAA07" cx="1152.638" cy="349.396" r="7.774"/>
	</g>
	<g>
		<path display="none" fill="#B28247" d="M1291.19,530.542c0,0,0,3.52-11.935,3.52c-11.311,0-11.311-3.52-11.311-3.52V466.13h23.245
			V530.542z"/>
		<path fill="#6FAA07" d="M1332.283,484.156c0,33.606-33.129,29.144-54.439,29.144c-21.309,0-54.438,4.463-54.438-29.144
			c0-33.612,33.129-124.283,54.438-124.283C1299.154,359.873,1332.283,450.544,1332.283,484.156z"/>
		<circle fill="#6FAA07" cx="1277.846" cy="364.572" r="8.799"/>
		<circle fill="#6FAA07" cx="1267.946" cy="372.273" r="8.8"/>
		<circle fill="#6FAA07" cx="1260.247" cy="384.15" r="8.8"/>
		<path fill="#6FAA07" d="M1262.887,396.47c0,4.855-3.938,8.799-8.799,8.799c-4.859,0-8.799-3.943-8.799-8.799
			c0-4.861,3.939-8.797,8.799-8.797C1258.949,387.673,1262.887,391.608,1262.887,396.47z"/>
		<circle fill="#6FAA07" cx="1248.369" cy="408.348" r="8.799"/>
		<circle fill="#6FAA07" cx="1242.649" cy="420.887" r="8.798"/>
		<path fill="#6FAA07" d="M1248.369,434.744c0,4.859-3.938,8.8-8.799,8.8c-4.859,0-8.798-3.94-8.798-8.8
			c0-4.856,3.938-8.802,8.798-8.802C1244.432,425.942,1248.369,429.888,1248.369,434.744z"/>
		<path fill="#6FAA07" d="M1242.65,448.824c0,4.859-3.939,8.796-8.799,8.796c-4.861,0-8.801-3.937-8.801-8.796
			c0-4.861,3.939-8.802,8.801-8.802C1238.711,440.022,1242.65,443.963,1242.65,448.824z"/>
		<circle fill="#6FAA07" cx="1230.771" cy="463.193" r="8.8"/>
		<circle fill="#6FAA07" cx="1226.958" cy="477.272" r="8.8"/>
		<path fill="#6FAA07" d="M1237.516,492.523c0,4.86-3.938,8.8-8.797,8.8s-8.8-3.939-8.8-8.8c0-4.856,3.94-8.799,8.8-8.799
			S1237.516,487.667,1237.516,492.523z"/>
		<path fill="#6FAA07" d="M1244.555,504.695c0,4.86-3.938,8.801-8.797,8.801c-4.861,0-8.799-3.94-8.799-8.801
			c0-4.857,3.938-8.799,8.799-8.799C1240.617,495.896,1244.555,499.838,1244.555,504.695z"/>
		<circle fill="#6FAA07" cx="1248.369" cy="508.511" r="8.799"/>
		<circle fill="#6FAA07" cx="1261.567" cy="508.511" r="8.798"/>
		<circle fill="#6FAA07" cx="1286.131" cy="372.273" r="8.799"/>
		<circle fill="#6FAA07" cx="1293.83" cy="384.15" r="8.799"/>
		<path fill="#6FAA07" d="M1291.19,396.47c0,4.855,3.939,8.799,8.798,8.799c4.861,0,8.801-3.943,8.801-8.799
			c0-4.861-3.939-8.797-8.801-8.797C1295.13,387.673,1291.19,391.608,1291.19,396.47z"/>
		<circle fill="#6FAA07" cx="1305.709" cy="408.348" r="8.799"/>
		<circle fill="#6FAA07" cx="1311.429" cy="420.887" r="8.8"/>
		<path fill="#6FAA07" d="M1305.709,434.744c0,4.859,3.939,8.8,8.799,8.8s8.799-3.94,8.799-8.8c0-4.856-3.939-8.802-8.799-8.802
			S1305.709,429.888,1305.709,434.744z"/>
		<path fill="#6FAA07" d="M1311.428,448.824c0,4.859,3.939,8.796,8.801,8.796c4.859,0,8.797-3.937,8.797-8.796
			c0-4.861-3.938-8.802-8.797-8.802C1315.367,440.022,1311.428,443.963,1311.428,448.824z"/>
		<circle fill="#6FAA07" cx="1323.307" cy="463.193" r="8.799"/>
		<circle fill="#6FAA07" cx="1327.118" cy="477.272" r="8.798"/>
		<path fill="#6FAA07" d="M1316.561,492.523c0,4.86,3.939,8.8,8.801,8.8c4.857,0,8.797-3.939,8.797-8.8
			c0-4.856-3.939-8.799-8.797-8.799C1320.5,483.725,1316.561,487.667,1316.561,492.523z"/>
		<path fill="#6FAA07" d="M1309.521,504.695c0,4.86,3.939,8.801,8.799,8.801s8.799-3.94,8.799-8.801
			c0-4.857-3.939-8.799-8.799-8.799S1309.521,499.838,1309.521,504.695z"/>
		<circle fill="#6FAA07" cx="1305.709" cy="508.511" r="8.799"/>
		<circle fill="#6FAA07" cx="1292.511" cy="508.511" r="8.8"/>
		<circle fill="#6FAA07" cx="1276.745" cy="509.683" r="8.799"/>
	</g>
	<g>
		<path display="none" fill="#B28247" d="M1281.616,781.452c0,0,0,3.543-12.019,3.543c-11.386,0-11.386-3.543-11.386-3.543v-64.857
			h23.404V781.452z"/>
		<path fill="#6FAA07" d="M1322.994,734.744c0,33.843-33.357,29.347-54.814,29.347s-54.816,4.496-54.816-29.347
			s33.359-125.143,54.816-125.143S1322.994,700.901,1322.994,734.744z"/>
		<path fill="#6FAA07" d="M1277.038,614.335c0,4.891-3.965,8.86-8.858,8.86c-4.895,0-8.861-3.97-8.861-8.86
			c0-4.895,3.967-8.86,8.861-8.86C1273.073,605.475,1277.038,609.44,1277.038,614.335z"/>
		<circle fill="#6FAA07" cx="1258.212" cy="622.087" r="8.86"/>
		<path fill="#6FAA07" d="M1259.318,634.048c0,4.893-3.965,8.86-8.857,8.86c-4.896,0-8.861-3.968-8.861-8.86
			c0-4.892,3.965-8.858,8.861-8.858C1255.354,625.189,1259.318,629.156,1259.318,634.048z"/>
		<circle fill="#6FAA07" cx="1244.257" cy="646.451" r="8.859"/>
		<circle fill="#6FAA07" cx="1238.499" cy="658.413" r="8.86"/>
		<circle fill="#6FAA07" cx="1232.739" cy="671.037" r="8.86"/>
		<circle fill="#6FAA07" cx="1229.639" cy="684.992" r="8.861"/>
		<path fill="#6FAA07" d="M1232.74,699.17c0,4.892-3.967,8.86-8.861,8.86c-4.893,0-8.859-3.969-8.859-8.86
			c0-4.896,3.967-8.863,8.859-8.863C1228.773,690.307,1232.74,694.273,1232.74,699.17z"/>
		<circle fill="#6FAA07" cx="1220.778" cy="713.639" r="8.86"/>
		<circle fill="#6FAA07" cx="1216.938" cy="727.814" r="8.86"/>
		<path fill="#6FAA07" d="M1227.572,743.173c0,4.892-3.969,8.858-8.859,8.858c-4.895,0-8.861-3.967-8.861-8.858
			c0-4.893,3.967-8.86,8.861-8.86C1223.604,734.313,1227.572,738.28,1227.572,743.173z"/>
		<circle fill="#6FAA07" cx="1225.799" cy="755.429" r="8.859"/>
		<circle fill="#6FAA07" cx="1238.499" cy="759.269" r="8.86"/>
		<circle fill="#6FAA07" cx="1251.788" cy="759.269" r="8.86"/>
		<circle fill="#6FAA07" cx="1276.521" cy="622.087" r="8.859"/>
		<path fill="#6FAA07" d="M1275.415,634.048c0,4.893,3.964,8.86,8.86,8.86c4.893,0,8.859-3.968,8.859-8.86
			c0-4.892-3.967-8.858-8.859-8.858C1279.379,625.189,1275.415,629.156,1275.415,634.048z"/>
		<circle fill="#6FAA07" cx="1290.476" cy="646.451" r="8.86"/>
		<circle fill="#6FAA07" cx="1296.236" cy="658.413" r="8.859"/>
		<circle fill="#6FAA07" cx="1301.995" cy="671.037" r="8.86"/>
		<circle fill="#6FAA07" cx="1305.097" cy="684.992" r="8.86"/>
		<path fill="#6FAA07" d="M1301.994,699.17c0,4.892,3.967,8.86,8.861,8.86c4.893,0,8.859-3.969,8.859-8.86
			c0-4.896-3.967-8.863-8.859-8.863C1305.961,690.307,1301.994,694.273,1301.994,699.17z"/>
		<circle fill="#6FAA07" cx="1313.955" cy="713.639" r="8.86"/>
		<circle fill="#6FAA07" cx="1317.794" cy="727.814" r="8.86"/>
		<path fill="#6FAA07" d="M1307.164,743.173c0,4.892,3.963,8.858,8.859,8.858c4.893,0,8.859-3.967,8.859-8.858
			c0-4.893-3.967-8.86-8.859-8.86C1311.127,734.313,1307.164,738.28,1307.164,743.173z"/>
		<circle fill="#6FAA07" cx="1308.935" cy="755.429" r="8.86"/>
		<circle fill="#6FAA07" cx="1296.236" cy="759.269" r="8.859"/>
		<circle fill="#6FAA07" cx="1282.945" cy="759.269" r="8.859"/>
		<circle fill="#6FAA07" cx="1267.072" cy="760.449" r="8.86"/>
	</g>
	<g>
		<rect x="868.053" y="803.329" fill="#040000" width="11.631" height="6.9"/>
		<rect x="885.783" y="803.33" fill="#040000" width="11.632" height="6.899"/>
		<polygon fill="#F3CEC2" points="870.246,756.312 865.58,756.313 865.557,712.732 867.48,710.942 870.222,710.942 		"/>
		<polygon fill="#F3CEC2" points="895.24,756.3 899.908,756.298 899.887,712.715 897.959,710.929 895.217,710.929 		"/>
		<rect x="872.03" y="753.188" fill="#EDCDAA" width="7.646" height="50.15"/>
		<rect x="885.794" y="753.181" fill="#EDCDAA" width="7.689" height="50.148"/>
		<polygon fill="#F3CEC2" points="893.443,710.899 887.043,708.126 887.037,708.121 890.453,703.072 890.45,692.861 
			887.021,687.813 878.391,687.816 874.973,692.869 874.979,703.08 878.402,708.13 878.412,708.13 878.412,708.13 871.992,710.913 
			871.992,710.913 872.018,753.19 879.686,759.504 885.809,759.498 893.395,753.212 		"/>
		<polygon fill="#040000" points="872.018,753.19 872.021,764.779 872.018,804.345 879.684,804.345 881.619,759.503 
			883.984,759.498 885.781,804.345 893.496,804.345 893.474,764.767 893.468,753.18 		"/>
		<rect x="879.558" y="744.353" fill="#221714" width="6.378" height="1.3"/>
		<g>
			<polygon fill="#3D3A39" points="870.757,743.45 865.555,743.45 865.557,748.533 870.381,748.533 			"/>
			<polygon fill="#3D3A39" points="895.053,748.533 899.898,748.533 899.902,743.45 894.652,743.45 			"/>
			<polygon fill="#3D3A39" points="871.236,736.963 865.553,736.963 865.555,742.047 870.861,742.047 			"/>
			<polygon fill="#3D3A39" points="871.716,730.475 865.548,730.475 865.551,735.56 871.34,735.56 			"/>
			<polygon fill="#3D3A39" points="871.991,742.047 893.438,742.047 893.434,736.963 871.986,736.963 			"/>
			<polygon fill="#3D3A39" points="895.217,750.61 899.898,750.612 899.898,749.939 895.164,749.939 			"/>
			<polygon fill="#3D3A39" points="871.997,753.212 893.468,753.18 893.441,749.939 871.994,749.939 			"/>
			<polygon fill="#3D3A39" points="894.541,742.047 899.904,742.047 899.906,736.963 894.142,736.963 			"/>
			<polygon fill="#3D3A39" points="865.558,750.612 870.229,750.612 870.278,749.939 865.557,749.939 			"/>
			<polygon fill="#3D3A39" points="893.434,735.56 893.432,730.475 871.982,730.475 871.986,735.56 			"/>
			<polygon fill="#3D3A39" points="871.991,743.45 871.994,748.533 893.441,748.533 893.438,743.45 			"/>
			<polygon fill="#3D3A39" points="894.828,708.135 887.018,708.14 886.068,709.607 896.451,709.607 			"/>
			<polygon fill="#3D3A39" points="894.03,735.56 899.908,735.56 899.91,730.475 893.629,730.475 			"/>
			<polyline fill="#3D3A39" points="893.519,729.07 899.91,729.07 899.916,723.986 865.546,723.986 865.548,729.07 871.818,729.07 
				871.981,726.848 871.982,729.07 893.43,729.07 893.43,727.931 			"/>
			<polygon fill="#3D3A39" points="878.389,708.146 870.572,708.148 868.976,709.607 879.341,709.607 			"/>
			<polygon fill="#3D3A39" points="899.92,712.747 898.003,711.012 885.158,711.012 882.711,714.784 880.254,711.012 
				867.439,711.012 865.54,712.747 865.541,716.095 899.92,716.095 			"/>
			<rect x="865.543" y="717.498" fill="#3D3A39" width="34.372" height="5.084"/>
			<polygon fill="#EAEAEA" points="898.003,711.012 896.451,709.607 886.068,709.607 885.158,711.012 			"/>
			<polygon fill="#EAEAEA" points="879.341,709.607 868.976,709.607 867.439,711.012 880.254,711.012 			"/>
			<rect x="865.542" y="716.095" fill="#EAEAEA" width="34.379" height="1.403"/>
			<rect x="865.546" y="722.582" fill="#EAEAEA" width="34.37" height="1.404"/>
			<polygon fill="#EAEAEA" points="893.629,730.475 899.91,730.475 899.91,729.07 893.519,729.07 			"/>
			<polygon fill="#EAEAEA" points="871.818,729.07 865.548,729.07 865.548,730.475 871.716,730.475 			"/>
			<rect x="871.983" y="729.07" fill="#EAEAEA" width="21.447" height="1.404"/>
			<polygon fill="#EAEAEA" points="894.142,736.963 899.906,736.963 899.908,735.56 894.03,735.56 			"/>
			<rect x="871.986" y="735.56" fill="#EAEAEA" width="21.447" height="1.403"/>
			<polygon fill="#EAEAEA" points="871.34,735.56 865.551,735.56 865.553,736.963 871.236,736.963 			"/>
			<polygon fill="#EAEAEA" points="894.652,743.45 899.902,743.45 899.904,742.047 894.541,742.047 			"/>
			<rect x="871.991" y="742.047" fill="#EAEAEA" width="21.446" height="1.403"/>
			<polygon fill="#EAEAEA" points="870.861,742.047 865.555,742.047 865.555,743.45 870.757,743.45 			"/>
			<polygon fill="#EAEAEA" points="895.164,749.939 899.898,749.939 899.898,748.533 895.053,748.533 			"/>
			<polygon fill="#EAEAEA" points="865.557,748.533 865.557,749.939 870.278,749.939 870.381,748.533 			"/>
			<rect x="871.994" y="748.533" fill="#EAEAEA" width="21.447" height="1.406"/>
		</g>
		<polygon fill="#232C52" points="890.515,692.846 879.736,695.314 877.229,695.314 870.912,692.846 870.912,691.882 
			878.46,687.801 887.091,687.797 		"/>
		<path fill="#040000" d="M881.895,697.252c0,1.669-1.354,3.024-3.023,3.024c-1.668,0-3.021-1.355-3.021-3.024
			c0-1.667,2.533-1.842,4.202-1.842S881.895,695.585,881.895,697.252z"/>
		<path fill="#040000" d="M889.563,697.252c0,1.669-1.355,3.024-3.021,3.024c-1.672,0-3.023-1.355-3.023-3.024
			c0-1.667,0.762-1.842,2.433-1.842C887.618,695.41,889.563,695.585,889.563,697.252z"/>
		<line fill="none" stroke="#060001" stroke-miterlimit="10" x1="881.021" y1="696.074" x2="884.781" y2="696.074"/>
		<polygon fill="#3D3A39" points="882.002,702.223 878.104,702.517 878.104,702.517 882.002,701.239 		"/>
		<polygon fill="#3D3A39" points="883.412,702.223 887.31,702.517 887.31,702.517 883.412,701.239 		"/>
		<polygon fill="#9F1F26" points="878.402,708.13 887.561,707.351 893.432,702.945 892.793,705.795 887.779,707.687 
			892.817,707.293 895.217,708.872 887.043,708.126 876.818,710.309 876.912,705.937 		"/>
	</g>
	<path fill="#8FB20F" d="M1155.428,513.743c0.297,4.028,0.447,8.082,0.445,12.156c0,153.284-212.264,277.548-474.106,277.548
		c-261.845,0-474.108-124.264-474.108-277.548s212.264-277.543,474.108-277.543c244.96,0,446.528,108.748,471.504,248.279
		l65.318,0.002c-12.878-63.649-56.628-148.575-187.222-212.386c-95.24-46.534-219.396-72.157-349.601-72.157
		c-130.203,0-254.359,25.623-349.6,72.157C165.104,365.881,140.16,482.063,140.16,544.058c0,61.987,24.943,178.169,192.007,259.794
		c95.24,46.534,219.396,72.166,349.6,72.166c130.204,0,254.36-25.632,349.601-72.166
		c167.063-81.625,192.007-197.807,192.007-259.794c0-8.843-0.552-19.531-1.904-30.316L1155.428,513.743z"/>
	<g>
		<rect x="786.972" y="957.71" fill="#221714" width="11.631" height="6.899"/>
		<rect x="804.7" y="957.711" fill="#221714" width="11.633" height="6.898"/>
		<polygon fill="#F3CEC2" points="814.158,910.681 818.826,910.679 818.804,867.098 816.875,865.313 814.135,865.313 		"/>
		<rect x="790.947" y="907.571" fill="#EDCDAA" width="7.646" height="50.148"/>
		<rect x="804.713" y="907.563" fill="#EDCDAA" width="7.688" height="50.147"/>
		<polygon fill="#F3CEC2" points="812.362,865.283 805.965,862.51 805.957,862.505 809.369,857.454 809.367,847.244 
			805.941,842.193 797.311,842.197 793.892,847.253 793.896,857.463 797.322,862.515 797.332,862.515 797.332,862.515 
			790.912,865.296 790.912,865.296 790.936,907.573 798.604,913.887 804.727,913.882 812.313,907.596 		"/>
		<polygon fill="#A16841" points="790.936,907.573 790.939,919.165 790.959,957.722 798.605,957.717 800.537,913.886 
			802.904,913.882 804.727,957.713 812.414,957.708 812.391,919.151 812.385,907.562 		"/>
		<polygon fill="#D3800E" points="794.037,851.853 793.5,849.09 794.535,845.179 797.462,842.193 799.266,841.528 806.092,842.197 
			809.367,847.244 809.367,850.445 807.322,848.791 804.058,850.569 804.381,848.748 801.774,850.749 801.774,849.033 
			798.918,850.676 799.451,849.09 797.148,850.602 797.533,848.791 795.602,850.602 		"/>
		<rect x="798.477" y="898.736" fill="#221714" width="6.377" height="1.298"/>
		<g>
			<polygon fill="none" points="812.356,896.43 813.461,896.43 813.06,891.346 812.353,891.346 			"/>
			<polygon fill="none" points="790.902,884.858 790.633,884.858 790.26,889.939 790.906,889.939 			"/>
			<polygon fill="none" points="812.353,889.939 812.947,889.939 812.548,884.858 812.348,884.858 			"/>
			<polygon fill="none" points="789.675,897.832 789.302,902.919 790.914,902.919 790.91,897.832 			"/>
			<polygon fill="none" points="801.63,869.165 804.077,865.392 799.172,865.392 			"/>
			<polygon fill="none" points="812.36,902.919 813.971,902.919 813.57,897.832 812.356,897.832 			"/>
			<polygon fill="none" points="790.906,891.346 790.154,891.346 789.78,896.43 790.91,896.43 			"/>
			<polygon fill="none" points="790.9,881.231 790.736,883.452 790.902,883.452 			"/>
			<polygon fill="none" points="812.346,882.313 812.346,883.452 812.438,883.452 			"/>
			<polygon fill="#EAEAEA" points="789.675,897.832 784.473,897.832 784.475,902.919 789.302,902.919 			"/>
			<polygon fill="#EAEAEA" points="813.971,902.919 818.817,902.919 818.822,897.832 813.57,897.832 			"/>
			<polygon fill="#EAEAEA" points="790.154,891.346 784.471,891.346 784.473,896.43 789.78,896.43 			"/>
			<polygon fill="#EAEAEA" points="790.633,884.858 784.467,884.858 784.469,889.939 790.26,889.939 			"/>
			<polygon fill="#EAEAEA" points="790.91,896.43 812.356,896.43 812.353,891.346 790.906,891.346 			"/>
			<polygon fill="#EAEAEA" points="814.136,904.991 818.816,904.993 818.817,904.322 814.082,904.322 			"/>
			<polygon fill="#EAEAEA" points="790.916,907.596 812.385,907.562 812.361,904.322 790.914,904.322 			"/>
			<polygon fill="#EAEAEA" points="813.461,896.43 818.822,896.43 818.826,891.346 813.06,891.346 			"/>
			<polygon fill="#EAEAEA" points="784.477,904.993 789.146,904.993 789.197,904.322 784.475,904.322 			"/>
			<polygon fill="#EAEAEA" points="812.353,889.939 812.348,884.858 790.902,884.858 790.906,889.939 			"/>
			<polygon fill="#EAEAEA" points="790.91,897.832 790.914,902.919 812.36,902.919 812.356,897.832 			"/>
			<polygon fill="#EAEAEA" points="813.746,862.521 805.938,862.524 804.986,863.988 815.371,863.988 			"/>
			<polygon fill="#EAEAEA" points="812.947,889.939 818.826,889.939 818.83,884.858 812.548,884.858 			"/>
			<polygon fill="#EAEAEA" points="784.467,883.452 790.736,883.452 790.9,881.231 790.902,883.452 812.346,883.452 
				812.346,882.313 812.438,883.452 818.83,883.452 818.834,878.368 784.463,878.368 			"/>
			<polygon fill="#EAEAEA" points="797.309,862.529 789.49,862.532 787.894,863.988 798.258,863.988 			"/>
			<polygon fill="#EAEAEA" points="818.838,867.129 816.922,865.392 804.077,865.392 801.63,869.165 799.172,865.392 
				786.357,865.392 784.457,867.129 784.459,870.478 818.838,870.478 			"/>
			<polygon fill="#EAEAEA" points="784.459,871.88 784.463,876.965 818.834,876.965 818.836,871.88 			"/>
			<polygon fill="#0F68A7" points="816.922,865.392 815.371,863.988 804.986,863.988 804.077,865.392 			"/>
			<polygon fill="#0F68A7" points="798.258,863.988 787.894,863.988 786.357,865.392 799.172,865.392 			"/>
			<rect x="784.459" y="870.478" fill="#0F68A7" width="34.379" height="1.402"/>
			<rect x="784.463" y="876.965" fill="#0F68A7" width="34.371" height="1.403"/>
			<polygon fill="#0F68A7" points="812.548,884.858 818.83,884.858 818.83,883.452 812.438,883.452 			"/>
			<polygon fill="#0F68A7" points="790.736,883.452 784.467,883.452 784.467,884.858 790.633,884.858 			"/>
			<rect x="790.903" y="883.452" fill="#0F68A7" width="21.443" height="1.406"/>
			<polygon fill="#0F68A7" points="813.06,891.346 818.826,891.346 818.826,889.939 812.947,889.939 			"/>
			<rect x="790.906" y="889.939" fill="#0F68A7" width="21.446" height="1.406"/>
			<polygon fill="#0F68A7" points="790.26,889.939 784.469,889.939 784.471,891.346 790.154,891.346 			"/>
			<polygon fill="#0F68A7" points="813.57,897.832 818.822,897.832 818.822,896.43 813.461,896.43 			"/>
			<rect x="790.91" y="896.43" fill="#0F68A7" width="21.446" height="1.402"/>
			<polygon fill="#0F68A7" points="789.78,896.43 784.473,896.43 784.473,897.832 789.675,897.832 			"/>
			<polygon fill="#0F68A7" points="814.082,904.322 818.817,904.322 818.817,902.919 813.971,902.919 			"/>
			<polygon fill="#0F68A7" points="784.475,902.919 784.475,904.322 789.197,904.322 789.302,902.919 			"/>
			<rect x="790.914" y="902.919" fill="#0F68A7" width="21.447" height="1.403"/>
		</g>
		<polygon fill="#73151C" points="809.486,846.51 798.711,848.982 796.205,848.982 789.883,846.51 789.883,845.546 797.434,841.462 
			806.064,841.457 		"/>
	</g>
	<g>
		<path fill="#294C91" d="M681.768,0c-0.004,0-0.007,0-0.01,0h0.021C681.772,0,681.771,0,681.768,0z"/>
		<path d="M679.104,2.658v22.768c-8.164,1.278-14.412,8.343-14.412,16.867c0,7.256,4.527,13.45,10.906,15.924
			c-0.03,17.643-0.498,56.427-3.614,93.739h19.566c-3.116-37.313-3.583-76.097-3.614-93.739c6.381-2.474,10.908-8.668,10.908-15.924
			c0-8.524-6.248-15.589-14.413-16.867V2.658c0-1.466-1.187-2.653-2.652-2.658h-0.021C680.291,0.005,679.104,1.192,679.104,2.658z"
			/>
		<path fill="#FFFFFF" d="M648.076,240.168c0,0-3.614,3.272,0,5.465c3.612,2.195,1.107,6.896,1.107,6.896l-4.389,3.445
			c0,0-3.133,3.451,5.329,5.016c4.798,0.887-4.118,23.555-12.987,42.923h20.775c4.355-12.275,8.62-27.355,10.227-42.609h27.257
			c1.606,15.254,5.87,30.334,10.228,42.609H726.4c-8.873-19.368-17.787-42.036-12.988-42.923c8.459-1.564,5.326-5.016,5.326-5.016
			l-4.387-3.445c0,0-2.506-4.7,1.105-6.896c3.615-2.192,0-5.465,0-5.465c-13.48-5.78-20.386-46.055-23.907-88.212h-19.566
			C668.461,194.113,661.558,234.388,648.076,240.168z"/>
		<path d="M751.791,353.886c11.752-6.11-2.35-12.69-2.35-12.69c-0.939-8.929-7.52-10.339-8.928-9.869
			c-0.609,0.205-7.351-12.646-14.113-27.414h-20.777c5.847,16.465,11.861,27.884,11.861,27.884H646.05
			c0,0,6.015-11.419,11.862-27.884h-20.775c-6.766,14.769-13.506,27.619-14.117,27.414c-1.408-0.47-7.99,0.94-8.928,9.869
			c0,0-14.1,6.58-2.35,12.69c0,0-40.888,84.125-73.785,101.982h59.216c0,0,18.452-87.172,84.595-87.425
			c66.145,0.253,84.594,87.425,84.594,87.425h59.217C792.681,438.011,751.791,353.886,751.791,353.886z"/>
	</g>
	<g>
		<path display="none" fill="#B28247" d="M1032.084,988.725c0,0,0,3.833-13.009,3.833c-12.321,0-12.321-3.833-12.321-3.833v-70.195
			h25.33V988.725z"/>
		<path fill="#6FAA07" d="M1076.865,938.173c0,36.626-36.104,31.761-59.323,31.761c-23.222,0-59.325,4.865-59.325-31.761
			c0-36.623,36.104-135.432,59.325-135.432C1040.762,802.741,1076.865,901.55,1076.865,938.173z"/>
		<path fill="#6FAA07" d="M1027.127,807.863c0,5.298-4.289,9.587-9.585,9.587s-9.59-4.289-9.59-9.587
			c0-5.295,4.294-9.588,9.59-9.588S1027.127,802.568,1027.127,807.863z"/>
		<path fill="#6FAA07" d="M1016.342,816.252c0,5.297-4.291,9.591-9.588,9.591c-5.296,0-9.59-4.294-9.59-9.591
			c0-5.294,4.294-9.586,9.59-9.586C1012.051,806.666,1016.342,810.958,1016.342,816.252z"/>
		<circle fill="#6FAA07" cx="998.364" cy="829.198" r="9.588"/>
		<path fill="#6FAA07" d="M1001.24,842.618c0,5.3-4.295,9.591-9.589,9.591c-5.297,0-9.587-4.291-9.587-9.591
			c0-5.292,4.29-9.582,9.587-9.582C996.945,833.036,1001.24,837.326,1001.24,842.618z"/>
		<circle fill="#6FAA07" cx="985.419" cy="855.565" r="9.587"/>
		<circle fill="#6FAA07" cx="979.188" cy="869.229" r="9.588"/>
		<circle fill="#6FAA07" cx="975.831" cy="884.332" r="9.589"/>
		<circle fill="#6FAA07" cx="969.599" cy="899.671" r="9.588"/>
		<circle fill="#6FAA07" cx="966.242" cy="915.332" r="9.59"/>
		<circle fill="#6FAA07" cx="962.087" cy="930.674" r="9.588"/>
		<circle fill="#6FAA07" cx="964.005" cy="947.296" r="9.589"/>
		<circle fill="#6FAA07" cx="971.677" cy="960.559" r="9.589"/>
		<circle fill="#6FAA07" cx="985.419" cy="964.714" r="9.587"/>
		<circle fill="#6FAA07" cx="999.802" cy="964.714" r="9.589"/>
		<path fill="#6FAA07" d="M1016.979,816.252c0,5.297,4.295,9.591,9.591,9.591c5.295,0,9.588-4.294,9.588-9.591
			c0-5.294-4.293-9.586-9.588-9.586C1021.274,806.666,1016.979,810.958,1016.979,816.252z"/>
		<circle fill="#6FAA07" cx="1034.959" cy="829.198" r="9.588"/>
		<path fill="#6FAA07" d="M1032.084,842.618c0,5.3,4.291,9.591,9.588,9.591c5.295,0,9.588-4.291,9.588-9.591
			c0-5.292-4.293-9.582-9.588-9.582C1036.375,833.036,1032.084,837.326,1032.084,842.618z"/>
		<circle fill="#6FAA07" cx="1047.905" cy="855.565" r="9.588"/>
		<circle fill="#6FAA07" cx="1054.136" cy="869.229" r="9.589"/>
		<circle fill="#6FAA07" cx="1057.492" cy="884.332" r="9.588"/>
		<path fill="#6FAA07" d="M1054.135,899.671c0,5.298,4.295,9.591,9.591,9.591s9.587-4.293,9.587-9.591
			c0-5.295-4.291-9.587-9.587-9.587S1054.135,894.376,1054.135,899.671z"/>
		<circle fill="#6FAA07" cx="1067.082" cy="915.332" r="9.588"/>
		<circle fill="#6FAA07" cx="1071.235" cy="930.674" r="9.589"/>
		<circle fill="#6FAA07" cx="1069.318" cy="947.296" r="9.59"/>
		<circle fill="#6FAA07" cx="1061.647" cy="960.559" r="9.588"/>
		<circle fill="#6FAA07" cx="1047.905" cy="964.714" r="9.588"/>
		<circle fill="#6FAA07" cx="1033.521" cy="964.714" r="9.588"/>
		<path fill="#6FAA07" d="M1025.931,965.991c0,5.297-4.294,9.589-9.589,9.589c-5.296,0-9.588-4.292-9.588-9.589
			c0-5.293,4.292-9.589,9.588-9.589C1021.637,956.402,1025.931,960.698,1025.931,965.991z"/>
	</g>
	<g>
		<path display="none" fill="#B28247" d="M75.967,530.542c0,0,0,3.52,11.936,3.52c11.309,0,11.309-3.52,11.309-3.52V466.13H75.967
			V530.542z"/>
		<path fill="#6FAA07" d="M34.873,484.156c0,33.606,33.129,29.144,54.439,29.144c21.31,0,54.439,4.463,54.439-29.144
			c0-33.612-33.13-124.283-54.439-124.283C68.002,359.873,34.873,450.544,34.873,484.156z"/>
		<circle fill="#6FAA07" cx="89.312" cy="364.572" r="8.8"/>
		<path fill="#6FAA07" d="M90.411,372.273c0,4.857,3.94,8.799,8.8,8.799c4.857,0,8.801-3.941,8.801-8.799
			c0-4.859-3.943-8.801-8.801-8.801C94.352,363.473,90.411,367.414,90.411,372.273z"/>
		<circle fill="#6FAA07" cx="106.91" cy="384.15" r="8.799"/>
		<path fill="#6FAA07" d="M104.271,396.47c0,4.855,3.938,8.799,8.799,8.799s8.799-3.943,8.799-8.799
			c0-4.861-3.938-8.797-8.799-8.797S104.271,391.608,104.271,396.47z"/>
		<circle fill="#6FAA07" cx="118.787" cy="408.348" r="8.799"/>
		<circle fill="#6FAA07" cx="124.508" cy="420.887" r="8.799"/>
		<path fill="#6FAA07" d="M118.789,434.744c0,4.859,3.938,8.8,8.797,8.8s8.799-3.94,8.799-8.8c0-4.856-3.939-8.802-8.799-8.802
			S118.789,429.888,118.789,434.744z"/>
		<path fill="#6FAA07" d="M124.507,448.824c0,4.859,3.94,8.796,8.8,8.796s8.801-3.937,8.801-8.796c0-4.861-3.941-8.802-8.801-8.802
			S124.507,443.963,124.507,448.824z"/>
		<circle fill="#6FAA07" cx="136.386" cy="463.193" r="8.8"/>
		<circle fill="#6FAA07" cx="140.199" cy="477.272" r="8.799"/>
		<path fill="#6FAA07" d="M129.641,492.523c0,4.86,3.939,8.8,8.798,8.8c4.86,0,8.8-3.939,8.8-8.8c0-4.856-3.939-8.799-8.8-8.799
			C133.58,483.725,129.641,487.667,129.641,492.523z"/>
		<path fill="#6FAA07" d="M122.602,504.695c0,4.86,3.939,8.801,8.799,8.801s8.797-3.94,8.797-8.801c0-4.857-3.938-8.799-8.797-8.799
			S122.602,499.838,122.602,504.695z"/>
		<circle fill="#6FAA07" cx="118.787" cy="508.511" r="8.799"/>
		<circle fill="#6FAA07" cx="105.59" cy="508.511" r="8.799"/>
		<circle fill="#6FAA07" cx="81.026" cy="372.273" r="8.798"/>
		<circle fill="#6FAA07" cx="73.327" cy="384.15" r="8.798"/>
		<path fill="#6FAA07" d="M75.967,396.47c0,4.855-3.939,8.799-8.799,8.799s-8.799-3.943-8.799-8.799
			c0-4.861,3.939-8.797,8.799-8.797S75.967,391.608,75.967,396.47z"/>
		<circle fill="#6FAA07" cx="61.448" cy="408.348" r="8.798"/>
		<circle fill="#6FAA07" cx="55.729" cy="420.887" r="8.799"/>
		<path fill="#6FAA07" d="M61.447,434.744c0,4.859-3.938,8.8-8.797,8.8c-4.859,0-8.799-3.94-8.799-8.8
			c0-4.856,3.939-8.802,8.799-8.802C57.509,425.942,61.447,429.888,61.447,434.744z"/>
		<path fill="#6FAA07" d="M55.729,448.824c0,4.859-3.939,8.796-8.799,8.796s-8.799-3.937-8.799-8.796
			c0-4.861,3.939-8.802,8.799-8.802S55.729,443.963,55.729,448.824z"/>
		<circle fill="#6FAA07" cx="43.852" cy="463.193" r="8.799"/>
		<circle fill="#6FAA07" cx="40.039" cy="477.272" r="8.799"/>
		<path fill="#6FAA07" d="M50.598,492.523c0,4.86-3.941,8.8-8.801,8.8c-4.857,0-8.797-3.939-8.797-8.8
			c0-4.856,3.939-8.799,8.797-8.799C46.656,483.725,50.598,487.667,50.598,492.523z"/>
		<path fill="#6FAA07" d="M57.637,504.695c0,4.86-3.941,8.801-8.799,8.801c-4.861,0-8.799-3.94-8.799-8.801
			c0-4.857,3.938-8.799,8.799-8.799C53.695,495.896,57.637,499.838,57.637,504.695z"/>
		<circle fill="#6FAA07" cx="61.448" cy="508.511" r="8.798"/>
		<circle fill="#6FAA07" cx="74.647" cy="508.511" r="8.799"/>
		<circle fill="#6FAA07" cx="90.412" cy="509.683" r="8.799"/>
	</g>
	<g>
		<path display="none" fill="#B28247" d="M85.541,781.452c0,0,0,3.543,12.018,3.543c11.387,0,11.387-3.543,11.387-3.543v-64.857
			H85.541V781.452z"/>
		<path fill="#6FAA07" d="M44.162,734.744c0,33.843,33.357,29.347,54.816,29.347c21.457,0,54.814,4.496,54.814-29.347
			s-33.357-125.143-54.814-125.143C77.52,609.602,44.162,700.901,44.162,734.744z"/>
		<path fill="#6FAA07" d="M90.119,614.335c0,4.891,3.965,8.86,8.859,8.86c4.893,0,8.859-3.97,8.859-8.86
			c0-4.895-3.967-8.86-8.859-8.86C94.084,605.475,90.119,609.44,90.119,614.335z"/>
		<circle fill="#6FAA07" cx="108.945" cy="622.087" r="8.86"/>
		<circle fill="#6FAA07" cx="116.697" cy="634.048" r="8.859"/>
		<circle fill="#6FAA07" cx="122.9" cy="646.451" r="8.859"/>
		<path fill="#6FAA07" d="M119.799,658.413c0,4.892,3.967,8.859,8.857,8.859c4.896,0,8.861-3.968,8.861-8.859
			c0-4.891-3.965-8.86-8.861-8.86C123.766,649.553,119.799,653.522,119.799,658.413z"/>
		<circle fill="#6FAA07" cx="134.417" cy="671.037" r="8.861"/>
		<circle fill="#6FAA07" cx="137.518" cy="684.992" r="8.862"/>
		<path fill="#6FAA07" d="M134.418,699.17c0,4.892,3.967,8.86,8.86,8.86c4.892,0,8.86-3.969,8.86-8.86
			c0-4.896-3.969-8.863-8.86-8.863C138.385,690.307,134.418,694.273,134.418,699.17z"/>
		<circle fill="#6FAA07" cx="146.378" cy="713.639" r="8.86"/>
		<circle fill="#6FAA07" cx="150.219" cy="727.814" r="8.859"/>
		<circle fill="#6FAA07" cx="148.445" cy="743.173" r="8.859"/>
		<circle fill="#6FAA07" cx="141.357" cy="755.429" r="8.859"/>
		<path fill="#6FAA07" d="M119.799,759.269c0,4.893,3.967,8.859,8.857,8.859c4.896,0,8.861-3.967,8.861-8.859
			c0-4.896-3.965-8.858-8.861-8.858C123.766,750.41,119.799,754.373,119.799,759.269z"/>
		<circle fill="#6FAA07" cx="115.369" cy="759.269" r="8.859"/>
		<circle fill="#6FAA07" cx="90.635" cy="622.087" r="8.86"/>
		<circle fill="#6FAA07" cx="82.882" cy="634.048" r="8.86"/>
		<circle fill="#6FAA07" cx="76.681" cy="646.451" r="8.86"/>
		<circle fill="#6FAA07" cx="70.921" cy="658.413" r="8.859"/>
		<path fill="#6FAA07" d="M74.021,671.037c0,4.894-3.963,8.86-8.859,8.86c-4.893,0-8.859-3.967-8.859-8.86
			c0-4.896,3.967-8.857,8.859-8.857C70.059,662.18,74.021,666.142,74.021,671.037z"/>
		<path fill="#6FAA07" d="M70.922,684.992c0,4.894-3.969,8.858-8.859,8.858c-4.895,0-8.861-3.965-8.861-8.858
			c0-4.893,3.967-8.857,8.861-8.857C66.953,676.135,70.922,680.1,70.922,684.992z"/>
		<path fill="#6FAA07" d="M65.162,699.17c0,4.892-3.966,8.86-8.859,8.86c-4.895,0-8.859-3.969-8.859-8.86
			c0-4.896,3.965-8.863,8.859-8.863C61.196,690.307,65.162,694.273,65.162,699.17z"/>
		<circle fill="#6FAA07" cx="53.203" cy="713.639" r="8.859"/>
		<circle fill="#6FAA07" cx="49.363" cy="727.814" r="8.861"/>
		<circle fill="#6FAA07" cx="51.134" cy="743.173" r="8.86"/>
		<path fill="#6FAA07" d="M67.082,755.429c0,4.891-3.965,8.858-8.857,8.858c-4.896,0-8.861-3.968-8.861-8.858
			c0-4.894,3.965-8.86,8.861-8.86C63.117,746.568,67.082,750.535,67.082,755.429z"/>
		<circle fill="#6FAA07" cx="70.921" cy="759.269" r="8.859"/>
		<circle fill="#6FAA07" cx="84.211" cy="759.269" r="8.86"/>
		<circle fill="#6FAA07" cx="100.085" cy="760.449" r="8.86"/>
	</g>
	<g>
		<path display="none" fill="#B28247" d="M335.074,988.725c0,0,0,3.833,13.008,3.833c12.322,0,12.322-3.833,12.322-3.833v-70.195
			h-25.33V988.725z"/>
		<path fill="#6FAA07" d="M290.293,938.173c0,36.626,36.102,31.761,59.322,31.761c23.223,0,59.325,4.865,59.325-31.761
			c0-36.623-36.103-135.432-59.325-135.432C326.395,802.741,290.293,901.55,290.293,938.173z"/>
		<path fill="#6FAA07" d="M340.029,807.863c0,5.298,4.291,9.587,9.586,9.587c5.297,0,9.59-4.289,9.59-9.587
			c0-5.295-4.293-9.588-9.59-9.588C344.32,798.275,340.029,802.568,340.029,807.863z"/>
		<path fill="#6FAA07" d="M350.816,816.252c0,5.297,4.291,9.591,9.588,9.591c5.295,0,9.59-4.294,9.59-9.591
			c0-5.294-4.295-9.586-9.59-9.586C355.107,806.666,350.816,810.958,350.816,816.252z"/>
		<circle fill="#6FAA07" cx="368.794" cy="829.198" r="9.589"/>
		<path fill="#6FAA07" d="M365.918,842.618c0,5.3,4.293,9.591,9.588,9.591c5.297,0,9.588-4.291,9.588-9.591
			c0-5.292-4.291-9.582-9.588-9.582C370.211,833.036,365.918,837.326,365.918,842.618z"/>
		<circle fill="#6FAA07" cx="381.737" cy="855.565" r="9.587"/>
		<circle fill="#6FAA07" cx="387.971" cy="869.229" r="9.588"/>
		<circle fill="#6FAA07" cx="391.327" cy="884.332" r="9.588"/>
		<circle fill="#6FAA07" cx="397.559" cy="899.671" r="9.588"/>
		<circle fill="#6FAA07" cx="400.914" cy="915.332" r="9.59"/>
		<circle fill="#6FAA07" cx="405.069" cy="930.674" r="9.589"/>
		<circle fill="#6FAA07" cx="403.151" cy="947.296" r="9.589"/>
		<circle fill="#6FAA07" cx="395.48" cy="960.559" r="9.589"/>
		<circle fill="#6FAA07" cx="381.737" cy="964.714" r="9.587"/>
		<circle fill="#6FAA07" cx="367.355" cy="964.714" r="9.589"/>
		<path fill="#6FAA07" d="M350.178,816.252c0,5.297-4.295,9.591-9.591,9.591s-9.588-4.294-9.588-9.591
			c0-5.294,4.292-9.586,9.588-9.586S350.178,810.958,350.178,816.252z"/>
		<circle fill="#6FAA07" cx="332.198" cy="829.198" r="9.588"/>
		<path fill="#6FAA07" d="M335.074,842.618c0,5.3-4.293,9.591-9.588,9.591c-5.297,0-9.589-4.291-9.589-9.591
			c0-5.292,4.292-9.582,9.589-9.582C330.781,833.036,335.074,837.326,335.074,842.618z"/>
		<circle fill="#6FAA07" cx="319.252" cy="855.565" r="9.588"/>
		<circle fill="#6FAA07" cx="313.021" cy="869.229" r="9.589"/>
		<circle fill="#6FAA07" cx="309.665" cy="884.332" r="9.589"/>
		<path fill="#6FAA07" d="M313.021,899.671c0,5.298-4.295,9.591-9.59,9.591s-9.586-4.293-9.586-9.591
			c0-5.295,4.291-9.587,9.586-9.587S313.021,894.376,313.021,899.671z"/>
		<circle fill="#6FAA07" cx="300.076" cy="915.332" r="9.588"/>
		<circle fill="#6FAA07" cx="295.921" cy="930.674" r="9.588"/>
		<path fill="#6FAA07" d="M307.428,947.296c0,5.294-4.293,9.585-9.59,9.585c-5.293,0-9.588-4.291-9.588-9.585s4.295-9.59,9.588-9.59
			C303.135,937.706,307.428,942.002,307.428,947.296z"/>
		<circle fill="#6FAA07" cx="305.51" cy="960.559" r="9.588"/>
		<circle fill="#6FAA07" cx="319.252" cy="964.714" r="9.588"/>
		<circle fill="#6FAA07" cx="333.635" cy="964.714" r="9.588"/>
		<path fill="#6FAA07" d="M341.227,965.991c0,5.297,4.295,9.589,9.59,9.589s9.588-4.292,9.588-9.589
			c0-5.293-4.293-9.589-9.588-9.589S341.227,960.698,341.227,965.991z"/>
	</g>
	<g>
		<path display="none" fill="#B28247" d="M697.727,1052.555c0,0,0,3.964-13.454,3.964c-12.746,0-12.746-3.964-12.746-3.964v-72.607
			h26.2V1052.555z"/>
		<path fill="#6FAA07" d="M744.046,1000.266c0,37.882-37.345,32.849-61.359,32.849c-24.019,0-61.361,5.033-61.361-32.849
			c0-37.881,37.343-140.08,61.361-140.08C706.701,860.186,744.046,962.385,744.046,1000.266z"/>
		<circle fill="#6FAA07" cx="682.685" cy="865.483" r="9.917"/>
		<circle fill="#6FAA07" cx="671.526" cy="874.161" r="9.917"/>
		<path fill="#6FAA07" d="M672.768,887.55c0,5.477-4.44,9.918-9.916,9.918c-5.48,0-9.92-4.441-9.92-9.918
			c0-5.479,4.439-9.918,9.92-9.918C668.327,877.632,672.768,882.071,672.768,887.55z"/>
		<path fill="#6FAA07" d="M665.825,901.435c0,5.478-4.44,9.918-9.919,9.918c-5.476,0-9.917-4.44-9.917-9.918
			c0-5.475,4.441-9.918,9.917-9.918C661.385,891.517,665.825,895.96,665.825,901.435z"/>
		<path fill="#6FAA07" d="M659.379,914.822c0,5.478-4.439,9.92-9.918,9.92s-9.919-4.442-9.919-9.92c0-5.475,4.44-9.919,9.919-9.919
			S659.379,909.348,659.379,914.822z"/>
		<circle fill="#6FAA07" cx="643.014" cy="928.956" r="9.918"/>
		<circle fill="#6FAA07" cx="639.544" cy="944.575" r="9.917"/>
		<circle fill="#6FAA07" cx="633.097" cy="960.443" r="9.917"/>
		<circle fill="#6FAA07" cx="629.625" cy="976.642" r="9.917"/>
		<circle fill="#6FAA07" cx="625.328" cy="992.51" r="9.918"/>
		<circle fill="#6FAA07" cx="627.313" cy="1009.7" r="9.918"/>
		<circle fill="#6FAA07" cx="635.246" cy="1023.42" r="9.917"/>
		<circle fill="#6FAA07" cx="649.46" cy="1027.719" r="9.918"/>
		<circle fill="#6FAA07" cx="664.336" cy="1027.719" r="9.917"/>
		<circle fill="#6FAA07" cx="692.023" cy="874.161" r="9.918"/>
		<path fill="#6FAA07" d="M690.783,887.55c0,5.477,4.439,9.918,9.92,9.918c5.476,0,9.916-4.441,9.916-9.918
			c0-5.479-4.44-9.918-9.916-9.918C695.223,877.632,690.783,882.071,690.783,887.55z"/>
		<path fill="#6FAA07" d="M697.727,901.435c0,5.478,4.439,9.918,9.918,9.918c5.477,0,9.916-4.44,9.916-9.918
			c0-5.475-4.439-9.918-9.916-9.918C702.166,891.517,697.727,895.96,697.727,901.435z"/>
		<path fill="#6FAA07" d="M704.174,914.822c0,5.478,4.439,9.92,9.916,9.92c5.478,0,9.918-4.442,9.918-9.92
			c0-5.475-4.44-9.919-9.918-9.919C708.613,904.903,704.174,909.348,704.174,914.822z"/>
		<circle fill="#6FAA07" cx="720.537" cy="928.956" r="9.918"/>
		<circle fill="#6FAA07" cx="724.008" cy="944.575" r="9.918"/>
		<circle fill="#6FAA07" cx="730.454" cy="960.443" r="9.917"/>
		<circle fill="#6FAA07" cx="733.925" cy="976.642" r="9.917"/>
		<circle fill="#6FAA07" cx="738.223" cy="992.51" r="9.918"/>
		<circle fill="#6FAA07" cx="736.239" cy="1009.7" r="9.917"/>
		<circle fill="#6FAA07" cx="728.305" cy="1023.42" r="9.917"/>
		<circle fill="#6FAA07" cx="714.091" cy="1027.719" r="9.917"/>
		<circle fill="#6FAA07" cx="699.213" cy="1027.719" r="9.917"/>
		<circle fill="#6FAA07" cx="681.444" cy="1029.04" r="9.917"/>
	</g>
	<g>
	</g>
	<g>
	</g>
	<g>
	</g>
	<g>
	</g>
	<g>
	</g>
	<g>
	</g>
	<g>
	</g>
	<g>
	</g>
	<g>
	</g>
	<g>
	</g>
	<g>
	</g>
	<g>
	</g>
	<g>
	</g>
	<g>
	</g>
	<g>
	</g>
</g>
</svg>
