<?xml version="1.0" encoding="utf-8"?>
<!-- Generator: Adobe Illustrator 15.0.0, SVG Export Plug-In . SVG Version: 6.00 Build 0)  -->
<!DOCTYPE svg PUBLIC "-//W3C//DTD SVG 1.1//EN" "http://www.w3.org/Graphics/SVG/1.1/DTD/svg11.dtd">
<svg version="1.1" id="Layer_1" xmlns="http://www.w3.org/2000/svg" xmlns:xlink="http://www.w3.org/1999/xlink" x="0px" y="0px"
	 width="841.89px" height="595.28px" viewBox="0 0 841.89 595.28" enable-background="new 0 0 841.89 595.28" xml:space="preserve">
<path fill="#B98865" d="M-256.904,6390.714c0,0,402.705-144.601,468.008-188.137c65.304-43.535,131.96-5.156,155.483,10.884
	c17.104,11.659,32.067,12.37,65.303-13.994c57.867-45.893,110.36-79.138,234.783-12.529c45.623,24.427,64.497-9.905,78.383-33.46
	c28.189-47.807,56.888-210.558,212.371-13.821"/>
<path fill="#9EC836" d="M-256.904,6390.714c0,0,230.957-82.932,371.421-142.092c45.016-18.961,81.296-8.306,94.254,5.655
	c60.251,64.91,96.4-28.376,150.043-28.376c27.208,0,29.368,18.21,70.486,7.775c20.42-5.184,24.607-29.691,39.295-29.691
	c32.229,0,56.904,79.771,82.5,77.906c33.869-2.471,44.144-78.223,100.025-48.305c45.627,24.425,29.026-33.46,78.384-33.46
	c27.696,0,33.233-75.936,56.788-75.236"/>
<text transform="matrix(1.5745 0 0 1 424.0195 6196.8945)" fill="#FFFFFF" font-family="'BNEmulator'" font-size="101.0647">TAIWAN</text>
<path fill="#B98865" d="M-256.904,6390.714c0,0,402.705-144.601,468.008-188.137c65.304-43.535,131.96-5.156,155.483,10.884
	c17.104,11.659,32.067,12.37,65.303-13.994c57.867-45.893,110.36-79.138,234.783-12.529c45.623,24.427,64.497-9.905,78.383-33.46
	c28.189-47.807,56.888-210.558,212.371-13.821"/>
<path fill="#9EC836" d="M-256.904,6390.714c0,0,230.957-82.932,371.421-142.092c45.016-18.961,81.296-8.306,94.254,5.655
	c60.251,64.91,96.4-28.376,150.043-28.376c27.208,0,29.368,18.21,70.486,7.775c20.42-5.184,24.607-29.691,39.295-29.691
	c32.229,0,56.904,79.771,82.5,77.906c33.869-2.471,44.144-78.223,100.025-48.305c45.627,24.425,29.026-33.46,78.384-33.46
	c27.696,0,33.233-75.936,56.788-75.236"/>
<text transform="matrix(1.5745 0 0 1 424.0195 6196.8945)" fill="#FFFFFF" font-family="'BNEmulator'" font-size="101.0647">TAIWAN</text>
<path fill="#B98865" d="M1362,473.039c-108.153-33.933-625.201-299.71-665.454-299.71c-16.806,0-39.801,49.402-68.631,12.625
	C489.273,9.079,463.684,155.399,438.548,198.38c-12.382,21.177-29.211,52.042-69.893,30.082
	c-110.945-59.884-157.753-29.995-209.353,11.264c-29.636,23.703-42.978,23.063-58.229,12.582
	c-20.975-14.421-80.411-48.925-138.642-9.785c-58.229,39.141-417.314,169.144-417.314,169.144"/>
<path fill="#9EC836" d="M927.716,268.752c-25.119-11.832-30.157-8.519-67.201-8.519c-86.44,0-84.176-55.455-142.582-55.455
	c-16.943,0-37.683,45.515-66.747,8.737c-31.702-40.107-39.438-57.659-66.049-57.659c-31.455,0-30.424,35.509-54.654,35.509
	c-36.812,0-33.414-18.271-47.485-18.686c-21.177-0.628-26.154,67.641-51.055,67.641c-44.375,0-29.45,52.041-70.471,30.082
	c-50.24-26.898-59.478,41.207-89.927,43.428c-23.012,1.677-45.197-70.042-74.171-70.042c-13.206,0-16.97,22.034-35.329,26.694
	c-36.967,9.381-38.909-6.99-63.37-6.99c-48.228,0-80.727,83.868-134.896,25.511c-11.65-12.552-44.267-22.131-84.738-5.084
	c-126.284,53.188-333.924,127.747-333.924,127.747L6.24,426.308l748.006,26.972L1362,473.039L927.716,268.752z"/>
<text transform="matrix(1.5745 0 0 1 157.2979 237.4136)" fill="#FFFFFF" font-family="'BNEmulator'" font-size="90.8617">TAIWAN</text>
<rect x="-454.883" y="412.679" fill="#8ABA28" width="1816.883" height="134.871"/>
<rect x="-454.883" y="499.003" fill="#80AB37" width="1816.883" height="134.871"/>
</svg>
