<?xml version="1.0" encoding="utf-8"?>
<!-- Generator: Adobe Illustrator 16.0.0, SVG Export Plug-In . SVG Version: 6.00 Build 0)  -->
<!DOCTYPE svg PUBLIC "-//W3C//DTD SVG 1.1//EN" "http://www.w3.org/Graphics/SVG/1.1/DTD/svg11.dtd">
<svg version="1.1" xmlns="http://www.w3.org/2000/svg" xmlns:xlink="http://www.w3.org/1999/xlink" x="0px" y="0px"
	 width="1920.507px" height="12752.029px" viewBox="0 0 1920.507 12752.029" enable-background="new 0 0 1920.507 12752.029"
	 xml:space="preserve">
<g id="圖層_2" display="none">
	<rect x="211.016" y="4371.992" display="inline" fill="#0071BC" width="427" height="274"/>
</g>
<g id="圖層_1">
	<rect fill="#80CCE3" width="1920.507" height="12752.029"/>
	<path fill="#BD8A66" d="M139.964,7454.431c50.489,14.088,102.559,21.167,153.939,4.083c17.393-5.785,37.454-11.933,45.941-29.668
		c6.24-13.039,7.995-31.482,21.863-39.343c17.282-9.796,41.283-9.97,60.524-11.564c28.348-2.343,56.845-3.054,85.274-2.001
		c27.014,1.004,54.026,3.235,80.746,7.41c28.177,4.4,55.527-34.617,83.565-29.688c30.482,5.364,62.359,4.453,93.221,4.212
		c28.788-0.229,56.745-1.553,85.243-5.503c11.209-1.552,22.243-2.263,33.411-0.157c5.657,1.065,14.681,2.043,18.202,7.521
		c2.813,4.378,0.631,8.977,1.667,13.688c0.808,3.674,2.775,6.827,3.906,10.381c0.747,2.349,160.253,0.02,187.57-9.534
		c52.95-18.509,74.17,34.033,129.283,22.695c26.766-5.508,53.972-9.195,81.32-9.772c28.876-0.61,57.75,8.018,86.609,8.749
		c28.98,0.736,58.176,1.012,87.019-2.341c29.683-3.454,57.511-11.778,85.581-21.736c27.018-9.59,61.344,43.198,89.82,38.834
		c28.964-4.437,57.058-1.814,86.291,0c59.781,3.717,112.545,4.783,170.479,19.257c0.006,0.003,0.139,0.032,0.199,0.047
		c2.751,0.82,5.854,0.587,8.867,0.563V0H0v7458.579C0,7451.321,95.038,7441.896,139.964,7454.431z"/>
	<path fill="#8FC31F" d="M138.043,7418.474c50.492,14.089,104.48,26.027,155.86,8.942c17.393-5.783,37.454-11.933,45.941-29.671
		c6.24-13.036,7.995-31.479,21.863-39.339c17.282-9.796,41.283-9.973,60.524-11.563c28.348-2.344,56.845-3.054,85.274-2.003
		c27.014,1.001,54.026,3.235,80.746,7.41c28.177,4.4,55.527-34.617,83.565-29.685c30.482,5.361,62.359,4.448,93.221,4.208
		c28.788-0.227,56.745-1.551,85.243-5.504c11.209-1.553,22.243-2.261,33.411-0.156c5.657,1.064,14.681,2.044,18.202,7.524
		c2.813,4.373,0.631,8.976,1.667,13.682c0.808,3.677,2.775,6.83,3.906,10.384c0.747,2.35,2.106,4.304,0.066,3.317
		c21.992,10.609,48.127,11.713,72.053,9.23c28.887-2.993,56.875-11.418,84.193-20.969c52.943-18.51,105.428,9.599,160.541-1.74
		c26.766-5.505,53.972-9.192,81.32-9.772c28.876-0.607,57.75,8.021,86.609,8.753c28.98,0.735,58.176,1.011,87.019-2.345
		c29.683-3.452,57.511-11.775,85.581-21.735c27.018-9.591,64.844,41.731,93.32,37.37c28.962-4.439,47.957-13.016,77.195-11.202
		c59.781,3.713,118.141,17.45,176.074,31.924c0.006,0,0.012,0.002,0.02,0.003c0.058,0.016,0.119,0.025,0.18,0.044
		c2.751,0.816,5.854,0.588,8.867,0.562V0H0v7391.07c0.326-0.084,0.679-0.132,1.064-0.129
		C48.174,7391.275,93.118,7405.937,138.043,7418.474z"/>
	<path fill="#898989" d="M786.255,7399.688c0,3.823-3.098,6.923-6.92,6.923l0,0c-3.82,0-6.919-3.1-6.919-6.923v-66.597
		c0-3.822,3.099-6.92,6.919-6.92l0,0c3.822,0,6.92,3.098,6.92,6.92V7399.688z"/>
	<path fill="#898989" d="M826.528,7422.136c0,3.822-3.099,6.919-6.919,6.919l0,0c-3.822,0-6.921-3.097-6.921-6.919v-66.596
		c0-3.822,3.099-6.92,6.921-6.92l0,0c3.82,0,6.919,3.098,6.919,6.92V7422.136z"/>
	<path fill="#898989" d="M866.801,7444.584c0,3.82-3.098,6.92-6.92,6.92l0,0c-3.821,0-6.919-3.1-6.919-6.92v-66.597
		c0-3.821,3.098-6.92,6.919-6.92l0,0c3.822,0,6.92,3.099,6.92,6.92V7444.584z"/>
	<path fill="#898989" d="M907.074,7467.031c0,3.818-3.099,6.918-6.92,6.918l0,0c-3.822,0-6.92-3.1-6.92-6.918v-66.595
		c0-3.826,3.099-6.922,6.92-6.922l0,0c3.821,0,6.92,3.096,6.92,6.922V7467.031z"/>
	<path fill="#898989" d="M947.345,7489.478c0,3.82-3.098,6.919-6.918,6.919l0,0c-3.822,0-6.921-3.099-6.921-6.919v-66.595
		c0-3.822,3.1-6.921,6.921-6.921l0,0c3.82,0,6.918,3.099,6.918,6.921V7489.478z"/>
	<path fill="#898989" d="M987.621,7511.923c0,3.823-3.101,6.921-6.922,6.921l0,0c-3.821,0-6.919-3.098-6.919-6.921v-66.596
		c0-3.819,3.098-6.919,6.919-6.919l0,0c3.821,0,6.922,3.1,6.922,6.919V7511.923z"/>
	<path fill="#898989" d="M1163.315,7490.158c0,3.817-3.099,6.917-6.917,6.917l0,0c-3.822,0-6.922-3.1-6.922-6.917v-35.501
		c0-3.822,3.1-6.921,6.922-6.921l0,0c3.818,0,6.917,3.099,6.917,6.921V7490.158z"/>
	<polygon fill="#E09B6C" points="1609.768,4195.361 1360.079,4335.185 1487.369,4406.467 1737.057,4266.643 	"/>
	<path fill="#E09B6C" d="M133.367,4672.917l-30.387,17.015c-19.641,11.001-31.804,31.755-31.804,54.266
		c0,22.509,12.163,43.263,31.804,54.265l30.39,17.018l127.289-71.281L133.367,4672.917z"/>
	<rect x="921.888" y="5257.052" fill="#2EA7E0" width="0" height="0"/>
	<path fill="#F96C41" d="M921.888,5257.052L921.888,5257.052l127.287,71.28l30.391-17.019c19.638-11,31.804-31.751,31.804-54.263
		c0-22.514-12.166-43.268-31.804-54.267l-30.391-17.016L921.888,5257.052L921.888,5257.052z"/>
	<path fill="#3AAD8E" d="M736.929,5360.628l-30.448,17.049c-19.647,11.005-31.813,31.77-31.807,54.285
		c0.006,22.517,12.183,43.271,31.836,54.263l30.376,16.99l127.332-71.304L736.929,5360.628z"/>
	<path fill="#007691" d="M1545.272,5955.432l30.45-17.049c19.646-11.005,31.81-31.768,31.804-54.283s-12.18-43.272-31.833-54.264
		l-30.378-16.991l-127.332,71.306L1545.272,5955.432z"/>
	<path fill="#E24283" d="M90.288,6627.658l-30.385,17.016c-19.641,10.999-31.805,31.755-31.805,54.263
		c0,22.515,12.164,43.269,31.805,54.267l30.39,17.019l127.287-71.281L90.288,6627.658z"/>
	<path fill="#80CCE3" d="M526.101,7014.275l30.389-17.019c19.64-10.998,31.804-31.753,31.804-54.265
		c0-22.511-12.164-43.265-31.803-54.265l-30.39-17.016l-127.29,71.28L526.101,7014.275z"/>
	<path fill="#F96C41" d="M330.574,6981.207l-30.386,17.015c-19.642,10.998-31.806,31.753-31.806,54.263
		c0,22.513,12.164,43.267,31.806,54.267l30.389,17.017l127.289-71.281L330.574,6981.207z"/>
	<path fill="#007691" d="M713.568,1381.796l-30.38,17.013c-19.641,10.998-31.807,31.752-31.807,54.264
		c0,22.511,12.167,43.266,31.807,54.263l30.376,17.013l127.281-71.278L713.568,1381.796z"/>
	<path fill="#D62766" d="M1519.746,1975.81l30.387-17.018c19.644-10.998,31.811-31.752,31.811-54.263
		c0-22.511-12.167-43.266-31.811-54.265l-30.387-17.018l-127.289,71.282L1519.746,1975.81z"/>
	<path fill="#80CCE3" d="M1108.135,2063.748l-30.391,17.019c-19.64,10.998-31.805,31.752-31.805,54.264
		c0,22.51,12.165,43.265,31.803,54.265l30.393,17.018l127.287-71.282L1108.135,2063.748z"/>
	<path fill="#F96C41" d="M1338.501,2335.319l30.387-17.019c19.641-11,31.805-31.754,31.805-54.264
		c0-22.512-12.164-43.266-31.805-54.264l-30.389-17.018l-127.289,71.282L1338.501,2335.319z"/>
	<path fill="#3AAD8E" d="M778.382,2506.418l-30.387,17.018c-19.643,10.998-31.807,31.753-31.807,54.264s12.165,43.265,31.807,54.264
		l30.388,17.019l127.288-71.282L778.382,2506.418z"/>
	<path fill="#007691" d="M1063.963,2808.906l30.387-17.018c19.645-10.998,31.806-31.753,31.806-54.264
		c0-22.511-12.161-43.265-31.806-54.265l-30.387-17.016l-127.289,71.281L1063.963,2808.906z"/>
	<path fill="#E24283" d="M98.959,3206.743l-30.387,17.016c-19.641,11.001-31.806,31.753-31.806,54.266
		c0,22.512,12.165,43.266,31.806,54.265l30.387,17.016l127.289-71.279L98.959,3206.743z"/>
	<path fill="#80CCE3" d="M1767.446,4249.626c19.643-10.999,31.806-31.753,31.806-54.264s-12.163-43.265-31.806-54.266l-30.39-17.016
		l-127.289,71.281l127.289,71.282L1767.446,4249.626z"/>
	<path fill="#F96C41" d="M1232.791,4406.467l96.901,54.264c18.879,10.574,41.896,10.574,60.777,0l96.899-54.264l-127.29-71.283
		L1232.791,4406.467z"/>
	<path fill="#3AAD8E" d="M806.896,4025.404l-96.9-54.265c-18.88-10.573-41.896-10.574-60.775-0.001l-96.902,54.265l127.289,71.282
		L806.896,4025.404z"/>
	<path fill="#007691" d="M249.306,4195.089l-30.387,17.017c-19.641,11-31.805,31.752-31.805,54.263
		c0,22.513,12.164,43.267,31.804,54.265l30.389,17.019l127.289-71.282L249.306,4195.089z"/>
	<path fill="#E24283" d="M617.971,4544.104l30.387-17.018c19.641-11,31.806-31.754,31.806-54.264
		c0-22.511-12.166-43.266-31.806-54.264l-30.387-17.017l-127.29,71.281L617.971,4544.104z"/>
	<polygon fill="#B5B5B6" points="330.576,7123.768 1061.513,7533.091 1188.903,7460.907 457.865,7052.484 	"/>
	<polygon fill="#E09B6C" points="330.574,6981.207 457.865,7052.484 526.101,7014.275 398.811,6942.992 	"/>
	<polygon fill="#FFE66C" points="217.58,6698.94 90.293,6770.222 398.811,6942.992 526.101,6871.712 	"/>
	<polygon fill="#FFE2CA" points="90.288,6627.658 217.58,6698.94 1545.272,5955.432 1417.983,5884.15 	"/>
	<polygon fill="#B5B5B6" points="864.219,5431.911 736.887,5503.215 1417.983,5884.15 1545.315,5812.845 	"/>
	<polygon fill="#B2EDD9" points="736.929,5360.628 864.219,5431.911 1049.175,5328.332 921.888,5257.052 	"/>
	<polygon fill="#80CCE3" points="133.37,4815.48 921.888,5257.052 1049.175,5185.769 260.658,4744.197 	"/>
	<polygon fill="#FFE66C" points="133.367,4672.917 260.658,4744.197 617.971,4544.104 490.681,4472.821 	"/>
	<polygon fill="#FFE2CA" points="376.596,4266.371 249.307,4337.652 490.681,4472.821 617.971,4401.541 	"/>
	<polygon fill="#B5B5B6" points="679.607,4096.685 552.318,4025.402 249.306,4195.089 376.596,4266.37 	"/>
	<polygon fill="#B2EDD9" points="806.896,4025.404 679.607,4096.685 1232.791,4406.467 1360.079,4335.185 	"/>
	<polygon fill="#FFE66C" points="226.248,3278.026 98.959,3349.306 1609.768,4195.361 1737.057,4124.08 226.248,3278.026 	"/>
	<polygon fill="#FFE2CA" points="1063.963,2808.906 936.674,2737.624 936.674,2737.624 98.959,3206.743 226.248,3278.026 
		226.248,3278.026 	"/>
	<polygon fill="#B2EDD9" points="1063.963,2666.343 905.671,2577.7 905.671,2577.7 778.383,2648.982 936.674,2737.624 	"/>
	<polygon fill="#B5B5B6" points="905.671,2577.7 1338.501,2335.319 1211.21,2264.036 778.382,2506.418 905.671,2577.7 	"/>
	<polygon fill="#E09B6C" points="1338.499,2192.754 1235.422,2135.031 1108.135,2206.313 1211.21,2264.036 	"/>
	<polygon fill="#FFE448" points="1519.746,1975.81 1392.457,1904.528 1108.135,2063.748 1235.422,2135.031 	"/>
	<polygon fill="#FFE2CA" points="1392.457,1904.528 1519.746,1833.246 840.864,1453.073 713.564,1524.349 1392.457,1904.529 	"/>
	<polygon fill="#B2EDD9" points="840.864,1453.073 1966.056,822.971 1920.507,705.897 713.568,1381.796 	"/>
	<path fill="#72001B" d="M931.709,7332.558c-1.993,0-3.613-1.621-3.613-3.613v-35.501c0-1.991,1.62-3.613,3.613-3.613
		s3.616,1.622,3.616,3.613v35.501C935.325,7330.937,933.702,7332.558,931.709,7332.558z"/>
	<path fill="#72001B" d="M971.981,7355.004c-1.989,0-3.613-1.621-3.613-3.614v-35.497c0-1.994,1.624-3.614,3.613-3.614
		c1.993,0,3.613,1.62,3.613,3.614v35.497C975.595,7353.383,973.975,7355.004,971.981,7355.004z"/>
	<path fill="#72001B" d="M1012.254,7377.451c-1.991,0-3.613-1.621-3.613-3.614v-35.497c0-1.995,1.622-3.618,3.613-3.618
		c1.994,0,3.615,1.623,3.615,3.618v35.497C1015.869,7375.83,1014.248,7377.451,1012.254,7377.451z"/>
	<path fill="#72001B" d="M1052.529,7399.899c-1.994,0-3.613-1.62-3.613-3.613v-35.501c0-1.994,1.619-3.615,3.613-3.615
		c1.993,0,3.612,1.621,3.612,3.615v35.501C1056.142,7398.279,1054.522,7399.899,1052.529,7399.899z"/>
	<path fill="#72001B" d="M1092.799,7422.346c-1.993,0-3.614-1.62-3.614-3.615v-35.498c0-1.992,1.621-3.611,3.614-3.611
		c1.995,0,3.615,1.619,3.615,3.611v35.498C1096.414,7420.726,1094.794,7422.346,1092.799,7422.346z"/>
	<path fill="#72001B" d="M1133.075,7444.791c-1.992,0-3.613-1.619-3.613-3.613v-35.497c0-1.993,1.621-3.614,3.613-3.614
		s3.612,1.621,3.612,3.614v35.497C1136.688,7443.172,1135.067,7444.791,1133.075,7444.791z"/>
	<path fill="#72001B" d="M1142.49,7409.636c-0.841,1.498-2.463,2.185-3.629,1.533l-215.397-120.408
		c-1.164-0.649-1.429-2.394-0.592-3.89l0,0c0.839-1.503,2.462-2.188,3.628-1.538l215.398,120.408
		C1143.064,7406.391,1143.329,7408.136,1142.49,7409.636L1142.49,7409.636z"/>
	<g>
	</g>
	<g>
	</g>
	<g>
	</g>
	<g>
	</g>
	<g>
	</g>
	<g>
	</g>
	<g>
	</g>
	<g>
	</g>
	<g>
	</g>
	<g>
	</g>
	<g>
	</g>
	<g>
	</g>
	<g>
	</g>
	<g>
	</g>
	<g>
	</g>
</g>
</svg>
