<?xml version="1.0" encoding="utf-8"?>
<!-- Generator: Adobe Illustrator 16.0.0, SVG Export Plug-In . SVG Version: 6.00 Build 0)  -->
<!DOCTYPE svg PUBLIC "-//W3C//DTD SVG 1.1//EN" "http://www.w3.org/Graphics/SVG/1.1/DTD/svg11.dtd">
<svg version="1.1" id="圖層_1" xmlns="http://www.w3.org/2000/svg" xmlns:xlink="http://www.w3.org/1999/xlink" x="0px" y="0px"
	 width="153.098px" height="49.126px" viewBox="0 0 153.098 49.126" enable-background="new 0 0 153.098 49.126"
	 xml:space="preserve">
<g>
	<polygon fill="#8B1C21" points="153.098,20.365 38.699,22.624 38.699,19.118 137.766,0 	"/>
	<path fill="none" stroke="#51180F" stroke-linecap="round" stroke-miterlimit="10" d="M31.965,28.739"/>
	<polygon fill="#F3CEC2" points="0,20.39 0.003,25.103 43.997,25.078 45.801,23.134 45.8,20.365 	"/>
	<polygon fill="#1E5E9E" points="48.633,19.994 33.146,18.629 5.758,20.388 5.755,25.111 43.979,25.133 	"/>
	<polygon fill="#F3CEC2" points="35.249,37.12 30.887,38.503 26.536,37.125 23.078,32.026 23.075,21.72 26.523,16.615 
		35.238,16.611 38.695,21.711 38.699,32.018 	"/>
	<path fill="none" stroke="#E7A897" stroke-miterlimit="10" d="M36.49,35.209"/>
	<path fill="none" stroke="#E7A897" stroke-miterlimit="10" d="M28.582,32.451"/>
	<polygon fill="#030000" points="35.238,16.611 21.725,15.432 23.075,21.72 23.075,24.313 26.166,21.722 35.717,21.731 
		35.717,27.673 38.699,27.673 38.695,21.711 	"/>
	<rect x="35.656" y="28.134" fill="#F3CEC2" width="10.965" height="8.136"/>
	<polygon fill="#1E5E9E" points="66.666,21.387 48.694,18.684 38.701,21.981 38.714,36.347 47.521,41.429 66.666,38.81 
		78.088,39.101 78.088,20.99 	"/>
	<polygon fill="#E61F19" points="84.627,18.609 78.088,20.99 72.023,21.2 72.023,38.946 78.088,39.101 84.764,37.886 91.772,36.717 
		91.772,23.573 	"/>
	<polygon fill="#1E5E9E" points="140.383,33.111 106.209,36.717 86.415,36.717 81.661,34.484 79.875,29.225 81.661,24.064 
		86.551,22.25 106.454,26.347 119.145,25.729 134.819,27.538 	"/>
	<polygon fill="#E61F19" points="139.739,22.624 134.825,27.546 134.819,27.538 119.145,25.729 119.086,35.358 140.383,33.111 
		149.004,34.683 150.493,33.194 	"/>
	<polygon fill="#FFF000" points="73.92,21.137 72.023,21.2 72.023,38.946 73.92,38.994 	"/>
	<g>
		<polygon fill="#F3CEC2" points="48.262,49.126 47.492,44.478 53.787,43.383 54.396,48.06 		"/>
		<polygon fill="#1E5E9E" points="53.787,43.383 54.396,48.06 66.625,46.486 69.149,40.691 65.805,37.239 46.015,34.871 
			43.578,35.92 42.67,38.883 43.988,40.705 46.646,41.579 57.847,42.66 		"/>
	</g>
	<polygon fill="#E61F19" points="142.53,11.313 38.699,22.624 38.699,19.118 137.766,0 	"/>
</g>
<g>
</g>
<g>
</g>
<g>
</g>
<g>
</g>
<g>
</g>
<g>
</g>
<g>
</g>
<g>
</g>
<g>
</g>
<g>
</g>
<g>
</g>
<g>
</g>
<g>
</g>
<g>
</g>
<g>
</g>
</svg>
