<?xml version="1.0" encoding="utf-8"?>
<!-- Generator: Adobe Illustrator 15.0.0, SVG Export Plug-In . SVG Version: 6.00 Build 0)  -->
<!DOCTYPE svg PUBLIC "-//W3C//DTD SVG 1.1//EN" "http://www.w3.org/Graphics/SVG/1.1/DTD/svg11.dtd">
<svg version="1.1" id="Layer_1" xmlns="http://www.w3.org/2000/svg" xmlns:xlink="http://www.w3.org/1999/xlink" x="0px" y="0px"
	 width="841.89px" height="595.28px" viewBox="0 0 841.89 595.28" enable-background="new 0 0 841.89 595.28" xml:space="preserve">
<g>
	<path fill="#F6D4B4" d="M128.897,568.351c0,4.863-3.942,8.807-8.807,8.807c-4.862,0-8.806-3.943-8.806-8.807V142.343
		c0-4.863,3.944-8.806,8.806-8.806c4.865,0,8.807,3.942,8.807,8.806V568.351z"/>
	<path fill="#F6D4B4" d="M672.033,568.351c0,4.863-3.94,8.807-8.804,8.807c-4.865,0-8.807-3.943-8.807-8.807V142.343
		c0-4.863,3.941-8.806,8.807-8.806c4.863,0,8.804,3.942,8.804,8.806V568.351z"/>
	<path fill="#FFFFFF" d="M654.422,344.131c0,0-198.984-23.321-262.762-23.321c-67.605,0-262.763,23.321-262.763,23.321V142.344
		c0,0,195.936-23.323,262.763-23.323c64.553,0,262.762,23.323,262.762,23.323V344.131z"/>
	<rect x="283.125" y="290.346" fill="#717071" width="0.671" height="5.522"/>
	<path fill="#717071" d="M292.364,295.861l-0.401-1.176h-2.305l-0.403,1.176h-0.943l2.142-5.843h0.713l2.141,5.843H292.364z
		 M290.829,291.34l-0.91,2.592h1.798L290.829,291.34z"/>
	<path fill="#717071" d="M297.695,295.309c-0.37,0.372-0.899,0.553-1.51,0.553h-2.051v-5.843h2.051c0.611,0,1.14,0.181,1.51,0.547
		c0.633,0.634,0.592,1.486,0.592,2.33C298.287,293.743,298.328,294.678,297.695,295.309 M297.088,291.206
		c-0.246-0.269-0.574-0.392-0.991-0.392h-1.075v4.249h1.075c0.417,0,0.745-0.123,0.991-0.395c0.303-0.334,0.313-0.967,0.313-1.773
		C297.401,292.096,297.392,291.547,297.088,291.206"/>
	<path fill="#717071" d="M302.872,295.861l-0.402-1.176h-2.307l-0.399,1.176h-0.946l2.142-5.843h0.711l2.145,5.843H302.872z
		 M301.336,291.34l-0.91,2.592h1.798L301.336,291.34z"/>
	<path fill="#717071" d="M306.858,293.563h-1.329v2.299h-0.887v-5.845h2.216c1.139,0,1.867,0.753,1.867,1.773
		C308.725,292.805,307.997,293.563,306.858,293.563 M306.809,290.814h-1.28v1.943h1.28c0.613,0,1.034-0.351,1.034-0.967
		C307.843,291.174,307.422,290.814,306.809,290.814"/>
	<polygon fill="#717071" points="311.778,290.814 311.778,295.862 310.895,295.862 310.895,290.814 309.283,290.814 
		309.283,290.018 313.386,290.018 313.386,290.814 	"/>
	<rect x="314.395" y="290.018" fill="#717071" width="0.886" height="5.844"/>
	<polygon fill="#717071" points="318.694,295.861 318.005,295.861 316.085,290.018 317.002,290.018 318.348,294.266 
		319.692,290.018 320.628,290.018 	"/>
	<polygon fill="#717071" points="321.433,295.861 321.433,290.018 325.164,290.018 325.164,290.814 322.316,290.814 
		322.316,292.521 324.745,292.521 324.745,293.307 322.316,293.307 322.316,295.063 325.164,295.063 325.164,295.861 	"/>
	<path fill="#717071" d="M330.233,295.91c-0.608,0-1.132-0.224-1.534-0.625c-0.574-0.572-0.567-1.22-0.567-2.345
		c0-1.127-0.007-1.772,0.567-2.35c0.402-0.399,0.926-0.619,1.534-0.619c1.071,0,1.876,0.629,2.083,1.795h-0.903
		c-0.137-0.592-0.531-1.002-1.18-1.002c-0.343,0-0.656,0.133-0.86,0.356c-0.285,0.306-0.354,0.646-0.354,1.819
		c0,1.173,0.069,1.507,0.354,1.82c0.204,0.22,0.517,0.351,0.86,0.351c0.649,0,1.051-0.406,1.189-0.998h0.894
		C332.121,295.276,331.291,295.91,330.233,295.91"/>
	<rect x="333.499" y="290.018" fill="#717071" width="0.884" height="5.844"/>
	<polygon fill="#717071" points="337.886,290.814 337.886,295.862 336.999,295.862 336.999,290.814 335.393,290.814 
		335.393,290.018 339.494,290.018 339.494,290.814 	"/>
	<polygon fill="#717071" points="342.414,293.457 342.414,295.861 341.529,295.861 341.529,293.457 339.779,290.019 
		340.747,290.019 341.971,292.588 343.191,290.019 344.162,290.019 	"/>
	<rect x="348.629" y="290.346" fill="#717071" width="0.671" height="5.522"/>
	<path fill="#717071" d="M357.142,291.116h-2.95v-0.638h2.95V291.116z M356.978,293.935v2.591h-0.67v-0.387h-1.244v0.449h-0.674
		v-2.653H356.978z M356.825,292.266h-2.348v-0.608h2.348V292.266z M356.825,293.351h-2.348v-0.604h2.348V293.351z M356.789,289.993
		h-2.28v-0.606h2.28V289.993z M356.307,294.537h-1.244v0.995h1.244V294.537z M360.217,289.418v1.765
		c0,0.236,0.032,0.351,0.107,0.351h0.416c0.041,0,0.085-0.022,0.113-0.083c0.034-0.066,0.075-0.311,0.127-0.752l0.67,0.22
		c-0.116,0.558-0.246,0.911-0.386,1.042c-0.149,0.147-0.361,0.213-0.639,0.213h-0.371c-0.497,0-0.742-0.279-0.742-0.836v-1.311
		h-0.984c-0.035,0.589-0.108,1.022-0.223,1.302c-0.147,0.335-0.4,0.679-0.754,1.032l-0.542-0.451
		c0.329-0.275,0.542-0.557,0.656-0.817c0.114-0.214,0.182-0.769,0.182-1.674H360.217z M360.279,292.679
		c0.083-0.062,0.14-0.099,0.16-0.099c0.049,0,0.105,0.037,0.152,0.083l0.377,0.353c0.049,0.052,0.076,0.099,0.076,0.15
		c0,0.045-0.076,0.114-0.219,0.185c-0.314,0.896-0.66,1.552-1.037,1.958c0.444,0.232,1.049,0.419,1.804,0.577l-0.452,0.702
		c-0.786-0.214-1.417-0.467-1.907-0.776c-0.442,0.31-1.01,0.562-1.682,0.776l-0.475-0.639c0.485-0.108,0.877-0.231,1.173-0.369
		c0.147-0.061,0.279-0.136,0.403-0.219c-0.379-0.361-0.764-0.855-1.157-1.494l0.506-0.319c0.379,0.601,0.781,1.059,1.19,1.377
		c0.06-0.065,0.113-0.13,0.165-0.196c0.244-0.312,0.475-0.778,0.687-1.409h-2.425v-0.641H360.279z"/>
	<path fill="#717071" d="M366.395,291.305h-3.46v-0.672h3.46V291.305z M366.269,294.025v2.433h-0.736v-0.252h-1.605v0.45h-0.733
		v-2.631H366.269z M366.042,290.094h-2.624v-0.639h2.624V290.094z M366.042,292.395h-2.624v-0.607h2.624V292.395z M366.042,293.484
		h-2.624v-0.607h2.624V293.484z M365.533,294.667h-1.605v0.897h1.605V294.667z M368.09,291.533v-2.311l0.729,0.058
		c0.131,0.016,0.207,0.047,0.207,0.107c0,0.04-0.06,0.105-0.165,0.189v1.956h1.543v0.695h-1.543v4.36h-0.771v-4.36h-1.597v-0.695
		H368.09z"/>
	<path fill="#717071" d="M377.734,290.535v0.77h1.376v0.604h-1.376v0.737h-4.352v-0.737h-1.571v-0.604h1.571v-0.77H377.734z
		 M375.833,289.248c0.131,0.016,0.206,0.047,0.206,0.105c0,0.041-0.059,0.108-0.164,0.188v0.133h3.14v1.275h-0.74v-0.702h-5.504
		v0.737h-0.731v-1.311h3.073v-0.484L375.833,289.248z M378.118,292.876v2.781h-0.565c0.478,0.16,0.945,0.335,1.392,0.548
		l-0.572,0.505c-0.656-0.33-1.369-0.581-2.146-0.762l0.344-0.291h-1.807l0.092,0.046c0.059,0.051,0.091,0.098,0.091,0.146
		c0,0.043-0.07,0.083-0.222,0.134c-0.327,0.17-0.613,0.305-0.859,0.391c-0.296,0.107-0.717,0.222-1.25,0.336l-0.519-0.505
		c0.417-0.091,0.744-0.174,0.991-0.249c0.205-0.07,0.387-0.139,0.541-0.21c0.056-0.028,0.113-0.06,0.174-0.089h-0.769v-2.781
		H378.118z M377.38,293.386h-3.62v0.284h3.62V293.386z M377.38,294.119h-3.62v0.289h3.62V294.119z M377.38,294.858h-3.62v0.29h3.62
		V294.858z M375.234,291.049h-1.122v0.32h1.122V291.049z M375.234,291.821h-1.122v0.316h1.122V291.821z M376.997,291.049h-1.09v0.32
		h1.09V291.049z M376.997,291.821h-1.09v0.316h1.09V291.821z"/>
	<path fill="#717071" d="M383.307,289.738v0.639h-0.958v1.63h0.927v0.64h-0.927v1.754c0.375-0.099,0.754-0.214,1.12-0.344v0.609
		c-0.532,0.213-1.365,0.488-2.498,0.832c-0.059,0.09-0.105,0.13-0.157,0.13c-0.057,0-0.089-0.04-0.089-0.122l-0.171-0.711
		c0.376-0.059,0.738-0.129,1.088-0.212v-1.937h-0.957v-0.64h0.957v-1.63h-0.989v-0.639H383.307z M387.404,289.454v4.535h-0.829
		v1.575c0,0.198,0.083,0.285,0.254,0.285h0.189c0.081,0,0.138-0.039,0.18-0.14c0.031-0.07,0.077-0.344,0.113-0.816l0.706,0.185
		c-0.062,0.585-0.156,0.953-0.286,1.127c-0.139,0.185-0.311,0.285-0.518,0.285h-0.546c-0.536,0-0.795-0.199-0.795-0.574v-1.927
		h-0.664c-0.045,0.355-0.097,0.632-0.174,0.846c-0.082,0.243-0.171,0.458-0.289,0.655c-0.128,0.228-0.3,0.426-0.513,0.606
		c-0.205,0.164-0.468,0.338-0.796,0.523l-0.539-0.582c0.303-0.122,0.539-0.228,0.705-0.344c0.213-0.13,0.391-0.286,0.541-0.481
		c0.123-0.174,0.232-0.378,0.31-0.615c0.057-0.165,0.107-0.358,0.147-0.608h-0.841v-4.535H387.404z M386.7,290.093h-2.235v0.703
		h2.235V290.093z M386.7,291.403h-2.235v0.671h2.235V291.403z M386.7,292.679h-2.235v0.671h2.235V292.679z"/>
	<path fill="#717071" d="M391.78,289.674c0.075,0.032,0.114,0.072,0.114,0.132c0,0.028-0.091,0.073-0.253,0.121
		c-0.099,0.36-0.212,0.694-0.329,0.991h1.738v-1.728l0.674,0.058c0.119,0.017,0.186,0.047,0.186,0.107
		c0,0.04-0.049,0.106-0.133,0.186v1.377h2.471v0.671h-2.471v1.606h2.148v0.672h-2.148v1.665h2.885v0.673h-7.004v-0.673h3.392v-1.665
		h-2.249v-0.672h2.249v-1.606h-2.035c-0.014,0.046-0.031,0.074-0.046,0.106c-0.245,0.47-0.523,0.897-0.835,1.271l-0.742-0.474
		c0.397-0.425,0.708-0.868,0.937-1.323c0.238-0.434,0.459-1.016,0.672-1.752L391.78,289.674z"/>
	<path fill="#717071" d="M399.963,292.326l-0.474,0.52c-0.396-0.329-0.829-0.633-1.286-0.901l0.517-0.51
		C399.208,291.711,399.619,292.016,399.963,292.326 M400.354,294.057c-0.438,0.81-0.895,1.564-1.381,2.27
		c0,0.17-0.056,0.262-0.153,0.262l-0.616-0.514c0.625-0.755,1.19-1.606,1.697-2.56L400.354,294.057z M400.283,289.993l-0.478,0.514
		c-0.375-0.268-0.775-0.514-1.218-0.734l0.514-0.516C399.561,289.485,399.956,289.729,400.283,289.993 M404.618,289.959
		c-0.41,0.091-0.818,0.166-1.234,0.228v1.28h2.188v0.671h-2.188v1.058h1.669v3.295h-0.736v-0.484h-2.624v0.519h-0.737v-3.329h1.663
		v-1.058h-2.335v-0.671h2.335v-1.165c-0.515,0.075-1.04,0.135-1.565,0.173l-0.482-0.641c0.836-0.029,1.559-0.088,2.144-0.179
		c0.536-0.057,1.2-0.179,1.987-0.369l0.503,0.495c0.031,0.03,0.048,0.07,0.048,0.115c0,0.047-0.033,0.062-0.101,0.062l-0.191-0.039
		C404.865,289.92,404.749,289.936,404.618,289.959 M404.316,293.867h-2.626v1.469h2.626V293.867z"/>
	<path fill="#717071" d="M407.88,292.038c0,0.891-0.041,1.684-0.114,2.388c-0.046,0.523-0.156,1.179-0.303,1.965l-0.608-0.283
		c0.149-0.688,0.249-1.296,0.298-1.83c0.079-0.762,0.121-1.506,0.121-2.239v-2.584h3.39v0.572h-1.118l0.301,0.154
		c0.076,0.035,0.112,0.066,0.112,0.098c0,0.068-0.045,0.114-0.128,0.167l-0.278,0.417h1.111v2.907H409.7v2.081
		c0,0.247-0.065,0.438-0.2,0.552c-0.111,0.123-0.383,0.186-0.825,0.186l-0.255-0.64h0.412c0.139,0,0.213-0.062,0.229-0.194v-1.984
		h-0.927v-2.907h0.737l0.427-0.836h-1.418V292.038z M408.832,294.529c0.045,0.025,0.069,0.054,0.069,0.077
		c0,0.033-0.024,0.067-0.061,0.091c-0.177,0.449-0.357,0.825-0.541,1.121l-0.612-0.286c0.251-0.342,0.452-0.76,0.612-1.255
		L408.832,294.529z M410.053,291.403h-1.308v0.635h1.308V291.403z M410.053,292.58h-1.308v0.647h1.308V292.58z M410.984,295.657
		l-0.67,0.161c-0.075-0.367-0.249-0.8-0.517-1.312l0.552-0.16C410.649,294.819,410.861,295.253,410.984,295.657 M412.315,295.458
		c0.045,0.04,0.079,0.074,0.079,0.107c0,0.048-0.034,0.084-0.096,0.092c-0.259,0.276-0.619,0.587-1.092,0.931l-0.576-0.449
		c0.427-0.237,0.839-0.551,1.219-0.96L412.315,295.458z M414.312,289.485v0.608h-1.411l-0.213,0.604h1.369v4.418h-2.949v-4.418
		h0.894l0.209-0.604h-1.356v-0.608H414.312z M413.388,291.306h-1.604v0.64h1.604V291.306z M413.388,292.557h-1.604v0.672h1.604
		V292.557z M413.388,293.835h-1.604v0.671h1.604V293.835z M414.5,296.006l-0.537,0.582c-0.414-0.297-0.75-0.64-1.027-1.022
		l0.387-0.387C413.625,295.522,414.019,295.802,414.5,296.006"/>
	<path fill="#717071" d="M422.197,289.509v2.437h-2.249v0.415h3.238v0.605h-7.297v-0.605h3.322v-0.415h-2.301v-2.437H422.197z
		 M418.075,295.548c0.048,0.04,0.08,0.092,0.08,0.139c0,0.05-0.074,0.1-0.219,0.132c-0.233,0.146-0.435,0.261-0.617,0.343
		c-0.205,0.1-0.502,0.197-0.884,0.297l-0.517-0.509c0.304-0.08,0.54-0.154,0.723-0.223c0.144-0.055,0.286-0.123,0.402-0.185
		c0.153-0.083,0.302-0.181,0.44-0.295L418.075,295.548z M422.163,293.319v1.661h-2.144v0.838c0,0.271-0.094,0.471-0.275,0.601
		c-0.154,0.13-0.532,0.202-1.137,0.202l-0.287-0.704h0.628c0.223,0,0.344-0.076,0.361-0.23v-0.706h-2.298v-1.661H422.163z
		 M421.489,290.093h-3.876v0.382h3.876V290.093z M421.489,290.985h-3.876v0.382h3.876V290.985z M421.456,293.902h-3.746v0.507h3.746
		V293.902z M422.926,295.983l-0.543,0.475c-0.564-0.313-1.123-0.557-1.661-0.74l0.508-0.471
		C421.818,295.452,422.383,295.695,422.926,295.983"/>
	<rect x="428.056" y="290.346" fill="#717071" width="0.671" height="5.522"/>
	<path fill="#717071" d="M437.498,295.309c-0.369,0.372-0.903,0.553-1.511,0.553h-2.05v-5.843h2.05c0.607,0,1.142,0.181,1.511,0.547
		c0.632,0.634,0.589,1.486,0.589,2.33C438.087,293.743,438.13,294.678,437.498,295.309 M436.891,291.206
		c-0.242-0.269-0.573-0.392-0.992-0.392h-1.074v4.249h1.074c0.419,0,0.75-0.123,0.992-0.395c0.306-0.334,0.312-0.967,0.312-1.773
		C437.202,292.096,437.196,291.547,436.891,291.206"/>
	<path fill="#717071" d="M439.917,294.021c0,0.715,0.378,1.165,1.062,1.165c0.467,0,0.712-0.131,1.007-0.426l0.533,0.501
		c-0.426,0.425-0.828,0.648-1.559,0.648c-1.043,0-1.87-0.55-1.87-2.136c0-1.344,0.697-2.123,1.765-2.123
		c1.116,0,1.762,0.823,1.762,2.003v0.367H439.917z M441.67,292.872c-0.128-0.312-0.423-0.524-0.815-0.524
		c-0.395,0-0.701,0.213-0.829,0.524c-0.083,0.19-0.098,0.312-0.108,0.569h1.871C441.78,293.185,441.753,293.062,441.67,292.872"/>
	<path fill="#717071" d="M445.068,295.91c-0.681,0-1.257-0.115-1.749-0.603l0.554-0.547c0.333,0.343,0.783,0.432,1.195,0.432
		c0.513,0,0.909-0.175,0.909-0.57c0-0.279-0.158-0.458-0.558-0.493l-0.663-0.057c-0.78-0.066-1.233-0.418-1.233-1.147
		c0-0.815,0.7-1.273,1.568-1.273c0.624,0,1.159,0.132,1.541,0.466l-0.521,0.534c-0.268-0.221-0.629-0.304-1.026-0.304
		c-0.497,0-0.753,0.221-0.753,0.533c0,0.25,0.129,0.434,0.574,0.478l0.656,0.056c0.778,0.065,1.235,0.437,1.235,1.173
		C446.798,295.459,446.06,295.91,445.068,295.91"/>
	<path fill="#717071" d="M447.792,289.993h0.884v0.885h-0.884V289.993z M447.818,291.7h0.834v4.161h-0.834V291.7z"/>
	<path fill="#717071" d="M451.375,297.592c-0.631,0-1.03-0.149-1.469-0.548l0.537-0.536c0.26,0.246,0.488,0.368,0.897,0.368
		c0.707,0,0.98-0.501,0.98-1.058v-0.532c-0.307,0.362-0.653,0.477-1.075,0.477c-0.42,0-0.763-0.141-0.993-0.37
		c-0.403-0.404-0.471-0.983-0.471-1.689c0-0.707,0.067-1.288,0.471-1.69c0.23-0.229,0.583-0.36,0.999-0.36
		c0.445,0,0.782,0.114,1.096,0.489v-0.44h0.807v4.133C453.154,296.852,452.483,297.592,451.375,297.592 M451.475,292.399
		c-0.757,0-0.855,0.646-0.855,1.304c0,0.653,0.099,1.305,0.855,1.305c0.754,0,0.847-0.651,0.847-1.305
		C452.321,293.046,452.229,292.399,451.475,292.399"/>
	<path fill="#717071" d="M457.022,295.861v-2.534c0-0.653-0.375-0.928-0.841-0.928c-0.471,0-0.858,0.284-0.858,0.928v2.534h-0.839
		v-4.16h0.821v0.417c0.283-0.312,0.689-0.467,1.11-0.467s0.773,0.14,1.022,0.376c0.32,0.312,0.418,0.706,0.418,1.175v2.659H457.022z
		"/>
	<path fill="#717071" d="M461.088,289.993h0.882v0.885h-0.882V289.993z M461.111,291.7h0.836v4.161h-0.836V291.7z"/>
	<path fill="#717071" d="M465.814,295.861v-2.534c0-0.653-0.371-0.928-0.839-0.928c-0.472,0-0.861,0.284-0.861,0.928v2.534h-0.839
		v-4.16h0.819v0.417c0.289-0.312,0.691-0.467,1.108-0.467c0.429,0,0.776,0.14,1.026,0.376c0.323,0.312,0.423,0.706,0.423,1.175
		v2.659H465.814z"/>
	<polygon fill="#717071" points="474.268,295.861 474.268,291.954 472.923,294.803 472.266,294.803 470.887,291.954 
		470.887,295.861 470.004,295.861 470.004,290.018 470.887,290.018 472.599,293.655 474.268,290.018 475.156,290.018 
		475.156,295.861 	"/>
	<path fill="#717071" d="M479.354,295.42c-0.274,0.275-0.681,0.49-1.249,0.49c-0.565,0-0.967-0.215-1.238-0.49
		c-0.395-0.412-0.494-0.937-0.494-1.645c0-0.697,0.1-1.222,0.494-1.633c0.271-0.277,0.673-0.49,1.238-0.49
		c0.568,0,0.975,0.213,1.249,0.49c0.392,0.411,0.491,0.936,0.491,1.633C479.846,294.483,479.746,295.008,479.354,295.42
		 M478.721,292.634c-0.152-0.155-0.371-0.233-0.615-0.233c-0.246,0-0.449,0.078-0.606,0.233c-0.252,0.255-0.286,0.692-0.286,1.142
		c0,0.452,0.034,0.886,0.286,1.142c0.157,0.155,0.36,0.243,0.606,0.243c0.244,0,0.463-0.088,0.615-0.243
		c0.254-0.256,0.286-0.689,0.286-1.142C479.007,293.326,478.975,292.889,478.721,292.634"/>
	<path fill="#717071" d="M482.215,295.861c-0.779,0-1.138-0.561-1.138-1.156v-2.29H480.6v-0.641h0.478v-1.263h0.836v1.263h0.802
		v0.641h-0.802v2.247c0,0.304,0.148,0.483,0.46,0.483h0.342v0.716H482.215z"/>
	<path fill="#717071" d="M483.757,289.993h0.884v0.885h-0.884V289.993z M483.779,291.7h0.839v4.161h-0.839V291.7z"/>
	<path fill="#717071" d="M488.729,295.42c-0.275,0.275-0.68,0.49-1.247,0.49c-0.569,0-0.967-0.215-1.24-0.49
		c-0.393-0.412-0.492-0.937-0.492-1.645c0-0.697,0.1-1.222,0.492-1.633c0.273-0.277,0.671-0.49,1.24-0.49
		c0.567,0,0.972,0.213,1.247,0.49c0.392,0.411,0.49,0.936,0.49,1.633C489.22,294.483,489.121,295.008,488.729,295.42
		 M488.096,292.634c-0.152-0.155-0.368-0.233-0.613-0.233c-0.247,0-0.453,0.078-0.61,0.233c-0.252,0.255-0.284,0.692-0.284,1.142
		c0,0.452,0.032,0.886,0.284,1.142c0.157,0.155,0.363,0.243,0.61,0.243c0.245,0,0.461-0.088,0.613-0.243
		c0.257-0.256,0.285-0.689,0.285-1.142C488.381,293.326,488.353,292.889,488.096,292.634"/>
	<path fill="#717071" d="M492.885,295.861v-2.534c0-0.653-0.369-0.928-0.836-0.928c-0.47,0-0.859,0.284-0.859,0.928v2.534h-0.838
		v-4.16h0.82v0.417c0.287-0.312,0.689-0.467,1.108-0.467c0.426,0,0.776,0.14,1.022,0.376c0.323,0.312,0.42,0.706,0.42,1.175v2.659
		H492.885z"/>
	<rect x="498.178" y="290.346" fill="#717071" width="0.671" height="5.522"/>
	<path fill="#717071" d="M237.656,270.203h-7.424v-0.965h7.424v-1.19l-7.818,0.411l-0.275-1.239l4.174-0.182l1.765-1.855h-4.469
		v-0.963h14.714v0.963h-3.209c1.903,1.146,3.437,2.177,4.588,3.072l-0.83,1.031c-0.639-0.53-1.35-1.055-2.198-1.604l-5.114,0.298
		v1.259h7.197v0.965h-7.197v1.353h9.444v0.965h-20.354v-0.965h9.582V270.203z M228.442,262.293c0-0.158,0.067-0.228,0.228-0.228
		h19.85c0.14,0,0.205,0.113,0.186,0.318c-0.094,1.308-0.344,2.614-0.735,3.945l-1.214-0.507l0.804-2.657
		c0.021-0.09-0.025-0.137-0.138-0.137h-17.561c-0.069,0-0.112,0.047-0.112,0.114v3.024h-1.308V262.293z M237.75,254.247h-8.781
		v-0.96h8.781v-1.149h1.328v1.149h8.642v0.96h-8.642v1.376h7.381v0.965h-16.324v-0.965h7.615V254.247z M230.919,260.896
		c-0.115,0-0.164-0.068-0.164-0.182v-2.866c0-0.112,0.049-0.161,0.164-0.161h14.875c0.113,0,0.181,0.049,0.181,0.161v2.866
		c0,0.113-0.068,0.182-0.204,0.182H230.919z M232.131,258.649l-0.044,0.047v1.19l0.044,0.045h12.425c0.067,0,0.092-0.02,0.092-0.091
		v-1.145l-0.092-0.047H232.131z M241.44,265.183h-4.218l-1.536,1.767l6.714-0.321l-1.351-0.828L241.44,265.183z"/>
	<path fill="#717071" d="M262.024,258.377h-6.531v-1.306h6.531v-4.839h1.33v20.884h-1.33v-5.481
		c-2.063,1.421-4.034,2.616-5.869,3.507l-0.777-1.098c2.246-1.126,4.494-2.479,6.646-4.011V258.377z M274.357,254.979l0.869,1.013
		c-1.693,1.67-3.872,3.392-6.579,5.205v9.259c0,0.181,0.072,0.366,0.207,0.527c0.138,0.135,0.325,0.204,0.528,0.228h4.471
		c0.136,0,0.274-0.046,0.41-0.16c0.16-0.115,0.207-0.319,0.232-0.595l0.137-3.898l1.329,0.14c-0.067,3.137-0.273,4.927-0.573,5.293
		c-0.273,0.367-0.597,0.529-0.94,0.529h-5.801c-0.345-0.024-0.663-0.162-0.939-0.462c-0.252-0.272-0.388-0.571-0.388-0.87V252.3
		h1.327v7.267C271.078,257.872,272.983,256.334,274.357,254.979"/>
	<path fill="#717071" d="M284.949,268.001v1.972h-1.305v-14.534c0-0.272,0.137-0.434,0.435-0.434h8.413V252.3h1.328v2.705h8.574
		c0.32,0,0.481,0.161,0.481,0.434v14.534h-1.331v-1.972h-7.724v5.114h-1.328v-5.114H284.949z M292.492,256.311h-7.361
		c-0.137,0-0.206,0.067-0.182,0.182v4.426h7.543V256.311z M292.492,262.225h-7.543v4.447h7.543V262.225z M293.82,260.918h7.724
		v-4.426c0-0.114-0.067-0.182-0.208-0.182h-7.516V260.918z M293.82,266.672h7.724v-4.447h-7.724V266.672z"/>
	<path fill="#717071" d="M310.853,268.713l-0.529-1.193l3.048-1.053v-0.619v-3.072h-3.115v-1.332h4.286
		c0.571-1.739,1.011-3.344,1.281-4.766l1.24,0.369l-1.145,4.396h1.785v1.332h-3.023v3.072v0.114l2.546-1.169l0.573,1.193
		c-0.553,0.319-1.445,0.711-2.686,1.233l-0.501,0.21c-0.369,2.452-1.262,4.378-2.635,5.752l-1.104-0.801
		c1.218-0.963,1.996-2.475,2.342-4.449L310.853,268.713z M313.372,252.481h1.332v1.632h2.82v1.306H310.6v-1.306h2.772V252.481z
		 M312.598,256.746c0.456,1.493,0.799,2.934,1.028,4.24l-1.307,0.211c-0.205-1.423-0.546-2.82-1.008-4.15L312.598,256.746z
		 M317.891,257.113v-1.308h1.582v-2.957h1.328v2.957h2.615l0.274,0.047c0.113,0.092,0.208,0.321,0.208,0.688l-0.116,8.62
		c-0.047,4.216-0.758,6.783-2.018,7.679c-0.55,0.366-1.605,0.41-3.07,0.091l-0.164-1.535c1.261,0.344,2.087,0.413,2.455,0.138
		c0.389-0.299,0.708-0.939,0.983-1.855c0.3-0.939,0.483-2.5,0.553-4.724c0.092-4.996,0.092-7.586,0-7.749l-0.16-0.091h-1.582
		c-0.048,3.392-0.551,6.878-1.447,10.431c-0.688,2.133-1.579,3.988-2.633,5.523l-1.192-0.687c2.498-3.029,3.851-8.137,3.942-15.268
		H317.891z M326.99,252.481h1.329v1.722h2.728v1.308h-6.921v-1.308h2.864V252.481z M324.307,268.048v-1.328h2.776v-3.875h-2.865
		v-1.305h3.96c0.416-1.561,0.83-3.301,1.152-5.205l1.259,0.32c-0.252,1.604-0.642,3.276-1.079,4.885h1.446v1.305h-2.542v3.875h2.449
		v1.328h-2.449v4.973h-1.331v-4.973H324.307z M326.029,256.563c0.572,2.062,0.986,3.577,1.121,4.519l-1.284,0.205
		c-0.229-1.216-0.594-2.681-1.122-4.403L326.029,256.563z"/>
	<path fill="#717071" d="M336.827,267.453c0.552-1.137,1.627-2.172,3.231-3.099l2.387-1.381c1.075-0.625,1.821-1.159,2.253-1.595
		c0.679-0.693,1.022-1.483,1.022-2.37c0-1.043-0.309-1.868-0.933-2.477c-0.623-0.61-1.452-0.918-2.488-0.918
		c-1.538,0-2.598,0.582-3.19,1.747c-0.314,0.624-0.489,1.489-0.521,2.598h-2.279c0.028-1.551,0.313-2.818,0.86-3.799
		c0.97-1.725,2.683-2.589,5.141-2.589c2.041,0,3.533,0.554,4.475,1.658c0.939,1.103,1.412,2.329,1.412,3.685
		c0,1.427-0.504,2.648-1.51,3.659c-0.578,0.59-1.62,1.303-3.119,2.141l-1.706,0.942c-0.815,0.45-1.456,0.877-1.918,1.282
		c-0.829,0.725-1.353,1.527-1.566,2.408h9.731v2.115h-12.236C335.958,269.926,336.273,268.591,336.827,267.453"/>
	<path fill="#717071" d="M361.154,256.485c0.794,1.468,1.193,3.482,1.193,6.036c0,2.424-0.358,4.428-1.081,6.015
		c-1.045,2.272-2.756,3.409-5.128,3.409c-2.14,0-3.734-0.931-4.777-2.789c-0.874-1.549-1.31-3.633-1.31-6.245
		c0-2.027,0.262-3.765,0.785-5.219c0.976-2.702,2.75-4.059,5.314-4.059C358.458,253.634,360.124,254.586,361.154,256.485
		 M358.901,268.362c0.686-1.03,1.033-2.945,1.033-5.755c0-2.023-0.249-3.689-0.748-4.997c-0.498-1.307-1.468-1.958-2.904-1.958
		c-1.322,0-2.288,0.619-2.902,1.858c-0.61,1.242-0.915,3.07-0.915,5.485c0,1.816,0.195,3.276,0.588,4.384
		c0.598,1.682,1.619,2.526,3.064,2.526C357.283,269.906,358.208,269.387,358.901,268.362"/>
	<path fill="#717071" d="M365.872,258.838v-1.718c1.619-0.157,2.749-0.422,3.385-0.789c0.639-0.37,1.119-1.244,1.43-2.622h1.768
		v17.752h-2.389v-12.623H365.872z"/>
	<path fill="#717071" d="M389.229,255.11c0.785,1.029,1.176,2.099,1.176,3.191h-2.215c-0.134-0.703-0.343-1.254-0.635-1.654
		c-0.54-0.748-1.358-1.121-2.452-1.121c-1.252,0-2.247,0.579-2.99,1.737c-0.738,1.157-1.148,2.816-1.231,4.974
		c0.516-0.759,1.161-1.322,1.942-1.692c0.715-0.332,1.512-0.498,2.39-0.498c1.495,0,2.796,0.478,3.907,1.428
		c1.115,0.957,1.668,2.378,1.668,4.273c0,1.62-0.527,3.049-1.576,4.301c-1.057,1.247-2.561,1.871-4.51,1.871
		c-1.667,0-3.107-0.631-4.319-1.896c-1.209-1.267-1.815-3.395-1.815-6.391c0-2.215,0.267-4.095,0.807-5.639
		c1.037-2.957,2.935-4.435,5.688-4.435C387.057,253.56,388.443,254.077,389.229,255.11 M387.548,268.74
		c0.583-0.793,0.878-1.729,0.878-2.807c0-0.913-0.261-1.781-0.785-2.605c-0.523-0.829-1.472-1.239-2.848-1.239
		c-0.963,0-1.807,0.321-2.532,0.96c-0.729,0.633-1.092,1.598-1.092,2.885c0,1.129,0.331,2.076,0.99,2.842
		c0.659,0.771,1.571,1.154,2.745,1.154S386.962,269.535,387.548,268.74"/>
	<path fill="#717071" d="M398.179,271.875v-12.607h-2.52v-1.306h2.52V252.3h1.307v5.662h5.317v-5.458h1.309v5.458h6.027v-5.458
		h1.331v5.458h2.724v1.306h-2.724v7.495c0,0.439-0.231,0.667-0.667,0.667h-7.38c-0.412,0-0.62-0.228-0.62-0.667v-7.495h-5.317
		v11.692c0,0.158,0.068,0.251,0.229,0.251h16.233v1.31h-17.15C398.364,272.521,398.179,272.311,398.179,271.875 M412.139,259.268
		h-6.027v6.58c0,0.16,0.064,0.253,0.228,0.253h5.548c0.16,0,0.252-0.093,0.252-0.253V259.268z"/>
	<path fill="#717071" d="M434.947,261.792h-2.68c-0.642,0.802-1.377,1.603-2.13,2.381v1.949c0,0.663-0.071,1.309-0.207,1.902
		c-0.438,2.133-1.723,3.805-3.808,5.021l-0.939-1.008c0.641-0.3,1.172-0.642,1.629-1.077c1.328-1.192,1.992-2.819,1.992-4.838v-0.78
		l-0.366,0.301c-1.446,1.005-3.025,1.878-4.765,2.542l-0.668-1.169c3.117-1.215,5.661-2.957,7.589-5.224h-5.988
		c-0.112,0-0.18-0.068-0.18-0.211v-7.927c0-0.114,0.067-0.184,0.18-0.184h17.676c0.14,0,0.208,0.069,0.208,0.184v7.927
		c0,0.143-0.068,0.211-0.208,0.211h-5.615c1.788,1.993,4.287,3.76,7.382,5.181l-0.963,1.096c-1.489-0.71-2.91-1.578-4.262-2.614
		l-0.184-0.133v7.609h-1.305v-8.53h0.203C436.624,263.576,435.752,262.706,434.947,261.792 M432.84,254.8h-7.036l-0.045,0.044v1.947
		h7.081V254.8z M432.84,258.101h-7.081v2.29l0.045,0.069h7.036V258.101z M434.169,256.791h6.99v-1.947
		c0-0.044-0.021-0.067-0.094-0.044h-6.896V256.791z M434.169,260.46h6.896c0.073,0,0.094-0.047,0.094-0.113v-2.246h-6.99V260.46z"/>
	<path fill="#717071" d="M459.11,257.48h-8.619v-1.331h8.619V257.48z M452.625,273.021h-1.307v-7.771c0-0.272,0.137-0.41,0.389-0.41
		h6.21c0.276,0,0.438,0.138,0.438,0.435v5.435c0,0.317-0.162,0.479-0.459,0.479h-5.271V273.021z M457.963,260.346h-6.486v-1.33
		h6.486V260.346z M457.963,263.213h-6.486v-1.33h6.486V263.213z M458.057,254.522h-6.486v-1.307h6.486V254.522z M456.77,269.859
		c0.187,0,0.278-0.093,0.278-0.273v-3.209c0-0.139-0.071-0.209-0.231-0.209h-3.961c-0.161,0-0.23,0.07-0.23,0.232v3.459H456.77z
		 M459.457,272.953l-0.829-1.123c1.788-0.574,3.484-1.467,5.045-2.612c-1.401-1.491-2.589-3.095-3.483-4.793l1.166-0.639
		c1.033,1.898,2.178,3.434,3.35,4.607c1.603-1.631,2.797-3.486,3.527-5.549h-8.277v-1.305h9.013l0.734,0.663
		c-0.667,2.817-1.995,5.179-4.011,7.058c1.326,1.033,3.207,1.881,5.637,2.501l-0.666,1.215c-2.771-0.806-4.789-1.766-6.004-2.843
		C462.501,271.738,460.761,272.677,459.457,272.953 M462.479,254.522v1.055c0,2.223-0.847,3.92-2.494,5.042l-0.988-1.031l0.32-0.228
		c1.216-0.893,1.835-2.313,1.835-4.193v-1.861l0.069-0.204l0.225-0.066h6.355l0.227,0.066l0.093,0.204v4.909l0.088,0.458
		c0.07,0.115,0.254,0.162,0.506,0.182h0.76l0.364-0.115c0.093-0.021,0.137-0.204,0.159-0.524l0.048-1.126l1.283,0.188
		c-0.093,1.463-0.276,2.312-0.483,2.498c-0.271,0.253-0.595,0.389-0.914,0.389h-1.791c-0.39-0.022-0.708-0.136-0.961-0.369
		c-0.274-0.249-0.411-0.573-0.39-0.939v-4.309c-0.021-0.137-0.069-0.205-0.208-0.205h-3.916
		C462.544,254.341,462.479,254.409,462.479,254.522"/>
	<path fill="#717071" d="M488.68,257.299h-10.587v-1.308h10.587V257.299z M480.224,273.021h-1.306v-7.313
		c0-0.271,0.112-0.408,0.391-0.408h7.813c0.299,0,0.46,0.137,0.46,0.408v5.091c0,0.319-0.161,0.482-0.482,0.482h-6.876V273.021z
		 M487.445,254.433h-8.37v-1.307h8.37V254.433z M487.352,260.527h-8.185v-1.33h8.185V260.527z M487.352,263.394h-8.185v-1.329h8.185
		V263.394z M485.979,269.948c0.186,0,0.273-0.09,0.273-0.271v-2.867c0-0.138-0.07-0.182-0.229-0.182h-5.571
		c-0.157,0-0.229,0.044-0.229,0.205v3.114H485.979z M488.564,259.911v-1.329h4.68v-6.351h1.305v6.351h4.518v1.329h-4.518v13.294
		h-1.305v-13.294H488.564z"/>
	<path fill="#717071" d="M513.164,271.899c-1.927-0.758-3.412-2.295-4.445-4.562c-0.391,2.155-1.147,3.944-2.178,5.34
		c-0.322-0.253-0.758-0.459-1.261-0.663c1.808-2.359,2.795-4.769,2.886-7.196l1.286,0.136c-0.069,0.688,0.042,1.353,0.32,2.019
		c7.245-1.994,11.624-5.547,13.021-10.661h-16.507v-1.306h8.69v-2.524h1.396v2.524h7.017l0.985,0.71h-0.021v-0.022
		c-0.302,1.421-0.787,2.799-1.47,4.102l-0.139,0.233c-2.177,3.597-6.303,6.372-12.307,8.252l0.273,0.343
		c0.616,0.802,1.375,1.351,2.223,1.741c1.101,0.367,2.295,0.549,3.67,0.502h10.037l-0.25,1.584h-9.949
		C515.362,272.449,514.263,272.287,513.164,271.899"/>
	<path fill="#717071" d="M536.594,273.116h-1.33v-8.62l-1.399,0.94l-0.962-0.987c2.064-1.352,3.898-2.772,5.413-4.287h-5.114v-1.307
		h4.741v-2.796h-3.479v-1.33h3.479v-2.248h1.332v2.248h3.44l0.873-1.442l1.116,0.711c-1.211,1.855-2.385,3.457-3.505,4.857h3.759
		v1.307h-4.902l-3.023,2.889h6.778c0.326,0,0.482,0.162,0.482,0.459v9.606h-1.324v-1.974h-6.375V273.116z M542.969,266.285v-1.722
		c0-0.114-0.073-0.183-0.211-0.183h-5.98c-0.139,0-0.206,0.068-0.184,0.183v1.722H542.969z M536.594,269.816h6.375v-2.205h-6.375
		V269.816z M541.818,256.06h-2.544v2.796h0.323C540.374,257.986,541.109,257.047,541.818,256.06 M547.502,254.433
		c-0.11,0-0.155,0.066-0.155,0.183V273h-1.335v-19.67c0-0.138,0.069-0.204,0.234-0.204h6.553l0.849,0.71l-2.541,7.126
		c-0.072,0.21,0.063,0.577,0.41,1.012c1.537,1.88,2.339,3.782,2.382,5.661c0.049,1.698-0.411,2.844-1.329,3.464
		c-0.802,0.524-2.086,0.596-3.827,0.205l-0.094-1.471c1.511,0.417,2.546,0.484,3.119,0.163c0.758-0.433,1.056-1.584,0.83-3.438
		c-0.188-1.192-1.149-2.818-2.823-4.881c-0.138-0.162-0.163-0.39-0.115-0.62l2.382-6.624H547.502z"/>
	<rect x="358.436" y="215.96" fill="#E6CC1F" width="74.649" height="8.291"/>
	<rect x="370.875" y="203.518" fill="#C4C81E" width="62.208" height="8.294"/>
	<rect x="383.32" y="191.076" fill="#63B7A3" width="49.764" height="8.294"/>
	<rect x="395.762" y="178.633" fill="#DD5524" width="37.294" height="8.296"/>
	<rect x="408.201" y="166.193" fill="#9B1E2E" width="24.883" height="8.293"/>
	<rect x="420.645" y="153.753" fill="#542E15" width="12.44" height="8.294"/>
	<polygon fill-rule="evenodd" clip-rule="evenodd" fill="#F6D4B4" points="358.436,141.312 350.145,141.312 350.145,215.958 
		358.436,224.251 358.436,215.957 	"/>
	<polygon fill-rule="evenodd" clip-rule="evenodd" fill="#BADCD1" points="370.88,141.312 362.58,141.312 362.58,203.516 
		370.88,211.812 370.88,203.516 	"/>
	<polygon fill-rule="evenodd" clip-rule="evenodd" fill="#7FC4D9" points="383.32,141.312 375.024,141.312 375.024,191.079 
		383.32,199.37 383.32,191.079 	"/>
	<polygon fill-rule="evenodd" clip-rule="evenodd" fill="#B98865" points="387.469,141.312 387.469,178.635 387.467,178.635 
		395.759,186.929 395.759,178.635 395.759,141.312 	"/>
	<polygon fill-rule="evenodd" clip-rule="evenodd" fill="#BB1545" points="408.201,166.193 408.201,141.311 399.904,141.311 
		399.904,166.193 408.201,174.487 	"/>
	<polygon fill-rule="evenodd" clip-rule="evenodd" fill="#02566D" points="420.644,153.747 420.644,153.747 420.644,141.313 
		412.347,141.313 412.347,153.747 420.644,162.042 	"/>
	<polygon fill-rule="evenodd" clip-rule="evenodd" fill="#231815" points="433.085,149.605 433.085,141.311 424.786,141.311 	"/>
	<path fill="none" stroke="#FFFFFF" stroke-width="5" stroke-miterlimit="10" d="M111.527,137.243
		c0,0-438.479-165.146-678.936-385.117"/>
	<polygon fill="#02566D" points="-233.451,38.125 -239.719,14.337 -262.136,23.046 -234.903,-28.755 -206.218,-13.675 	"/>
	
		<rect x="-239.426" y="-21.873" transform="matrix(0.8852 0.4653 -0.4653 0.8852 -33.1519 102.0125)" fill="#00404B" width="32.405" height="11.446"/>
	<polygon fill="#BB1545" points="-174.279,69.373 -180.922,45.687 -203.197,54.751 -176.788,2.523 -147.871,17.147 	"/>
	
		<rect x="-181.114" y="9.219" transform="matrix(0.8924 0.4512 -0.4512 0.8924 -11.0002 76.0194)" fill="#9F1D3D" width="32.405" height="11.448"/>
	<polygon fill="#B98865" points="-113.549,98.768 -120.926,75.299 -142.906,85.05 -118.133,32.028 -88.773,45.748 	"/>
	
		<rect x="-122.081" y="38.35" transform="matrix(0.906 0.4234 -0.4234 0.906 8.7019 48.9707)" fill="#A46A43" width="32.408" height="11.446"/>
	<polygon fill="#7FC4D9" points="-51.647,127.834 -59.677,104.58 -81.377,114.941 -58.096,61.248 -28.363,74.143 	"/>
	
		<rect x="-61.71" y="67.222" transform="matrix(0.9175 0.3978 -0.3978 0.9175 25.2633 24.1244)" fill="#55A2B3" width="32.408" height="11.447"/>
	<polygon fill="#9B1E2E" points="-538.531,-153.306 -539.677,-177.878 -563.419,-174.059 -525.941,-219.005 -501.051,-198.252 	"/>
	
		<rect x="-533.365" y="-209.956" transform="matrix(0.768 0.6404 -0.6404 0.768 -250.7543 283.8183)" fill="#7E192B" width="32.407" height="11.445"/>
	<polygon fill="#DD5524" points="-478.882,-107.891 -481.802,-132.318 -505.206,-126.79 -471.077,-174.33 -444.752,-155.431 	"/>
	
		<rect x="-477.453" y="-165.955" transform="matrix(0.8124 0.5832 -0.5832 0.8124 -179.9953 238.92)" fill="#CA3E1B" width="32.403" height="11.447"/>
	<polygon fill="#63B7A3" points="-422.215,-69.703 -426.386,-93.946 -449.474,-87.227 -417.829,-136.455 -390.569,-118.932 	"/>
	
		<rect x="-423.497" y="-128.601" transform="matrix(0.8412 0.5408 -0.5408 0.8412 -131.1367 200.7332)" fill="#499F88" width="32.407" height="11.444"/>
	<polygon fill="#C4C81E" points="-362.809,-33.362 -367.902,-57.431 -390.718,-49.832 -360.973,-100.233 -333.064,-83.762 	"/>
	
		<rect x="-366.131" y="-92.792" transform="matrix(0.8612 0.5083 -0.5083 0.8612 -92.8252 165.7719)" fill="#AAA61C" width="32.407" height="11.446"/>
	<polygon fill="#E6CC1F" points="-298.916,2.523 -304.546,-21.424 -327.187,-13.318 -298.578,-64.372 -270.308,-48.529 	"/>
	
		<rect x="-303.444" y="-57.18" transform="matrix(0.8724 0.4889 -0.4889 0.8724 -61.8189 133.8528)" fill="#DCBE1D" width="32.407" height="11.444"/>
	<polygon fill="#BADCD1" points="13.549,155.967 5.414,132.749 -16.24,143.206 6.803,89.412 36.591,102.172 	"/>
	
		<rect x="3.241" y="95.33" transform="matrix(0.9192 0.3937 -0.3937 0.9192 41.3573 0.5065)" fill="#8BBCAC" width="32.406" height="11.445"/>
	<polygon fill="#F6D4B4" points="76.236,180.902 67.422,157.934 46.085,169.027 67.532,114.576 97.685,126.452 	"/>
	
		<rect x="64.308" y="120.116" transform="matrix(0.9304 0.3665 -0.3665 0.9304 51.7188 -20.7503)" fill="#E2B189" width="32.405" height="11.445"/>
	<path fill="none" stroke="#FFFFFF" stroke-width="5" stroke-miterlimit="10" d="M670.346,139.28
		c0,0,451.027-151.641,693.227-369.688"/>
	<polygon fill="#02566D" points="1062.949,30.814 1039.895,22.23 1034.095,45.57 1007.451,-6.538 1036.307,-21.29 	"/>
	
		<rect x="1008.282" y="-14.543" transform="matrix(0.8903 -0.4553 0.4553 0.8903 116.3666 465.4884)" fill="#00404B" width="32.406" height="11.447"/>
	<polygon fill="#BB1545" points="1124.719,-3.019 1101.453,-11.02 1096.244,12.459 1068.295,-38.958 1096.766,-54.436 	"/>
	
		<rect x="1069.061" y="-47.392" transform="matrix(0.8785 -0.4777 0.4777 0.8785 151.71 513.318)" fill="#9F1D3D" width="32.405" height="11.446"/>
	<polygon fill="#B98865" points="1182.443,-35.371 1159.017,-42.879 1154.305,-19.296 1125.274,-70.111 1153.414,-86.186 	"/>
	
		<rect x="1125.98" y="-78.902" transform="matrix(0.8683 -0.496 0.496 0.8683 186.7223 556.9251)" fill="#A46A43" width="32.405" height="11.445"/>
	<polygon fill="#7FC4D9" points="1242.879,-71.714 1219.146,-78.192 1215.47,-54.428 1184.247,-103.928 1211.659,-121.212 	"/>
	
		<rect x="1184.802" y="-113.454" transform="matrix(0.8458 -0.5335 0.5335 0.8458 242.6619 624.1144)" fill="#55A2B3" width="32.404" height="11.447"/>
	<polygon fill="#BADCD1" points="1300.092,-110.926 1276.036,-116.079 1273.681,-92.147 1239.768,-139.844 1266.182,-158.622 	"/>
	
		<rect x="1240.086" y="-150.292" transform="matrix(0.815 -0.5794 0.5794 0.815 316.1443 701.18)" fill="#8BBCAC" width="32.409" height="11.446"/>
	<polygon fill="#63B7A3" points="883.033,115.909 860.744,105.495 853.083,128.29 830.726,74.206 860.675,61.825 	"/>
	
		<rect x="831.683" y="67.582" transform="matrix(0.9241 -0.382 0.382 0.9241 36.3087 329.4808)" fill="#499F88" width="32.405" height="11.444"/>
	<polygon fill="#C4C81E" points="943.664,89.165 921.113,79.335 914.05,102.322 890.286,48.841 919.902,35.684 	"/>
	<polygon fill="#AAA61C" points="924.549,46.142 894.94,59.299 890.286,48.84 919.902,35.683 	"/>
	<polygon fill="#E6CC1F" points="1004.393,60.771 981.62,51.464 975.087,74.61 950.098,21.688 979.405,7.852 	"/>
	
		<rect x="950.991" y="14.222" transform="matrix(0.9043 -0.4269 0.4269 0.9043 84.0623 414.8379)" fill="#DCBE1D" width="32.408" height="11.446"/>
	<polygon fill="#F6D4B4" points="1352.939,-151.578 1328.769,-156.164 1326.979,-132.182 1291.949,-179.063 1317.911,-198.461 	"/>
	
		<rect x="1292.152" y="-189.9" transform="matrix(0.8011 -0.5985 0.5985 0.8011 370.4434 746.4334)" fill="#E2B189" width="32.41" height="11.446"/>
	<polygon fill="#DD5524" points="817.799,142.822 795.835,131.742 787.489,154.297 766.771,99.563 797.077,88.091 	"/>
	
		<rect x="767.745" y="93.456" transform="matrix(0.9352 -0.3541 0.3541 0.9352 15.6775 284.0335)" fill="#CA3E1B" width="32.407" height="11.445"/>
	<polygon fill="#9B1E2E" points="754.248,167.086 732.155,156.26 724.073,178.907 702.728,124.416 732.899,112.597 	"/>
	
		<rect x="703.698" y="118.112" transform="matrix(0.9311 -0.3647 0.3647 0.9311 4.4273 271.109)" fill="#7E192B" width="32.407" height="11.445"/>
	<path fill="none" stroke="#FFFFFF" stroke-width="5" stroke-miterlimit="10" d="M672.033,142.343
		c0,0,400.499-46.388,693.877-188.296"/>
	<polygon fill="#F6D4B4" points="1036.455,128.626 1016.101,114.81 1004.923,136.102 991.426,79.154 1022.957,71.683 	"/>
	
		<rect x="992.308" y="75.264" transform="matrix(0.973 -0.2307 0.2307 0.973 8.5139 234.8018)" fill="#E2B189" width="32.406" height="11.446"/>
	<polygon fill="#9B1E2E" points="1101.316,110.072 1080.397,97.124 1070.125,118.867 1054.242,62.54 1085.432,53.747 	"/>
	
		<rect x="1055.186" y="57.926" transform="matrix(0.9625 -0.2714 0.2714 0.9625 22.941 293.1776)" fill="#7E192B" width="32.408" height="11.448"/>
	<polygon fill="#DD5524" points="1162.787,92.423 1142.061,79.169 1131.471,100.762 1116.412,44.208 1147.726,35.869 	"/>
	
		<rect x="1117.338" y="39.846" transform="matrix(0.9663 -0.2573 0.2573 0.9663 26.45 293.2404)" fill="#CA3E1B" width="32.408" height="11.447"/>
	<polygon fill="#63B7A3" points="1227.785,70.225 1206.287,58.268 1197.043,80.466 1178.543,24.942 1209.289,14.702 	"/>
	<polygon fill="#499F88" points="1212.908,25.56 1182.164,35.801 1178.543,24.942 1209.29,14.702 	"/>
	<polygon fill="#C4C81E" points="1288.08,47.074 1265.965,36.304 1257.938,58.976 1236.447,4.542 1266.588,-7.359 	"/>
	
		<rect x="1237.417" y="-1.808" transform="matrix(0.9301 -0.3672 0.3672 0.9301 86.1479 460.6279)" fill="#AAA61C" width="32.407" height="11.444"/>
	<polygon fill="#BB1545" points="775.002,181.964 755.767,166.626 742.987,186.998 733.896,129.187 765.909,124.151 	"/>
	
		<rect x="734.589" y="126.6" transform="matrix(0.9879 -0.1554 0.1554 0.9879 -11.4413 118.2429)" fill="#9F1D3D" width="32.405" height="11.445"/>
	<polygon fill="#B98865" points="841.219,170.129 821.559,155.343 809.361,176.067 798.637,118.536 830.49,112.597 	"/>
	<polygon fill="#A46A43" points="832.594,123.848 800.733,129.787 798.637,118.536 830.49,112.596 	"/>
	<polygon fill="#7FC4D9" points="905.141,158.496 885.75,143.358 873.182,163.861 863.493,106.146 895.451,100.781 	"/>
	
		<rect x="864.217" y="103.384" transform="matrix(0.9862 -0.1656 0.1656 0.9862 -5.9127 147.2917)" fill="#55A2B3" width="32.407" height="11.445"/>
	<polygon fill="#BADCD1" points="971.783,143.681 951.898,129.195 940.019,150.106 928.416,92.743 960.18,86.32 	"/>
	
		<rect x="929.229" y="89.417" transform="matrix(0.9801 -0.1983 0.1983 0.9801 -0.0935 189.3466)" fill="#8BBCAC" width="32.408" height="11.447"/>
	<polygon fill="#E6CC1F" points="1346.529,22.946 1324.137,12.757 1316.707,35.627 1293.806,-18.229 1323.63,-30.909 	"/>
	
		<rect x="1294.753" y="-25.027" transform="matrix(0.9203 -0.3913 0.3913 0.9203 112.1012 511.4749)" fill="#DCBE1D" width="32.407" height="11.447"/>
	<polygon fill="#02566D" points="710.893,192.782 692.17,176.822 678.732,196.764 671.544,138.684 703.705,134.704 	"/>
	
		<rect x="672.124" y="136.65" transform="matrix(0.9924 -0.1229 0.1229 0.9924 -12.2769 85.6432)" fill="#00404B" width="32.408" height="11.446"/>
	<path fill="none" stroke="#FFFFFF" stroke-width="5" stroke-miterlimit="10" d="M111.284,142.343
		c0,0-381.33-36.463-674.704-178.369"/>
	<polygon fill="#F6D4B4" points="-218.824,138.57 -231.144,117.277 -250.468,131.592 -237.864,74.441 -206.218,81.421 	"/>
	
		<rect x="-239.477" y="77.797" transform="matrix(0.9765 0.2153 -0.2153 0.9765 12.7472 50.0403)" fill="#E2B189" width="32.406" height="11.446"/>
	<polygon fill="#9B1E2E" points="-155.071,153.908 -167.504,132.68 -186.752,147.094 -174.446,89.879 -142.763,96.693 	"/>
	
		<rect x="-176.012" y="93.157" transform="matrix(0.9776 0.2102 -0.2102 0.9776 17.2171 35.8088)" fill="#7E192B" width="32.407" height="11.447"/>
	<polygon fill="#DD5524" points="-86.166,166.768 -99.649,146.19 -118.149,161.554 -108.734,103.793 -76.751,109.008 	"/>
	
		<rect x="-109.867" y="106.325" transform="matrix(0.987 0.1609 -0.1609 0.987 16.8069 16.5289)" fill="#CA3E1B" width="32.407" height="11.446"/>
	<polygon fill="#63B7A3" points="-21.056,178.516 -34.468,157.894 -53.021,173.192 -43.407,115.465 -11.443,120.788 	"/>
	
		<rect x="-44.567" y="118.049" transform="matrix(0.9864 0.1642 -0.1642 0.9864 19.9432 6.3393)" fill="#499F88" width="32.405" height="11.446"/>
	<polygon fill="#02566D" points="-531.053,37.963 -539.187,14.746 -560.844,25.206 -537.804,-28.591 -508.014,-15.834 	"/>
	
		<rect x="-541.365" y="-22.674" transform="matrix(0.9193 0.3937 -0.3937 0.9193 -49.0771 205.3673)" fill="#00404B" width="32.406" height="11.444"/>
	<polygon fill="#BB1545" points="-469.562,62.44 -478.923,39.689 -499.988,51.291 -479.852,-3.659 -449.423,7.491 	"/>
	
		<rect x="-482.81" y="1.567" transform="matrix(0.9389 0.3441 -0.3441 0.9389 -25.9832 160.9973)" fill="#9F1D3D" width="32.406" height="11.445"/>
	<polygon fill="#B98865" points="-409.997,84.037 -419.76,61.458 -440.617,73.43 -421.458,18.132 -390.836,28.738 	"/>
	
		<rect x="-424.225" y="23.119" transform="matrix(0.9449 0.3273 -0.3273 0.9449 -13.0365 135.145)" fill="#A46A43" width="32.406" height="11.446"/>
	<polygon fill="#7FC4D9" points="-347.746,103.793 -358.536,81.687 -378.821,94.602 -362.219,38.481 -331.144,47.676 	"/>
	
		<rect x="-364.508" y="42.842" transform="matrix(0.9589 0.2837 -0.2837 0.9589 -0.53 100.7921)" fill="#55A2B3" width="32.407" height="11.447"/>
	<polygon fill="#BADCD1" points="-285.751,121.893 -297.055,100.042 -317.034,113.43 -301.75,56.938 -270.465,65.402 	"/>
	
		<rect x="-303.806" y="60.971" transform="matrix(0.9653 0.2612 -0.2612 0.9653 7.4365 77.4265)" fill="#8BBCAC" width="32.408" height="11.445"/>
	<polygon fill="#C4C81E" points="42.35,186.955 28.017,166.961 10.177,183.083 17.17,124.979 49.342,128.853 	"/>
	
		<rect x="16.369" y="126.874" transform="matrix(0.9928 0.1195 -0.1195 0.9928 16.0769 -2.942)" fill="#AAA61C" width="32.406" height="11.447"/>
	<polygon fill="#E6CC1F" points="105.543,195.751 90.917,175.972 73.316,192.357 79.445,134.157 111.672,137.551 	"/>
	
		<rect x="78.758" y="135.823" transform="matrix(0.9945 0.1047 -0.1047 0.9945 15.3441 -9.1658)" fill="#DCBE1D" width="32.407" height="11.443"/>
	<path fill="none" stroke="#FFFFFF" stroke-width="5" stroke-miterlimit="10" d="M111.724,145.74
		c0,0-369.151,102.312-693.875,74.697"/>
	<polygon fill="#C4C81E" points="-206.085,261.324 -224.985,245.578 -238.197,265.673 -246.049,207.679 -213.938,203.331 	"/>
	
		<rect x="-245.429" y="205.453" transform="matrix(0.991 -0.1342 0.1342 0.991 -30.4125 -28.8513)" fill="#AAA61C" width="32.405" height="11.446"/>
	<polygon fill="#E6CC1F" points="-138.445,252.282 -157.646,236.899 -170.47,257.246 -179.434,199.413 -147.41,194.448 	"/>
	
		<rect x="-178.749" y="196.863" transform="matrix(0.9882 -0.1532 0.1532 0.9882 -32.9495 -22.5074)" fill="#DCBE1D" width="32.406" height="11.446"/>
	<polygon fill="#02566D" points="-72.567,241.425 -92.026,226.374 -104.502,246.934 -114.448,189.263 -82.515,183.753 	"/>
	
		<rect x="-113.712" y="186.424" transform="matrix(0.9854 -0.17 0.17 0.9854 -34.0871 -13.7804)" fill="#00404B" width="32.408" height="11.447"/>
	<polygon fill="#BB1545" points="-5.925,228.401 -25.825,213.937 -37.68,234.859 -49.345,177.51 -17.59,171.052 	"/>
	
		<rect x="-48.531" y="174.165" transform="matrix(0.9799 -0.1994 0.1994 0.9799 -36.5127 -2.8338)" fill="#9F1D3D" width="32.407" height="11.448"/>
	<polygon fill="#BADCD1" points="-525.464,277.962 -541.365,259.189 -557.847,276.7 -555.568,218.224 -523.186,219.483 	"/>
	
		<rect x="-555.804" y="218.85" transform="matrix(0.9992 0.0389 -0.0389 0.9992 8.3344 21.1792)" fill="#8BBCAC" width="32.406" height="11.443"/>
	<polygon fill="#F6D4B4" points="-459.287,278.833 -476.166,260.935 -491.688,279.3 -492.535,220.782 -460.13,220.313 	"/>
	
		<rect x="-492.453" y="220.547" transform="matrix(0.9999 -0.0145 0.0145 0.9999 -3.3228 -6.8652)" fill="#E2B189" width="32.406" height="11.447"/>
	<polygon fill="#9B1E2E" points="-395.935,277.699 -413.131,260.104 -428.325,278.743 -430.209,220.251 -397.818,219.208 	"/>
	
		<rect x="-430.033" y="219.728" transform="matrix(0.9995 -0.0321 0.0321 0.9995 -7.4557 -13.1772)" fill="#7E192B" width="32.407" height="11.444"/>
	<polygon fill="#DD5524" points="-332.575,273.889 -350.556,257.101 -364.882,276.417 -369.445,218.072 -337.139,215.544 	"/>
	
		<rect x="-369.049" y="216.79" transform="matrix(0.997 -0.078 0.078 0.997 -18.4274 -26.8392)" fill="#CA3E1B" width="32.408" height="11.446"/>
	<polygon fill="#63B7A3" points="-271.137,268.622 -289.507,252.26 -303.377,271.904 -309.305,213.684 -277.063,210.4 	"/>
	
		<rect x="-308.809" y="212.013" transform="matrix(0.9949 -0.1013 0.1013 0.9949 -23.5558 -28.5142)" fill="#499F88" width="32.409" height="11.444"/>
	<polygon fill="#B98865" points="52.656,216.329 32.862,201.723 20.852,222.556 9.61,165.124 41.412,158.897 	"/>
	
		<rect x="10.407" y="161.903" transform="matrix(0.9814 -0.1921 0.1921 0.9814 -31.7094 8.2355)" fill="#A46A43" width="32.409" height="11.446"/>
	<polygon fill="#7FC4D9" points="108.81,203.352 88.691,189.191 77.153,210.291 64.622,153.127 96.275,146.188 	"/>
	
		<rect x="65.471" y="149.525" transform="matrix(0.9768 -0.2142 0.2142 0.9768 -31.3536 21.0941)" fill="#55A2B3" width="32.407" height="11.444"/>
	<path fill="none" stroke="#FFFFFF" stroke-width="5" stroke-miterlimit="10" d="M670.346,141.71
		c0,0,406.795,105.553,727.853,49.632"/>
	<polygon fill="#C4C81E" points="1041.225,254.654 1026.261,235.125 1008.941,251.809 1014.078,193.512 1046.36,196.356 	"/>
	
		<rect x="1013.515" y="194.913" transform="matrix(0.9961 0.0878 -0.0878 0.9961 21.5803 -89.5922)" fill="#AAA61C" width="32.404" height="11.444"/>
	<polygon fill="#E6CC1F" points="1107.635,260.504 1092.363,241.219 1075.314,258.179 1079.514,199.807 1111.834,202.133 	"/>
	<polygon fill="#DCBE1D" points="1111.016,213.549 1078.695,211.224 1079.513,199.807 1111.834,202.132 	"/>
	<polygon fill="#02566D" points="1173.637,262.033 1157.345,243.601 1141.236,261.457 1142.279,202.943 1174.68,203.52 	"/>
	
		<rect x="1142.175" y="203.231" transform="matrix(0.9998 0.0178 -0.0178 0.9998 3.8987 -20.5648)" fill="#00404B" width="32.403" height="11.445"/>
	<polygon fill="#BB1545" points="1241.039,261.716 1224.383,243.611 1208.635,261.785 1208.511,203.263 1240.914,203.192 	"/>
	
		<rect x="1208.521" y="203.227" transform="matrix(1 -0.0022 0.0022 1 -0.4506 2.6579)" fill="#9F1D3D" width="32.405" height="11.445"/>
	<polygon fill="#B98865" points="1303.355,256.767 1285.045,240.34 1271.109,259.938 1265.382,201.695 1297.634,198.526 	"/>
	
		<rect x="1265.866" y="200.082" transform="matrix(0.9952 -0.0978 0.0978 0.9952 -13.981 126.361)" fill="#A46A43" width="32.405" height="11.446"/>
	<polygon fill="#9B1E2E" points="859.418,233.696 846.08,213.024 827.472,228.26 837.286,170.565 869.232,176.003 	"/>
	<polygon fill="#7E192B" points="867.318,187.285 835.368,181.85 837.287,170.565 869.232,176.003 	"/>
	<polygon fill="#DD5524" points="919.223,241.494 905.352,221.181 887.148,236.895 895.456,178.966 927.533,183.565 	"/>
	
		<rect x="894.481" y="181.207" transform="matrix(0.9899 0.1419 -0.1419 0.9899 35.7546 -127.3738)" fill="#CA3E1B" width="32.404" height="11.445"/>
	<polygon fill="#63B7A3" points="979.627,248.862 965.282,228.873 947.447,245.002 954.417,186.896 986.596,190.755 	"/>
	
		<rect x="953.62" y="188.784" transform="matrix(0.9929 0.1191 -0.1191 0.9929 30.0644 -114.1082)" fill="#499F88" width="32.408" height="11.446"/>
	<polygon fill="#7FC4D9" points="1363.572,250.914 1344.838,234.969 1331.414,254.923 1324.179,196.849 1356.338,192.842 	"/>
	
		<rect x="1324.762" y="194.799" transform="matrix(0.9923 -0.1237 0.1237 0.9923 -14.506 167.4288)" fill="#55A2B3" width="32.405" height="11.447"/>
	<polygon fill="#F6D4B4" points="797.447,223.078 784.733,202.017 765.679,216.685 777.224,159.312 808.995,165.707 	"/>
	
		<rect x="775.776" y="162.397" transform="matrix(0.9804 0.1973 -0.1973 0.9804 48.724 -152.9208)" fill="#E2B189" width="32.407" height="11.445"/>
	<polygon fill="#BADCD1" points="734.586,210.229 721.631,189.316 702.743,204.202 713.631,146.699 745.477,152.729 	"/>
	<polygon fill="#8BBCAC" points="743.342,163.975 711.502,157.945 713.63,146.699 745.477,152.729 	"/>
</g>
</svg>
