<?xml version="1.0" encoding="utf-8"?>
<!-- Generator: Adobe Illustrator 16.0.0, SVG Export Plug-In . SVG Version: 6.00 Build 0)  -->
<!DOCTYPE svg PUBLIC "-//W3C//DTD SVG 1.1//EN" "http://www.w3.org/Graphics/SVG/1.1/DTD/svg11.dtd">
<svg version="1.1" xmlns="http://www.w3.org/2000/svg" xmlns:xlink="http://www.w3.org/1999/xlink" x="0px" y="0px"
	 width="871.975px" height="378.032px" viewBox="0 0 871.975 378.032" enable-background="new 0 0 871.975 378.032"
	 xml:space="preserve">
<g id="圖層_2" display="none">
	<rect x="-1791.529" y="-1758.131" display="inline" fill="#0071BC" width="3593" height="2405"/>
</g>
<g id="圖層_1">
	<path fill="#BD8A66" d="M871.975,178.863c0-52.574-178.24-86.888-265.98-118.072C537.021,36.274,494.715,0,397.979,0
		C178.184,0,0,103.354,0,170.019c0,7.525,0,32.507,0,37.995c0,51.44,56.619,74.542,141.121,105.717
		c69.74,25.732,62.686,64.302,256.857,64.302c98.377,0,283.443-21.939,352.902-47.204c85.729-31.185,121.094-62.101,121.094-113.973
		C871.975,212.593,871.975,187.993,871.975,178.863z"/>
	<path fill="#8FC31F" d="M871.975,178.863c0,51.872-35.365,82.786-121.094,113.971c-69.459,25.267-254.525,47.205-352.902,47.205
		c-194.172,0-187.117-38.57-256.857-64.301C56.619,244.563,0,221.464,0,170.019C0,103.354,178.184,0,397.979,0
		c96.736,0,139.043,36.274,208.016,60.791C693.734,91.976,871.975,126.289,871.975,178.863z"/>
	<g>
		<g>
			<polygon fill="#80AD05" points="200.962,249.869 202.562,249.869 199.637,254.54 198.019,254.54 			"/>
			<path fill="#80AD05" d="M220.342,254.533l-0.391-0.995h-5.557l-1.561,0.995h-2.277l8.074-4.94h1.705l2.293,4.94H220.342z
				 M218.873,250.711l-3.471,2.189h4.329L218.873,250.711z"/>
			<path fill="#80AD05" d="M233.481,254.066c-1.06,0.314-2.429,0.467-3.903,0.467h-4.957l2.795-4.94h4.898
				c1.457,0,2.644,0.153,3.354,0.463c1.223,0.534,0.738,1.255,0.353,1.969C235.632,252.743,235.299,253.531,233.481,254.066
				 M233.926,250.597c-0.469-0.226-1.198-0.33-2.193-0.33h-2.574l-2.014,3.591h2.597c1.004,0,1.854-0.104,2.578-0.333
				c0.883-0.284,1.198-0.818,1.571-1.5C234.261,251.348,234.49,250.884,233.926,250.597"/>
			<path fill="#80AD05" d="M245.738,254.533l-0.461-0.995h-5.559l-1.494,0.995h-2.285l7.779-4.94h1.693l2.604,4.94H245.738z
				 M244.031,250.711l-3.339,2.189h4.329L244.031,250.711z"/>
			<path fill="#80AD05" d="M256.318,252.59h-3.189l-0.97,1.943h-2.143l2.492-4.94h5.283c2.725,0,4.156,0.637,3.743,1.497
				C261.121,251.949,259.063,252.59,256.318,252.59 M257.347,250.267h-3.058l-0.819,1.642h3.069c1.476,0,2.627-0.297,2.881-0.819
				C259.672,250.57,258.816,250.267,257.347,250.267"/>
			<polygon fill="#80AD05" points="269.229,250.267 267.255,254.533 265.125,254.533 267.121,250.267 263.265,250.267 
				263.587,249.593 273.387,249.593 273.081,250.267 			"/>
			<polygon fill="#80AD05" points="275.791,249.593 277.908,249.593 275.723,254.533 273.58,254.533 			"/>
			<polygon fill="#80AD05" points="283.966,254.533 282.307,254.533 279.824,249.593 282.02,249.593 283.707,253.184 
				288.441,249.593 290.676,249.593 			"/>
			<polygon fill="#80AD05" points="290.589,254.533 292.597,249.593 301.503,249.593 301.243,250.267 294.434,250.267 
				293.855,251.707 299.686,251.707 299.428,252.373 293.588,252.373 292.992,253.858 299.862,253.858 299.603,254.533 			"/>
			<path fill="#80AD05" d="M311.838,254.574c-1.464,0-2.668-0.188-3.514-0.528c-1.204-0.483-0.989-1.033-0.64-1.983
				c0.349-0.95,0.538-1.5,2.084-1.987c1.081-0.336,2.406-0.523,3.852-0.523c2.562,0,4.3,0.534,4.458,1.519h-2.167
				c-0.159-0.501-0.978-0.847-2.529-0.847c-0.822,0-1.607,0.112-2.164,0.299c-0.785,0.261-1.047,0.548-1.405,1.539
				c-0.359,0.992-0.303,1.275,0.298,1.539c0.426,0.188,1.138,0.297,1.968,0.297c1.565,0,2.653-0.344,3.161-0.844h2.159
				C316.586,254.038,314.396,254.574,311.838,254.574"/>
			<polygon fill="#80AD05" points="321.404,249.593 323.515,249.593 321.881,254.533 319.745,254.533 			"/>
			<polygon fill="#80AD05" points="331.672,250.267 330.349,254.533 328.205,254.533 329.551,250.267 325.713,250.267 
				325.932,249.593 335.719,249.593 335.516,250.267 			"/>
			<polygon fill="#80AD05" points="341.863,252.5 341.286,254.533 339.148,254.533 339.736,252.5 336.402,249.593 338.711,249.593 
				341.01,251.765 344.545,249.593 346.858,249.593 			"/>
			<polygon fill="#80AD05" points="357.463,249.869 359.064,249.869 357.928,254.54 356.307,254.54 			"/>
			<path fill="#80AD05" d="M377.671,250.52h-7.056l0.116-0.539h7.046L377.671,250.52z M376.807,252.904l-0.436,2.19h-1.623
				l0.066-0.328h-3.012l-0.08,0.38h-1.628l0.479-2.243H376.807z M376.719,251.492h-5.627l0.109-0.514h5.62L376.719,251.492z
				 M376.535,252.41h-5.64l0.108-0.512h5.633L376.535,252.41z M377.02,249.572h-5.446l0.109-0.514h5.438L377.02,249.572z
				 M375.089,253.415h-3.003l-0.177,0.841h3.009L375.089,253.415z M385.287,249.084l-0.269,1.491
				c-0.036,0.202,0.021,0.298,0.2,0.298h1.003c0.101,0,0.203-0.02,0.279-0.07c0.095-0.056,0.229-0.264,0.412-0.637l1.576,0.187
				c-0.355,0.471-0.726,0.77-1.082,0.881c-0.371,0.124-0.895,0.18-1.562,0.18h-0.887c-1.193,0-1.741-0.238-1.654-0.707l0.203-1.109
				h-2.344c-0.175,0.498-0.426,0.866-0.743,1.102c-0.403,0.283-1.071,0.573-1.975,0.872l-1.225-0.382
				c0.834-0.232,1.391-0.47,1.705-0.689c0.308-0.182,0.562-0.652,0.71-1.417H385.287z M384.939,251.842
				c0.212-0.053,0.357-0.083,0.396-0.083c0.122,0,0.249,0.03,0.354,0.071l0.856,0.296c0.112,0.044,0.165,0.083,0.157,0.127
				c-0.007,0.039-0.196,0.097-0.553,0.157c-0.892,0.757-1.822,1.312-2.79,1.656c1.035,0.196,2.462,0.354,4.266,0.487l-1.191,0.593
				c-1.873-0.181-3.359-0.394-4.495-0.658c-1.118,0.265-2.529,0.478-4.191,0.658l-1.042-0.541c1.191-0.09,2.157-0.194,2.893-0.31
				c0.36-0.054,0.696-0.118,1.01-0.186c-0.858-0.304-1.709-0.722-2.547-1.263l1.272-0.27c0.812,0.507,1.705,0.895,2.638,1.164
				c0.156-0.056,0.3-0.109,0.435-0.167c0.636-0.264,1.262-0.657,1.866-1.191h-5.826l0.105-0.542H384.939z"/>
			<path fill="#80AD05" d="M399.792,250.681h-8.285l0.093-0.568h8.273L399.792,250.681z M399.159,252.981l-0.297,2.055h-1.782
				l0.032-0.213h-3.884l-0.061,0.38h-1.767l0.36-2.223H399.159z M399.095,249.655h-6.263l0.087-0.54h6.255L399.095,249.655z
				 M398.811,251.602h-6.292l0.083-0.514h6.284L398.811,251.602z M398.677,252.523h-6.308l0.084-0.514h6.299L398.677,252.523z
				 M397.306,253.522h-3.872l-0.119,0.76h3.879L397.306,253.522z M403.818,250.874l0.262-1.953l1.736,0.048
				c0.311,0.013,0.484,0.04,0.479,0.089c-0.005,0.033-0.154,0.09-0.416,0.161l-0.214,1.655h3.699l-0.071,0.588h-3.704l-0.476,3.685
				h-1.867l0.493-3.685h-3.823l0.084-0.588H403.818z"/>
			<path fill="#80AD05" d="M426.987,250.03l-0.05,0.651h3.293l-0.035,0.509h-3.298l-0.048,0.625h-10.451l0.064-0.625h-3.767
				l0.058-0.509h3.762l0.066-0.651H426.987z M422.537,248.941c0.313,0.013,0.486,0.041,0.481,0.091
				c-0.003,0.034-0.149,0.09-0.4,0.158l-0.011,0.112h7.492l-0.076,1.079h-1.77l0.044-0.595h-13.155l-0.066,0.625h-1.746l0.122-1.109
				h7.339l0.038-0.41L422.537,248.941z M427.754,252.009l-0.177,2.351h-1.364c1.143,0.136,2.258,0.283,3.335,0.463l-1.417,0.427
				c-1.57-0.278-3.275-0.491-5.145-0.645l0.853-0.246h-4.36l0.218,0.04c0.138,0.042,0.212,0.082,0.208,0.122
				c-0.003,0.038-0.176,0.07-0.549,0.114c-0.804,0.144-1.505,0.257-2.105,0.33c-0.732,0.09-1.758,0.188-3.066,0.284l-1.201-0.427
				c1.016-0.077,1.82-0.147,2.42-0.21c0.503-0.06,0.943-0.117,1.32-0.177c0.146-0.024,0.284-0.051,0.431-0.076h-1.86l0.247-2.351
				H427.754z M425.95,252.44h-8.708l-0.024,0.241h8.714L425.95,252.44z M425.901,253.06h-8.722l-0.024,0.243h8.727L425.901,253.06z
				 M425.852,253.685h-8.734l-0.025,0.245h8.74L425.852,253.685z M420.974,250.465h-2.687l-0.026,0.269h2.688L420.974,250.465z
				 M420.913,251.117h-2.69l-0.026,0.268h2.692L420.913,251.117z M425.188,250.465h-2.605l-0.023,0.269h2.607L425.188,250.465z
				 M425.136,251.117h-2.61l-0.023,0.268h2.611L425.136,251.117z"/>
			<path fill="#80AD05" d="M440.331,249.356l-0.024,0.54h-2.287l-0.069,1.377h2.225l-0.024,0.542h-2.228l-0.075,1.482
				c0.914-0.084,1.832-0.181,2.715-0.291l-0.022,0.515c-1.291,0.18-3.317,0.413-6.062,0.703c-0.147,0.078-0.262,0.11-0.39,0.11
				c-0.136,0-0.218-0.032-0.214-0.103l-0.368-0.601c0.913-0.051,1.78-0.109,2.634-0.18l0.089-1.636h-2.3l0.032-0.542h2.298
				l0.074-1.377h-2.364l0.033-0.54H440.331z M450.117,249.115l-0.08,3.835h-1.997l-0.034,1.332c-0.005,0.167,0.195,0.24,0.607,0.24
				h0.457c0.202,0,0.341-0.034,0.438-0.117c0.076-0.059,0.193-0.29,0.294-0.69l1.692,0.157c-0.16,0.494-0.388,0.805-0.704,0.952
				c-0.343,0.156-0.756,0.24-1.255,0.24h-1.327c-1.293,0-1.919-0.167-1.909-0.484l0.049-1.629h-1.599
				c-0.112,0.301-0.253,0.534-0.438,0.714c-0.209,0.207-0.429,0.388-0.715,0.554c-0.325,0.193-0.742,0.36-1.263,0.513
				c-0.503,0.139-1.142,0.285-1.946,0.442l-1.283-0.491c0.739-0.104,1.313-0.194,1.72-0.29c0.517-0.111,0.953-0.244,1.325-0.407
				c0.301-0.148,0.563-0.321,0.764-0.522c0.148-0.139,0.27-0.302,0.374-0.513h-2.021l0.162-3.835H450.117z M448.422,249.655h-5.338
				l-0.023,0.594h5.347L448.422,249.655z M448.395,250.764h-5.354l-0.021,0.566h5.36L448.395,250.764z M448.367,251.842H443
				l-0.021,0.568h5.374L448.367,251.842z"/>
			<path fill="#80AD05" d="M460.551,249.301c0.176,0.028,0.277,0.062,0.277,0.111c0,0.025-0.219,0.063-0.606,0.103
				c-0.231,0.304-0.507,0.587-0.778,0.839h4.152l-0.018-1.462l1.604,0.05c0.292,0.013,0.449,0.041,0.45,0.091
				c0,0.034-0.12,0.09-0.317,0.158l0.019,1.164h5.907l0.017,0.568h-5.914l0.022,1.357h5.165l0.016,0.568h-5.172l0.023,1.409h6.968
				l0.019,0.568h-16.934l0.004-0.568h8.188l-0.017-1.409h-5.403v-0.568h5.396l-0.017-1.357h-4.87
				c-0.039,0.037-0.078,0.063-0.111,0.089c-0.589,0.397-1.262,0.759-2.014,1.074l-1.771-0.4c0.955-0.36,1.702-0.734,2.253-1.118
				c0.57-0.367,1.101-0.856,1.604-1.482L460.551,249.301z"/>
			<path fill="#80AD05" d="M480.195,251.544l-1.112,0.439c-0.969-0.278-2.016-0.535-3.126-0.761l1.221-0.432
				C478.369,251.025,479.362,251.281,480.195,251.544 M481.207,253.007c-1.014,0.685-2.086,1.321-3.229,1.918
				c0.007,0.145-0.125,0.221-0.363,0.221l-1.511-0.434c1.479-0.638,2.81-1.358,3.99-2.164L481.207,253.007z M480.856,249.572
				l-1.108,0.434c-0.919-0.226-1.882-0.434-2.941-0.619l1.2-0.438C479.115,249.141,480.06,249.348,480.856,249.572 M491.206,249.542
				c-0.976,0.076-1.944,0.142-2.93,0.194l0.078,1.082h5.229l0.049,0.567h-5.237l0.065,0.893h4.005l0.229,2.785h-1.785l-0.031-0.407
				h-6.34l0.027,0.438h-1.782l-0.164-2.815h3.995l-0.061-0.893h-5.6l-0.031-0.567h5.592l-0.066-0.985
				c-1.227,0.063-2.474,0.114-3.733,0.146l-1.181-0.542c1.994-0.025,3.71-0.075,5.106-0.151c1.276-0.046,2.845-0.151,4.72-0.312
				l1.224,0.418c0.079,0.026,0.121,0.058,0.124,0.096c0.004,0.04-0.075,0.053-0.23,0.053l-0.459-0.034
				C491.789,249.508,491.514,249.522,491.206,249.542 M490.737,252.846h-6.312l0.078,1.243h6.33L490.737,252.846z"/>
			<path fill="#80AD05" d="M499.164,251.301c0.074,0.75,0.044,1.421-0.08,2.016c-0.068,0.444-0.278,0.998-0.566,1.661l-1.493-0.238
				c0.304-0.582,0.493-1.095,0.568-1.547c0.137-0.644,0.178-1.274,0.119-1.892l-0.208-2.186h8.089l0.056,0.483h-2.678l0.732,0.131
				c0.187,0.031,0.279,0.056,0.282,0.083c0.007,0.057-0.095,0.097-0.297,0.141l-0.623,0.354h2.664l0.282,2.457h-2.323l0.192,1.758
				c0.022,0.21-0.119,0.371-0.428,0.467c-0.264,0.104-0.915,0.157-1.994,0.157l-0.659-0.541h0.988c0.337,0,0.512-0.052,0.539-0.164
				l-0.177-1.677h-2.232l-0.246-2.457h1.764l0.943-0.708h-3.383L499.164,251.301z M501.663,253.407
				c0.116,0.02,0.182,0.044,0.184,0.064c0.003,0.027-0.057,0.057-0.151,0.077c-0.377,0.38-0.775,0.697-1.207,0.948l-1.503-0.241
				c0.583-0.291,1.032-0.645,1.371-1.062L501.663,253.407z M504.313,250.764h-3.139l0.056,0.537h3.143L504.313,250.764z
				 M504.425,251.759h-3.146l0.057,0.548h3.15L504.425,251.759z M506.967,254.36l-1.605,0.136c-0.212-0.31-0.674-0.678-1.373-1.109
				l1.316-0.136C506.072,253.651,506.629,254.018,506.967,254.36 M510.156,254.192c0.116,0.033,0.203,0.063,0.207,0.09
				c0.005,0.041-0.075,0.071-0.223,0.078c-0.594,0.232-1.432,0.497-2.551,0.787l-1.432-0.38c1.013-0.199,1.969-0.463,2.841-0.812
				L510.156,254.192z M514.288,249.141l0.07,0.514h-3.368l-0.443,0.512h3.276l0.503,3.734h-7.116l-0.438-3.734h2.139l0.44-0.512
				h-3.247l-0.059-0.514H514.288z M512.287,250.681h-3.845l0.065,0.541h3.85L512.287,250.681z M512.426,251.737h-3.855l0.069,0.569
				h3.86L512.426,251.737z M512.566,252.819h-3.864l0.068,0.568h3.87L512.566,252.819z M515.497,254.656l-1.238,0.49
				c-1.025-0.25-1.879-0.541-2.595-0.865l0.89-0.327C513.328,254.246,514.308,254.481,515.497,254.656"/>
			<path fill="#80AD05" d="M533.094,249.162l0.376,2.061h-5.383l0.06,0.35h7.769l0.097,0.513h-17.537l-0.074-0.513h7.977
				l-0.058-0.35h-5.521l-0.312-2.061H533.094z M524.076,254.268c0.121,0.035,0.208,0.078,0.215,0.117
				c0.006,0.041-0.167,0.083-0.514,0.111c-0.539,0.124-1.019,0.22-1.444,0.291c-0.481,0.084-1.186,0.166-2.1,0.25l-1.321-0.431
				c0.735-0.065,1.293-0.13,1.724-0.186c0.349-0.046,0.674-0.104,0.953-0.157c0.362-0.07,0.702-0.153,1.021-0.25L524.076,254.268z
				 M533.598,252.383l0.256,1.405h-5.165l0.12,0.708c0.039,0.23-0.155,0.397-0.576,0.506c-0.355,0.111-1.262,0.171-2.728,0.171
				l-0.791-0.595h1.528c0.536,0,0.818-0.064,0.836-0.194l-0.099-0.597h-5.554l-0.214-1.405H533.598z M531.502,249.655h-9.259
				l0.051,0.324h9.267L531.502,249.655z M531.637,250.411h-9.275l0.05,0.322h9.283L531.637,250.411z M531.996,252.877h-9.015
				l0.066,0.426h9.024L531.996,252.877z M535.856,254.636l-1.231,0.4c-1.421-0.265-2.804-0.469-4.138-0.625l1.163-0.399
				C533.099,254.186,534.508,254.393,535.856,254.636"/>
			<polygon fill="#80AD05" points="547.229,249.869 548.833,249.869 549.863,254.54 548.24,254.54 			"/>
			<path fill="#80AD05" d="M570.93,254.066c-0.808,0.314-2.061,0.467-3.529,0.467h-4.949l-1.24-4.941h4.891
				c1.451,0,2.771,0.153,3.739,0.463c1.651,0.534,1.751,1.255,1.948,1.969C571.986,252.743,572.303,253.531,570.93,254.066
				 M568.533,250.597c-0.648-0.226-1.465-0.33-2.463-0.33h-2.574l0.92,3.591h2.596c1.008,0,1.775-0.104,2.307-0.333
				c0.655-0.284,0.529-0.818,0.346-1.5C569.48,251.348,569.338,250.884,568.533,250.597"/>
			<path fill="#80AD05" d="M576.454,252.978c0.172,0.603,1.194,0.983,2.839,0.983c1.127,0,1.688-0.11,2.324-0.36l1.414,0.425
				c-0.918,0.359-1.837,0.548-3.602,0.548c-2.52,0-4.646-0.464-5.023-1.804c-0.32-1.138,1.161-1.796,3.713-1.796
				c2.677,0,4.446,0.695,4.748,1.693l0.094,0.311H576.454z M580.395,252.006c-0.39-0.264-1.154-0.445-2.104-0.445
				c-0.939,0-1.617,0.181-1.855,0.445c-0.151,0.161-0.161,0.263-0.122,0.481h4.496C580.727,252.269,580.632,252.167,580.395,252.006
				"/>
			<path fill="#80AD05" d="M589.359,254.574c-1.644,0-3.064-0.098-4.377-0.508l1.188-0.465c0.896,0.29,2.005,0.367,2.997,0.367
				c1.232,0,2.146-0.149,2.04-0.483c-0.076-0.236-0.5-0.388-1.476-0.417l-1.616-0.047c-1.896-0.058-3.074-0.354-3.265-0.972
				c-0.211-0.688,1.347-1.075,3.43-1.075c1.493,0,2.809,0.111,3.82,0.394l-1.106,0.452c-0.696-0.188-1.602-0.258-2.549-0.258
				c-1.198,0-1.75,0.188-1.668,0.451c0.065,0.21,0.427,0.368,1.507,0.404l1.596,0.046c1.889,0.057,3.096,0.371,3.299,0.992
				C593.42,254.192,591.754,254.574,589.359,254.574"/>
			<path fill="#80AD05" d="M594.275,249.572h2.115l0.252,0.748h-2.118L594.275,249.572z M594.819,251.014h1.998l1.186,3.519h-2.015
				L594.819,251.014z"/>
			<path fill="#80AD05" d="M605.107,255.995c-1.537,0-2.554-0.126-3.725-0.463l1.143-0.453c0.698,0.208,1.289,0.311,2.282,0.311
				c1.716,0,2.213-0.424,2.044-0.894l-0.161-0.451c-0.618,0.308-1.421,0.403-2.45,0.403c-1.014,0-1.884-0.12-2.502-0.313
				c-1.092-0.342-1.422-0.833-1.627-1.429c-0.205-0.598-0.212-1.087,0.638-1.428c0.479-0.194,1.283-0.305,2.283-0.305
				c1.067,0,1.908,0.098,2.771,0.414l-0.134-0.374h1.941l1.269,3.495C609.192,255.371,607.793,255.995,605.107,255.995
				 M603.789,251.605c-1.811,0-1.859,0.547-1.666,1.102c0.193,0.554,0.625,1.104,2.445,1.104c1.824,0,1.841-0.55,1.643-1.104
				C606.012,252.152,605.604,251.605,603.789,251.605"/>
			<path fill="#80AD05" d="M618.229,254.533l-0.826-2.144c-0.213-0.55-1.193-0.784-2.307-0.784c-1.134,0-1.985,0.241-1.781,0.784
				l0.806,2.144H612.1l-1.305-3.519h1.964l0.133,0.353c0.588-0.263,1.503-0.394,2.508-0.394c1.021,0,1.905,0.116,2.58,0.319
				c0.87,0.262,1.234,0.597,1.388,0.991l0.879,2.25H618.229z"/>
			<path fill="#80AD05" d="M626.023,249.572h2.11l0.31,0.748h-2.113L626.023,249.572z M626.669,251.014h2.009l1.458,3.519h-2.025
				L626.669,251.014z"/>
			<path fill="#80AD05" d="M639.475,254.533l-0.938-2.144c-0.24-0.55-1.228-0.784-2.349-0.784c-1.129,0-1.968,0.241-1.736,0.784
				l0.916,2.144h-2.022l-1.486-3.519h1.964l0.151,0.353c0.574-0.263,1.487-0.394,2.487-0.394c1.021,0,1.917,0.116,2.597,0.319
				c0.889,0.262,1.272,0.597,1.446,0.991l0.995,2.25H639.475z"/>
			<polygon fill="#80AD05" points="659.909,254.533 658.302,251.229 656.228,253.638 654.645,253.638 650.194,251.229 
				651.736,254.533 649.602,254.533 647.32,249.592 649.431,249.592 654.977,252.667 657.506,249.592 659.62,249.592 
				662.05,254.533 			"/>
			<path fill="#80AD05" d="M672.008,254.159c-0.54,0.234-1.438,0.415-2.805,0.415s-2.434-0.181-3.199-0.415
				c-1.131-0.348-1.59-0.792-1.889-1.389c-0.294-0.591-0.279-1.035,0.499-1.382c0.526-0.233,1.401-0.414,2.757-0.414
				c1.354,0,2.43,0.181,3.206,0.414c1.111,0.347,1.583,0.791,1.89,1.382C672.777,253.367,672.765,253.811,672.008,254.159
				 M669.269,251.805c-0.442-0.133-0.99-0.2-1.577-0.2c-0.597,0-1.051,0.067-1.352,0.2c-0.5,0.213-0.398,0.584-0.207,0.965
				c0.191,0.381,0.463,0.748,1.183,0.965c0.437,0.131,0.965,0.206,1.565,0.206c0.59,0,1.068-0.075,1.377-0.206
				c0.501-0.217,0.393-0.584,0.197-0.965C670.26,252.389,669.988,252.018,669.269,251.805"/>
			<path fill="#80AD05" d="M679.111,254.533c-1.885,0-3.002-0.474-3.268-0.979l-1.019-1.935h-1.145l-0.284-0.542h1.143l-0.561-1.067
				h1.998l0.566,1.067h1.923l0.291,0.542h-1.926l1.009,1.898c0.137,0.257,0.573,0.411,1.327,0.411h0.827l0.324,0.605H679.111z"/>
			<path fill="#80AD05" d="M680.146,249.572h2.112l0.409,0.748h-2.116L680.146,249.572z M680.982,251.014h2.008l1.926,3.519h-2.025
				L680.982,251.014z"/>
			<path fill="#80AD05" d="M694.636,254.159c-0.521,0.234-1.401,0.415-2.779,0.415c-1.369,0-2.438-0.181-3.224-0.415
				c-1.135-0.348-1.631-0.792-1.963-1.389c-0.326-0.591-0.323-1.035,0.421-1.382c0.521-0.233,1.378-0.414,2.736-0.414
				c1.365,0,2.442,0.181,3.227,0.414c1.138,0.347,1.634,0.791,1.974,1.382C695.369,253.367,695.382,253.811,694.636,254.159
				 M691.768,251.805c-0.438-0.133-0.993-0.2-1.584-0.2c-0.59,0-1.048,0.067-1.348,0.2c-0.488,0.213-0.361,0.584-0.148,0.965
				c0.213,0.381,0.498,0.748,1.23,0.965c0.449,0.131,0.989,0.206,1.582,0.206c0.595,0,1.071-0.075,1.363-0.206
				c0.499-0.217,0.363-0.584,0.146-0.965C692.793,252.389,692.51,252.018,691.768,251.805"/>
			<path fill="#80AD05" d="M704.894,254.533l-1.276-2.144c-0.328-0.55-1.352-0.784-2.468-0.784c-1.134,0-1.93,0.241-1.611,0.784
				l1.255,2.144h-2.028l-2.042-3.519h1.964l0.206,0.353c0.541-0.263,1.434-0.394,2.428-0.394c1.024,0,1.938,0.116,2.65,0.319
				c0.924,0.262,1.358,0.597,1.596,0.991l1.35,2.25H704.894z"/>
			<polygon fill="#80AD05" points="714.764,249.869 716.373,249.869 719.316,254.54 717.688,254.54 			"/>
			<path fill="#80AD05" d="M107.582,232.84H90.579l0.766-0.816h16.968l0.901-1.005l-18.145,0.348l0.358-1.047l9.637-0.155
				l5.438-1.569h-10.12l0.762-0.815h33.255l-0.691,0.815h-7.269c3.48,0.968,6.231,1.839,8.211,2.597l-2.625,0.871
				c-1.086-0.448-2.329-0.891-3.866-1.356l-11.865,0.251l-0.945,1.064h16.446l-0.69,0.816h-16.48l-1.017,1.145h21.685l-0.677,0.813
				H83.779l0.774-0.813h22.003L107.582,232.84z M92.836,226.153c0.126-0.133,0.332-0.193,0.696-0.193h44.652
				c0.31,0,0.38,0.097,0.191,0.271c-1.126,1.104-2.612,2.208-4.441,3.333l-2.395-0.428l3.701-2.245
				c0.114-0.078,0.051-0.118-0.21-0.118h-39.58c-0.161,0-0.294,0.04-0.348,0.097l-2.41,2.559h-2.969L92.836,226.153z
				 M119.872,219.351h-19.419l0.77-0.813H120.6l0.87-0.971h2.922l-0.861,0.971h19.06l-0.68,0.813h-19.102l-1.033,1.164h16.37
				l-0.688,0.815h-36.282l0.767-0.815h16.888L119.872,219.351z M99.514,224.97c-0.258,0-0.31-0.056-0.218-0.154l2.268-2.422
				c0.09-0.096,0.232-0.137,0.487-0.137h33.142c0.253,0,0.372,0.042,0.291,0.137l-2.052,2.422c-0.084,0.098-0.286,0.154-0.592,0.154
				H99.514z M103.994,223.071l-0.137,0.041l-0.937,1.008l0.066,0.036h27.821c0.15,0,0.226-0.018,0.276-0.077l0.827-0.967
				l-0.175-0.041H103.994z M119.952,228.596h-9.556l-4.834,1.494l15.502-0.272l-2.452-0.701L119.952,228.596z"/>
			<path fill="#80AD05" d="M170.915,222.842h-14.576l0.874-1.104h14.534l3.082-4.091h2.923l-13.166,17.656h-3.061l3.492-4.635
				c-5.624,1.202-10.912,2.212-15.704,2.966l-1.049-0.928c5.881-0.952,11.892-2.096,17.772-3.391L170.915,222.842z M200.385,219.971
				l1.351,0.854c-4.735,1.412-10.604,2.868-17.748,4.401l-5.595,7.827c-0.11,0.154-0.061,0.311,0.151,0.447
				c0.233,0.114,0.618,0.174,1.075,0.194h10.253c0.314,0,0.662-0.04,1.042-0.139c0.431-0.096,0.659-0.269,0.871-0.502l2.557-3.294
				l2.934,0.116c-1.933,2.655-3.421,4.166-4.32,4.476c-0.84,0.311-1.674,0.448-2.468,0.448h-13.343
				c-0.779-0.02-1.432-0.137-1.882-0.39c-0.41-0.23-0.545-0.484-0.364-0.734l11.539-15.97h2.927l-4.391,6.142
				C191.413,222.415,196.552,221.115,200.385,219.971"/>
			<path fill="#80AD05" d="M217.02,230.979l-1.032,1.667h-2.99l7.706-12.287c0.146-0.231,0.54-0.368,1.196-0.368h18.63l1.316-2.288
				h2.924l-1.299,2.288h18.99c0.709,0,0.998,0.136,0.879,0.368l-6.326,12.287h-3.044l0.87-1.667h-17.607l-2.454,4.323h-3.061
				l2.488-4.323H217.02z M239.895,221.095h-16.343c-0.308,0-0.492,0.058-0.504,0.154l-2.318,3.742h16.923L239.895,221.095z
				 M237.016,226.097h-16.971l-2.329,3.758h17.137L237.016,226.097z M240.633,224.991h17.337l1.955-3.742
				c0.051-0.097-0.073-0.154-0.38-0.154h-16.701L240.633,224.991z M237.871,229.855h17.557l1.964-3.758h-17.388L237.871,229.855z"/>
			<path fill="#80AD05" d="M275.772,231.58l-0.729-1.008l7.34-0.892l0.237-0.523l1.178-2.597h-7.022l0.531-1.125h9.628
				c1.938-1.471,3.519-2.828,4.656-4.03l2.618,0.312l-4.179,3.718h4.007l-0.482,1.125h-6.811l-1.158,2.597l-0.043,0.097l6.202-0.988
				l0.863,1.009c-1.367,0.27-3.54,0.6-6.554,1.045l-1.218,0.176c-1.771,2.073-4.555,3.701-8.247,4.863l-2.223-0.677
				c3.176-0.815,5.547-2.094,7.092-3.763L275.772,231.58z M287.744,217.858h2.933l-0.614,1.377h6.232l-0.475,1.105h-15.349
				l0.519-1.105h6.13L287.744,217.858z M284.384,221.462c0.441,1.264,0.657,2.48,0.668,3.586l-3.014,0.178
				c0.096-1.204-0.128-2.384-0.63-3.509L284.384,221.462z M296.02,221.772l0.471-1.104h3.508l1.045-2.5h2.933l-1.025,2.5h5.797
				l0.597,0.04c0.221,0.078,0.352,0.271,0.23,0.58l-3.119,7.288c-1.506,3.566-3.997,5.736-7.194,6.493
				c-1.394,0.31-3.841,0.346-7.104,0.076l0.176-1.298c2.776,0.291,4.645,0.351,5.582,0.118c1.003-0.254,1.951-0.794,2.898-1.569
				c1.002-0.795,1.947-2.113,2.859-3.993c1.896-4.225,2.771-6.414,2.621-6.552l-0.323-0.078h-3.525
				c-1.278,2.867-3.627,5.815-6.91,8.82c-2.325,1.803-5.043,3.372-8.025,4.67l-2.485-0.58c6.84-2.562,11.738-6.881,14.461-12.91
				H296.02z M317.73,217.858h2.928l-0.533,1.456h6.027l-0.387,1.104h-15.347l0.432-1.104h6.336L317.73,217.858z M306.697,231.019
				l0.438-1.124h6.305l1.223-3.274h-6.454l0.431-1.104h8.902c1.414-1.319,2.869-2.79,4.168-4.401l2.701,0.271
				c-1.043,1.356-2.421,2.771-3.881,4.129h3.244l-0.387,1.104h-5.725l-1.197,3.274h5.566l-0.395,1.124h-5.583l-1.536,4.203h-3.067
				l1.569-4.203H306.697z M314.304,221.308c0.613,1.744,1.058,3.024,1.068,3.82l-2.948,0.174c-0.125-1.028-0.466-2.266-1.078-3.721
				L314.304,221.308z"/>
			<path fill="#80AD05" d="M335.388,230.516c1.554-0.961,4.264-1.836,8.13-2.62l5.733-1.168c2.569-0.529,4.367-0.979,5.442-1.348
				c1.682-0.585,2.625-1.253,2.823-2.004c0.233-0.88-0.272-1.579-1.521-2.092c-1.245-0.518-3.01-0.775-5.31-0.775
				c-3.406,0-5.906,0.491-7.517,1.476c-0.861,0.527-1.478,1.258-1.837,2.196h-5.101c0.478-1.313,1.457-2.384,2.933-3.211
				c2.607-1.459,6.612-2.189,12.039-2.189c4.505,0,7.675,0.466,9.518,1.401c1.845,0.931,2.634,1.968,2.347,3.115
				c-0.302,1.205-1.69,2.24-4.169,3.094c-1.431,0.497-3.944,1.101-7.531,1.81l-4.087,0.797c-1.956,0.381-3.516,0.742-4.672,1.085
				c-2.066,0.611-3.473,1.289-4.186,2.034h22.244l-0.448,1.788h-28.095C332.734,232.604,333.824,231.478,335.388,230.516"/>
			<path fill="#80AD05" d="M392.374,221.241c1.558,1.244,2.16,2.946,1.799,5.105c-0.343,2.05-1.44,3.743-3.318,5.085
				c-2.727,1.922-6.837,2.883-12.288,2.883c-4.917,0-8.403-0.788-10.431-2.36c-1.689-1.309-2.255-3.071-1.727-5.281
				c0.409-1.713,1.349-3.182,2.799-4.41c2.702-2.286,6.878-3.432,12.537-3.432C386.841,218.832,390.378,219.636,392.374,221.241
				 M385.485,231.284c1.724-0.872,2.81-2.49,3.241-4.864c0.311-1.713,0.003-3.121-0.9-4.226c-0.9-1.104-2.948-1.655-6.131-1.655
				c-2.934,0-5.191,0.523-6.783,1.571c-1.598,1.049-2.619,2.593-3.079,4.636c-0.346,1.537-0.182,2.771,0.502,3.707
				c1.046,1.421,3.231,2.135,6.538,2.135C381.541,232.588,383.743,232.151,385.485,231.284"/>
			<path fill="#80AD05" d="M402.569,223.231l0.213-1.452c3.616-0.134,6.157-0.358,7.61-0.667c1.463-0.313,2.61-1.052,3.443-2.216
				h3.902l-1.625,15.007h-5.482l1.305-10.672H402.569z"/>
			<path fill="#80AD05" d="M454.77,220.081c1.729,0.871,2.598,1.773,2.595,2.697h-4.941c-0.284-0.594-0.745-1.061-1.388-1.398
				c-1.184-0.632-2.991-0.948-5.418-0.948c-2.774,0-5.009,0.49-6.704,1.469c-1.696,0.977-2.696,2.38-2.988,4.206
				c1.192-0.641,2.673-1.118,4.438-1.431c1.612-0.281,3.403-0.421,5.373-0.421c3.345,0,6.257,0.404,8.74,1.207
				c2.495,0.808,3.745,2.011,3.743,3.612c-0.002,1.37-1.211,2.578-3.619,3.636c-2.434,1.055-5.896,1.582-10.376,1.582
				c-3.835,0-7.114-0.532-9.833-1.602c-2.689-1.072-3.945-2.871-3.762-5.404c0.136-1.872,0.854-3.46,2.151-4.768
				c2.467-2.5,6.729-3.746,12.801-3.746C449.988,218.771,453.045,219.207,454.77,220.081 M450.814,231.604
				c1.342-0.672,2.021-1.463,2.035-2.374c0.012-0.771-0.562-1.505-1.738-2.202c-1.157-0.702-3.286-1.049-6.383-1.049
				c-2.168,0-4.076,0.271-5.742,0.812c-1.668,0.537-2.535,1.353-2.598,2.439c-0.055,0.955,0.648,1.756,2.123,2.403
				c1.475,0.651,3.549,0.975,6.229,0.975C447.434,232.608,449.456,232.275,450.814,231.604"/>
			<path fill="#80AD05" d="M475.19,234.253l-0.448-10.658h-5.639l-0.03-1.104h5.623l-0.201-4.788h2.873l0.238,4.788h11.859
				l-0.372-4.615h2.877l0.408,4.615h13.437l-0.57-4.615h2.925l0.606,4.615h6.078l0.163,1.104h-6.097l0.833,6.336
				c0.049,0.371-0.448,0.564-1.438,0.564h-16.794c-0.94,0-1.426-0.193-1.456-0.564l-0.512-6.336h-11.894l0.49,9.883
				c0.007,0.135,0.172,0.215,0.537,0.215h37.242l0.161,1.104h-39.455C475.639,234.798,475.205,234.621,475.19,234.253
				 M505.952,223.596h-13.476l0.491,5.562c0.012,0.137,0.166,0.214,0.536,0.214h12.588c0.365,0,0.564-0.077,0.547-0.214
				L505.952,223.596z"/>
			<path fill="#80AD05" d="M557.491,225.729h-6.025c-1.283,0.678-2.774,1.356-4.33,2.011l0.378,1.65
				c0.128,0.562,0.093,1.105-0.105,1.609c-0.586,1.802-3.22,3.215-7.801,4.242l-2.338-0.852c1.426-0.253,2.578-0.544,3.557-0.912
				c2.827-1.007,4.043-2.382,3.666-4.088l-0.146-0.662l-0.777,0.256c-3.098,0.85-6.539,1.588-10.392,2.148l-1.703-0.988
				c6.877-1.028,12.324-2.5,16.233-4.415h-13.463c-0.251,0-0.416-0.061-0.439-0.179l-1.309-6.701
				c-0.02-0.096,0.119-0.157,0.365-0.157h39.014c0.309,0,0.477,0.061,0.506,0.157l2.017,6.701c0.035,0.118-0.1,0.179-0.413,0.179
				h-12.627c4.491,1.684,10.568,3.178,17.953,4.379l-1.904,0.928c-3.577-0.601-7.012-1.335-10.338-2.211l-0.447-0.113l1.79,6.432
				h-3.004l-1.952-7.209h0.465C561.66,227.238,559.505,226.503,557.491,225.729 M551.309,219.817H535.73l-0.094,0.037l0.336,1.648
				h15.748L551.309,219.817z M551.991,222.607h-15.795l0.394,1.936l0.114,0.06h15.775L551.991,222.607z M554.674,221.503h15.548
				l-0.483-1.648c-0.011-0.037-0.064-0.056-0.215-0.037h-15.274L554.674,221.503z M555.457,224.604h15.467
				c0.158,0,0.195-0.04,0.178-0.096l-0.557-1.9h-15.592L555.457,224.604z"/>
			<path fill="#80AD05" d="M610.363,222.084h-19.195l-0.392-1.125h19.139L610.363,222.084z M600.65,235.221h-3.01l-2.315-6.568
				c-0.081-0.229,0.186-0.348,0.754-0.348h14.06c0.627,0,1.036,0.118,1.134,0.368l1.808,4.592c0.107,0.271-0.206,0.408-0.889,0.408
				h-12.099L600.65,235.221z M608.758,224.507h-14.54l-0.397-1.125h14.497L608.758,224.507z M609.706,226.93h-14.632l-0.397-1.125
				h14.589L609.706,226.93z M607.039,219.583H592.69l-0.392-1.106h14.307L607.039,219.583z M609.178,232.549
				c0.416,0,0.599-0.078,0.539-0.231l-1.047-2.713c-0.046-0.119-0.228-0.177-0.586-0.177h-8.994c-0.369,0-0.505,0.058-0.455,0.196
				l1.053,2.925H609.178z M616.364,235.166l-2.279-0.951c3.909-0.484,7.49-1.239,10.653-2.207c-3.729-1.262-6.992-2.617-9.599-4.054
				l2.419-0.541c3.003,1.606,6.148,2.906,9.236,3.896c3.047-1.377,5.062-2.948,5.928-4.689h-18.648l-0.445-1.104h20.251l1.905,0.56
				c-0.418,2.383-2.524,4.38-6.42,5.969c3.418,0.872,8.052,1.589,13.873,2.113l-1.052,1.028c-6.691-0.681-11.687-1.491-14.868-2.403
				C622.955,234.138,619.278,234.932,616.364,235.166 M616.82,219.583l0.373,0.891c0.785,1.88-0.513,3.315-3.817,4.263l-2.561-0.871
				l0.646-0.193c2.407-0.755,3.29-1.956,2.639-3.545l-0.645-1.573l0.084-0.173l0.479-0.057h14.006l0.529,0.057l0.275,0.173
				l1.87,4.15l0.382,0.387c0.199,0.097,0.625,0.137,1.195,0.153h1.698l0.768-0.096c0.197-0.017,0.224-0.174,0.149-0.444
				l-0.328-0.953l2.926,0.158c0.373,1.239,0.296,1.956-0.089,2.112c-0.515,0.215-1.18,0.329-1.899,0.329h-4.007
				c-0.88-0.018-1.64-0.114-2.29-0.311c-0.711-0.21-1.139-0.483-1.226-0.795l-1.612-3.641c-0.103-0.117-0.232-0.174-0.539-0.174
				h-8.668C616.904,219.43,616.78,219.487,616.82,219.583"/>
			<path fill="#80AD05" d="M676.128,221.931h-23.569l-0.563-1.106h23.501L676.128,221.931z M664.229,235.221h-3.01l-3.177-6.183
				c-0.117-0.228,0.085-0.345,0.71-0.345h17.705c0.674,0,1.101,0.117,1.229,0.345l2.43,4.304c0.152,0.271-0.135,0.408-0.872,0.408
				h-15.782L664.229,235.221z M672.001,219.507H653.5l-0.569-1.105h18.447L672.001,219.507z M674.705,224.66h-18.35l-0.579-1.124
				h18.296L674.705,224.66z M676.071,227.086h-18.466l-0.581-1.126h18.413L676.071,227.086z M676.039,232.624
				c0.426,0,0.594-0.075,0.508-0.229l-1.348-2.423c-0.065-0.116-0.244-0.154-0.607-0.154H661.93c-0.357,0-0.499,0.038-0.429,0.174
				l1.373,2.633H676.039z M677.129,224.139l-0.641-1.124h10.436l-3.208-5.368h2.883l3.249,5.368h10.08l0.709,1.124h-10.109
				l6.801,11.24h-3.019l-6.715-11.24H677.129z"/>
			<path fill="#80AD05" d="M739.438,234.274c-4.874-0.64-9.195-1.939-12.877-3.858c0.361,1.821-0.332,3.334-1.9,4.516
				c-0.885-0.213-2.008-0.388-3.279-0.56c2.805-1.997,3.67-4.033,2.475-6.086l2.985,0.116c0.243,0.583,0.892,1.142,1.914,1.707
				c15.224-1.686,22.851-4.689,22.659-9.014h-36.66l-0.743-1.104h19.245l-1.545-2.133h3.072l1.563,2.133h15.538l2.648,0.601h-0.046
				l-0.016-0.02c0.264,1.2,0.092,2.366-0.585,3.468l-0.158,0.197c-2.573,3.042-10.165,5.387-22.696,6.977l0.826,0.289
				c1.892,0.68,3.947,1.143,6.123,1.473c2.748,0.311,5.594,0.463,8.717,0.424h23.018l0.483,1.338h-22.887
				C744.828,234.738,742.193,234.601,739.438,234.274"/>
			<path fill="#80AD05" d="M794.148,235.302h-3.06l-6.144-7.288l-2.5,0.796l-2.87-0.835c3.704-1.142,6.818-2.343,9.108-3.625h-11.45
				l-0.918-1.105h10.591l-2.029-2.363l-7.721,0l-0.943-1.125h7.698l-1.631-1.899h2.941l1.646,1.899h7.603l0.851-1.219l3.012,0.601
				c-1.289,1.569-2.687,2.924-4.145,4.105h8.395l0.994,1.105h-10.992l-4.684,2.444h15.285c0.731,0,1.21,0.136,1.435,0.388
				l7.274,8.121h-3.055l-1.482-1.668h-14.628L794.148,235.302z M803.711,229.527l-1.292-1.455c-0.087-0.097-0.298-0.154-0.611-0.154
				h-13.521c-0.314,0-0.418,0.057-0.289,0.154l1.237,1.455H803.711z M791.775,232.513h14.587l-1.655-1.864H790.19L791.775,232.513z
				 M793.479,220.881l-5.638,0l2.048,2.363h0.713C791.701,222.511,792.64,221.717,793.479,220.881 M804.849,219.507
				c-0.254,0-0.302,0.057-0.214,0.153l14.201,15.545h-3.066l-15.063-16.63c-0.106-0.117-0.003-0.174,0.355-0.174h14.454l2.443,0.601
				l0.016,6.024c0.007,0.177,0.607,0.488,1.725,0.855c4.961,1.589,8.298,3.197,9.913,4.785c1.481,1.438,1.345,2.405-0.259,2.929
				c-1.428,0.443-4.32,0.502-8.625,0.172l-1.352-1.24c3.781,0.351,6.207,0.407,7.258,0.137c1.386-0.368,1.154-1.34-0.852-2.908
				c-1.369-1.009-4.839-2.384-10.233-4.126c-0.433-0.136-0.671-0.33-0.741-0.524l0.078-5.601H804.849z"/>
			<polygon fill="#80AD05" points="319.77,208.549 635.295,208.549 628.666,194.754 324.981,194.754 			"/>
			<polygon fill="#80AD05" points="377.214,187.851 625.342,187.85 618.713,174.052 380.453,174.052 			"/>
			<polygon fill="#80AD05" points="428.743,167.149 615.396,167.149 608.768,153.354 430.008,153.354 			"/>
			<polygon fill="#80AD05" points="474.353,146.451 605.357,146.451 598.73,132.649 473.644,132.649 			"/>
			<polygon fill="#80AD05" points="514.022,125.751 595.504,125.751 588.875,111.953 511.341,111.954 			"/>
			<polygon fill="#80AD05" points="547.788,105.052 585.563,105.052 578.934,91.254 543.132,91.254 			"/>
			<polygon fill-rule="evenodd" clip-rule="evenodd" fill="#80AD05" points="371.912,70.554 350.021,70.554 291.252,194.752 
				319.77,208.549 324.983,194.749 			"/>
			<polygon fill-rule="evenodd" clip-rule="evenodd" fill="#80AD05" points="404.764,70.554 382.854,70.554 348.681,174.049 
				377.227,187.851 380.467,174.049 			"/>
			<polygon fill-rule="evenodd" clip-rule="evenodd" fill="#80AD05" points="437.604,70.554 415.699,70.554 400.204,153.356 
				428.743,167.148 430.008,153.356 			"/>
			<polygon fill-rule="evenodd" clip-rule="evenodd" fill="#80AD05" points="448.56,70.554 445.826,132.651 445.815,132.651 
				474.343,146.451 473.635,132.651 470.448,70.554 			"/>
			<polygon fill-rule="evenodd" clip-rule="evenodd" fill="#80AD05" points="511.341,111.954 503.293,70.553 481.394,70.553 
				485.492,111.954 514.022,125.751 			"/>
			<polygon fill-rule="evenodd" clip-rule="evenodd" fill="#80AD05" points="543.117,91.244 543.117,91.244 536.138,70.558 
				514.237,70.558 519.244,91.244 547.773,105.044 			"/>
			<polygon fill-rule="evenodd" clip-rule="evenodd" fill="#80AD05" points="575.617,84.351 568.986,70.552 547.081,70.553 			"/>
		</g>
	</g>
	<g>
	</g>
	<g>
	</g>
	<g>
	</g>
	<g>
	</g>
	<g>
	</g>
	<g>
	</g>
	<g>
	</g>
	<g>
	</g>
	<g>
	</g>
	<g>
	</g>
	<g>
	</g>
	<g>
	</g>
	<g>
	</g>
	<g>
	</g>
	<g>
	</g>
</g>
</svg>
