<?xml version="1.0" encoding="utf-8"?>
<!-- Generator: Adobe Illustrator 16.0.0, SVG Export Plug-In . SVG Version: 6.00 Build 0)  -->
<!DOCTYPE svg PUBLIC "-//W3C//DTD SVG 1.1//EN" "http://www.w3.org/Graphics/SVG/1.1/DTD/svg11.dtd">
<svg version="1.1" id="圖層_1" xmlns="http://www.w3.org/2000/svg" xmlns:xlink="http://www.w3.org/1999/xlink" x="0px" y="0px"
	 width="332.37px" height="299.615px" viewBox="0 0 332.37 299.615" enable-background="new 0 0 332.37 299.615"
	 xml:space="preserve">
<g>
	<g>
		<g>
			<polygon fill="#C9939E" points="1106.467,5131.836 1058.839,5151.213 1030.523,5138.914 1078.675,5120.665 			"/>
			<polygon fill="none" stroke="#7A1A28" stroke-width="4" stroke-miterlimit="10" points="1106.467,5131.836 1058.839,5151.213 
				1030.523,5138.914 1078.675,5120.665 			"/>
		</g>
		<g>
			<g>
				<polygon fill="#7A1A28" points="1111.332,5127.682 1048.228,5153.182 1023.992,5142.529 1087.688,5118.303 				"/>
			</g>
			<path fill="#7A1A28" d="M1065.953,5138.311c1.683,0.71,2.735,1.365,3.156,1.965c0.441,0.666,0.108,1.221-1,1.664
				c-0.971,0.389-2.167,0.505-3.591,0.348c-1.092-0.121-2.041-0.354-2.848-0.697c-0.821-0.35-0.959-0.633-0.413-0.848
				c0.336-0.133,0.768-0.153,1.293-0.061c0.516,0.097,1.005,0.191,1.472,0.283c0.604,0.084,1.128,0.039,1.574-0.139
				c0.832-0.331,0.303-0.896-1.586-1.694c-1.816-0.769-3.132-0.992-3.946-0.673c-0.387,0.151-0.48,0.379-0.278,0.684
				c0.221,0.297,0.152,0.516-0.205,0.656c-0.237,0.093-0.512,0.146-0.822,0.161c-0.404,0.015-0.775-0.05-1.113-0.192
				c-0.117-0.051-2.034-0.947-5.753-2.691c-0.948-0.443-0.989-0.832-0.124-1.166l2.928-1.127c0.617-0.237,1.328-0.186,2.134,0.153
				c0.937,0.396,1.103,0.71,0.496,0.946l-1.895,0.734c-0.447,0.173-0.406,0.389,0.126,0.646l1.766,0.834
				c-0.025-0.432,0.209-0.744,0.706-0.938c0.914-0.355,2.166-0.393,3.756-0.109
				C1063.129,5137.287,1064.519,5137.707,1065.953,5138.311z"/>
			<path fill="#7A1A28" d="M1071.271,5134.275c2.277,0.948,3.838,1.734,4.684,2.361c1.257,0.927,1.227,1.654-0.089,2.182
				c-1.315,0.525-3.095,0.518-5.335-0.025c-1.497-0.363-3.394-1.027-5.691-1.993c-2.326-0.978-3.886-1.763-4.678-2.354
				c-1.244-0.923-1.193-1.644,0.15-2.16s3.13-0.507,5.354,0.028C1067.067,5132.65,1068.937,5133.305,1071.271,5134.275z
				 M1068.991,5134.939c-3.257-1.359-5.298-1.879-6.123-1.561c-0.806,0.313,0.421,1.152,3.681,2.519
				c3.699,1.551,5.954,2.165,6.767,1.841C1074.128,5137.416,1072.687,5136.482,1068.991,5134.939z"/>
			<path fill="#7A1A28" d="M1078.894,5131.285c2.271,0.933,3.826,1.708,4.667,2.326c1.252,0.916,1.22,1.639-0.097,2.165
				c-1.315,0.526-3.091,0.524-5.326-0.009c-1.494-0.354-3.385-1.008-5.676-1.959c-2.319-0.963-3.875-1.736-4.664-2.32
				c-1.237-0.912-1.185-1.627,0.159-2.144s3.127-0.513,5.346,0.011C1074.702,5129.686,1076.566,5130.328,1078.894,5131.285z
				 M1076.614,5131.951c-3.246-1.34-5.283-1.85-6.108-1.529c-0.806,0.312,0.417,1.141,3.667,2.486
				c3.688,1.526,5.937,2.129,6.75,1.806C1081.734,5134.391,1080.299,5133.47,1076.614,5131.951z"/>
		</g>
	</g>
</g>
<g>
	<g>
		<g>
			<polygon fill="#C9939E" points="1106.467,5131.836 1058.839,5151.213 1030.523,5138.914 1078.675,5120.665 			"/>
			<polygon fill="none" stroke="#7A1A28" stroke-width="4" stroke-miterlimit="10" points="1106.467,5131.836 1058.839,5151.213 
				1030.523,5138.914 1078.675,5120.665 			"/>
		</g>
		<g>
			<g>
				<polygon fill="#7A1A28" points="1111.332,5127.682 1048.228,5153.182 1023.992,5142.529 1087.688,5118.303 				"/>
			</g>
			<path fill="#7A1A28" d="M1065.953,5138.311c1.683,0.71,2.735,1.365,3.156,1.965c0.441,0.666,0.108,1.221-1,1.664
				c-0.971,0.389-2.167,0.505-3.591,0.348c-1.092-0.121-2.041-0.354-2.848-0.697c-0.821-0.35-0.959-0.633-0.413-0.848
				c0.336-0.133,0.768-0.153,1.293-0.061c0.516,0.097,1.005,0.191,1.472,0.283c0.604,0.084,1.128,0.039,1.574-0.139
				c0.832-0.331,0.303-0.896-1.586-1.694c-1.816-0.769-3.132-0.992-3.946-0.673c-0.387,0.151-0.48,0.379-0.278,0.684
				c0.221,0.297,0.152,0.516-0.205,0.656c-0.237,0.093-0.512,0.146-0.822,0.161c-0.404,0.015-0.775-0.05-1.113-0.192
				c-0.117-0.051-2.034-0.947-5.753-2.691c-0.948-0.443-0.989-0.832-0.124-1.166l2.928-1.127c0.617-0.237,1.328-0.186,2.134,0.153
				c0.937,0.396,1.103,0.71,0.496,0.946l-1.895,0.734c-0.447,0.173-0.406,0.389,0.126,0.646l1.766,0.834
				c-0.025-0.432,0.209-0.744,0.706-0.938c0.914-0.355,2.166-0.393,3.756-0.109
				C1063.129,5137.287,1064.519,5137.707,1065.953,5138.311z"/>
			<path fill="#7A1A28" d="M1071.271,5134.275c2.277,0.948,3.838,1.734,4.684,2.361c1.257,0.927,1.227,1.654-0.089,2.182
				c-1.315,0.525-3.095,0.518-5.335-0.025c-1.497-0.363-3.394-1.027-5.691-1.993c-2.326-0.978-3.886-1.763-4.678-2.354
				c-1.244-0.923-1.193-1.644,0.15-2.16s3.13-0.507,5.354,0.028C1067.067,5132.65,1068.937,5133.305,1071.271,5134.275z
				 M1068.991,5134.939c-3.257-1.359-5.298-1.879-6.123-1.561c-0.806,0.313,0.421,1.152,3.681,2.519
				c3.699,1.551,5.954,2.165,6.767,1.841C1074.128,5137.416,1072.687,5136.482,1068.991,5134.939z"/>
			<path fill="#7A1A28" d="M1078.894,5131.285c2.271,0.933,3.826,1.708,4.667,2.326c1.252,0.916,1.22,1.639-0.097,2.165
				c-1.315,0.526-3.091,0.524-5.326-0.009c-1.494-0.354-3.385-1.008-5.676-1.959c-2.319-0.963-3.875-1.736-4.664-2.32
				c-1.237-0.912-1.185-1.627,0.159-2.144s3.127-0.513,5.346,0.011C1074.702,5129.686,1076.566,5130.328,1078.894,5131.285z
				 M1076.614,5131.951c-3.246-1.34-5.283-1.85-6.108-1.529c-0.806,0.312,0.417,1.141,3.667,2.486
				c3.688,1.526,5.937,2.129,6.75,1.806C1081.734,5134.391,1080.299,5133.47,1076.614,5131.951z"/>
		</g>
	</g>
</g>
<g>
	<g>
		<path fill="#E95520" d="M166.427,109.095c1.8,0,3.93,0.716,7.113,2.39l150.047,84.825c0.727,0.465,1.774,2.228,1.783,4.643
			c0.004,0.916-0.167,3.139-1.803,4.176l-150.072,84.84c-3.446,1.88-5.464,2.647-6.957,2.647c-1.518,0-3.599-0.773-7.169-2.667
			L9.304,205.114c-1.8-1.108-2.365-3.357-2.299-4.959c0.055-1.331,0.568-2.976,1.844-3.6l0.187-0.092l0.182-0.103l150.152-84.884
			C162.52,109.809,164.633,109.095,166.427,109.095 M166.426,102.096c-3.183,0-6.358,1.081-10.422,3.244L5.773,190.268
			c-7.649,3.742-7.746,16.277,0,20.892l150.23,84.928c4.424,2.353,7.494,3.528,10.534,3.528c3.041,0,6.051-1.176,10.356-3.528
			l150.229-84.928c7.648-4.614,6.313-17.149,0-20.892L176.895,105.34C172.8,103.177,169.609,102.096,166.426,102.096
			L166.426,102.096z"/>
	</g>
</g>
<g>
	<g>
		<rect x="78.272" y="142.417" fill="#727171" width="9.275" height="69.921"/>
		<rect x="257.173" y="142.417" fill="#727171" width="9.273" height="69.921"/>
		<path fill="#FFDA00" d="M68.464,146.056c-11.071,0-20.081-8.771-20.081-19.554V27.855c0-10.783,9.01-19.551,20.081-19.551h203.93
			c11.077,0,20.088,8.768,20.088,19.551v98.646c0,10.783-9.011,19.554-20.088,19.554H68.464z"/>
		<path fill="#231815" d="M68.464,131.618c-3.114,0-5.647-2.292-5.647-5.116V27.855c0-2.823,2.533-5.116,5.647-5.116h203.93
			c3.116,0,5.652,2.293,5.652,5.116v98.646c0,2.824-2.536,5.116-5.652,5.116H68.464z"/>
	</g>
	<g>
		<rect x="48.914" y="57.664" fill="none" width="243.033" height="81.02"/>
		<path fill="#FF7E36" d="M86.401,59.27c0.607,1.631,1.18,3.456,1.716,5.476h5.256v3.249c-1.509,2.92-2.969,5.317-4.38,7.191
			c2.189,1.436,4.222,3.078,6.096,4.928l-2.044,3.103c-1.582-1.752-3.188-3.249-4.818-4.489v14.71h-3.505V79.931
			c-1.46,1.437-3.163,2.92-5.11,4.453l-1.168-3.942c2.677-1.898,4.685-3.613,6.023-5.146c1.533-1.387,3.176-3.784,4.928-7.191H78.59
			v-3.358h6.096c-0.561-1.728-1.181-3.37-1.861-4.928L86.401,59.27z M94.066,68.177h6.936v-8.614h3.65v8.614h7.52v3.504h-7.52
			v17.083h8.25v3.505H91.877v-3.505h9.125V71.681h-6.936V68.177z"/>
		<path fill="#FF7E36" d="M132.029,76.061h-8.286c-0.072,0.317-0.146,0.609-0.219,0.877c-0.17,0.73-0.426,1.46-0.767,2.189h9.418
			v13.871h-3.212v-1.824h-5.549v2.263h-3.212V83.436c-0.755,0.924-1.595,1.824-2.52,2.701l-2.299-2.812
			c2.385-2.142,4.002-4.429,4.854-6.862c0.049-0.146,0.097-0.279,0.146-0.402h-3.724v-2.92h4.417
			c0.219-1.119,0.389-2.336,0.511-3.65h-5.329v-2.92h5.548c0.049-1.095,0.085-2.264,0.109-3.504h-4.344v-2.92h14.455v6.424h1.606
			v2.92h-1.606V76.061z M123.415,88.107h5.549V82.34h-5.549V88.107z M124.802,69.49c-0.122,1.314-0.279,2.531-0.475,3.65h4.49v-3.65
			H124.802z M125.131,63.066c-0.024,1.24-0.062,2.409-0.109,3.504h3.796v-3.504H125.131z M134.22,66.789h15.331v3.066h-6.06v4.527
			h5.622v3.065h-5.622v4.745h6.644v3.213h-6.644v8.03h-3.357v-8.03h-6.644v-3.213h6.644v-4.745h-5.33v-3.065h5.33v-4.527h-5.914
			V66.789z M137.725,59.416c1.07,1.703,1.995,3.517,2.773,5.439l-3.212,1.423c-0.779-2.19-1.655-4.137-2.628-5.841L137.725,59.416z
			 M145.755,59.416l3.212,0.84c-0.729,2.189-1.703,4.197-2.92,6.022l-3.212-1.168C143.954,63.627,144.928,61.729,145.755,59.416z"/>
		<path fill="#FF7E36" d="M169.883,59.963l1.57,2.701c-2.021,0.317-4.332,0.561-6.936,0.73v2.373h7.665v2.773h-7.665v1.972h7.373
			v11.535h-7.373v2.117h6.644v2.481h-6.644v2.994c2.433-0.195,4.647-0.426,6.644-0.693v1.131c2.263-3.334,3.856-6.898,4.781-10.695
			c0.682-2.457,1.107-5.877,1.278-10.258h-4.016V66.06h4.088c0-0.56,0-1.119,0-1.679v-4.965h3.213v4.965c0,0.584,0,1.144,0,1.679
			h6.716c0,12.679-0.134,20.198-0.401,22.559c-0.194,1.849-0.572,3.042-1.132,3.577c-0.656,0.73-1.861,1.096-3.613,1.096
			c-0.803,0-1.74-0.049-2.811-0.146l-0.657-3.65c1.144,0.17,2.3,0.256,3.468,0.256c0.949,0,1.472-0.742,1.569-2.227
			c0.194-1.898,0.316-8.031,0.365-18.398h-3.613c-0.195,4.381-0.67,8.129-1.424,11.244c-0.926,4.16-2.751,8.419-5.476,12.775
			l-2.336-2.044v0.438c-3.285,0.584-9.065,1.119-17.339,1.605l-0.475-3.066c2.896-0.049,5.597-0.134,8.104-0.256v-3.176h-6.498
			v-2.481h6.498v-2.117h-6.79V70.513h6.79v-1.972h-8.396v-2.773h8.396v-2.227c-1.996,0.072-4.138,0.109-6.425,0.109l-0.985-2.811
			C160.271,60.84,165.552,60.547,169.883,59.963z M157.874,75.331h3.577V72.85h-3.577V75.331z M161.451,79.711v-2.336h-3.577v2.336
			H161.451z M164.518,72.85v2.481h4.161V72.85H164.518z M168.679,79.711v-2.336h-4.161v2.336H168.679z"/>
		<path fill="#FF7E36" d="M192.332,63.65h6.352V59.27h3.358v4.381h5.476v3.212h-5.476v3.942h5.476v3.249h-5.476v4.344h5.476v3.212
			h-5.476v6.133c0.608,0.219,1.266,0.401,1.972,0.547c1.995,0.39,5.938,0.621,11.826,0.694c4.234,0,7.398-0.085,9.491-0.256
			l-0.548,3.396c-11.194,0-18.032-0.184-20.515-0.548c-2.263-0.365-4.052-0.949-5.365-1.753c-1.096-0.584-2.313-1.824-3.65-3.723
			c-0.561,2.264-1.254,4.514-2.081,6.753l-2.592-2.263c0.876-2.701,1.521-5.123,1.935-7.265c0.316-1.825,0.548-4.198,0.693-7.118
			l3.213,0.402c-0.098,2.166-0.244,3.979-0.438,5.438c1.022,1.558,1.922,2.737,2.701,3.54V74.054h-7.52v-3.249h7.52v-3.942h-6.352
			V63.65z M222.922,61.021v13.287h-10.805v7.082c0,0.828,0.438,1.241,1.313,1.241h6.023c0.462,0,0.79-0.183,0.985-0.548
			c0.243-0.365,0.401-2.08,0.475-5.146l3.285,1.059c-0.292,3.846-0.742,6.12-1.351,6.826c-0.535,0.682-1.509,1.021-2.92,1.021
			h-7.775c-1.021,0-1.838-0.316-2.445-0.949c-0.634-0.607-0.949-1.436-0.949-2.482V61.021H222.922z M212.117,64.234v6.862h7.446
			v-6.862H212.117z"/>
		<path fill="#FF7E36" d="M229.565,62.993h13.579v-3.431h3.504v3.431h13.871v3.358h-13.871v8.322
			c1.436,2.896,3.213,5.428,5.33,7.593c2.141,2.386,5.523,4.733,10.147,7.046l-2.556,2.956c-3.407-2.093-6.169-4.101-8.286-6.022
			c-1.752-1.655-3.298-3.469-4.636-5.439v12.338h-3.504V80.588c-1.388,1.971-2.665,3.504-3.833,4.6
			c-2.409,2.482-5.438,4.891-9.089,7.227l-1.972-3.357c3.602-1.947,6.74-4.259,9.418-6.936c1.995-2.045,3.82-4.441,5.476-7.191
			v-8.578h-13.579V62.993z M235.224,67.154l3.248,0.548c-0.414,1.752-0.827,3.249-1.241,4.489c1.388,1.168,2.677,2.495,3.87,3.979
			l-1.935,2.956c-1.071-1.557-2.13-2.847-3.176-3.869c-0.901,2.021-2.373,4.138-4.417,6.352l-2.3-2.847
			c1.752-1.753,3.042-3.479,3.869-5.184C233.994,71.998,234.688,69.855,235.224,67.154z M253.037,67.301l3.395,0.547
			c-0.414,1.752-0.853,3.213-1.314,4.381c2.117,1.655,4.063,3.553,5.841,5.694l-1.935,2.957c-1.729-2.312-3.456-4.234-5.184-5.768
			c-0.779,1.362-1.838,2.75-3.176,4.161l-2.409-2.957c1.411-1.362,2.445-2.701,3.103-4.016
			C252.063,71.061,252.623,69.394,253.037,67.301z"/>
	</g>
	<g>
		<circle fill="#FFCE00" cx="55.768" cy="13.418" r="13.417"/>
		<circle fill="#FFFFFF" cx="55.765" cy="13.418" r="8.625"/>
		<path fill="#FFDA00" d="M49.456,10.226c-0.813,1.454-0.915,2.946-0.227,3.332c0.688,0.385,1.909-0.481,2.717-1.934
			c0.817-1.457,0.914-2.948,0.228-3.332C51.484,7.908,50.268,8.774,49.456,10.226z"/>
	</g>
	<g>
		<circle fill="#FFCE00" cx="101.774" cy="13.418" r="13.417"/>
		<circle fill="#FFFFFF" cx="101.776" cy="13.418" r="8.625"/>
		<path fill="#FFDA00" d="M95.466,10.226c-0.813,1.454-0.915,2.946-0.226,3.332c0.689,0.385,1.908-0.481,2.717-1.934
			c0.814-1.457,0.915-2.948,0.225-3.332C97.495,7.908,96.277,8.774,95.466,10.226z"/>
	</g>
	<g>
		<circle fill="#FFCE00" cx="148.506" cy="13.418" r="13.418"/>
		<circle fill="#FFFFFF" cx="148.506" cy="13.418" r="8.625"/>
		<path fill="#FFDA00" d="M142.191,10.226c-0.812,1.454-0.912,2.946-0.221,3.332c0.686,0.385,1.902-0.481,2.715-1.934
			c0.814-1.457,0.914-2.948,0.225-3.332C144.222,7.908,143.005,8.774,142.191,10.226z"/>
	</g>
	<g>
		<circle fill="#FFCE00" cx="193.794" cy="13.418" r="13.418"/>
		<circle fill="#FFFFFF" cx="193.795" cy="13.418" r="8.627"/>
		<path fill="#FFDA00" d="M187.484,10.226c-0.813,1.454-0.912,2.946-0.226,3.332c0.688,0.385,1.908-0.481,2.718-1.934
			c0.813-1.457,0.913-2.948,0.225-3.332C189.512,7.908,188.295,8.774,187.484,10.226z"/>
	</g>
	<g>
		<circle fill="#FFCE00" cx="239.802" cy="13.418" r="13.417"/>
		<path fill="#FFFFFF" d="M248.433,13.418c0,4.765-3.866,8.625-8.63,8.625c-4.765,0-8.624-3.86-8.624-8.625
			c0-4.764,3.859-8.623,8.624-8.623C244.566,4.795,248.433,8.654,248.433,13.418z"/>
		<path fill="#FFDA00" d="M233.492,10.226c-0.813,1.454-0.912,2.946-0.223,3.332c0.688,0.385,1.904-0.481,2.716-1.934
			c0.813-1.457,0.915-2.948,0.224-3.332C235.521,7.908,234.304,8.774,233.492,10.226z"/>
	</g>
	<g>
		<circle fill="#FFCE00" cx="285.094" cy="13.418" r="13.418"/>
		<circle fill="#FFFFFF" cx="285.093" cy="13.418" r="8.626"/>
		<path fill="#FFDA00" d="M278.783,10.226c-0.813,1.454-0.911,2.946-0.223,3.332c0.688,0.385,1.904-0.481,2.716-1.934
			c0.815-1.457,0.913-2.948,0.225-3.332C280.811,7.908,279.596,8.774,278.783,10.226z"/>
	</g>
	<g>
		<circle fill="#FFCE00" cx="55.768" cy="55.834" r="13.417"/>
		<circle fill="#FFFFFF" cx="55.765" cy="55.834" r="8.625"/>
		<path fill="#FFDA00" d="M49.456,52.645c-0.813,1.453-0.915,2.945-0.227,3.327c0.688,0.387,1.909-0.482,2.717-1.933
			c0.817-1.455,0.914-2.946,0.228-3.332C51.484,50.322,50.268,51.188,49.456,52.645z"/>
	</g>
	<g>
		<circle fill="#FFCE00" cx="285.094" cy="55.834" r="13.418"/>
		<circle fill="#FFFFFF" cx="285.093" cy="55.834" r="8.626"/>
		<path fill="#FFDA00" d="M278.783,52.645c-0.813,1.453-0.911,2.945-0.223,3.327c0.688,0.387,1.904-0.482,2.716-1.933
			c0.815-1.455,0.913-2.946,0.225-3.332C280.811,50.322,279.596,51.188,278.783,52.645z"/>
	</g>
	<g>
		<circle fill="#FFCE00" cx="55.768" cy="98.248" r="13.417"/>
		<circle fill="#FFFFFF" cx="55.765" cy="98.248" r="8.625"/>
		<path fill="#FFDA00" d="M49.456,95.058c-0.813,1.456-0.915,2.946-0.227,3.329c0.688,0.387,1.909-0.48,2.717-1.934
			c0.817-1.456,0.914-2.947,0.228-3.33C51.484,92.737,50.268,93.604,49.456,95.058z"/>
	</g>
	<g>
		<circle fill="#FFCE00" cx="285.094" cy="98.248" r="13.418"/>
		<circle fill="#FFFFFF" cx="285.093" cy="98.248" r="8.626"/>
		<path fill="#FFDA00" d="M278.783,95.058c-0.813,1.456-0.911,2.946-0.223,3.329c0.688,0.387,1.904-0.48,2.716-1.934
			c0.815-1.456,0.913-2.947,0.225-3.33C280.811,92.737,279.596,93.604,278.783,95.058z"/>
	</g>
	<g>
		<circle fill="#FFCE00" cx="55.768" cy="139.944" r="13.417"/>
		<path fill="#FFFFFF" d="M64.39,139.944c0,4.765-3.861,8.627-8.623,8.627c-4.765,0-8.627-3.862-8.627-8.627
			c0-4.761,3.862-8.627,8.627-8.627C60.528,131.317,64.39,135.184,64.39,139.944z"/>
		<path fill="#FFDA00" d="M49.456,136.756c-0.813,1.451-0.915,2.944-0.227,3.329s1.909-0.483,2.717-1.938
			c0.817-1.451,0.914-2.942,0.228-3.33C51.484,134.434,50.268,135.303,49.456,136.756z"/>
	</g>
	<g>
		<circle fill="#FFCE00" cx="101.774" cy="139.944" r="13.417"/>
		<path fill="#FFFFFF" d="M110.4,139.944c0,4.765-3.86,8.627-8.626,8.627c-4.763,0-8.623-3.862-8.623-8.627
			c0-4.761,3.86-8.627,8.623-8.627C106.54,131.317,110.4,135.184,110.4,139.944z"/>
		<path fill="#FFDA00" d="M95.466,136.756c-0.813,1.451-0.915,2.944-0.226,3.329s1.908-0.483,2.717-1.938
			c0.814-1.451,0.915-2.942,0.225-3.33C97.495,134.434,96.277,135.303,95.466,136.756z"/>
	</g>
	<g>
		<circle fill="#FFCE00" cx="148.506" cy="139.944" r="13.418"/>
		<path fill="#FFFFFF" d="M157.131,139.944c0,4.765-3.862,8.627-8.627,8.627c-4.766,0-8.623-3.862-8.623-8.627
			c0-4.761,3.857-8.627,8.623-8.627C153.269,131.317,157.131,135.184,157.131,139.944z"/>
		<path fill="#FFDA00" d="M142.191,136.756c-0.812,1.451-0.912,2.944-0.221,3.329c0.686,0.385,1.902-0.483,2.715-1.938
			c0.814-1.451,0.914-2.942,0.225-3.33C144.222,134.434,143.005,135.303,142.191,136.756z"/>
	</g>
	<g>
		<circle fill="#FFCE00" cx="193.794" cy="139.944" r="13.418"/>
		<path fill="#FFFFFF" d="M202.422,139.944c0,4.765-3.862,8.627-8.626,8.627c-4.765,0-8.628-3.862-8.628-8.627
			c0-4.761,3.863-8.627,8.628-8.627C198.56,131.317,202.422,135.184,202.422,139.944z"/>
		<path fill="#FFDA00" d="M187.484,136.756c-0.813,1.451-0.912,2.944-0.226,3.329c0.688,0.385,1.908-0.483,2.718-1.938
			c0.813-1.451,0.913-2.942,0.225-3.33C189.512,134.434,188.295,135.303,187.484,136.756z"/>
	</g>
	<g>
		<circle fill="#FFCE00" cx="239.802" cy="139.944" r="13.417"/>
		<path fill="#FFFFFF" d="M248.433,139.944c0,4.765-3.866,8.627-8.63,8.627c-4.765,0-8.624-3.862-8.624-8.627
			c0-4.761,3.859-8.627,8.624-8.627C244.566,131.317,248.433,135.184,248.433,139.944z"/>
		<path fill="#FFDA00" d="M233.492,136.756c-0.813,1.451-0.912,2.944-0.223,3.329c0.688,0.385,1.904-0.483,2.716-1.938
			c0.813-1.451,0.915-2.942,0.224-3.33C235.521,134.434,234.304,135.303,233.492,136.756z"/>
	</g>
	<g>
		<circle fill="#FFCE00" cx="285.094" cy="139.944" r="13.418"/>
		<path fill="#FFFFFF" d="M293.719,139.944c0,4.765-3.861,8.627-8.624,8.627c-4.767,0-8.628-3.862-8.628-8.627
			c0-4.761,3.861-8.627,8.628-8.627C289.857,131.317,293.719,135.184,293.719,139.944z"/>
		<path fill="#FFDA00" d="M278.783,136.756c-0.813,1.451-0.911,2.944-0.223,3.329c0.688,0.385,1.904-0.483,2.716-1.938
			c0.815-1.451,0.913-2.942,0.225-3.33C280.811,134.434,279.596,135.303,278.783,136.756z"/>
	</g>
</g>
<g>
</g>
<g>
</g>
<g>
</g>
<g>
</g>
<g>
</g>
<g>
</g>
<g>
</g>
<g>
</g>
<g>
</g>
<g>
</g>
<g>
</g>
<g>
</g>
<g>
</g>
<g>
</g>
<g>
</g>
</svg>
