<?xml version="1.0" encoding="utf-8"?>
<!-- Generator: Adobe Illustrator 16.0.0, SVG Export Plug-In . SVG Version: 6.00 Build 0)  -->
<!DOCTYPE svg PUBLIC "-//W3C//DTD SVG 1.1//EN" "http://www.w3.org/Graphics/SVG/1.1/DTD/svg11.dtd">
<svg version="1.1" id="圖層_1" xmlns="http://www.w3.org/2000/svg" xmlns:xlink="http://www.w3.org/1999/xlink" x="0px" y="0px"
	 width="356.132px" height="288.447px" viewBox="0 0 356.132 288.447" enable-background="new 0 0 356.132 288.447"
	 xml:space="preserve">
<g>
	<g>
		<g>
			<polygon fill="#C9939E" points="1089.6,5051.755 1041.972,5071.132 1013.656,5058.833 1061.808,5040.584 			"/>
			<polygon fill="none" stroke="#7A1A28" stroke-width="4" stroke-miterlimit="10" points="1089.6,5051.755 1041.972,5071.132 
				1013.656,5058.833 1061.808,5040.584 			"/>
		</g>
		<g>
			<g>
				<polygon fill="#7A1A28" points="1094.465,5047.601 1031.36,5073.101 1007.125,5062.448 1070.821,5038.222 				"/>
			</g>
			<path fill="#7A1A28" d="M1049.086,5058.229c1.683,0.71,2.735,1.365,3.156,1.965c0.441,0.666,0.108,1.221-1,1.664
				c-0.971,0.389-2.167,0.505-3.591,0.348c-1.092-0.121-2.041-0.354-2.848-0.697c-0.821-0.35-0.959-0.633-0.413-0.848
				c0.336-0.133,0.768-0.153,1.293-0.061c0.516,0.097,1.005,0.191,1.472,0.283c0.604,0.084,1.128,0.039,1.574-0.139
				c0.832-0.331,0.303-0.896-1.586-1.694c-1.816-0.769-3.132-0.992-3.946-0.673c-0.387,0.151-0.48,0.379-0.278,0.684
				c0.221,0.297,0.152,0.516-0.205,0.656c-0.237,0.093-0.512,0.146-0.822,0.161c-0.404,0.015-0.775-0.05-1.113-0.192
				c-0.117-0.051-2.034-0.947-5.753-2.691c-0.948-0.443-0.989-0.832-0.124-1.166l2.928-1.127c0.617-0.237,1.328-0.186,2.134,0.153
				c0.937,0.396,1.103,0.71,0.496,0.946l-1.895,0.734c-0.447,0.173-0.406,0.389,0.126,0.646l1.766,0.834
				c-0.025-0.432,0.209-0.744,0.706-0.938c0.914-0.355,2.166-0.393,3.756-0.109
				C1046.262,5057.206,1047.651,5057.626,1049.086,5058.229z"/>
			<path fill="#7A1A28" d="M1054.403,5054.194c2.277,0.948,3.838,1.734,4.684,2.361c1.257,0.927,1.227,1.654-0.089,2.182
				c-1.315,0.525-3.095,0.518-5.335-0.025c-1.497-0.363-3.394-1.027-5.691-1.993c-2.326-0.978-3.886-1.763-4.678-2.354
				c-1.244-0.923-1.193-1.644,0.15-2.16s3.13-0.507,5.354,0.028C1050.2,5052.569,1052.069,5053.224,1054.403,5054.194z
				 M1052.124,5054.858c-3.257-1.359-5.298-1.879-6.123-1.561c-0.806,0.313,0.421,1.152,3.681,2.519
				c3.699,1.551,5.954,2.165,6.767,1.841C1057.261,5057.335,1055.819,5056.401,1052.124,5054.858z"/>
			<path fill="#7A1A28" d="M1062.026,5051.204c2.271,0.933,3.826,1.708,4.667,2.326c1.252,0.916,1.22,1.639-0.097,2.165
				c-1.315,0.526-3.091,0.524-5.326-0.009c-1.494-0.354-3.385-1.008-5.676-1.959c-2.319-0.963-3.875-1.736-4.664-2.32
				c-1.237-0.912-1.185-1.627,0.159-2.144s3.127-0.513,5.346,0.011C1057.835,5049.604,1059.699,5050.247,1062.026,5051.204z
				 M1059.747,5051.87c-3.246-1.34-5.283-1.85-6.108-1.529c-0.806,0.312,0.417,1.141,3.667,2.486
				c3.688,1.526,5.937,2.129,6.75,1.806C1064.867,5054.31,1063.432,5053.389,1059.747,5051.87z"/>
		</g>
	</g>
</g>
<g>
	<g>
		<g>
			<polygon fill="#C9939E" points="1089.6,5051.755 1041.972,5071.132 1013.656,5058.833 1061.808,5040.584 			"/>
			<polygon fill="none" stroke="#7A1A28" stroke-width="4" stroke-miterlimit="10" points="1089.6,5051.755 1041.972,5071.132 
				1013.656,5058.833 1061.808,5040.584 			"/>
		</g>
		<g>
			<g>
				<polygon fill="#7A1A28" points="1094.465,5047.601 1031.36,5073.101 1007.125,5062.448 1070.821,5038.222 				"/>
			</g>
			<path fill="#7A1A28" d="M1049.086,5058.229c1.683,0.71,2.735,1.365,3.156,1.965c0.441,0.666,0.108,1.221-1,1.664
				c-0.971,0.389-2.167,0.505-3.591,0.348c-1.092-0.121-2.041-0.354-2.848-0.697c-0.821-0.35-0.959-0.633-0.413-0.848
				c0.336-0.133,0.768-0.153,1.293-0.061c0.516,0.097,1.005,0.191,1.472,0.283c0.604,0.084,1.128,0.039,1.574-0.139
				c0.832-0.331,0.303-0.896-1.586-1.694c-1.816-0.769-3.132-0.992-3.946-0.673c-0.387,0.151-0.48,0.379-0.278,0.684
				c0.221,0.297,0.152,0.516-0.205,0.656c-0.237,0.093-0.512,0.146-0.822,0.161c-0.404,0.015-0.775-0.05-1.113-0.192
				c-0.117-0.051-2.034-0.947-5.753-2.691c-0.948-0.443-0.989-0.832-0.124-1.166l2.928-1.127c0.617-0.237,1.328-0.186,2.134,0.153
				c0.937,0.396,1.103,0.71,0.496,0.946l-1.895,0.734c-0.447,0.173-0.406,0.389,0.126,0.646l1.766,0.834
				c-0.025-0.432,0.209-0.744,0.706-0.938c0.914-0.355,2.166-0.393,3.756-0.109
				C1046.262,5057.206,1047.651,5057.626,1049.086,5058.229z"/>
			<path fill="#7A1A28" d="M1054.403,5054.194c2.277,0.948,3.838,1.734,4.684,2.361c1.257,0.927,1.227,1.654-0.089,2.182
				c-1.315,0.525-3.095,0.518-5.335-0.025c-1.497-0.363-3.394-1.027-5.691-1.993c-2.326-0.978-3.886-1.763-4.678-2.354
				c-1.244-0.923-1.193-1.644,0.15-2.16s3.13-0.507,5.354,0.028C1050.2,5052.569,1052.069,5053.224,1054.403,5054.194z
				 M1052.124,5054.858c-3.257-1.359-5.298-1.879-6.123-1.561c-0.806,0.313,0.421,1.152,3.681,2.519
				c3.699,1.551,5.954,2.165,6.767,1.841C1057.261,5057.335,1055.819,5056.401,1052.124,5054.858z"/>
			<path fill="#7A1A28" d="M1062.026,5051.204c2.271,0.933,3.826,1.708,4.667,2.326c1.252,0.916,1.22,1.639-0.097,2.165
				c-1.315,0.526-3.091,0.524-5.326-0.009c-1.494-0.354-3.385-1.008-5.676-1.959c-2.319-0.963-3.875-1.736-4.664-2.32
				c-1.237-0.912-1.185-1.627,0.159-2.144s3.127-0.513,5.346,0.011C1057.835,5049.604,1059.699,5050.247,1062.026,5051.204z
				 M1059.747,5051.87c-3.246-1.34-5.283-1.85-6.108-1.529c-0.806,0.312,0.417,1.141,3.667,2.486
				c3.688,1.526,5.937,2.129,6.75,1.806C1064.867,5054.31,1063.432,5053.389,1059.747,5051.87z"/>
		</g>
	</g>
</g>
<g>
	<g>
		<path fill="#FAD7B5" d="M166.427,77.03c1.802,0,3.935,0.715,7.118,2.389l150.043,84.824c0.728,0.466,1.776,2.23,1.785,4.646
			c0.003,0.915-0.168,3.136-1.804,4.173L173.5,257.899c-3.449,1.882-5.469,2.65-6.963,2.65c-1.519,0-3.6-0.774-7.171-2.67
			L9.304,173.048c-1.8-1.108-2.365-3.358-2.299-4.959c0.055-1.331,0.568-2.976,1.844-3.6l0.187-0.092l0.181-0.103l150.15-84.882
			C162.517,77.743,164.631,77.03,166.427,77.03 M166.427,70.03c-3.185,0-6.361,1.082-10.425,3.244L5.773,158.201
			c-7.65,3.743-7.744,16.277,0,20.892l150.229,84.926c4.424,2.354,7.495,3.531,10.536,3.531s6.054-1.178,10.362-3.531
			l150.224-84.926c7.652-4.614,6.313-17.148,0-20.892L176.9,73.274C172.804,71.112,169.611,70.03,166.427,70.03L166.427,70.03z"/>
	</g>
</g>
<g>
	<g>
		<rect x="206.63" y="149.876" fill="#00AA45" width="22.345" height="138.571"/>
		<path fill="#00AA45" d="M356.132,59.704c0-3.151-2.553-5.709-5.705-5.709c-3.154,0-5.709,2.558-5.709,5.709v64.859
			c0,13.218-10.756,23.972-23.973,23.972H113.593c-13.22,0-23.973-10.754-23.973-23.972V59.704c0-3.151-2.559-5.709-5.711-5.709
			c-3.151,0-5.705,2.558-5.705,5.709v64.859c0,19.511,15.876,35.388,35.389,35.388h207.152c19.51,0,35.387-15.877,35.387-35.388
			V59.704z"/>
		<rect x="88.57" y="66.4" fill="#00AA45" width="261.212" height="7"/>
		<rect x="212.672" y="66.4" fill="#00AA45" width="10.263" height="86.034"/>
	</g>
	<path fill="#FFFFFF" d="M339.179,120.063c0,12.17-9.867,22.038-22.035,22.038H117.195c-12.173,0-22.039-9.868-22.039-22.038v-84.44
		c0-12.171,9.866-22.033,22.039-22.033h199.949c12.168,0,22.035,9.862,22.035,22.033V120.063z"/>
	<polygon fill="#DCDDDD" points="217.804,139.219 172.53,139.219 203.628,14.833 248.902,14.833 	"/>
	<polyline fill="#DCDDDD" points="226.954,139.219 258.83,14.833 280.782,14.833 248.902,139.219 	"/>
	<polyline fill="#DCDDDD" points="258.83,139.219 290.708,14.833 304.882,14.833 273.003,139.219 	"/>
	<path fill="#00AA45" d="M317.144,19.028c9.148,0,16.596,7.444,16.596,16.594v84.44c0,9.15-7.447,16.596-16.596,16.596H117.195
		c-9.15,0-16.596-7.445-16.596-16.596v-84.44c0-9.149,7.445-16.594,16.596-16.594H317.144 M317.144,13.589H117.195
		c-12.173,0-22.039,9.862-22.039,22.033v84.44c0,12.17,9.866,22.038,22.039,22.038h199.949c12.168,0,22.035-9.868,22.035-22.038
		v-84.44C339.179,23.451,329.312,13.589,317.144,13.589L317.144,13.589z"/>
	<g>
		<g>
			<path fill="#64BFAA" d="M120.019,62.263h6v-2.526h3.475v2.526h6.158v2.842h-6.158v2.29h6.79v3.001h-3.474v0.828
				c0,0.711,0.42,1.066,1.263,1.066h2.369v2.685h-3.119c-1.132,0-2.027-0.21-2.685-0.632c-0.658-0.421-0.986-1.118-0.986-2.092
				v-1.855h-3.277c-0.395,1.184-0.922,2.145-1.579,2.882c-0.789,1.053-2.487,2.276-5.093,3.671l-1.579-3.079
				c1.632-0.579,2.868-1.224,3.711-1.935c0.553-0.395,0.987-0.908,1.303-1.539h-4.224v-3.001h7.105v-2.29h-6V62.263z
				 M122.584,87.055l3.119,1.5c-1.132,3.343-2.487,6.212-4.066,8.606l-3.355-2.408C119.861,92.568,121.294,90.003,122.584,87.055z
				 M120.334,76.79h5.448v-3.474h3.316v3.474h5.921v2.843h-5.921v2.843c2.21-0.289,4.447-0.618,6.711-0.987v3.237
				c-4.869,0.764-10.291,1.382-16.266,1.855l-0.474-3.316c2.185-0.079,4.422-0.223,6.712-0.434v-3.198h-5.448V76.79z
				 M132.612,87.687c0.737,2.422,1.382,5.04,1.935,7.856l-4.303,0.395c-0.343-2.948-0.75-5.54-1.224-7.777L132.612,87.687z
				 M141.021,59.736h3.475v4.421h6.908c-0.132,5.001-0.197,9.633-0.197,13.896c0,1.237,0.104,2.316,0.315,3.237
				c0.105,0.605,0.237,0.908,0.396,0.908c0.21,0,0.355-1.54,0.434-4.619l3.198,1.855c-0.422,3.133-0.922,5.066-1.5,5.804
				c-0.527,0.685-1.132,1.026-1.816,1.026c-0.816,0-1.526-0.224-2.132-0.672c-0.737-0.499-1.264-1.289-1.579-2.368
				c-0.29-0.868-0.474-1.974-0.553-3.316l-1.776,1.776c-0.816-1.157-1.751-2.329-2.803-3.514c-0.026,0.027-0.04,0.054-0.04,0.079
				c-0.737,2.975-2.146,6.015-4.224,9.12l-3.001-2.605c1.842-2.396,3.146-4.975,3.909-7.738c0.157-0.578,0.302-1.224,0.434-1.935
				c-1.29-1.289-2.685-2.592-4.185-3.908l2.211-2.132c0.842,0.711,1.645,1.421,2.408,2.132c0.079-1.185,0.118-2.474,0.118-3.869
				h-4.264v-3.158h4.264V59.736z M141.495,87.528c1.079,2.527,2.026,5.251,2.843,8.172l-4.146,0.355
				c-0.605-3.053-1.329-5.737-2.171-8.054L141.495,87.528z M144.1,74.264c1.396,1.396,2.658,2.777,3.79,4.146v-0.355
				c0-2.974-0.039-6.554-0.118-10.738h-3.276C144.468,69.921,144.337,72.237,144.1,74.264z M149.865,86.739
				c1.815,2.526,3.395,5.224,4.737,8.093l-3.475,1.54c-1.368-3.212-2.896-6.054-4.579-8.527L149.865,86.739z"/>
			<path fill="#64BFAA" d="M175.407,59.578l4.303,0.592c-0.5,1.974-1.184,3.804-2.053,5.487h14.213v25.582h3.474v3.633h-37.268
				v-3.633h3.475V65.657h11.843C174.314,63.763,174.986,61.736,175.407,59.578z M165.656,91.239h4.737V69.29h-4.737V91.239z
				 M174.222,91.239h4.856V69.29h-4.856V91.239z M182.868,91.239h4.896V69.29h-4.896V91.239z"/>
			<path fill="#64BFAA" d="M199.607,61.473h35.057v3.79h-14.449v10.265h12.081v3.79h-12.081v12.001h15.081v3.79H198.66v-3.79h5.369
				V71.264h4.105v20.055h7.816V65.263h-16.344V61.473z"/>
			<path fill="#64BFAA" d="M239.835,67.474l2.882,0.197c-0.053,4.08-0.369,7.962-0.947,11.646l-2.843-0.79
				C239.533,74.791,239.835,71.105,239.835,67.474z M243.902,59.736h3.315v7.066c1.105-1.053,2.054-2.146,2.843-3.277l2.448,3.08
				c-1.369,1.605-3.133,3.172-5.291,4.697v1.066c0,3.658-0.157,6.869-0.474,9.633c1.501,1.658,3.001,3.448,4.501,5.369l-2.447,3.632
				c-1.08-2.079-1.988-3.724-2.725-4.935c-0.789,3.421-2.171,6.908-4.146,10.461l-2.842-2.486c1.815-2.896,3.092-6.001,3.829-9.317
				c0.657-2.71,0.987-6.83,0.987-12.356V59.736z M252.153,86.739l3.514,0.908c-0.475,2.921-1.408,5.724-2.804,8.408l-3.829-1.263
				C250.639,92.292,251.679,89.608,252.153,86.739z M255.311,59.736l3.197,0.513c-0.185,0.868-0.368,1.672-0.553,2.408h6.04v2.566
				c-0.157,1.158-0.368,2.25-0.631,3.276h3.79c0.078-1.079,0.118-2.211,0.118-3.396v-5.053h3.316v5.053
				c0,1.211-0.04,2.343-0.119,3.396h4.936v3.316h-4.698c0.526,2,1.145,3.79,1.855,5.369c0.842,1.921,2.157,3.816,3.947,5.685
				l-2.486,2.961c-1.316-1.737-2.383-3.408-3.198-5.014c-0.711-1.368-1.329-2.882-1.855-4.54c0,0.053-0.014,0.105-0.039,0.158
				c-1.08,2.947-3.133,5.961-6.159,9.04l-2.842-2.487c2.763-2.395,4.711-4.96,5.843-7.698c0.42-0.973,0.75-2.132,0.986-3.474h-3.514
				v-2.685c-0.605,2.605-1.474,4.935-2.605,6.987c-1.685,3.316-4.711,6.383-9.08,9.198l-1.736-3.158
				c2.395-1.21,4.329-2.631,5.803-4.264c-0.868-0.763-1.75-1.407-2.645-1.934l1.579-2.33c1.052,0.553,2.039,1.146,2.961,1.777
				c0.052-0.105,0.104-0.198,0.157-0.276c0.421-0.685,0.829-1.487,1.225-2.408c-1.105-0.79-2.237-1.435-3.396-1.935l1.5-2.211
				c1.026,0.395,1.974,0.816,2.843,1.264c0.395-1.29,0.724-2.685,0.986-4.186h-3.711c-0.342,1.001-0.671,1.869-0.986,2.606
				c-0.896,2.343-2.448,4.829-4.659,7.461l-2.289-2.843c1.789-1.974,3.118-3.921,3.987-5.843
				C254.047,65.224,254.758,62.789,255.311,59.736z M260.443,87.213c0.711,2.632,1.329,5.474,1.855,8.527l-3.829,0.315
				c-0.343-3.185-0.75-5.987-1.224-8.408L260.443,87.213z M266.759,87.055c1,2.605,1.882,5.435,2.646,8.488l-3.987,0.395
				c-0.553-3.185-1.224-5.987-2.014-8.409L266.759,87.055z M273.037,85.949c1.21,2.79,2.264,5.751,3.158,8.883l-3.474,1.54
				c-0.896-3.501-1.896-6.606-3.001-9.317L273.037,85.949z M273.984,61.789c0.658,1.5,1.237,3.105,1.737,4.816l-2.961,1.342
				c-0.474-1.947-1.014-3.685-1.618-5.211L273.984,61.789z"/>
			<path fill="#64BFAA" d="M280.261,67.474l3.041,0.197c-0.055,4.159-0.369,8.093-0.949,11.804l-3-0.828
				C279.958,74.856,280.261,71.132,280.261,67.474z M284.644,59.736h3.316v8.408c1.051-1.105,1.947-2.224,2.684-3.355l2.053,2.605
				h9.08v-2.211h-8.369v-3h8.369v-2.605h3.475v2.605h9.002v3h-9.002v2.211h10.738v3.001h-4.58v2.763h3.947v2.843h-3.947v2.605h4.58
				v3h-12.16v-3h4.422v-2.605h-3.947v-2.843h3.947v-2.763h-9.316v2.763h3.631v2.843h-3.631v2.526
				c1.367-0.131,2.736-0.276,4.105-0.434v3.079c-3.605,0.421-7.619,0.75-12.041,0.986l-0.434-3.158
				c1.684-0.052,3.42-0.131,5.211-0.236v-2.764h-4.105v-2.843h4.105v-2.763h-4.105v-1.225c-1.053,1.159-2.291,2.29-3.711,3.396
				v0.435c0,4.158-0.238,7.698-0.711,10.619c1.762,1.579,3.395,3.343,4.895,5.29l-2.092,3.198c-1.211-1.816-2.436-3.396-3.672-4.737
				c-0.869,2.896-2.211,5.843-4.027,8.843l-2.841-2.487c1.921-2.764,3.289-5.737,4.105-8.922c0.686-2.579,1.027-6.514,1.027-11.804
				V59.736z M290.724,83.581h25.582v3.158h-8.527v4.737c0,0.842,0.459,1.264,1.381,1.264h2.25c0.527,0,0.908-0.119,1.145-0.355
				c0.264-0.264,0.447-1.408,0.553-3.435l3.355,1.105c-0.289,2.947-0.764,4.684-1.42,5.211c-0.58,0.526-1.633,0.789-3.158,0.789
				h-4.066c-1.053,0-1.895-0.315-2.527-0.947c-0.658-0.658-0.986-1.526-0.986-2.605v-5.764h-2.922
				c-0.684,2.316-1.578,4.158-2.684,5.526c-1.449,1.711-3.619,3.237-6.516,4.58l-2.408-3.079c2.449-0.975,4.357-2.08,5.725-3.316
				c0.922-1,1.672-2.237,2.25-3.711h-7.025V83.581z"/>
		</g>
	</g>
	<g>
		<polygon fill="#E23473" points="304.942,35.576 299.716,19.499 313.396,9.558 327.075,19.499 321.853,35.576 		"/>
		<circle fill="#E23473" cx="313.397" cy="9.558" r="9.557"/>
		<path fill="#E23473" d="M309.274,19.471c0,5.277-4.279,9.556-9.559,9.556c-5.273,0-9.551-4.278-9.551-9.556
			c0-5.28,4.277-9.557,9.551-9.557C304.995,9.914,309.274,14.19,309.274,19.471z"/>
		<circle fill="#E23473" cx="304.839" cy="35.576" r="9.555"/>
		<path fill="#E23473" d="M336.628,19.471c0,5.277-4.277,9.556-9.553,9.556c-5.279,0-9.557-4.278-9.557-9.556
			c0-5.28,4.277-9.557,9.557-9.557C332.351,9.914,336.628,14.19,336.628,19.471z"/>
		<path fill="#E23473" d="M331.429,35.576c0,5.276-4.277,9.555-9.551,9.555c-5.279,0-9.559-4.278-9.559-9.555
			c0-5.279,4.279-9.557,9.559-9.557C327.151,26.02,331.429,30.297,331.429,35.576z"/>
		<circle fill="#F0D300" cx="313.397" cy="24.121" r="9.557"/>
	</g>
</g>
<g>
</g>
<g>
</g>
<g>
</g>
<g>
</g>
<g>
</g>
<g>
</g>
<g>
</g>
<g>
</g>
<g>
</g>
<g>
</g>
<g>
</g>
<g>
</g>
<g>
</g>
<g>
</g>
<g>
</g>
</svg>
