<?xml version="1.0" encoding="utf-8"?>
<!-- Generator: Adobe Illustrator 16.0.0, SVG Export Plug-In . SVG Version: 6.00 Build 0)  -->
<!DOCTYPE svg PUBLIC "-//W3C//DTD SVG 1.1//EN" "http://www.w3.org/Graphics/SVG/1.1/DTD/svg11.dtd">
<svg version="1.1" id="圖層_1" xmlns="http://www.w3.org/2000/svg" xmlns:xlink="http://www.w3.org/1999/xlink" x="0px" y="0px"
	 width="332.373px" height="429.118px" viewBox="0 0 332.373 429.118" enable-background="new 0 0 332.373 429.118"
	 xml:space="preserve">
<g>
	<g>
		<g>
			<polygon fill="#C9939E" points="980.071,5299.146 932.443,5318.523 904.128,5306.224 952.279,5287.975 			"/>
			<polygon fill="none" stroke="#7A1A28" stroke-width="4" stroke-miterlimit="10" points="980.071,5299.146 932.443,5318.523 
				904.128,5306.224 952.279,5287.975 			"/>
		</g>
		<g>
			<g>
				<polygon fill="#7A1A28" points="984.937,5294.992 921.832,5320.492 897.597,5309.839 961.293,5285.613 				"/>
			</g>
			<path fill="#7A1A28" d="M939.558,5305.621c1.683,0.71,2.735,1.365,3.156,1.965c0.441,0.666,0.108,1.221-1,1.664
				c-0.971,0.389-2.167,0.505-3.591,0.348c-1.092-0.121-2.041-0.354-2.848-0.697c-0.821-0.35-0.959-0.633-0.413-0.848
				c0.336-0.133,0.768-0.153,1.293-0.061c0.516,0.097,1.005,0.191,1.472,0.283c0.604,0.084,1.128,0.039,1.574-0.139
				c0.832-0.331,0.303-0.896-1.586-1.694c-1.816-0.769-3.132-0.992-3.946-0.673c-0.387,0.151-0.48,0.379-0.278,0.684
				c0.221,0.297,0.152,0.516-0.205,0.656c-0.237,0.093-0.512,0.146-0.822,0.161c-0.404,0.015-0.775-0.05-1.113-0.192
				c-0.117-0.051-2.034-0.947-5.753-2.691c-0.948-0.443-0.989-0.832-0.124-1.166l2.928-1.127c0.617-0.237,1.328-0.186,2.134,0.153
				c0.937,0.396,1.103,0.71,0.496,0.946l-1.895,0.734c-0.447,0.173-0.406,0.389,0.126,0.646l1.766,0.834
				c-0.025-0.432,0.209-0.744,0.706-0.938c0.914-0.355,2.166-0.393,3.756-0.109C936.733,5304.597,938.123,5305.017,939.558,5305.621
				z"/>
			<path fill="#7A1A28" d="M944.875,5301.585c2.277,0.948,3.838,1.734,4.684,2.361c1.257,0.927,1.227,1.654-0.089,2.182
				c-1.315,0.525-3.095,0.518-5.335-0.025c-1.497-0.363-3.394-1.027-5.691-1.993c-2.326-0.978-3.886-1.763-4.678-2.354
				c-1.244-0.923-1.193-1.644,0.15-2.16s3.13-0.507,5.354,0.028C940.672,5299.96,942.541,5300.615,944.875,5301.585z
				 M942.596,5302.25c-3.257-1.359-5.298-1.879-6.123-1.561c-0.806,0.313,0.421,1.152,3.681,2.519
				c3.699,1.551,5.954,2.165,6.767,1.841C947.732,5304.726,946.291,5303.792,942.596,5302.25z"/>
			<path fill="#7A1A28" d="M952.498,5298.595c2.271,0.933,3.826,1.708,4.667,2.326c1.252,0.916,1.22,1.639-0.097,2.165
				c-1.315,0.526-3.091,0.524-5.326-0.009c-1.494-0.354-3.385-1.008-5.676-1.959c-2.319-0.963-3.875-1.736-4.664-2.32
				c-1.237-0.912-1.185-1.627,0.159-2.144s3.127-0.513,5.346,0.011C948.307,5296.996,950.171,5297.638,952.498,5298.595z
				 M950.219,5299.261c-3.246-1.34-5.283-1.85-6.108-1.529c-0.806,0.312,0.417,1.141,3.667,2.486
				c3.688,1.526,5.937,2.129,6.75,1.806C955.339,5301.701,953.903,5300.78,950.219,5299.261z"/>
		</g>
	</g>
</g>
<g>
	<g>
		<g>
			<polygon fill="#C9939E" points="980.071,5299.146 932.443,5318.523 904.128,5306.224 952.279,5287.975 			"/>
			<polygon fill="none" stroke="#7A1A28" stroke-width="4" stroke-miterlimit="10" points="980.071,5299.146 932.443,5318.523 
				904.128,5306.224 952.279,5287.975 			"/>
		</g>
		<g>
			<g>
				<polygon fill="#7A1A28" points="984.937,5294.992 921.832,5320.492 897.597,5309.839 961.293,5285.613 				"/>
			</g>
			<path fill="#7A1A28" d="M939.558,5305.621c1.683,0.71,2.735,1.365,3.156,1.965c0.441,0.666,0.108,1.221-1,1.664
				c-0.971,0.389-2.167,0.505-3.591,0.348c-1.092-0.121-2.041-0.354-2.848-0.697c-0.821-0.35-0.959-0.633-0.413-0.848
				c0.336-0.133,0.768-0.153,1.293-0.061c0.516,0.097,1.005,0.191,1.472,0.283c0.604,0.084,1.128,0.039,1.574-0.139
				c0.832-0.331,0.303-0.896-1.586-1.694c-1.816-0.769-3.132-0.992-3.946-0.673c-0.387,0.151-0.48,0.379-0.278,0.684
				c0.221,0.297,0.152,0.516-0.205,0.656c-0.237,0.093-0.512,0.146-0.822,0.161c-0.404,0.015-0.775-0.05-1.113-0.192
				c-0.117-0.051-2.034-0.947-5.753-2.691c-0.948-0.443-0.989-0.832-0.124-1.166l2.928-1.127c0.617-0.237,1.328-0.186,2.134,0.153
				c0.937,0.396,1.103,0.71,0.496,0.946l-1.895,0.734c-0.447,0.173-0.406,0.389,0.126,0.646l1.766,0.834
				c-0.025-0.432,0.209-0.744,0.706-0.938c0.914-0.355,2.166-0.393,3.756-0.109C936.733,5304.597,938.123,5305.017,939.558,5305.621
				z"/>
			<path fill="#7A1A28" d="M944.875,5301.585c2.277,0.948,3.838,1.734,4.684,2.361c1.257,0.927,1.227,1.654-0.089,2.182
				c-1.315,0.525-3.095,0.518-5.335-0.025c-1.497-0.363-3.394-1.027-5.691-1.993c-2.326-0.978-3.886-1.763-4.678-2.354
				c-1.244-0.923-1.193-1.644,0.15-2.16s3.13-0.507,5.354,0.028C940.672,5299.96,942.541,5300.615,944.875,5301.585z
				 M942.596,5302.25c-3.257-1.359-5.298-1.879-6.123-1.561c-0.806,0.313,0.421,1.152,3.681,2.519
				c3.699,1.551,5.954,2.165,6.767,1.841C947.732,5304.726,946.291,5303.792,942.596,5302.25z"/>
			<path fill="#7A1A28" d="M952.498,5298.595c2.271,0.933,3.826,1.708,4.667,2.326c1.252,0.916,1.22,1.639-0.097,2.165
				c-1.315,0.526-3.091,0.524-5.326-0.009c-1.494-0.354-3.385-1.008-5.676-1.959c-2.319-0.963-3.875-1.736-4.664-2.32
				c-1.237-0.912-1.185-1.627,0.159-2.144s3.127-0.513,5.346,0.011C948.307,5296.996,950.171,5297.638,952.498,5298.595z
				 M950.219,5299.261c-3.246-1.34-5.283-1.85-6.108-1.529c-0.806,0.312,0.417,1.141,3.667,2.486
				c3.688,1.526,5.937,2.129,6.75,1.806C955.339,5301.701,953.903,5300.78,950.219,5299.261z"/>
		</g>
	</g>
</g>
<g>
	<g>
		<path fill="#EB7695" d="M166.425,239.611c1.604,0,3.652,0.701,6.634,2.27l150.011,84.8c0.391,0.27,1.295,1.713,1.303,3.794
			c0.002,0.743-0.123,2.535-1.321,3.313L173.01,418.606c-3.241,1.769-5.178,2.523-6.473,2.523c-1.323,0-3.327-0.762-6.69-2.545
			L9.814,333.77c-1.421-0.887-1.864-2.735-1.809-4.063c0.041-0.994,0.401-2.309,1.282-2.739l0.214-0.104l0.208-0.118l150.14-84.872
			C162.799,240.309,164.83,239.611,166.425,239.611 M166.425,231.611c-3.184,0-6.36,1.083-10.424,3.248L5.772,319.782
			c-7.65,3.741-7.742,16.278,0,20.894L156.001,425.6c4.424,2.353,7.495,3.529,10.536,3.529s6.052-1.177,10.357-3.529l150.229-84.925
			c7.651-4.615,6.313-17.152,0-20.894l-150.229-84.923C172.801,232.694,169.609,231.611,166.425,231.611L166.425,231.611z"/>
	</g>
</g>
<g>
	<rect x="154.716" y="163.785" fill="#C70E47" width="22.655" height="171.703"/>
	<path fill="#C70E47" d="M41.662,168.226c-13.522,0-24.528-10.71-24.528-23.877V23.877C17.134,10.71,28.14,0,41.662,0h249.049
		c13.524,0,24.527,10.71,24.527,23.877v120.472c0,13.167-11.003,23.877-24.527,23.877H41.662z"/>
	<path fill="#E23473" d="M305.02,144.349c0,7.543-6.408,13.658-14.309,13.658H41.662c-7.901,0-14.308-6.115-14.308-13.658V23.877
		c0-7.544,6.407-13.66,14.308-13.66h249.049c7.9,0,14.309,6.116,14.309,13.66V144.349z"/>
	<g>
		<rect x="16.501" y="67.363" fill="none" width="299.369" height="164.982"/>
		<path fill="#F7F8F8" d="M38.057,70.934h32.36v3.353H59.084c-0.778,1.676-1.628,3.207-2.551,4.591v24.197h-3.754V83.798
			c-0.268,0.292-0.522,0.559-0.765,0.802c-3.134,3.353-7.179,6.401-12.135,9.146l-2.26-2.879c4.616-2.551,8.467-5.32,11.552-8.309
			c2.162-1.968,4.154-4.725,5.977-8.272H38.057V70.934z M61.088,81.211c3.692,3.158,6.802,6.28,9.329,9.365l-2.879,2.879
			c-2.09-2.988-5.115-6.219-9.074-9.693L61.088,81.211z"/>
		<path fill="#F7F8F8" d="M75.155,68.966h3.061v13.265H94.76v2.624H78.216V98.63h15.342c0.242-0.51,0.449-1.021,0.619-1.531
			l-1.093,0.292c-0.049-0.292-0.097-0.583-0.146-0.875c-1.312,0.414-3.207,0.79-5.685,1.13l-0.364-2.296
			c0.315,0,0.62-0.024,0.911-0.073c0.752-0.948,1.518-2.089,2.295-3.426c-0.923,0.146-2.017,0.292-3.279,0.438l-0.365-2.187
			c0.315,0,0.607-0.012,0.875-0.037c0.777-1.458,1.458-3.048,2.041-4.773l2.332,0.801c-0.51,1.385-1.093,2.637-1.749,3.754
			c0.486-0.048,0.923-0.109,1.312-0.183c0.364-0.704,0.729-1.433,1.093-2.186l2.259,0.838c-1.361,2.697-2.758,4.932-4.191,6.705
			c0.802-0.121,1.531-0.279,2.187-0.474c-0.097-0.51-0.207-1.008-0.328-1.494l1.822-0.619c0.243,0.875,0.461,1.81,0.656,2.806
			c0.097-0.315,0.183-0.644,0.255-0.984c0.413-2.283,0.692-4.932,0.838-7.944v-15.16c4.373,0,8.005-0.729,10.896-2.187l1.858,3.353
			c-2.916,1.021-6.147,1.616-9.693,1.786v5.867h9.547v3.061h-2.915v20.043h-2.916V83.033h-3.717v3.28
			c-0.073,2.819-0.401,5.794-0.984,8.928c-0.583,2.697-1.519,5.26-2.806,7.689l-1.786-1.822H78.216v1.968h-3.061V68.966z
			 M81.423,69.112l2.405,0.328c-0.316,1.482-0.778,2.843-1.385,4.082c0.34-0.048,0.656-0.097,0.947-0.146
			c0.364-0.729,0.705-1.47,1.021-2.223l2.187,0.765c-1.118,2.43-2.393,4.592-3.827,6.487c0.534-0.048,1.033-0.121,1.494-0.219
			c-0.049-0.437-0.097-0.85-0.146-1.239l1.786-0.255c0.267,1.336,0.498,2.782,0.692,4.337l-2.114,0.182
			c-0.024-0.34-0.049-0.668-0.073-0.984c-1.239,0.316-2.964,0.595-5.175,0.838l-0.364-2.332c0.461-0.024,0.911-0.048,1.348-0.073
			c0.705-0.996,1.372-2.041,2.004-3.134c-0.875,0.146-1.871,0.292-2.988,0.438l-0.364-2.187c0.413,0,0.789-0.012,1.129-0.037
			C80.633,72.307,81.107,70.765,81.423,69.112z M81.569,85.438l2.405,0.328c-0.34,1.434-0.838,2.757-1.494,3.972
			c0.389-0.024,0.716-0.061,0.984-0.109c0.34-0.705,0.656-1.421,0.948-2.15l2.332,0.801c-1.118,2.503-2.381,4.738-3.79,6.706
			c0.559-0.073,1.057-0.17,1.494-0.292c-0.024-0.51-0.036-0.984-0.036-1.421l1.786-0.219c0.146,1.361,0.279,2.843,0.401,4.446
			l-2.114,0.146v-0.911c-1.288,0.34-3.037,0.644-5.248,0.911l-0.364-2.296c0.461-0.024,0.923-0.048,1.385-0.073
			c0.752-1.117,1.458-2.283,2.113-3.499c-0.875,0.122-1.871,0.243-2.988,0.364l-0.365-2.186c0.365,0,0.705-0.024,1.021-0.073
			C80.742,88.475,81.252,86.993,81.569,85.438z M89.258,68.966l2.15,0.766c-0.461,1.361-0.96,2.575-1.494,3.644
			c0.486-0.048,0.948-0.109,1.385-0.182c0.34-0.729,0.692-1.458,1.057-2.187l2.259,0.875c-1.312,2.575-2.66,4.737-4.045,6.486
			c0.631-0.073,1.227-0.146,1.786-0.218c-0.098-0.365-0.17-0.705-0.219-1.021l1.822-0.583c0.292,1.263,0.559,2.697,0.801,4.3
			l-1.968,0.51c-0.049-0.413-0.097-0.813-0.146-1.203c-1.336,0.268-3.183,0.523-5.539,0.766l-0.365-2.333
			c0.413,0,0.826-0.012,1.239-0.036c0.704-0.923,1.409-1.98,2.113-3.17c-0.996,0.146-2.138,0.292-3.425,0.437l-0.364-2.187
			c0.388,0,0.765-0.012,1.129-0.036C88.14,72.186,88.748,70.643,89.258,68.966z"/>
		<path fill="#F7F8F8" d="M111.961,75.526h4.373v-6.705h3.499v6.705h4.227v3.207h-4.227v7.033c1.239-0.631,2.502-1.36,3.79-2.187
			v3.717c-1.239,0.753-2.502,1.434-3.79,2.041v9.803c0,1.336-0.292,2.271-0.875,2.806c-0.559,0.559-1.58,0.838-3.061,0.838H113.2
			l-0.802-3.644c0.996,0.169,1.822,0.255,2.478,0.255c0.971,0,1.458-0.292,1.458-0.875v-7.616c-1.288,0.535-2.612,0.997-3.972,1.385
			l-0.546-3.79c1.458-0.243,2.964-0.631,4.519-1.166v-8.6h-4.373V75.526z M124.351,84.782h21.428v3.061h-9.693v3.425h8.527v2.916
			h-8.527v4.665c1.166,0.121,2.502,0.182,4.009,0.182c2.429,0,4.47-0.085,6.122-0.255l-0.984,3.607
			c-7.848,0-12.536-0.413-14.066-1.239c-1.458-0.681-2.709-2.004-3.754-3.972c-1.142,1.919-2.575,3.79-4.3,5.612l-2.697-2.369
			c1.871-1.992,3.255-3.777,4.154-5.357c0.753-1.336,1.263-3.085,1.531-5.248l3.353,0.438c-0.219,1.506-0.474,2.794-0.765,3.863
			c1.044,1.944,2.283,3.243,3.717,3.899c0.097,0.048,0.206,0.097,0.328,0.146V87.843h-8.382V84.782z M126.027,70.206h17.492v12.536
			h-17.492V70.206z M129.38,75.234h10.787v-2.259H129.38V75.234z M140.167,79.972v-2.113H129.38v2.113H140.167z"/>
		<path fill="#F7F8F8" d="M167.024,83.543l1.786,3.061c-1.895,0.608-4.033,1.069-6.414,1.385v2.77h9.912V83.98h3.79v6.778h6.851
			v3.353h-6.851v9.11h-3.79v-9.11h-10.094c-0.268,2.138-1.045,3.923-2.333,5.357c-1.458,1.627-3.851,2.879-7.179,3.753l-1.968-3.098
			c3.158-0.753,5.296-1.713,6.414-2.879c0.826-0.875,1.36-1.919,1.604-3.134h-9.621v-3.353h9.766V88.39
			c-2.113,0.17-4.373,0.255-6.778,0.255l-1.093-3.244C157.318,85.401,162.651,84.782,167.024,83.543z M151.829,69.549h28.716v13.557
			h-28.716V69.549z M155.473,74.943H176.9v-2.187h-21.428V74.943z M176.9,79.899v-2.332h-21.428v2.332H176.9z"/>
		<path fill="#F7F8F8" d="M194.137,68.966l3.39,0.474c-0.413,1.92-1.009,3.681-1.786,5.284h5.285v7.835
			c1.093-1.822,1.931-3.607,2.514-5.357c0.753-2.089,1.36-4.883,1.822-8.381l3.681,0.619c-0.341,1.944-0.669,3.657-0.983,5.139
			h11.479c0,13.143-0.207,20.93-0.619,23.359c-0.316,1.919-0.924,3.158-1.822,3.717c-1.045,0.752-2.965,1.129-5.758,1.129
			c-0.802,0-1.737-0.049-2.807-0.146l-0.655-3.645c1.142,0.146,2.308,0.219,3.498,0.219c2.284,0,3.56-0.765,3.827-2.296
			c0.461-1.943,0.74-8.272,0.838-18.986h-8.893c-0.072,0.268-0.146,0.51-0.219,0.729c-0.801,2.673-2.186,5.516-4.154,8.527
			l-1.748-2.15v15.269h-3.207v-1.822h-6.852v2.842h-3.207V74.724h4.629C193.189,72.902,193.773,70.983,194.137,68.966z
			 M190.967,85.146h6.852v-7.361h-6.852V85.146z M190.967,95.423h6.852v-7.361h-6.852V95.423z M208.387,82.96
			c2.088,3.402,3.717,6.329,4.883,8.783l-3.498,2.441c-1.045-2.721-2.504-5.831-4.373-9.329L208.387,82.96z"/>
		<path fill="#F7F8F8" d="M224.057,78.733h3.207v-9.475h3.206v9.475h3.207v3.207h-3.207v9.001c0.898-0.365,1.773-0.766,2.624-1.203
			v3.316c-2.43,1.264-5.284,2.515-8.564,3.753l-0.91-3.753c1.238-0.267,2.453-0.583,3.645-0.947V81.939h-3.207V78.733z
			 M257.582,73.631v2.916h-7.799c0.024,5.588,0.316,10.155,0.875,13.702c1.336-2.575,2.539-6.073,3.607-10.496l3.171,1.349
			c-1.579,5.442-3.171,9.511-4.774,12.208c-0.315,0.486-0.619,0.947-0.91,1.385c0.219,0.705,0.474,1.348,0.766,1.931
			c0.825,1.725,1.457,2.587,1.895,2.587c0.315,0,0.692-1.725,1.129-5.175l2.916,2.187c-0.754,3.255-1.457,5.211-2.113,5.867
			c-0.486,0.559-1.094,0.838-1.822,0.838c-1.336,0-2.686-1.191-4.045-3.571c-0.341-0.583-0.656-1.215-0.947-1.895
			c-1.92,2.064-4.203,3.887-6.852,5.466l-2.15-2.806c3.158-1.58,5.746-3.656,7.762-6.231c-0.34-1.19-0.619-2.478-0.838-3.863
			c-0.655-3.79-0.996-8.284-1.02-13.483h-8.382v5.175h6.997c-0.244,7.92-0.486,12.196-0.729,12.827
			c-0.218,1.021-0.571,1.737-1.057,2.15c-0.389,0.486-1.105,0.765-2.149,0.838c-1.094,0-2.018-0.061-2.77-0.182l-0.584-3.316
			c1.652,0.17,2.611,0.255,2.879,0.255c0.413,0,0.68-0.255,0.803-0.766c0.242-0.388,0.424-3.401,0.546-9.037h-3.936
			c0,2.842-0.328,5.807-0.983,8.892c-0.826,3.231-2.188,6.414-4.082,9.548l-2.807-2.515c1.871-2.527,3.158-5.187,3.863-7.98
			c0.534-2.891,0.802-5.563,0.802-8.018V73.631h11.589v-4.665h3.352v4.665h4.082c-0.656-0.923-1.506-1.931-2.551-3.024l2.369-1.494
			c1.408,1.166,2.514,2.174,3.316,3.024l-2.15,1.494H257.582z"/>
		<path fill="#F7F8F8" d="M277.479,68.529c0.825,1.361,1.591,2.939,2.296,4.737h15.561v3.353h-15.451v4.956h13.119v13.52
			c0,1.434-0.316,2.502-0.947,3.207c-0.535,0.656-1.301,0.984-2.296,0.984h-5.065l-0.875-3.79l4.52,0.182
			c0.777-0.048,1.166-0.607,1.166-1.676v-9.074h-9.621v18.294h-3.79V84.928h-9.475v14.504h-3.499V81.575h12.974v-4.956h-15.159
			v-3.353h15.269c-0.534-1.093-1.202-2.271-2.005-3.535L277.479,68.529z"/>
	</g>
</g>
<g>
</g>
<g>
</g>
<g>
</g>
<g>
</g>
<g>
</g>
<g>
</g>
<g>
</g>
<g>
</g>
<g>
</g>
<g>
</g>
<g>
</g>
<g>
</g>
<g>
</g>
<g>
</g>
<g>
</g>
</svg>
