<?xml version="1.0" encoding="utf-8"?>
<!-- Generator: Adobe Illustrator 15.0.0, SVG Export Plug-In . SVG Version: 6.00 Build 0)  -->
<!DOCTYPE svg PUBLIC "-//W3C//DTD SVG 1.1//EN" "http://www.w3.org/Graphics/SVG/1.1/DTD/svg11.dtd">
<svg version="1.1" id="Layer_1" xmlns="http://www.w3.org/2000/svg" xmlns:xlink="http://www.w3.org/1999/xlink" x="0px" y="0px"
	 width="841.89px" height="595.28px" viewBox="0 0 841.89 595.28" enable-background="new 0 0 841.89 595.28" xml:space="preserve">
<path fill="#0E9B94" d="M1232.132,5886.016c-15.242,66.187-81.257,107.473-147.438,92.228
	c-66.182-15.247-107.47-81.257-92.225-147.44c15.246-66.18,81.257-107.469,147.436-92.224
	C1206.086,5753.827,1247.379,5819.836,1232.132,5886.016"/>
<path fill="#C72623" d="M1232.728,5876.77c-7.269,31.555-66.353,44.877-131.97,29.76c-65.619-15.115-112.919-52.945-105.646-84.5
	c7.268-31.553,66.353-44.877,131.969-29.764C1192.699,5807.385,1239.999,5845.215,1232.728,5876.77"/>
<path fill="#63B7A3" d="M1108.751,5974.719l-2.445-0.562l0.031-0.134l2.443,0.561c0.282,0.064,0.564-0.111,0.626-0.393
	c0.067-0.281-0.11-0.561-0.391-0.627l-2.444-0.564l0.025-0.117l2.445,0.566c0.28,0.062,0.562-0.111,0.627-0.391
	c0.063-0.285-0.109-0.566-0.391-0.629l-2.446-0.566l-7.978-7.211h-0.001l16.266-60.709l9.434-40.93l-0.009,0.068l-7.219,44.127
	l-3.197,8.318c-0.107,0.283,0.036,0.607,0.318,0.715c0.287,0.113,0.609-0.033,0.718-0.318l2.671-6.945l-1.414,7.988
	c-0.054,0.301,0.147,0.59,0.448,0.643c0.304,0.053,0.591-0.148,0.645-0.451l1.471-8.312l0.01,0.002l-0.673,7.803
	c-0.025,0.307,0.201,0.574,0.508,0.604c0.303,0.025,0.571-0.203,0.602-0.508l0.746-8.689l12.026-52.184l-1.845-2.719l-10.374-6.002
	l-0.011-0.004c0,0,4.641-3.553,5.597-5.205c1.599-2.768,3.101-9.271,2.875-12.461c-0.136-1.908-1.315-5.877-2.758-7.129
	c-2.041-1.771-7.923-3.127-10.535-2.428c-1.846,0.492-4.64,3.549-5.597,5.203c-1.599,2.768-3.096,9.273-2.871,12.463
	c0.136,1.904,2.75,7.129,2.75,7.129l0.005,0.004l-11.974,0.844l-2.849,1.643l-11.998,52.045l-3.178,8.279
	c-0.111,0.285,0.032,0.607,0.317,0.719c0.285,0.107,0.606-0.033,0.716-0.32l2.813-7.32l0.011,0.002l-2.317,8.129
	c-0.083,0.293,0.088,0.604,0.382,0.686c0.295,0.082,0.604-0.088,0.687-0.383l2.222-7.801l-0.639,7.414
	c-0.026,0.305,0.199,0.576,0.506,0.604c0.305,0.025,0.573-0.203,0.6-0.506l0.76-8.793l12.852-42.924l0.017-0.045l-9.428,40.912
	l-11.95,61.701l-10.373,2.99l-2.347-0.541c-0.282-0.064-0.563,0.113-0.626,0.391c-0.068,0.285,0.108,0.564,0.389,0.631l2.349,0.541
	l-0.025,0.117l-2.346-0.543c-0.285-0.064-0.569,0.111-0.631,0.395c-0.065,0.279,0.109,0.561,0.393,0.627l2.347,0.541l-0.028,0.135
	l-2.349-0.543c-0.283-0.062-0.563,0.113-0.629,0.395c-0.062,0.279,0.112,0.562,0.392,0.627l9.018,2.078h0.003l7.527,1.734l1.94-8.42
	l0.008,0.002l14.513-52.994l7.48,1.723l-10.205,53.986l0.024,0.006l-1.942,8.422l14.2,3.273l0.002-0.004l2.444,0.562
	c0.28,0.064,0.56-0.109,0.628-0.393C1109.208,5975.064,1109.032,5974.783,1108.751,5974.719"/>
<path fill="#040000" d="M1114.364,5835.625c0,0-3.114,0.07-4.351-1.68c-1.233-1.752-0.121-4.66-0.121-4.66s3.112-0.072,4.347,1.68
	C1115.476,5832.715,1114.364,5835.625,1114.364,5835.625"/>
<path fill="#FFFFFF" d="M1112.61,5831.512c0,0-0.792,0.016-1.105-0.432c-0.314-0.445-0.032-1.184-0.032-1.184
	s0.792-0.018,1.106,0.43C1112.893,5830.77,1112.61,5831.512,1112.61,5831.512"/>
<path fill="#040000" d="M1119.528,5836.814c0,0,2.77,1.426,4.646,0.393c1.876-1.033,2.145-4.135,2.145-4.135
	s-2.766-1.428-4.643-0.395C1119.803,5833.713,1119.528,5836.814,1119.528,5836.814"/>
<path fill="#FFFFFF" d="M1122.907,5833.881c0,0,0.701,0.359,1.181,0.102c0.476-0.264,0.545-1.053,0.545-1.053
	s-0.705-0.363-1.179-0.102C1122.973,5833.092,1122.907,5833.881,1122.907,5833.881"/>
<path fill="#0E9B94" d="M1170.192,5957.586c-4.181,18.133-41.771,24.951-83.965,15.232c-42.195-9.721-73.015-32.301-68.839-50.434
	c4.181-18.133,41.772-24.953,83.965-15.23C1143.547,5916.875,1174.369,5939.453,1170.192,5957.586"/>
<g opacity="0.3">
	<g>
		<defs>
			<rect id="SVGID_1_" x="742.056" y="5938.938" width="404.99" height="621.509"/>
		</defs>
		<clipPath id="SVGID_2_">
			<use xlink:href="#SVGID_1_"  overflow="visible"/>
		</clipPath>
		<path clip-path="url(#SVGID_2_)" fill="#FFFFFF" d="M1073.405,6560.447H742.057l281.345-617.064c0,0,3.713-12.26,66.422,3.947
			c57.875,14.959,57.225,28.422,57.225,28.422L1073.405,6560.447z"/>
	</g>
</g>
<path fill="#EA6866" d="M1234.784,5847.168c-4.715-51.453-41.784-96.359-94.878-108.59
	c-53.095-12.234-106.071,11.928-132.821,56.133c-64.004,2.1-109.994,18.439-113.851,35.18c-4.093,17.768,37.5,43.627,102.225,66.914
	c29.624,10.656,64.084,20.777,101.239,29.336c37.147,8.561,72.565,14.535,103.868,17.914c68.391,7.379,117.103,2.324,121.198-15.443
	C1325.622,5911.871,1291.415,5877.057,1234.784,5847.168 M1031.509,5850.223c-15.357-3.541-24.938-18.855-21.398-34.213
	c3.537-15.357,18.851-24.941,34.213-21.402c15.355,3.54,24.938,18.852,21.398,34.213
	C1062.187,5844.176,1046.867,5853.76,1031.509,5850.223 M1108.999,5872.736c-17.803-4.102-28.91-21.857-24.811-39.662
	c4.101-17.802,21.859-28.912,39.664-24.812c17.807,4.102,28.912,21.861,24.814,39.664
	C1144.565,5865.733,1126.802,5876.84,1108.999,5872.736 M1189.185,5886.545c-15.357-3.537-24.938-18.857-21.401-34.213
	c3.537-15.359,18.853-24.938,34.213-21.4c15.356,3.539,24.938,18.852,21.401,34.216
	C1219.859,5880.498,1204.54,5890.086,1189.185,5886.545"/>
<path fill="#E8413E" d="M893.233,5829.891c-4.092,17.768,37.5,43.627,102.227,66.914c29.624,10.656,64.084,20.777,101.238,29.336
	c37.147,8.562,72.565,14.535,103.867,17.914c68.393,7.379,117.104,2.324,121.199-15.443c0.9-3.909-27.544,9.494-65.695,11.27
	c-43.511,2.031-100.594-7.932-157.68-21.084c-60.662-13.973-120.236-32.468-158.727-53.77
	C910.174,5848.707,894.071,5826.26,893.233,5829.891"/>
<path fill="#0E9B94" d="M919.909,5832.438c-0.392,1.707-2.097,2.771-3.805,2.379c-1.709-0.396-2.775-2.098-2.381-3.807
	c0.396-1.707,2.097-2.773,3.805-2.383C919.238,5829.021,920.304,5830.727,919.909,5832.438"/>
<path fill="#0E9B94" d="M944.562,5850.459c-0.391,1.707-2.096,2.775-3.804,2.383c-1.709-0.396-2.776-2.102-2.381-3.809
	c0.391-1.709,2.098-2.775,3.807-2.381C943.891,5847.045,944.956,5848.75,944.562,5850.459"/>
<path fill="#0E9B94" d="M970.116,5864.576c-0.394,1.707-2.1,2.773-3.808,2.379c-1.709-0.393-2.774-2.098-2.381-3.805
	c0.396-1.709,2.099-2.773,3.807-2.383C969.441,5861.162,970.51,5862.865,970.116,5864.576"/>
<path fill="#0E9B94" d="M996.569,5874.783c-0.395,1.711-2.102,2.775-3.807,2.381c-1.71-0.395-2.775-2.094-2.381-3.803
	c0.394-1.709,2.097-2.775,3.806-2.381C995.896,5871.373,996.964,5873.076,996.569,5874.783"/>
<path fill="#0E9B94" d="M1023.319,5883.691c-0.392,1.707-2.099,2.775-3.805,2.379c-1.708-0.391-2.771-2.098-2.38-3.803
	c0.391-1.709,2.096-2.779,3.806-2.383C1022.648,5880.279,1023.715,5881.982,1023.319,5883.691"/>
<path fill="#0E9B94" d="M1050.073,5892.598c-0.394,1.707-2.099,2.773-3.809,2.381c-1.706-0.395-2.771-2.1-2.378-3.807
	c0.395-1.709,2.097-2.773,3.805-2.383C1049.399,5889.186,1050.468,5890.887,1050.073,5892.598"/>
<path fill="#0E9B94" d="M1077.126,5900.199c-0.394,1.711-2.098,2.775-3.808,2.385c-1.706-0.395-2.771-2.1-2.378-3.811
	c0.394-1.707,2.097-2.771,3.805-2.379C1076.453,5896.789,1077.521,5898.494,1077.126,5900.199"/>
<path fill="#0E9B94" d="M1104.181,5907.805c-0.395,1.709-2.1,2.773-3.808,2.383c-1.71-0.393-2.772-2.098-2.379-3.809
	c0.39-1.709,2.096-2.773,3.804-2.381C1103.506,5904.393,1104.573,5906.096,1104.181,5907.805"/>
<path fill="#0E9B94" d="M1131.831,5912.805c-0.392,1.707-2.097,2.775-3.807,2.381c-1.707-0.395-2.773-2.1-2.381-3.805
	c0.394-1.709,2.1-2.775,3.808-2.383C1131.16,5909.393,1132.226,5911.096,1131.831,5912.805"/>
<path fill="#0E9B94" d="M1159.487,5917.803c-0.395,1.709-2.101,2.773-3.809,2.383c-1.708-0.395-2.773-2.1-2.381-3.809
	c0.394-1.709,2.098-2.773,3.808-2.379C1158.813,5914.391,1159.88,5916.094,1159.487,5917.803"/>
<path fill="#0E9B94" d="M1187.138,5922.803c-0.394,1.705-2.096,2.773-3.807,2.379c-1.707-0.393-2.773-2.098-2.38-3.807
	c0.391-1.707,2.098-2.771,3.805-2.379C1186.466,5919.387,1187.532,5921.094,1187.138,5922.803"/>
<path fill="#0E9B94" d="M1215.093,5926.496c-0.396,1.711-2.101,2.773-3.807,2.383c-1.71-0.393-2.775-2.096-2.382-3.807
	c0.393-1.707,2.097-2.771,3.807-2.381C1214.419,5923.084,1215.487,5924.791,1215.093,5926.496"/>
<path fill="#0E9B94" d="M1243.646,5927.588c-0.394,1.709-2.1,2.775-3.807,2.383c-1.712-0.395-2.773-2.098-2.381-3.807
	c0.392-1.709,2.097-2.773,3.804-2.381C1242.97,5924.178,1244.038,5925.881,1243.646,5927.588"/>
<path fill="#0E9B94" d="M1272.798,5926.074c-0.396,1.709-2.097,2.775-3.808,2.385c-1.708-0.395-2.772-2.102-2.377-3.809
	c0.391-1.711,2.098-2.775,3.806-2.381C1272.127,5922.66,1273.191,5924.365,1272.798,5926.074"/>
<path fill="#0E9B94" d="M1302.853,5920.652c-0.394,1.709-2.096,2.775-3.809,2.381c-1.706-0.393-2.771-2.098-2.381-3.807
	c0.395-1.707,2.101-2.773,3.806-2.381C1302.179,5917.24,1303.244,5918.945,1302.853,5920.652"/>
<path fill="#EA6866" d="M1082.96,5678.137c0,0,15.184,38.559,0.203,60.785l31.915-3.472c0,0-27.643-20.161-23.498-58.209
	L1082.96,5678.137z"/>
<path fill="#C72623" d="M1093.411,5673.783c-0.979,4.24-5.214,6.889-9.457,5.912c-4.245-0.979-6.893-5.213-5.916-9.457
	c0.978-4.244,5.213-6.896,9.459-5.914C1091.74,5665.301,1094.39,5669.535,1093.411,5673.783"/>
<path fill="#EA6866" d="M1217.288,5709.08c0,0-30.527,28.029-26.781,54.57l-27.176-17.086c0,0,33.679-6.035,46.6-42.062
	L1217.288,5709.08z"/>
<path fill="#C72623" d="M1209.798,5700.592c-0.979,4.242,1.672,8.48,5.913,9.459c4.244,0.977,8.479-1.674,9.457-5.916
	c0.979-4.248-1.673-8.482-5.915-9.459C1215.009,5693.697,1210.773,5696.348,1209.798,5700.592"/>
<rect x="-538.704" y="-6078.095" fill="none" width="1920.017" height="12752.038"/>
<path fill="#0E9B94" d="M751.962,238.411c-15.242,66.187-81.257,107.472-147.438,92.228c-66.182-15.248-107.47-81.257-92.225-147.44
	c15.246-66.18,81.257-107.469,147.436-92.224C725.916,106.223,767.209,172.231,751.962,238.411"/>
<path fill="#C72623" d="M752.558,229.165c-7.269,31.555-66.353,44.877-131.97,29.76c-65.619-15.115-112.919-52.945-105.646-84.5
	c7.268-31.553,66.353-44.877,131.969-29.764C712.529,159.78,759.829,197.61,752.558,229.165"/>
<path fill="#63B7A3" d="M628.581,327.113l-2.445-0.561l0.031-0.135l2.443,0.561c0.282,0.064,0.564-0.111,0.626-0.393
	c0.067-0.281-0.11-0.561-0.391-0.627l-2.444-0.564l0.025-0.117l2.445,0.566c0.28,0.062,0.562-0.111,0.627-0.391
	c0.063-0.285-0.109-0.566-0.391-0.629l-2.446-0.566l-7.978-7.211h-0.001l16.266-60.708l9.434-40.93l-0.009,0.068l-7.219,44.127
	l-3.197,8.318c-0.107,0.283,0.036,0.607,0.318,0.715c0.287,0.113,0.609-0.033,0.718-0.318l2.671-6.945l-1.414,7.988
	c-0.054,0.301,0.147,0.59,0.448,0.643c0.304,0.053,0.591-0.148,0.645-0.451l1.471-8.312l0.01,0.002l-0.673,7.803
	c-0.025,0.307,0.201,0.574,0.508,0.604c0.303,0.025,0.571-0.203,0.602-0.508l0.746-8.689l12.026-52.184l-1.845-2.719l-10.374-6.002
	l-0.011-0.004c0,0,4.641-3.553,5.597-5.205c1.599-2.768,3.101-9.271,2.875-12.461c-0.136-1.908-1.315-5.877-2.758-7.129
	c-2.041-1.771-7.923-3.127-10.535-2.428c-1.846,0.492-4.64,3.549-5.597,5.203c-1.599,2.768-3.096,9.273-2.871,12.463
	c0.136,1.904,2.75,7.129,2.75,7.129l0.005,0.004l-11.974,0.844l-2.849,1.643l-11.998,52.045l-3.178,8.279
	c-0.111,0.285,0.032,0.607,0.317,0.719c0.285,0.107,0.606-0.033,0.716-0.32l2.813-7.32l0.011,0.002l-2.317,8.129
	c-0.083,0.293,0.088,0.604,0.382,0.686c0.295,0.082,0.604-0.088,0.687-0.383l2.222-7.801l-0.639,7.414
	c-0.026,0.305,0.199,0.576,0.506,0.604c0.305,0.025,0.573-0.203,0.6-0.506l0.76-8.793l12.852-42.924l0.017-0.045l-9.428,40.912
	l-11.95,61.7l-10.373,2.99l-2.347-0.541c-0.282-0.064-0.563,0.113-0.626,0.391c-0.068,0.285,0.108,0.564,0.389,0.631l2.349,0.541
	l-0.025,0.117l-2.346-0.543c-0.285-0.064-0.569,0.111-0.631,0.395c-0.065,0.279,0.109,0.561,0.393,0.627l2.347,0.541l-0.028,0.135
	l-2.349-0.543c-0.283-0.062-0.563,0.113-0.629,0.395c-0.062,0.279,0.112,0.562,0.392,0.627l9.018,2.078h0.003l7.527,1.734l1.94-8.42
	l0.008,0.002l14.513-52.993l7.48,1.723l-10.205,53.985l0.024,0.006l-1.942,8.422l14.2,3.273l0.002-0.004l2.444,0.562
	c0.28,0.064,0.56-0.109,0.628-0.393C629.038,327.459,628.862,327.178,628.581,327.113"/>
<path fill="#040000" d="M634.194,188.021c0,0-3.114,0.07-4.351-1.68c-1.233-1.752-0.121-4.66-0.121-4.66s3.112-0.072,4.347,1.68
	C635.306,185.11,634.194,188.021,634.194,188.021"/>
<path fill="#FFFFFF" d="M632.44,183.907c0,0-0.792,0.016-1.105-0.432c-0.314-0.445-0.032-1.184-0.032-1.184s0.792-0.018,1.106,0.43
	C632.723,183.165,632.44,183.907,632.44,183.907"/>
<path fill="#040000" d="M639.358,189.21c0,0,2.77,1.426,4.646,0.393c1.876-1.033,2.145-4.135,2.145-4.135s-2.766-1.428-4.643-0.395
	C639.633,186.108,639.358,189.21,639.358,189.21"/>
<path fill="#FFFFFF" d="M642.737,186.276c0,0,0.701,0.359,1.181,0.102c0.476-0.264,0.545-1.053,0.545-1.053
	s-0.705-0.363-1.179-0.102C642.803,185.487,642.737,186.276,642.737,186.276"/>
<path fill="#0E9B94" d="M690.022,309.98c-4.181,18.133-41.771,24.951-83.965,15.232c-42.195-9.721-73.015-32.3-68.839-50.433
	c4.181-18.133,41.772-24.953,83.965-15.23C663.377,269.271,694.199,291.849,690.022,309.98"/>
<path fill="#EA6866" d="M754.614,199.563c-4.715-51.453-41.784-96.359-94.878-108.59c-53.095-12.234-106.071,11.928-132.821,56.133
	c-64.004,2.1-109.994,18.439-113.851,35.18c-4.093,17.768,37.5,43.627,102.225,66.914c29.624,10.656,64.084,20.777,101.239,29.336
	c37.147,8.561,72.565,14.535,103.868,17.914c68.391,7.379,117.103,2.324,121.198-15.443
	C845.452,264.267,811.245,229.452,754.614,199.563 M551.339,202.618c-15.357-3.541-24.938-18.855-21.398-34.213
	c3.537-15.357,18.851-24.941,34.213-21.402c15.355,3.54,24.938,18.852,21.398,34.213
	C582.017,196.571,566.697,206.155,551.339,202.618 M628.829,225.132c-17.803-4.102-28.91-21.857-24.811-39.662
	c4.101-17.802,21.859-28.912,39.664-24.812c17.807,4.102,28.912,21.861,24.814,39.664
	C664.396,218.129,646.632,229.235,628.829,225.132 M709.015,238.94c-15.357-3.537-24.938-18.857-21.401-34.213
	c3.537-15.359,18.853-24.938,34.213-21.4c15.356,3.539,24.938,18.852,21.401,34.216C739.689,232.894,724.37,242.481,709.015,238.94"
	/>
<path fill="#E8413E" d="M413.063,182.286c-4.092,17.768,37.5,43.627,102.227,66.914c29.624,10.656,64.084,20.777,101.238,29.336
	c37.147,8.562,72.565,14.535,103.867,17.914c68.393,7.379,117.104,2.324,121.199-15.443c0.9-3.909-27.544,9.494-65.695,11.27
	c-43.511,2.031-100.594-7.932-157.68-21.084c-60.662-13.973-120.236-32.468-158.727-53.77
	C430.004,201.103,413.901,178.655,413.063,182.286"/>
<path fill="#0E9B94" d="M439.739,184.833c-0.392,1.707-2.097,2.771-3.805,2.379c-1.709-0.396-2.775-2.098-2.381-3.807
	c0.396-1.707,2.097-2.773,3.805-2.383C439.068,181.417,440.134,183.122,439.739,184.833"/>
<path fill="#0E9B94" d="M464.392,202.854c-0.391,1.707-2.096,2.775-3.804,2.383c-1.709-0.396-2.776-2.102-2.381-3.809
	c0.391-1.709,2.098-2.775,3.807-2.381C463.721,199.44,464.786,201.146,464.392,202.854"/>
<path fill="#0E9B94" d="M489.946,216.972c-0.394,1.707-2.1,2.773-3.808,2.379c-1.709-0.393-2.774-2.098-2.381-3.805
	c0.396-1.709,2.099-2.773,3.807-2.383C489.271,213.558,490.34,215.261,489.946,216.972"/>
<path fill="#0E9B94" d="M516.399,227.179c-0.395,1.711-2.102,2.775-3.807,2.381c-1.71-0.395-2.775-2.094-2.381-3.803
	c0.394-1.709,2.097-2.775,3.806-2.381C515.726,223.769,516.794,225.472,516.399,227.179"/>
<path fill="#0E9B94" d="M543.149,236.087c-0.392,1.707-2.099,2.775-3.805,2.379c-1.708-0.391-2.771-2.098-2.38-3.803
	c0.391-1.709,2.096-2.779,3.806-2.383C542.479,232.675,543.545,234.378,543.149,236.087"/>
<path fill="#0E9B94" d="M569.903,244.993c-0.394,1.707-2.099,2.773-3.809,2.381c-1.706-0.395-2.771-2.1-2.378-3.807
	c0.395-1.709,2.097-2.773,3.805-2.383C569.229,241.581,570.298,243.282,569.903,244.993"/>
<path fill="#0E9B94" d="M596.956,252.595c-0.394,1.711-2.098,2.775-3.808,2.385c-1.706-0.395-2.771-2.1-2.378-3.811
	c0.394-1.707,2.097-2.771,3.805-2.379C596.283,249.185,597.351,250.89,596.956,252.595"/>
<path fill="#0E9B94" d="M624.011,260.2c-0.395,1.709-2.1,2.773-3.808,2.383c-1.71-0.393-2.772-2.098-2.379-3.809
	c0.39-1.709,2.096-2.773,3.804-2.381C623.336,256.788,624.403,258.491,624.011,260.2"/>
<path fill="#0E9B94" d="M651.661,265.2c-0.392,1.707-2.097,2.775-3.807,2.381c-1.707-0.395-2.773-2.1-2.381-3.805
	c0.394-1.709,2.1-2.775,3.808-2.383C650.99,261.788,652.056,263.491,651.661,265.2"/>
<path fill="#0E9B94" d="M679.317,270.198c-0.395,1.709-2.101,2.773-3.809,2.383c-1.708-0.395-2.773-2.1-2.381-3.809
	c0.394-1.709,2.098-2.773,3.808-2.379C678.644,266.786,679.71,268.489,679.317,270.198"/>
<path fill="#0E9B94" d="M706.968,275.198c-0.394,1.705-2.096,2.773-3.807,2.379c-1.707-0.393-2.773-2.098-2.38-3.807
	c0.391-1.707,2.098-2.771,3.805-2.379C706.296,271.782,707.362,273.489,706.968,275.198"/>
<path fill="#0E9B94" d="M734.923,278.892c-0.396,1.711-2.101,2.773-3.807,2.383c-1.71-0.393-2.775-2.096-2.382-3.807
	c0.393-1.707,2.097-2.771,3.807-2.381C734.249,275.479,735.317,277.187,734.923,278.892"/>
<path fill="#0E9B94" d="M763.476,279.983c-0.394,1.709-2.1,2.775-3.807,2.383c-1.712-0.395-2.773-2.098-2.381-3.807
	c0.392-1.709,2.097-2.773,3.804-2.381C762.8,276.573,763.868,278.276,763.476,279.983"/>
<path fill="#0E9B94" d="M792.628,278.47c-0.396,1.709-2.097,2.775-3.808,2.385c-1.708-0.395-2.772-2.102-2.377-3.809
	c0.391-1.711,2.098-2.775,3.806-2.381C791.957,275.056,793.021,276.761,792.628,278.47"/>
<path fill="#0E9B94" d="M822.683,273.048c-0.394,1.709-2.096,2.775-3.809,2.381c-1.706-0.393-2.771-2.098-2.381-3.807
	c0.395-1.707,2.101-2.773,3.806-2.381C822.009,269.636,823.074,271.341,822.683,273.048"/>
<path fill="#EA6866" d="M602.79,30.532c0,0,15.184,38.559,0.203,60.785l31.915-3.472c0,0-27.643-20.161-23.498-58.209L602.79,30.532
	z"/>
<path fill="#C72623" d="M613.241,26.179c-0.979,4.24-5.214,6.889-9.457,5.912c-4.245-0.979-6.893-5.213-5.916-9.457
	c0.978-4.244,5.213-6.896,9.459-5.914C611.57,17.696,614.22,21.931,613.241,26.179"/>
<path fill="#EA6866" d="M737.118,61.476c0,0-30.527,28.029-26.781,54.57L683.161,98.96c0,0,33.679-6.035,46.6-42.062L737.118,61.476
	z"/>
<path fill="#C72623" d="M729.628,52.987c-0.979,4.242,1.672,8.48,5.913,9.459c4.244,0.977,8.479-1.674,9.457-5.916
	c0.979-4.248-1.673-8.482-5.915-9.459C734.839,46.093,730.604,48.743,729.628,52.987"/>
</svg>
