<?xml version="1.0" encoding="utf-8"?>
<!-- Generator: Adobe Illustrator 16.0.0, SVG Export Plug-In . SVG Version: 6.00 Build 0)  -->
<!DOCTYPE svg PUBLIC "-//W3C//DTD SVG 1.1//EN" "http://www.w3.org/Graphics/SVG/1.1/DTD/svg11.dtd">
<svg version="1.1" id="圖層_1" xmlns="http://www.w3.org/2000/svg" xmlns:xlink="http://www.w3.org/1999/xlink" x="0px" y="0px"
	 width="332.371px" height="197.519px" viewBox="0 0 332.371 197.519" enable-background="new 0 0 332.371 197.519"
	 xml:space="preserve">
<g>
	<path fill="#F0D300" d="M166.427,7c1.801,0,3.932,0.715,7.113,2.39l150.047,84.822c0.726,0.464,1.774,2.227,1.784,4.642
		c0.004,0.916-0.167,3.139-1.803,4.178l-150.075,84.84c-3.443,1.88-5.46,2.647-6.954,2.647c-1.519,0-3.6-0.773-7.171-2.668
		L9.305,103.017c-1.802-1.108-2.366-3.358-2.3-4.96c0.055-1.33,0.568-2.975,1.844-3.599l0.188-0.092l0.182-0.103l150.147-84.88
		C162.517,7.713,164.631,7,166.427,7 M166.426,0c-3.184,0-6.36,1.082-10.424,3.245L5.775,88.17c-7.653,3.742-7.747,16.278,0,20.893
		l150.227,84.926c4.425,2.354,7.496,3.53,10.538,3.53c3.041,0,6.053-1.177,10.355-3.529l150.229-84.927
		c7.648-4.614,6.314-17.15,0-20.893L176.895,3.246C172.8,1.082,169.609,0,166.426,0L166.426,0z"/>
</g>
<g>
</g>
<g>
</g>
<g>
</g>
<g>
</g>
<g>
</g>
<g>
</g>
<g>
</g>
<g>
</g>
<g>
</g>
<g>
</g>
<g>
</g>
<g>
</g>
<g>
</g>
<g>
</g>
<g>
</g>
</svg>
